<svg width="229" height="50" viewBox="0 0 229 50" fill="none" xmlns="http://www.w3.org/2000/svg">
<g clip-path="url(#clip0_2043_408)">
<path d="M42.481 6.82339C42.7074 6.30734 42.7074 6.30734 43.953 3.26835C40.9523 2.92431 39.3103 2.63762 36.7059 2.69495C33.3087 0.97477 29.5153 0 25.4954 0C11.8502 0 0.80957 11.1812 0.80957 25C0.80957 38.8188 11.8502 50 25.4954 50C39.1405 50 50.1811 38.8188 50.1811 25C50.1811 17.8326 47.1803 11.4105 42.481 6.82339Z" fill="white"/>
<path d="M40.6674 10.3199C40.6108 10.2626 40.5542 10.2626 40.4976 10.2626C40.4409 10.2626 40.3843 10.3199 40.3277 10.3199C39.3086 11.524 38.1196 12.6135 36.8173 13.4736C34.2129 15.1364 31.2687 16.0539 28.1547 16.0539C22.3796 16.0539 19.0957 13.1869 16.4346 11.1227C16.378 11.0653 16.3214 11.008 16.3214 10.9506C16.3214 10.8933 16.378 10.836 16.4346 10.7786C20.5678 7.56763 23.9649 5.5034 27.4186 4.29927C27.5318 4.24193 27.5885 4.18459 27.5885 4.06991C27.5885 3.95524 27.4753 3.8979 27.362 3.84056C26.7392 3.78322 26.1164 3.78322 25.4936 3.78322C13.8868 3.72588 4.48804 13.2442 4.48804 24.9988C4.48804 31.4782 7.31898 37.2695 11.8485 41.1686C11.9051 41.2259 11.9617 41.2259 12.075 41.2259C12.1316 41.2259 12.1882 41.1686 12.2448 41.0539L13.0941 38.3015C13.1507 38.1869 13.2639 38.1295 13.3772 38.1295C24.5877 40.5951 29.4003 34.4599 28.6077 30.6181C27.9282 27.3497 22.6627 24.4827 14.9625 28.8978C14.9059 28.9552 14.8493 28.9552 14.7927 28.8978C14.7927 28.8978 14.736 28.8978 14.736 28.8406C14.6794 28.7832 14.6228 28.7259 14.6228 28.6112L17.2272 15.1364C17.2272 15.0791 17.2839 15.0217 17.3405 14.9644C17.3971 14.9071 17.5103 14.9644 17.567 14.9644C18.303 15.4231 20.5111 16.8566 22.8891 18.2901C22.9458 18.3475 23.0023 18.4047 23.0023 18.5195C22.9458 19.0928 22.606 21.2144 22.4928 22.1319C22.4928 22.1891 22.4928 22.3039 22.5495 22.3612C22.606 22.4186 22.6627 22.4186 22.7759 22.4186C35.6849 18.9208 38.4027 27.1203 38.0629 31.0195C37.2703 39.9071 27.5885 44.6089 18.9824 44.7236C18.8692 44.7236 18.756 44.7809 18.756 44.8956C18.756 45.0103 18.8126 45.125 18.9258 45.125C21.0208 45.8131 23.2289 46.2144 25.4936 46.2144C37.1004 46.2144 46.4991 36.6961 46.4991 24.9415C46.4991 19.3222 44.2345 14.1043 40.6674 10.3199Z" fill="#E61801"/>
<path d="M20.0618 10.8943C27.0259 16.2268 37.2172 13.5319 40.6144 5.21765C34.3297 8.25664 27.3656 10.2062 20.0618 10.8943Z" fill="#78B617"/>
<path d="M20.0618 10.8943C27.3656 10.2635 34.2731 8.31399 40.6144 5.21765C33.537 4.4149 26.1766 6.19242 20.0618 10.8943Z" fill="#28A62A"/>
<path d="M126.559 19.4962C123.898 19.4962 122.313 21.2164 121.011 23.3379H120.954C120.954 21.159 120.105 19.4962 117.67 19.4962C114.783 19.4962 113.254 21.6751 112.235 23.5099H112.178C112.348 22.8218 112.518 21.8471 112.688 21.0443C112.744 20.7577 112.631 20.471 112.461 20.299C112.291 20.0696 112.008 19.9549 111.725 19.9549H108.838L106.233 34.6911C106.176 34.9205 106.233 35.2072 106.403 35.4366C106.573 35.6086 106.799 35.7233 107.082 35.7233H110.14L110.366 34.4045C111.895 25.6315 113.99 23.2233 115.688 23.2233C116.877 23.2233 117.047 24.3701 116.764 25.9182L115.179 34.5191C115.122 34.8058 115.179 35.0926 115.405 35.3218C115.575 35.5512 115.858 35.6659 116.141 35.6659H119.142L119.369 34.3471C120.897 25.6315 122.992 23.1659 124.691 23.1659C125.823 23.1659 125.993 24.2554 125.71 25.8609L124.125 34.6911C124.068 34.9205 124.125 35.1498 124.295 35.3792C124.464 35.5512 124.691 35.6659 124.917 35.6659H128.031L129.787 25.6889C129.956 24.8861 130.013 24.1407 130.013 23.5099C129.956 20.8723 128.711 19.4962 126.559 19.4962ZM143.885 16.1705L145.243 16.3999C145.64 16.4572 145.98 16.5145 146.093 15.8838L146.546 14.1636C146.659 13.6476 146.489 13.5329 145.98 13.4182L144.734 13.1889C144.451 13.1889 143.998 13.0742 143.885 13.7049L143.375 15.4824C143.318 15.8838 143.432 16.1132 143.885 16.1705ZM104.251 19.9549H98.3064C93.8902 19.9549 90.9461 21.8471 90.9461 25.4022C90.9461 27.2943 92.2482 28.4985 93.5505 28.6132V28.6705C93.041 28.8426 92.4748 29.5307 91.8519 30.276C90.7762 31.6522 89.9836 32.5696 89.3041 32.5696C89.1908 32.5696 89.0776 32.6842 89.021 32.799L88.6813 35.2646C88.6813 35.3792 88.6813 35.4939 88.7945 35.5512C88.8512 35.6086 88.9644 35.6659 89.0776 35.6659H90.3232C92.3616 35.6659 93.041 34.8632 95.0226 32.3402C96.5513 30.276 97.1175 29.6453 98.08 29.6453H98.7594L97.7969 35.2072C97.7969 35.3218 97.7969 35.4366 97.8536 35.4939C97.9101 35.6086 98.0233 35.6086 98.1367 35.6086H101.59C101.76 35.6086 101.93 35.4939 101.93 35.3218L104.591 20.299C104.591 20.1843 104.591 20.0696 104.535 20.0122C104.478 20.0122 104.365 19.9549 104.251 19.9549ZM99.3256 26.8357H97.1741C95.8152 26.8357 95.1924 26.377 95.1924 25.4595C95.1924 23.9114 96.155 23.1086 98.0233 23.1086H100.062L99.3256 26.8357ZM93.8902 12.6728C110.423 11.9847 136.524 15.0811 136.524 15.0811C136.864 15.1384 137.147 14.9664 137.26 14.6797L137.543 13.8196L137.996 12.3861C138.053 12.2714 137.996 12.2141 137.94 12.0994C137.883 12.0421 137.826 11.9847 137.713 11.9274C134.486 11.4687 110.649 8.37234 93.3241 8.77372C77.0179 9.17509 63.3161 12.4434 59.6359 13.4182C59.3528 13.4755 59.1263 13.7049 59.0697 14.049L58.6733 16.1705C58.6733 16.2852 58.6733 16.3999 58.7866 16.4572C58.8432 16.5145 58.9564 16.5719 59.0697 16.5145C62.0139 15.8265 66.147 15.1384 71.5824 14.4503L67.9588 34.9778C67.8456 35.3218 67.8456 35.7233 68.525 35.7233H72.0354C72.2618 35.7233 72.5449 35.6659 72.6582 35.0926L76.0552 15.2531C76.0552 15.1957 76.2818 14.1636 77.4142 13.8769C78.8862 13.7049 81.4341 13.5902 82.9627 13.4182L79.1693 34.9778C79.0561 35.7233 79.3958 35.6659 79.6789 35.6659H83.3592C83.6423 35.6659 84.0951 35.6086 84.2085 34.9205L87.7754 14.221C87.7754 14.221 88.0019 13.1315 89.1343 12.9022C90.9461 12.8448 92.0785 12.7301 93.8902 12.6728ZM139.582 15.5971L141.11 15.8265C141.507 15.8838 141.846 15.9412 142.016 15.3104L142.526 13.5329C142.639 12.9595 142.469 12.8448 141.96 12.7301L140.544 12.5581C140.261 12.5008 139.808 12.4434 139.638 13.0742L139.129 14.909C138.959 15.2531 139.072 15.4824 139.582 15.5971ZM145.527 23.6246C145.527 21.0443 143.771 19.5535 140.771 19.5535C135.788 19.5535 131.825 23.9114 131.825 29.8173C131.825 33.5443 133.863 36.1246 137.77 36.1246C140.827 36.1246 142.809 34.9205 143.998 33.831L142.356 31.0214C141.393 31.8815 140.035 32.6842 138.393 32.6842C136.694 32.6842 136.015 31.5948 135.958 29.8173C141.167 29.2439 145.527 27.4664 145.527 23.6246ZM136.241 27.1223C136.807 24.8287 138.11 22.7646 140.091 22.7646C141.054 22.7646 141.563 23.1659 141.563 24.0834C141.507 25.7462 139.355 26.8357 136.241 27.1223ZM157.813 19.4962C155.095 19.4962 153.68 21.3884 152.377 23.6246H152.321C152.491 23.0512 152.604 22.5352 152.717 21.9618C152.83 21.4458 152.717 20.9297 152.377 20.5283C152.038 20.1269 151.585 19.8976 151.075 19.8976H149.093L144.96 42.7186H147.282C148.301 42.7186 149.207 41.9733 149.377 40.9411L150.283 35.8379C150.622 35.9526 151.302 36.0673 152.434 36.0673C157.813 36.0673 161.72 31.6522 161.72 24.8287C161.833 21.6178 160.247 19.4962 157.813 19.4962ZM152.547 32.971C151.641 32.971 151.188 32.8562 150.962 32.799L151.132 31.9389C152.321 26.1476 154.302 23.2233 156.171 23.2233C157.133 23.2233 157.586 24.1407 157.586 25.5742C157.473 30.1614 155.265 32.971 152.547 32.971ZM222.811 19.4962C217.036 19.4962 213.016 24.1407 213.016 30.9067C213.016 34.1178 214.658 36.0673 217.036 36.0673C219.584 36.0673 221.113 34.1751 222.302 31.8815H222.358C222.189 32.5696 222.075 33.4297 221.961 34.2324C221.905 34.5765 222.019 34.9778 222.302 35.2646C222.528 35.5512 222.867 35.7233 223.264 35.7233H225.926C225.982 34.5765 226.152 31.9962 226.888 27.6384L228.19 20.471C227.51 20.1269 225.642 19.4962 222.811 19.4962ZM223.547 23.7393C222.471 29.6453 220.433 32.4549 218.734 32.4549C217.772 32.4549 217.319 31.7095 217.319 30.1614C217.319 25.7463 219.64 22.6498 222.189 22.6498C222.811 22.6498 223.377 22.7646 223.66 22.8218L223.547 23.7393ZM207.58 29.4733C207.128 28.5558 206.675 27.9251 206.222 27.5237L213.072 19.9549H209.336C208.713 19.9549 208.09 20.2416 207.638 20.7577L202.825 26.377H201.976L202.882 21.2164C202.938 20.9297 202.882 20.5856 202.654 20.3563C202.485 20.1269 202.145 19.9549 201.863 19.9549H198.861L196.144 35.7233H199.145C199.823 35.7233 200.39 35.2072 200.503 34.5765L201.466 29.2439H201.919C202.825 29.2439 203.391 30.2186 204.353 32.3402C205.485 34.8058 206.052 35.7233 208.034 35.7233H209.676L210.241 32.5696H209.902C209.166 32.5696 208.544 31.5948 207.58 29.4733ZM190.708 20.9297C190.085 24.9434 188.047 27.581 186.065 27.581C185.046 27.581 184.707 26.8357 184.99 25.1154L185.5 22.0191C185.555 21.503 185.442 20.987 185.103 20.5856C184.764 20.1843 184.31 19.9549 183.801 19.9549H181.705L180.744 25.2874C180.63 25.9755 180.573 26.6636 180.573 27.237C180.573 29.8746 181.819 31.3082 184.027 31.3082C186.802 31.3082 188.614 29.4733 189.746 27.4664H189.802C189.35 29.8746 188.727 33.4297 188.501 35.6659H192.52C192.577 34.5191 192.86 31.9389 193.596 27.581L194.954 19.8976H190.822L190.708 20.9297ZM172.137 19.4962C167.098 19.4962 163.305 24.026 163.305 29.4733C163.305 33.0857 165.513 36.0673 169.533 36.0673C174.685 36.0673 178.252 31.7668 178.252 26.0902C178.309 22.3632 176.044 19.4962 172.137 19.4962ZM169.929 32.8562C168.344 32.8562 167.551 31.4802 167.551 29.4159C167.551 26.4916 169.193 22.7646 171.798 22.7646C173.383 22.7646 174.176 23.9686 174.176 26.1476C174.176 29.0146 172.704 32.8562 169.929 32.8562Z" fill="#E61801"/>
</g>
<defs>
<clipPath id="clip0_2043_408">
<rect width="227.381" height="50" fill="white" transform="translate(0.80957)"/>
</clipPath>
</defs>
</svg>
