<svg width="146" height="32" viewBox="0 0 146 32" fill="none" xmlns="http://www.w3.org/2000/svg">
<g clip-path="url(#clip0_2045_7)">
<path fill-rule="evenodd" clip-rule="evenodd" d="M26.7356 4.23595C26.7176 4.2773 26.6995 4.31859 26.6783 4.36697C29.6858 7.30275 31.6063 11.4129 31.6063 16C31.6063 24.844 24.5404 32 15.8075 32C7.07456 32 0.00854492 24.844 0.00854492 16C0.00854492 7.15596 7.07456 0 15.8075 0C18.3802 0 20.808 0.623853 22.9822 1.72477C24.3334 1.69502 25.2798 1.80997 26.6129 1.97186C26.9242 2.00967 27.2567 2.05005 27.6204 2.09174C26.9399 3.7518 26.8403 3.99497 26.7356 4.23595ZM25.4088 6.5681C25.445 6.5681 25.4812 6.5681 25.5175 6.60479C27.8004 9.02681 29.2498 12.3663 29.2498 15.9626C29.2498 23.4855 23.2346 29.5773 15.8063 29.5773C14.3568 29.5773 12.9436 29.3204 11.6028 28.88C11.5304 28.88 11.4942 28.8067 11.4942 28.7332C11.4942 28.6598 11.5666 28.6231 11.6391 28.6231C17.147 28.5497 23.3433 25.5406 23.8506 19.8525C24.068 17.3571 22.3287 12.1094 14.0669 14.3479C13.9944 14.3479 13.9582 14.3479 13.922 14.3112C13.8857 14.2746 13.8857 14.2011 13.8857 14.1645C13.9199 13.8872 13.9865 13.4381 14.051 13.0027C14.1231 12.5159 14.1927 12.0462 14.2118 11.8525C14.2118 11.7791 14.1756 11.7424 14.1394 11.7057C13.0118 11.026 11.9439 10.3463 11.2747 9.9203C11.0406 9.7713 10.8553 9.65334 10.7332 9.57727C10.7222 9.57727 10.7079 9.5739 10.6923 9.57023C10.6564 9.56177 10.6135 9.55169 10.5883 9.57727C10.552 9.61397 10.5157 9.65067 10.5157 9.68736L8.84892 18.3112C8.84892 18.3846 8.88508 18.4212 8.92128 18.4579C8.92128 18.4946 8.95763 18.4947 8.95763 18.4947C8.99386 18.5314 9.0301 18.5314 9.06634 18.4947C13.9944 15.669 17.3643 17.5039 17.7992 19.5956C18.3065 22.0544 15.2264 25.9809 8.05172 24.4029C7.97925 24.4029 7.90678 24.4397 7.87054 24.513L7.32701 26.2746C7.29077 26.3479 7.25453 26.3846 7.2183 26.3846C7.14583 26.3846 7.10959 26.3846 7.07335 26.3479C4.17447 23.8525 2.36267 20.1461 2.36267 15.9993C2.36267 8.47635 8.37785 2.38461 15.8063 2.42131C16.2048 2.42131 16.6034 2.42131 17.002 2.458C17.0745 2.4947 17.147 2.5314 17.147 2.60479C17.147 2.67819 17.1107 2.71489 17.0383 2.75158C14.8279 3.52222 12.6537 4.84333 10.0085 6.89837C9.97225 6.93506 9.936 6.97178 9.936 7.00846C9.936 7.04516 9.97223 7.08186 10.0085 7.11855C10.113 7.19966 10.2191 7.2827 10.3269 7.36714C11.9756 8.65804 14.0402 10.2746 17.5093 10.2746C19.5023 10.2746 21.3866 9.68736 23.0534 8.62315C23.8869 8.07269 24.6479 7.37544 25.3 6.60479C25.3182 6.60479 25.3363 6.59562 25.3544 6.58645C25.3725 6.57727 25.3906 6.5681 25.4088 6.5681ZM12.33 6.97232C16.787 10.3852 23.3095 8.6604 25.4836 3.33929C20.9541 2.82553 16.2434 3.96315 12.33 6.97232Z" fill="white"/>
<path d="M80.4883 12.4776C78.7852 12.4776 77.7706 13.5785 76.9371 14.9363H76.9008C76.9008 13.5418 76.3573 12.4776 74.7992 12.4776C72.9511 12.4776 71.9728 13.8721 71.3205 15.0464H71.2843C71.393 14.606 71.5017 13.9822 71.6104 13.4684C71.6467 13.2849 71.5742 13.1014 71.4655 12.9913C71.3568 12.8446 71.1756 12.7712 70.9944 12.7712H69.1464L67.4795 22.2023C67.4432 22.3492 67.4795 22.5326 67.5882 22.6794C67.697 22.7895 67.8419 22.8629 68.023 22.8629H69.9798L70.1248 22.0189C71.1031 16.4042 72.4438 14.8629 73.5309 14.8629C74.2918 14.8629 74.4006 15.5969 74.2194 16.5876L73.2048 22.0922C73.1686 22.2757 73.2048 22.4593 73.3498 22.606C73.4585 22.7528 73.6397 22.8262 73.8208 22.8262H75.7413L75.8863 21.9822C76.8646 16.4042 78.2054 14.8262 79.2925 14.8262C80.0172 14.8262 80.1259 15.5235 79.9447 16.551L78.9301 22.2023C78.8938 22.3492 78.9301 22.4959 79.0388 22.6427C79.1475 22.7528 79.2925 22.8262 79.4374 22.8262H81.4304L82.5537 16.4409C82.6624 15.9271 82.6986 15.45 82.6986 15.0464C82.6624 13.3583 81.8652 12.4776 80.4883 12.4776ZM91.5764 10.3491L92.4461 10.4959C92.6998 10.5326 92.9172 10.5693 92.9897 10.1657L93.2796 9.06474C93.352 8.73446 93.2433 8.66107 92.9172 8.58768L92.12 8.44089C91.9388 8.44089 91.649 8.36749 91.5764 8.77116L91.2503 9.90877C91.2141 10.1657 91.2866 10.3124 91.5764 10.3491ZM66.2112 12.7712H62.4064C59.5801 12.7712 57.6958 13.9822 57.6958 16.2574C57.6958 17.4684 58.5292 18.2391 59.3626 18.3124V18.3492C59.0365 18.4593 58.6742 18.8996 58.2755 19.3767C57.5871 20.2574 57.0798 20.8446 56.6449 20.8446C56.5725 20.8446 56.5 20.9179 56.4637 20.9914L56.2464 22.5694C56.2464 22.6427 56.2464 22.7161 56.3188 22.7528C56.3551 22.7895 56.4275 22.8262 56.5 22.8262H57.2972C58.6017 22.8262 59.0365 22.3124 60.3048 20.6977C61.2832 19.3767 61.6455 18.973 62.2615 18.973H62.6963L62.0803 22.5326C62.0803 22.606 62.0803 22.6794 62.1166 22.7161C62.1528 22.7895 62.2253 22.7895 62.2978 22.7895H64.5082C64.6169 22.7895 64.7256 22.7161 64.7256 22.606L66.4287 12.9913C66.4287 12.918 66.4287 12.8446 66.3924 12.8079C66.3562 12.8079 66.2837 12.7712 66.2112 12.7712ZM63.0587 17.1748H61.6817C60.8121 17.1748 60.4135 16.8813 60.4135 16.2941C60.4135 15.3033 61.0295 14.7895 62.2253 14.7895H63.5298L63.0587 17.1748ZM59.5801 8.11061C70.161 7.67024 86.8658 9.6519 86.8658 9.6519C87.0832 9.68859 87.2643 9.5785 87.3369 9.39501L87.5181 8.84456L87.8079 7.92713C87.8442 7.85373 87.8079 7.81703 87.7717 7.74364C87.7354 7.70694 87.6992 7.67024 87.6267 7.63355C85.5613 7.33997 70.3059 5.35832 59.2177 5.6152C48.7818 5.87208 40.0126 7.96382 37.6573 8.58768C37.4761 8.62437 37.3311 8.77116 37.2949 8.99135L37.0413 10.3491C37.0413 10.4225 37.0413 10.4959 37.1137 10.5326C37.15 10.5693 37.2224 10.606 37.2949 10.5693C39.1792 10.129 41.8244 9.68859 45.3031 9.24822L42.984 22.3858C42.9115 22.606 42.9115 22.8629 43.3463 22.8629H45.593C45.7379 22.8629 45.9191 22.8262 45.9916 22.4593L48.1657 9.76198C48.1657 9.72529 48.3107 9.06474 49.0354 8.88125C49.9775 8.77117 51.6081 8.69776 52.5865 8.58768L50.1587 22.3858C50.0862 22.8629 50.3037 22.8262 50.4848 22.8262H52.8402C53.0214 22.8262 53.3112 22.7895 53.3837 22.3492L55.6666 9.10144C55.6666 9.10144 55.8115 8.40419 56.5363 8.2574C57.6958 8.2207 58.4205 8.14731 59.5801 8.11061ZM88.8225 9.98217L89.8009 10.129C90.0545 10.1657 90.272 10.2024 90.3807 9.79868L90.7068 8.66107C90.7792 8.2941 90.6706 8.2207 90.3444 8.14731L89.4385 8.03721C89.2573 8.00052 88.9674 7.96382 88.8588 8.36749L88.5326 9.5418C88.424 9.76198 88.4964 9.90877 88.8225 9.98217ZM92.6273 15.1198C92.6273 13.4684 91.504 12.5143 89.5835 12.5143C86.3947 12.5143 83.8582 15.3033 83.8582 19.0831C83.8582 21.4684 85.1627 23.1198 87.663 23.1198C89.6197 23.1198 90.888 22.3492 91.649 21.6519L90.5981 19.8537C89.9821 20.4042 89.1124 20.9179 88.0615 20.9179C86.9745 20.9179 86.5396 20.2207 86.5034 19.0831C89.8371 18.7161 92.6273 17.5785 92.6273 15.1198ZM86.6846 17.3583C87.047 15.8904 87.8804 14.5694 89.1486 14.5694C89.7647 14.5694 90.0908 14.8262 90.0908 15.4134C90.0545 16.4776 88.6776 17.1748 86.6846 17.3583ZM100.49 12.4776C98.7512 12.4776 97.8453 13.6886 97.0118 15.1198H96.9757C97.0843 14.7528 97.1568 14.4225 97.2293 14.0556C97.3018 13.7253 97.2293 13.395 97.0118 13.1381C96.7945 12.8813 96.5046 12.7345 96.1784 12.7345H94.9101L92.265 27.3399H93.7506C94.4029 27.3399 94.9827 26.8629 95.0913 26.2023L95.6711 22.9363C95.8886 23.0097 96.3234 23.0831 97.0481 23.0831C100.49 23.0831 102.991 20.2574 102.991 15.8904C103.063 13.8354 102.049 12.4776 100.49 12.4776ZM97.1206 21.1015C96.5408 21.1015 96.2509 21.028 96.1059 20.9914L96.2147 20.4409C96.9757 16.7345 98.2439 14.8629 99.4397 14.8629C100.056 14.8629 100.346 15.45 100.346 16.3675C100.273 19.3033 98.8599 21.1015 97.1206 21.1015ZM142.09 12.4776C138.394 12.4776 135.821 15.45 135.821 19.7803C135.821 21.8354 136.871 23.0831 138.394 23.0831C140.024 23.0831 141.002 21.8721 141.764 20.4042H141.799C141.691 20.8446 141.618 21.395 141.546 21.9088C141.51 22.129 141.582 22.3858 141.764 22.5694C141.908 22.7528 142.125 22.8629 142.379 22.8629H144.083C144.119 22.129 144.228 20.4776 144.698 17.6886L145.532 13.1014C145.097 12.8813 143.901 12.4776 142.09 12.4776ZM142.56 15.1932C141.872 18.973 140.567 20.7712 139.48 20.7712C138.864 20.7712 138.574 20.2941 138.574 19.3033C138.574 16.4776 140.06 14.4959 141.691 14.4959C142.09 14.4959 142.452 14.5694 142.633 14.606L142.56 15.1932ZM132.342 18.8629C132.052 18.2757 131.762 17.8721 131.472 17.6152L135.856 12.7712H133.466C133.066 12.7712 132.668 12.9546 132.378 13.2849L129.298 16.8813H128.755L129.335 13.5785C129.37 13.395 129.335 13.1748 129.189 13.028C129.081 12.8813 128.863 12.7712 128.682 12.7712H126.762L125.022 22.8629H126.943C127.377 22.8629 127.74 22.5326 127.812 22.129L128.429 18.7161H128.718C129.298 18.7161 129.661 19.3399 130.276 20.6977C131.001 22.2757 131.364 22.8629 132.632 22.8629H133.683L134.045 20.8446H133.828C133.357 20.8446 132.958 20.2207 132.342 18.8629ZM121.543 13.395C121.145 15.9638 119.84 17.6519 118.572 17.6519C117.92 17.6519 117.703 17.1748 117.884 16.0739L118.21 14.0922C118.246 13.762 118.173 13.4317 117.956 13.1748C117.739 12.918 117.449 12.7712 117.123 12.7712H115.782L115.166 16.184C115.094 16.6244 115.057 17.0647 115.057 17.4317C115.057 19.1198 115.854 20.0372 117.268 20.0372C119.044 20.0372 120.203 18.8629 120.928 17.5785H120.964C120.674 19.1198 120.276 21.395 120.131 22.8262H122.703C122.74 22.0922 122.921 20.4409 123.392 17.6519L124.261 12.7345H121.616L121.543 13.395ZM109.658 12.4776C106.433 12.4776 104.005 15.3767 104.005 18.8629C104.005 21.1748 105.419 23.0831 107.991 23.0831C111.289 23.0831 113.572 20.3308 113.572 16.6977C113.608 14.3124 112.159 12.4776 109.658 12.4776ZM108.245 21.028C107.23 21.028 106.723 20.1473 106.723 18.8262C106.723 16.9546 107.774 14.5694 109.441 14.5694C110.455 14.5694 110.963 15.3399 110.963 16.7345C110.963 18.5694 110.021 21.028 108.245 21.028Z" fill="white"/>
</g>
<defs>
<clipPath id="clip0_2045_7">
<rect width="145.524" height="32" fill="white" transform="translate(0.00854492)"/>
</clipPath>
</defs>
</svg>
