<svg width="117" height="24" viewBox="0 0 117 24" fill="none" xmlns="http://www.w3.org/2000/svg">
<path fill-rule="evenodd" clip-rule="evenodd" d="M1.00557 7.80869C1.07897 8.36656 1.41663 8.7556 2.00386 8.95379C2.51769 9.1373 3.86098 9.15199 4.71981 8.98316C6.7164 8.60879 9.26352 7.27284 10.8637 5.76806C11.6785 4.99731 12.141 4.40274 12.486 3.67604C12.7062 3.22094 12.7502 3.03009 12.7796 2.53828C12.8016 2.02445 12.7796 1.89966 12.6328 1.61339C12.3832 1.12892 12.1043 0.996794 11.2381 0.967432C9.60118 0.901368 7.76608 1.28307 6.22459 2.01711C5.11619 2.55296 4.25002 3.16955 3.28109 4.13849C2.26078 5.1588 1.82035 5.7387 1.31386 6.70029C0.968864 7.36093 0.954183 7.39763 1.00557 7.80869ZM5.03547 19.5166C4.23537 19.4432 3.42058 19.2157 2.69388 18.8633C2.16537 18.6064 2.06261 18.5257 1.82038 18.1587C0.778038 16.5878 0.124742 14.738 0.0439978 13.1231C-4.467e-05 12.3744 0.00729573 12.3304 0.139423 12.3304C0.227508 12.3304 0.337614 12.4331 0.425699 12.602C1.07165 13.7985 2.78197 14.393 4.82994 14.1288C6.50355 13.9086 8.14781 13.3801 9.90216 12.4845C13.6091 10.6054 16.3103 7.88943 17.0811 5.29093C17.3233 4.46881 17.1618 3.62466 16.6407 3.02275C16.4645 2.80987 16.3911 2.65573 16.4058 2.53094C16.4278 2.35477 16.4498 2.36211 17.1618 2.84658C18.5712 3.78615 19.8925 5.27625 20.7146 6.8471C20.9935 7.38295 21.0155 7.45635 21.0155 8.0289C21.0155 9.52634 20.5017 10.9871 19.4153 12.602C16.9857 16.2061 11.9795 19.1349 7.56791 19.524C6.63568 19.6047 5.91632 19.6047 5.03547 19.5166ZM9.036 22.8932C7.8542 22.6877 6.11452 22.0784 6.11452 21.8729C6.11452 21.7628 6.59165 21.7848 7.25228 21.917C8.03771 22.0784 9.60121 22.0784 10.5188 21.917C14.7248 21.1756 18.7474 18.467 20.7807 15.0096C21.0596 14.5398 21.6762 13.0938 21.6762 12.9176C21.6762 12.8809 21.7422 12.8442 21.823 12.8442C22.0138 12.8442 22.0138 13.0204 21.8303 13.982C21.3679 16.3676 20.3035 18.3495 18.6079 19.9791C16.9416 21.572 15.0772 22.5189 12.8163 22.9006C11.7153 23.0914 10.1371 23.0841 9.036 22.8932Z" fill="white"/>
<path fill-rule="evenodd" clip-rule="evenodd" d="M34.5587 20.8746C34.155 20.8085 33.098 20.4635 32.7236 20.28C30.7564 19.2817 29.5158 17.3438 29.0901 14.6059C28.9066 13.4461 28.8919 10.8623 29.0534 9.43089C29.5085 5.43771 30.8371 3.33836 33.5457 2.28134C33.7586 2.20059 34.1476 2.08315 34.4119 2.01708C34.8964 1.90698 35.2414 1.85559 37.8252 1.50326C40.9155 1.09219 41.3119 1.04081 41.3265 1.05549C41.3339 1.06283 41.3853 1.71613 41.4367 2.50155L41.5321 3.94027L40.9081 4.02101C40.6547 4.05876 40.1002 4.13216 39.5182 4.2092C39.3081 4.23701 39.094 4.26535 38.8895 4.29261C34.8817 4.82846 34.566 4.88718 33.6852 5.31292C32.474 5.90016 31.8207 6.86175 31.5638 8.43994C31.395 9.44557 31.3363 10.2016 31.4243 10.2016C31.461 10.2016 31.6152 10.0108 31.7693 9.78323C32.4153 8.80696 33.5237 7.97015 34.7055 7.58111C35.2414 7.3976 35.3882 7.38292 36.5039 7.37558C37.95 7.37558 38.317 7.45632 39.4254 8.00685C41.0109 8.79962 42.1707 10.275 42.5671 12C42.7432 12.7341 42.7359 14.437 42.5671 15.3546C42.0606 18.0412 40.4897 19.8836 38.0454 20.6617C37.4802 20.8452 37.2967 20.8599 36.1002 20.8819C35.3735 20.8966 34.6835 20.8893 34.5587 20.8746ZM37.3554 17.8724C38.8969 17.3879 39.741 16.162 39.9245 14.1655C40.064 12.5799 39.3887 11.1706 38.2142 10.576C37.4949 10.2163 36.9443 10.1062 35.88 10.0989C34.2137 10.0989 33.1273 10.4806 32.2171 11.3908L31.718 11.8899L31.7473 13.3066C31.7767 14.5912 31.7987 14.7674 31.9675 15.2665C32.4373 16.6098 33.2081 17.4466 34.3458 17.843C35.2487 18.1586 36.4158 18.1733 37.3554 17.8724ZM60.5437 20.8746C60.4723 20.8616 60.3147 20.8141 60.1776 20.7729L60.1253 20.7571L59.8464 20.6764V17.6521H60.6025C61.2704 17.6521 61.3805 17.6301 61.5861 17.4833C61.865 17.2851 62.2834 16.463 62.4082 15.8831C62.6284 14.8114 62.856 11.1118 62.856 8.57206V7.19207H71.7379V20.6984H69.0219V9.98142L67.062 9.9961L65.0948 10.0181L65.0507 11.7431C64.9406 15.795 64.5002 18.4596 63.7662 19.568C63.2523 20.3387 62.3421 20.8305 61.3292 20.8819C60.9768 20.8966 60.6245 20.8966 60.5437 20.8746ZM75.1218 18.3495C75.3714 19.6047 76.3917 20.5516 77.7937 20.8452C78.3002 20.948 79.5994 20.926 80.0545 20.8085C80.7886 20.6177 81.3464 20.28 81.941 19.6781C82.242 19.3698 82.5576 18.9808 82.631 18.8046C82.7118 18.6358 82.8072 18.5036 82.8439 18.5183C82.8879 18.533 82.9613 18.7238 83.0054 18.9441C83.2476 20.1699 84.1505 20.7498 85.9269 20.8305L86.7857 20.8599V18.3715L86.3893 18.3275C85.8828 18.2761 85.5745 18.1146 85.413 17.8136C85.2882 17.6008 85.2809 17.3292 85.3029 14.4444C85.3249 12.3671 85.3029 11.1265 85.2442 10.7375C85.0313 9.2694 84.4368 8.28579 83.3724 7.66185C81.9263 6.8177 79.2691 6.64153 77.7937 7.30217C76.2669 7.97015 75.2539 9.29876 74.9383 11.0311L74.8869 11.3027H77.5001L77.6322 10.9357C77.8891 10.2237 78.491 9.82727 79.5334 9.6878C80.216 9.59972 81.0748 9.67312 81.53 9.86397C81.9557 10.0401 82.3594 10.4732 82.5282 10.9137C82.6163 11.1412 82.6751 11.3908 82.6604 11.4715C82.6457 11.5816 82.2053 11.7872 80.4729 12.4772C77.5001 13.659 76.6266 14.1141 75.9072 14.8848C75.0777 15.773 74.8282 16.8594 75.1218 18.3495ZM82.3814 17.4172C82.0364 17.7329 81.6768 17.9237 81.1409 18.0852C80.5684 18.2541 79.2544 18.2394 78.6819 18.0559C77.9258 17.8136 77.6102 17.3879 77.6102 16.6025C77.6102 16.162 77.6395 16.0593 77.823 15.8024C78.102 15.4207 78.4029 15.1931 79.0562 14.8701C79.6141 14.5912 82.4769 13.4314 82.6017 13.4314C82.6457 13.4314 82.6751 14.1141 82.6751 15.2959V17.1603L82.3814 17.4172ZM45.7528 7.19207H48.4687V11.8606C48.4687 14.9729 48.4908 16.5217 48.5421 16.4997C48.5862 16.485 49.9001 14.393 51.4636 11.8532L54.3117 7.22877L55.7578 7.20675L57.2038 7.19207V20.6984H54.4879V15.9565C54.4879 12.5359 54.4658 11.2219 54.4071 11.244C54.3233 11.2719 54.2661 11.3663 52.4004 14.4443L52.1022 14.9362C51.7149 15.5753 51.2316 16.3737 50.7751 17.1278L50.7696 17.1368C50.363 17.8085 49.9781 18.4444 49.7019 18.9L48.6302 20.6617L47.1915 20.6837L45.7528 20.6984V7.19207ZM89.5016 7.19207V20.6984H92.4011L93.2746 19.245C93.5486 18.7898 93.934 18.1529 94.3097 17.532C94.5883 17.0716 94.8616 16.62 95.0803 16.2575C95.4219 15.6963 95.929 14.8561 96.3987 14.0777L96.4019 14.0725C96.6376 13.6819 96.8638 13.307 97.0549 12.991C97.6275 12.0441 98.1339 11.2586 98.1707 11.244C98.2074 11.2293 98.2367 13.0497 98.2367 15.9565V20.6984H100.953V7.19207H98.1193L95.7336 11.0531C94.427 13.1818 93.1425 15.2665 92.8782 15.6923C92.614 16.118 92.3571 16.4777 92.313 16.4997C92.2396 16.5217 92.2176 15.5601 92.2176 11.8606V7.19207H89.5016ZM104.696 7.19207H107.412L107.427 9.74653L107.449 12.2936L110.297 12.3157L113.138 12.3303V7.19207H115.854V20.6984H113.138L113.123 17.8577L113.101 15.0096H107.449L107.427 17.8577L107.412 20.6984H104.696V7.19207ZM91.0798 2.9273C91.3954 4.24857 92.3864 5.29091 93.7591 5.73133C94.06 5.82676 94.4124 5.86346 95.1537 5.86346C96.2401 5.8708 96.6732 5.79005 97.3485 5.45239C97.8403 5.21016 98.6404 4.43208 98.9267 3.92559C99.1102 3.59527 99.4112 2.62634 99.4112 2.36942C99.4112 2.29602 99.1836 2.274 98.3174 2.274H97.2237L97.1723 2.50889C97.0916 2.85389 96.5117 3.39708 96.0933 3.51453C95.5721 3.66134 94.3903 3.59527 94.0086 3.38974C93.6343 3.19889 93.2526 2.77315 93.1938 2.48687L93.1571 2.274H92.0634C91.234 2.274 90.9697 2.29602 90.9697 2.36942C90.9697 2.41347 91.0211 2.67038 91.0798 2.9273Z" fill="white"/>
</svg>
