<svg width="242" height="50" viewBox="0 0 242 50" fill="none" xmlns="http://www.w3.org/2000/svg">
<path fill-rule="evenodd" clip-rule="evenodd" d="M2.09499 16.268C2.24791 17.4302 2.95137 18.2407 4.17477 18.6536C5.24525 19.0359 8.04378 19.0665 9.833 18.7148C13.9926 17.9349 19.2991 15.1516 22.6328 12.0167C24.3303 10.411 25.2937 9.17227 26.0125 7.65831C26.4713 6.71017 26.563 6.31257 26.6242 5.28797C26.6701 4.21749 26.6242 3.95752 26.3183 3.36111C25.7984 2.35181 25.2173 2.07654 23.4128 2.01537C20.0025 1.87774 16.1794 2.67295 12.968 4.2022C10.6588 5.31855 8.85428 6.60313 6.83567 8.62174C4.71001 10.7474 3.79246 11.9555 2.73727 13.9588C2.01853 15.3351 1.98794 15.4116 2.09499 16.268ZM10.4906 40.6595C8.82375 40.5066 7.12628 40.0326 5.61232 39.2985C4.51126 38.7633 4.29716 38.5951 3.79251 37.8304C1.62097 34.5578 0.259941 30.7041 0.091723 27.3398C-3.20263e-05 25.7799 0.0152605 25.6882 0.290526 25.6882C0.474036 25.6882 0.703424 25.9023 0.886934 26.254C2.23267 28.7467 5.79583 29.9854 10.0624 29.4348C13.5491 28.9761 16.9747 27.875 20.6296 26.0093C28.3523 22.0944 33.9799 16.4362 35.5856 11.0227C36.0903 9.3099 35.7539 7.55126 34.6681 6.29727C34.3011 5.85379 34.1481 5.53265 34.1787 5.27268C34.2246 4.90566 34.2705 4.92095 35.7539 5.93025C38.69 7.8877 41.4427 10.9921 43.1554 14.2647C43.7365 15.381 43.7824 15.5339 43.7824 16.7268C43.7824 19.8464 42.7119 22.8896 40.4487 26.254C35.3868 33.7626 24.9573 39.8643 15.7665 40.6748C13.8244 40.8431 12.3257 40.8431 10.4906 40.6595ZM18.8251 47.6941C16.363 47.2659 12.7386 45.9966 12.7386 45.5685C12.7386 45.3391 13.7327 45.3849 15.109 45.6602C16.7453 45.9966 20.0026 45.9966 21.9142 45.6602C30.6768 44.1157 39.0571 38.4727 43.2931 31.27C43.8742 30.2912 45.1588 27.2786 45.1588 26.9116C45.1588 26.8351 45.2964 26.7587 45.4646 26.7587C45.8622 26.7587 45.8622 27.1257 45.4799 29.129C44.5165 34.0991 42.2991 38.2281 38.7665 41.623C35.2951 44.9415 31.4108 46.9142 26.7007 47.7094C24.4068 48.107 21.1189 48.0917 18.8251 47.6941Z" fill="#131313"/>
<path fill-rule="evenodd" clip-rule="evenodd" d="M71.9971 43.4886C71.156 43.351 68.9539 42.6323 68.174 42.2499C64.0756 40.1702 61.4911 36.1329 60.6042 30.4288C60.2219 28.0126 60.1913 22.6297 60.5277 19.6476C61.4759 11.3285 64.2438 6.95484 69.8867 4.75272C70.3302 4.5845 71.1407 4.33982 71.6912 4.20219C72.7006 3.9728 73.4193 3.86575 78.8023 3.13171C85.2404 2.27533 86.0662 2.16828 86.0968 2.19887C86.1121 2.21416 86.2191 3.57519 86.3262 5.21149L86.525 8.20882L85.2251 8.37704C84.6971 8.45568 83.5419 8.60859 82.3294 8.76909C81.8916 8.82704 81.4456 8.88608 81.0197 8.94286C72.67 10.0592 72.0124 10.1816 70.1773 11.0685C67.654 12.2919 66.293 14.2952 65.7578 17.5831C65.406 19.6782 65.2837 21.2533 65.4672 21.2533C65.5437 21.2533 65.8648 20.8557 66.1859 20.3817C67.5317 18.3478 69.8409 16.6044 72.3029 15.7939C73.4193 15.4116 73.7252 15.381 76.0496 15.3657C79.0622 15.3657 79.8269 15.5339 82.136 16.6809C85.4392 18.3325 87.8554 21.4063 88.6812 25C89.0482 26.5293 89.033 30.0771 88.6812 31.9887C87.626 37.5857 84.3534 41.4242 79.261 43.0452C78.0835 43.4275 77.7012 43.4581 75.2085 43.5039C73.6946 43.5345 72.2571 43.5192 71.9971 43.4886ZM77.8235 37.234C81.035 36.2247 82.7936 33.6709 83.1759 29.5113C83.4665 26.2081 82.0596 23.2719 79.6128 22.0333C78.1141 21.2839 76.9672 21.0545 74.7498 21.0392C71.2783 21.0392 69.0151 21.8344 67.1188 23.7307L66.0789 24.7706L66.1401 27.7221C66.2012 30.3983 66.2471 30.7653 66.5988 31.8052C67.5776 34.6037 69.1833 36.347 71.5536 37.1728C73.4346 37.8304 75.8661 37.861 77.8235 37.234ZM126.133 43.4886C125.984 43.4616 125.655 43.3627 125.37 43.2767L125.261 43.244L124.68 43.0757V36.7752H126.255C127.647 36.7752 127.876 36.7293 128.304 36.4235C128.885 36.0106 129.757 34.2978 130.017 33.0897C130.476 30.857 130.95 23.1496 130.95 17.8584V14.9834H149.454V43.1216H143.795V20.7946L139.712 20.8251L135.614 20.871L135.522 24.4648C135.293 32.9062 134.375 38.4574 132.846 40.7666C131.776 42.3723 129.879 43.3969 127.769 43.5039C127.035 43.5345 126.301 43.5345 126.133 43.4886ZM156.504 38.228C157.023 40.843 159.149 42.8158 162.07 43.4275C163.125 43.6416 165.832 43.5957 166.78 43.351C168.309 42.9534 169.472 42.2499 170.71 40.996C171.337 40.3537 171.995 39.5432 172.148 39.1762C172.316 38.8244 172.515 38.5492 172.591 38.5797C172.683 38.6103 172.836 39.0079 172.928 39.4667C173.432 42.0206 175.313 43.2287 179.014 43.3969L180.803 43.4581V38.2739L179.978 38.1821C178.922 38.0751 178.28 37.7387 177.944 37.1117C177.684 36.6682 177.668 36.1024 177.714 30.0924C177.76 25.7646 177.714 23.1802 177.592 22.3697C177.148 19.3112 175.91 17.262 173.692 15.9621C170.68 14.2035 165.144 13.8365 162.07 15.2128C158.889 16.6044 156.779 19.3723 156.121 22.9814L156.014 23.5472H161.458L161.734 22.7826C162.269 21.2992 163.523 20.4734 165.694 20.1829C167.117 19.9993 168.906 20.1523 169.854 20.5499C170.741 20.9169 171.582 21.8192 171.934 22.7367C172.117 23.2108 172.24 23.7307 172.209 23.8989C172.178 24.1283 171.261 24.5565 167.652 25.994C161.458 28.4561 159.638 29.4042 158.14 31.0099C156.412 32.8603 155.892 35.1236 156.504 38.228ZM171.628 36.2859C170.909 36.9434 170.16 37.341 169.043 37.6775C167.851 38.0292 165.113 37.9986 163.92 37.6163C162.345 37.1117 161.688 36.2247 161.688 34.5884C161.688 33.6708 161.749 33.4568 162.131 32.9215C162.712 32.1263 163.339 31.6522 164.7 30.9794C165.863 30.3982 171.827 27.982 172.087 27.982C172.178 27.982 172.24 29.4042 172.24 31.8663V35.7506L171.628 36.2859ZM95.3181 14.9834H100.976V24.7094C100.976 31.1935 101.022 34.4202 101.129 34.3743C101.221 34.3437 103.958 29.9853 107.216 24.6941L113.149 15.0599L116.162 15.014L119.174 14.9834V43.1216H113.516V33.2427C113.516 26.1163 113.47 23.379 113.348 23.4249C113.173 23.4831 113.054 23.6798 109.167 30.0923L108.546 31.117C107.739 32.4484 106.732 34.1118 105.781 35.6828L105.77 35.7015C104.923 37.101 104.121 38.4257 103.545 39.375L101.313 43.0452L98.3154 43.091L95.3181 43.1216V14.9834ZM186.462 14.9834V43.1216H192.502L194.322 40.0937C194.893 39.1452 195.696 37.8186 196.478 36.5249C197.059 35.5658 197.628 34.6249 198.084 33.8696C198.796 32.7005 199.852 30.9501 200.831 29.3284L200.837 29.3176C201.328 28.5038 201.799 27.7228 202.198 27.0645C203.39 25.0917 204.446 23.4554 204.522 23.4249C204.598 23.3943 204.66 27.1868 204.66 33.2427V43.1216H210.318V14.9834H204.415L199.445 23.0273C196.723 27.4621 194.047 31.8052 193.496 32.6921C192.946 33.5791 192.41 34.3284 192.319 34.3743C192.166 34.4202 192.12 32.4169 192.12 24.7094V14.9834H186.462ZM218.117 14.9834H223.775L223.806 20.3052L223.852 25.6117L229.785 25.6576L235.703 25.6882V14.9834H241.362V43.1216H235.703L235.673 37.2034L235.627 31.2699H223.852L223.806 37.2034L223.775 43.1216H218.117V14.9834ZM189.749 6.09846C190.407 8.85111 192.471 11.0226 195.331 11.9402C195.958 12.139 196.692 12.2155 198.237 12.2155C200.5 12.2308 201.402 12.0625 202.809 11.3591C203.834 10.8544 205.501 9.23342 206.097 8.17824C206.479 7.49008 207.106 5.47147 207.106 4.93623C207.106 4.7833 206.632 4.73743 204.828 4.73743H202.549L202.442 5.22679C202.274 5.94554 201.066 7.07718 200.194 7.32186C199.108 7.62771 196.646 7.49008 195.851 7.06189C195.071 6.66428 194.276 5.77732 194.154 5.18091L194.077 4.73743H191.799C190.071 4.73743 189.52 4.7833 189.52 4.93623C189.52 5.02798 189.627 5.56322 189.749 6.09846Z" fill="#131313"/>
<path fill-rule="evenodd" clip-rule="evenodd" d="M0.42819 26.6822C1.54454 28.609 3.56315 29.6948 6.62166 30.0159C8.54851 30.2147 11.4082 29.9089 14.0844 29.1901C22.1741 27.0492 30.7838 21.1004 34.3929 15.1669C36.702 11.3591 36.9467 7.90295 35.0351 5.73142C33.9494 4.50802 30.7685 3.10111 27.5724 2.45882C25.9667 2.13768 22.6941 1.87771 23.5505 2.15297C25.3397 2.68821 26.2725 3.85044 26.1349 5.33381C26.0431 6.32783 25.2632 7.99471 24.2998 9.27928C21.3025 13.24 14.6043 17.2773 9.37431 18.256C5.49001 19.0053 2.84441 18.0725 2.56914 15.9009C2.50797 15.3963 2.53856 14.8916 2.63031 14.6317C2.90558 13.9282 2.81382 13.8059 2.49268 14.4176C1.88098 15.5492 1.08577 17.6443 0.642285 19.3112C0.24468 20.7792 0.152925 21.3909 0.0917551 23.5013L0 25.9787L0.42819 26.6822ZM14.5738 46.0883C15.4607 46.226 16.3477 46.3636 16.5618 46.3942C17.3111 46.5318 21.0884 46.333 22.4494 46.1036C32.3131 44.3909 41.7638 37.2492 45.0212 29.0525C45.8469 26.9727 45.9999 25.8257 45.7858 23.4248C45.5258 20.5804 44.9753 18.3324 43.8742 15.7939C42.9567 13.6529 42.7273 13.3623 43.1096 14.8304C43.6754 17.0173 43.1096 20.0605 41.5803 23.1037C37.1149 31.9427 25.722 39.329 15.0937 40.2313C10.4907 40.6289 6.28522 39.5737 3.93018 37.4328L3.04321 36.6223L3.41023 37.234C4.86302 39.6655 7.58509 42.4946 10.1848 44.2379C12.0046 45.4613 12.8151 45.7978 14.5738 46.0883Z" fill="#FFD126"/>
</svg>
