<svg width="68" height="24" viewBox="0 0 68 24" fill="none" xmlns="http://www.w3.org/2000/svg">
<g clip-path="url(#clip0_2045_6)">
<path fill-rule="evenodd" clip-rule="evenodd" d="M13.965 9.36404C13.8343 9.12606 13.6268 8.81916 13.5955 8.77608C13.0491 8.01827 12.5363 7.58379 11.82 7.17431C10.9542 6.67878 9.96625 6.41806 8.85695 6.39301H8.6393C7.34448 6.39301 6.34246 6.62787 5.39678 7.09996C5.8156 6.50105 6.22187 5.89352 6.46928 5.20851C6.71665 4.52349 6.79417 3.78993 6.8145 3.06576C6.8178 2.97053 6.81826 1.87818 6.81861 1.0242C6.81885 0.460252 6.81904 0 6.81998 0H0.34821C0.34821 0 0.341947 3.83298 0.343513 6.76173V18.8009H3.8076V17.3173C4.64524 18.4768 6.39804 18.9387 7.74297 19.006C10.169 19.1336 12.6749 18.0932 13.9047 15.9324C14.4598 14.9601 14.7369 13.839 14.7353 12.5692C14.7353 11.3682 14.5866 10.493 13.9666 9.3664L13.965 9.36404ZM8.26356 12.7539C8.07568 13.1665 7.77505 13.518 7.39615 13.7677C7.0204 14.0089 6.5828 14.1341 6.13657 14.1271C5.41556 14.1271 4.8292 13.8625 4.37516 13.3325C3.92189 12.8024 3.69644 12.1159 3.69957 11.2712H8.57825C8.58608 11.7832 8.47884 12.2897 8.26356 12.7539ZM34.5029 10.3121C34.6869 10.1673 34.9014 10.0655 35.1308 10.0146C35.4329 9.93477 35.7445 9.89561 36.0569 9.89877C36.3888 9.89721 36.7192 9.93948 37.0401 10.0248C37.3157 10.0874 37.5756 10.2033 37.8057 10.3669C37.9967 10.4851 38.1447 10.6605 38.2277 10.8687H42.8645C42.7761 9.99898 42.4073 9.18083 41.8147 8.53809C41.2134 7.85228 40.4063 7.31915 39.3934 6.93788C38.3882 6.55742 37.2311 6.36719 36.024 6.36719C34.8168 6.36719 33.7365 6.54647 32.7916 6.90424C31.8467 7.26201 31.1241 7.7466 30.5989 8.37763C30.0916 8.97262 29.816 9.73123 29.8223 10.5133C29.8223 11.4426 30.1574 12.1777 30.8275 12.7179C31.503 13.2518 32.4738 13.5791 33.7396 13.7004L37.455 14.0668C38.0093 14.1373 38.2856 14.3463 38.2856 14.6955C38.2856 14.7792 38.2684 14.8614 38.2348 14.9382C38.2011 15.0149 38.1525 15.0838 38.0915 15.1409C37.9412 15.2787 37.7619 15.3805 37.5662 15.4384C37.3251 15.5097 37.0746 15.5441 36.8233 15.541C36.5188 15.5433 36.215 15.505 35.9198 15.4275C35.6694 15.3562 35.4329 15.2404 35.2231 15.0846C35.054 14.9522 34.9265 14.773 34.8568 14.5694H30.1025C30.1769 15.4259 30.5261 16.2354 31.0968 16.8781C31.6823 17.5475 32.466 18.0728 33.4492 18.4533C34.4403 18.826 35.5519 19.013 36.7849 19.013C37.9584 19.013 38.991 18.8377 39.8811 18.487C40.7821 18.1269 41.4749 17.6352 41.9595 17.0136C42.4386 16.4139 42.6961 15.6678 42.6906 14.9006C42.6906 13.9548 42.3556 13.208 41.6855 12.6607C41.0154 12.1135 40.0392 11.78 38.7577 11.6594L35.0329 11.2931C34.7738 11.2703 34.5812 11.2132 34.4513 11.1224C34.3933 11.0778 34.3471 11.0214 34.315 10.9556C34.2829 10.8899 34.2673 10.8178 34.2689 10.7458C34.2704 10.6605 34.2923 10.5759 34.333 10.5C34.3737 10.4241 34.4325 10.3607 34.5029 10.3121ZM28.3771 9.50191C27.7986 8.51938 26.9805 7.75374 25.9221 7.20494C24.8723 6.64831 23.6769 6.37037 22.3359 6.37037C20.9949 6.37037 19.7885 6.63736 18.7379 7.16894C17.6874 7.70052 16.8677 8.44814 16.2829 9.40873C15.6981 10.3694 15.4155 11.4638 15.4155 12.6984C15.4155 13.933 15.713 15.0181 16.3056 15.9764C16.899 16.9354 17.7437 17.6814 18.8178 18.2154C19.8919 18.7493 21.1256 19.0202 22.5066 19.0202C23.5375 19.0311 24.5607 18.8456 25.5221 18.4722C26.4513 18.1058 27.2208 17.5953 27.8299 16.9409C28.4335 16.3106 28.8562 15.5293 29.0527 14.6799H25.2019C25.0547 14.8936 24.8598 15.0698 24.6319 15.195C24.3658 15.3398 24.0816 15.4479 23.7857 15.5145C23.4639 15.5904 23.1336 15.6287 22.8025 15.628C22.2568 15.6389 21.7151 15.5293 21.2157 15.3086C20.7843 15.1113 20.4203 14.7934 20.1658 14.3942C20.0719 14.2478 19.9959 14.0904 19.9388 13.926H29.1803C29.2108 13.76 29.2296 13.5925 29.2382 13.4241C29.2539 13.2488 29.2602 13.0695 29.2602 12.8871C29.2602 11.6149 28.9674 10.4891 28.3818 9.50894L28.3771 9.50191ZM19.9458 11.8404C19.9458 11.1515 20.1588 10.5893 20.5839 10.1556C21.0098 9.72111 21.5609 9.50507 22.2419 9.50507C22.6561 9.49799 23.0647 9.59901 23.4279 9.79863C23.774 9.99202 24.0573 10.2793 24.2445 10.6285C24.4449 11.0019 24.5458 11.4208 24.538 11.8443L19.9458 11.8404ZM62.6068 12.786V7.16961L67.2906 7.17117V18.2646C67.2906 20.2978 66.5264 21.8017 65.4986 22.6621C64.3513 23.5945 63.0595 24 60.8136 24C58.5681 24 57.1348 23.6172 56.0843 22.7803C55.2005 22.0389 54.5066 20.8411 54.5066 19.6253H59.1913C59.2397 20.3627 59.7416 20.8411 60.8174 20.8411C61.9883 20.8411 62.6085 20.1952 62.6085 18.9293V16.7537C61.987 18.0196 60.6969 18.7852 58.9041 18.7852C55.7492 18.7852 54.5066 16.8014 54.5066 13.7184V7.16961H59.1896V13.1689C59.1896 14.4825 59.6195 15.2482 60.8148 15.2482C62.0102 15.2482 62.6068 14.4113 62.6068 12.786ZM45.0329 3.12366H49.95V7.16333H53.587V10.8703H49.9462V12.703C49.9462 13.936 50.6485 14.1161 51.4742 14.1161C52.2776 14.1161 52.9062 13.9611 53.1626 13.7505V18.0219C52.6687 18.5323 51.2995 19.0193 49.7904 19.0193C49.0153 19.0193 48.0822 18.858 47.4519 18.5589C46.822 18.2591 46.3176 17.8144 45.8763 17.2696C45.1285 16.3426 44.9976 15.591 44.9976 14.1881L45.0329 11.8528V10.8711H43.4793V7.16488H45.0329V3.12366Z" fill="white"/>
</g>
<defs>
<clipPath id="clip0_2045_6">
<rect width="66.9474" height="24" fill="white" transform="translate(0.343262)"/>
</clipPath>
</defs>
</svg>
