<svg width="141" height="50" viewBox="0 0 141 50" fill="none" xmlns="http://www.w3.org/2000/svg">
<g clip-path="url(#clip0_2043_367)">
<path fill-rule="evenodd" clip-rule="evenodd" d="M29.1418 19.5084C28.8694 19.0126 28.4373 18.3732 28.372 18.2835C27.2336 16.7047 26.1654 15.7996 24.6731 14.9465C22.8693 13.9141 20.8111 13.371 18.5 13.3188H18.0466C15.3491 13.3188 13.2615 13.8081 11.2913 14.7916C12.1639 13.5439 13.0103 12.2782 13.5257 10.8511C14.0411 9.42395 14.2026 7.89568 14.2449 6.38701C14.2518 6.1886 14.2528 3.91288 14.2535 2.13375C14.254 0.958859 14.2544 0 14.2563 0H0.773492C0.773492 0 0.760445 7.98539 0.763707 14.0869V39.1685H7.98055V36.0778C9.72564 38.4933 13.3773 39.4556 16.1792 39.5959C21.2334 39.8617 26.4541 37.6941 29.0163 33.1925C30.1726 31.1668 30.7499 28.8312 30.7467 26.1858C30.7467 23.6838 30.4368 21.8603 29.1451 19.5133L29.1418 19.5084ZM17.2638 26.5707C16.8724 27.4302 16.2461 28.1625 15.4567 28.6828C14.6739 29.1852 13.7622 29.4461 12.8326 29.4314C11.3305 29.4314 10.1089 28.8802 9.16297 27.776C8.21867 26.6718 7.74897 25.2414 7.7555 23.4816H17.9194C17.9357 24.5482 17.7123 25.6035 17.2638 26.5707ZM71.9292 21.4836C72.3124 21.1818 72.7593 20.9698 73.2371 20.8637C73.8667 20.6974 74.5158 20.6159 75.1665 20.6224C75.858 20.6192 76.5463 20.7073 77.215 20.885C77.7891 21.0155 78.3306 21.2569 78.81 21.5978C79.2079 21.844 79.5162 22.2094 79.6891 22.6432H89.3491C89.1649 20.8312 88.3966 19.1267 87.162 17.7877C85.9094 16.3589 84.2279 15.2482 82.1176 14.4539C80.0234 13.6613 77.6129 13.265 75.098 13.265C72.5831 13.265 70.3325 13.6385 68.364 14.3838C66.3954 15.1292 64.89 16.1387 63.7957 17.4534C62.7389 18.693 62.1648 20.2734 62.1778 21.9028C62.1778 23.8387 62.8759 25.3702 64.272 26.4957C65.6794 27.608 67.7018 28.2897 70.339 28.5425L78.0793 29.3058C79.2341 29.4527 79.8098 29.8881 79.8098 30.6156C79.8098 30.7901 79.7739 30.9613 79.7038 31.1212C79.6336 31.281 79.5325 31.4245 79.4053 31.5436C79.0921 31.8307 78.7187 32.0427 78.311 32.1634C77.8086 32.3118 77.2868 32.3836 76.7632 32.377C76.1288 32.3819 75.496 32.302 74.8811 32.1406C74.3592 31.9922 73.8667 31.7508 73.4296 31.4262C73.0773 31.1505 72.8115 30.777 72.6663 30.353H62.7617C62.9167 32.1373 63.6441 33.8237 64.833 35.1628C66.0529 36.5573 67.6855 37.6517 69.7339 38.4444C71.7987 39.2208 74.1146 39.6105 76.6833 39.6105C79.1281 39.6105 81.2792 39.2452 83.1336 38.5145C85.0108 37.7643 86.4541 36.74 87.4637 35.445C88.4619 34.1956 88.9983 32.6413 88.9869 31.0429C88.9869 29.0726 88.289 27.5166 86.8929 26.3766C85.4968 25.2365 83.463 24.5417 80.7932 24.2905L73.0333 23.5273C72.4934 23.4799 72.0922 23.3609 71.8215 23.1716C71.7008 23.0787 71.6046 22.9613 71.5377 22.8243C71.4708 22.6873 71.4383 22.5372 71.4415 22.3872C71.4448 22.2094 71.4904 22.0332 71.5752 21.875C71.66 21.7168 71.7824 21.5847 71.9292 21.4836ZM59.167 19.7956C57.9617 17.7487 56.2574 16.1536 54.0524 15.0103C51.8653 13.8506 49.375 13.2716 46.5812 13.2716C43.7874 13.2716 41.2741 13.8278 39.0854 14.9353C36.8967 16.0428 35.1892 17.6003 33.9708 19.6015C32.7525 21.6028 32.1637 23.8829 32.1637 26.455C32.1637 29.0271 32.7835 31.2877 34.0181 33.2841C35.2544 35.2821 37.0142 36.8363 39.2518 37.9487C41.4894 39.0611 44.0597 39.6254 46.9367 39.6254C49.0846 39.6482 51.2163 39.2617 53.219 38.4837C55.155 37.7204 56.7581 36.657 58.027 35.2935C59.2844 33.9805 60.1651 32.3528 60.5745 30.5831H52.552C52.2453 31.0284 51.8393 31.3954 51.3646 31.6563C50.8101 31.958 50.2181 32.1831 49.6016 32.3218C48.9313 32.4799 48.243 32.5599 47.5532 32.5583C46.4165 32.5811 45.2879 32.3528 44.2473 31.8928C43.3486 31.4818 42.5903 30.8196 42.0602 29.9878C41.8645 29.6828 41.7063 29.3549 41.5872 29.0125H60.8403C60.9039 28.6667 60.9431 28.3177 60.961 27.967C60.9937 27.6016 61.0067 27.2281 61.0067 26.8481C61.0067 24.1978 60.3967 21.8523 59.1768 19.8103L59.167 19.7956ZM41.6019 24.6675C41.6019 23.2322 42.0456 22.0611 42.9311 21.1576C43.8184 20.2523 44.9665 19.8022 46.3854 19.8022C47.2482 19.7875 48.0995 19.9979 48.8563 20.4138C49.5772 20.8167 50.1675 21.4152 50.5573 22.1427C50.9749 22.9206 51.1852 23.7933 51.1689 24.6756L41.6019 24.6675ZM130.479 26.6376V14.9367L140.237 14.9399V38.0513C140.237 42.287 138.645 45.4201 136.504 47.2127C134.113 49.1551 131.422 50 126.743 50C122.065 50 119.079 49.2025 116.89 47.4589C115.049 45.9143 113.604 43.4189 113.604 40.886H123.363C123.464 42.4224 124.51 43.4189 126.751 43.4189C129.19 43.4189 130.482 42.0734 130.482 39.436V34.9035C129.188 37.5408 126.5 39.1359 122.765 39.1359C116.192 39.1359 113.604 35.0029 113.604 28.58V14.9367H123.36V27.4351C123.36 30.172 124.255 31.767 126.746 31.767C129.236 31.767 130.479 30.0235 130.479 26.6376ZM93.8667 6.50763H104.111V14.9236H111.688V22.6464H104.103V26.4646C104.103 29.0334 105.566 29.4085 107.286 29.4085C108.96 29.4085 110.269 29.0856 110.804 28.6468V37.5456C109.775 38.609 106.922 39.6235 103.778 39.6235C102.163 39.6235 100.219 39.2875 98.9062 38.6645C97.5939 38.0398 96.543 37.1134 95.6237 35.9782C94.0658 34.0471 93.793 32.4813 93.793 29.5586L93.8667 24.6933V22.6481H90.6298V14.9268H93.8667V6.50763Z" fill="#FFB800"/>
</g>
<defs>
<clipPath id="clip0_2043_367">
<rect width="139.474" height="50" fill="white" transform="translate(0.763184)"/>
</clipPath>
</defs>
</svg>
