<svg width="46" height="50" viewBox="0 0 46 50" fill="none" xmlns="http://www.w3.org/2000/svg">
<g clip-path="url(#clip0_2045_23)">
<path d="M41.9595 47.0233C38.2117 49.1386 31.7818 49.7434 22.8879 49.7434C13.994 49.7434 7.56401 49.1386 3.81676 47.0233C1.56666 45.7564 0.428467 44.0293 0.428467 42.7909C0.428467 42.0861 0.803559 41.6824 1.63869 41.6824H44.1362C44.972 41.6824 45.3471 42.086 45.3471 42.7909C45.3476 44.0293 44.2088 45.7562 41.9599 47.0233H41.9595ZM44.1364 14.2042H1.63879C0.803009 14.2042 0.428558 13.7725 0.428558 12.9956C0.428558 8.38892 7.36221 0.256592 22.8879 0.256592C38.2701 0.256592 45.3477 8.38892 45.3477 12.9956C45.3477 13.7725 44.9727 14.2042 44.1364 14.2042Z" fill="white"/>
<path d="M9.4807 33.2049C9.35094 33.0037 9.33719 32.8739 9.33719 32.8167C9.33719 32.6584 9.42352 32.5435 9.59617 32.3851C9.99986 32.0101 10.9951 31.0748 11.5427 30.2257C11.9605 29.5781 12.1332 28.988 12.1332 28.4992C12.1332 27.2468 10.995 26.2673 9.75444 26.2673C8.96155 26.2673 8.2121 26.7138 7.70788 27.5342C7.03037 28.6278 6.22273 29.8947 5.70431 30.3989C5.57445 30.5288 5.50251 30.5574 5.40189 30.5574C5.2286 30.5574 5.15666 30.4419 5.15666 30.255V28.816C5.15666 27.4055 4.32088 26.2679 2.80704 26.2679C1.279 26.2679 0.456876 27.405 0.456876 28.816V37.6829C0.456876 39.0933 1.27836 40.2315 2.80704 40.2315C4.32088 40.2315 5.15666 39.0944 5.15666 37.6829V35.6397C5.15666 35.4665 5.2286 35.3372 5.40189 35.3372C5.63283 35.3372 5.69047 35.5678 5.7483 35.6827C6.07977 36.4745 7.04476 38.1582 7.93937 39.1518C8.54467 39.8139 9.29421 40.2317 10.0872 40.2317C11.4277 40.2317 12.5527 39.0654 12.5527 37.8129C12.5527 37.0358 12.2206 36.46 11.5866 35.7695C10.779 34.8898 9.82711 33.7379 9.4807 33.2055V33.2049ZM27.4582 25.4465C29.7213 25.4465 31.1487 24.007 31.1487 21.9054C31.1487 20.5671 30.3404 19.6455 28.7266 19.6455H28.2658C27.4146 19.6455 26.7515 20.0491 26.7515 20.9558C26.7515 21.7619 27.4581 22.1507 27.9914 22.1507C28.2653 22.1507 28.439 22.237 28.439 22.4388C28.439 22.6972 28.1366 22.8704 27.7901 22.8704C26.7085 22.8704 25.9735 22.1071 25.9735 20.682C25.9735 19.099 26.9831 18.5238 27.7611 18.5238C28.7124 18.5238 28.8712 19.0132 29.5344 19.0132C30.2986 19.0132 30.8178 18.3798 30.8178 17.7177C30.8178 17.2284 30.6011 16.8545 30.2697 16.5949C29.6643 16.1485 28.8141 15.818 27.5456 15.818C25.3104 15.818 23.1341 17.2861 23.1341 20.6831C23.133 23.9349 25.31 25.4465 27.4582 25.4465ZM2.11432 25.3601H4.14768C6.06501 25.3601 7.23235 24.0791 7.23235 22.4811C7.23235 21.2 6.46806 20.61 6.2954 20.4659C6.22392 20.4082 6.15189 20.351 6.15189 20.2933C6.15189 20.2218 6.19478 20.1926 6.26736 20.1063C6.54064 19.7896 6.81456 19.2859 6.81456 18.5513C6.81456 16.8248 5.64667 15.9027 3.83041 15.9027H2.11487C0.976121 15.9027 0.428467 16.5658 0.428467 17.4577V23.8052C0.428467 24.6981 0.976121 25.3601 2.11432 25.3601ZM2.96549 18.3792C2.96549 18.1923 3.08105 18.0476 3.32564 18.0476H3.51314C4.13283 18.0476 4.32088 18.4793 4.32088 18.8543C4.32088 19.1996 4.13384 19.689 3.51314 19.689H3.32619C3.08096 19.689 2.9654 19.5455 2.9654 19.3579L2.96549 18.3792ZM2.96549 21.7476C2.96549 21.5607 3.08105 21.4161 3.32564 21.4161H3.58527C4.27753 21.4161 4.47878 21.8763 4.47878 22.2942C4.47878 22.6692 4.27698 23.2014 3.58527 23.2014H3.32629C3.08105 23.2014 2.96549 23.0574 2.96549 22.8699V21.7476ZM39.7546 25.4316C40.6771 25.4316 41.1814 24.7405 41.1814 23.8772V22.3514C41.1814 22.1643 41.2682 22.0781 41.4124 22.0781C41.5851 22.0781 41.6423 22.1787 41.6708 22.3514C41.8011 23.0854 42.1469 24.0784 42.5357 24.5827C43.0262 25.2309 43.4869 25.4328 43.9488 25.4328C44.6977 25.4328 45.3472 24.8422 45.3472 24.1076C45.3472 23.6182 45.1454 23.2581 44.8858 22.9276C44.3953 22.309 44.0931 21.9062 43.9061 21.4023C43.8626 21.2868 43.8913 21.1857 44.0216 21.0855C44.4686 20.7402 44.9877 19.977 44.9877 18.7684C44.9877 16.9402 43.4735 15.9037 41.6424 15.9037H40.0141C38.8752 15.9037 38.3278 16.5652 38.3278 17.4581V23.8782C38.3278 24.7415 38.832 25.4315 39.7552 25.4315L39.7546 25.4316ZM41.023 18.6244C41.023 18.4375 41.1385 18.2923 41.3833 18.2923H41.585C42.1909 18.2923 42.3779 18.7245 42.3779 19.099C42.3779 19.4591 42.1909 19.9336 41.585 19.9336H41.3833C41.138 19.9336 41.023 19.7907 41.023 19.6026V18.6239V18.6244ZM16.0548 26.2669C14.4404 26.2669 13.5605 27.4754 13.5605 28.987V37.5092C13.5605 39.0213 14.4404 40.2298 16.0548 40.2298C17.669 40.2298 18.5483 39.0208 18.5483 37.5092V28.987C18.5483 27.4764 17.6697 26.2669 16.0548 26.2669ZM41.6856 31.8088H40.9795C39.7111 31.8088 38.7307 32.3988 38.7307 33.6937C38.7307 34.8743 39.7975 35.4357 40.5902 35.4357C40.9795 35.4357 41.2533 35.5511 41.2533 35.853C41.2533 36.2269 40.792 36.4716 40.3021 36.4716C38.6729 36.4716 37.5627 35.3631 37.5627 33.3044C37.5627 31.0159 39.0766 30.1813 40.2438 30.1813C41.6712 30.1813 41.9016 30.9016 42.8962 30.9016C44.0492 30.9016 44.8278 29.9656 44.8278 29.0156C44.8278 28.3107 44.5106 27.7634 44.0063 27.3891C43.1265 26.7408 41.801 26.2656 39.9264 26.2656C36.5679 26.2656 33.2951 28.3814 33.2951 33.3044C33.2951 38.0111 36.5668 40.2139 39.7966 40.2139C43.1837 40.2139 45.3318 38.1267 45.3318 35.075C45.3327 33.1472 44.1226 31.8088 41.6856 31.8088ZM36.2366 25.3601C37.0448 25.3601 37.6788 24.8851 37.6788 24.0213C37.6788 23.1717 37.0443 22.6968 36.2371 22.6968H34.9396C34.6949 22.6968 34.5793 22.5532 34.5793 22.3657V22.0919C34.5793 21.905 34.6949 21.7609 34.9401 21.7609H35.9348C36.6271 21.7609 37.1748 21.3436 37.1748 20.609C37.1748 19.8755 36.6271 19.4576 35.9348 19.4576H34.9397C34.695 19.4576 34.5795 19.3135 34.5795 19.126V18.8956C34.5795 18.7087 34.695 18.5646 34.9403 18.5646H36.2373C37.0446 18.5646 37.679 18.0895 37.679 17.2263C37.679 16.3762 37.0445 15.9011 36.2373 15.9011H33.5129C32.3748 15.9011 31.8265 16.5631 31.8265 17.4561V23.8037C31.8265 24.696 32.3742 25.3586 33.5129 25.3586H36.2373V25.3603H36.2367M11.4706 25.4316C13.8059 25.4316 15.0458 24.035 15.0458 22.2799V17.4285C15.0458 16.5652 14.5416 15.8735 13.6184 15.8735C12.6958 15.8735 12.1916 16.5652 12.1916 17.4285V22.121C12.1916 22.4657 11.9898 22.8688 11.4707 22.8688C10.9517 22.8688 10.7779 22.4657 10.7779 22.121V17.4285C10.7779 16.5652 10.2594 15.8735 9.33627 15.8735C8.41371 15.8735 7.90941 16.5652 7.90941 17.4285V22.2793C7.91005 24.0356 9.13567 25.4312 11.4708 25.4312L11.4706 25.4316ZM21.5907 25.4316C22.3403 25.4316 22.9896 24.8416 22.9896 24.107C22.9896 23.6177 22.7878 23.2575 22.5283 22.927C22.1104 22.3799 21.7354 21.9049 21.5484 21.4018C21.505 21.2863 21.5337 21.1851 21.664 21.0845C22.111 20.7397 22.6301 19.9765 22.6301 18.7674C22.6301 16.9391 21.1158 15.9027 19.2848 15.9027H17.655C16.5168 15.9027 15.9686 16.5647 15.9686 17.4577V23.8777C15.9686 24.741 16.4735 25.4328 17.396 25.4328C18.3187 25.4328 18.8234 24.741 18.8234 23.8777V22.3524C18.8234 22.1655 18.9097 22.0786 19.0538 22.0786C19.227 22.0786 19.2842 22.1792 19.3128 22.3524C19.4427 23.086 19.7883 24.079 20.1777 24.5838C20.668 25.2304 21.1288 25.4316 21.5907 25.4316ZM19.2263 19.9331H19.024C18.7787 19.9331 18.6638 19.7896 18.6638 19.6021V18.6239C18.6638 18.4369 18.7793 18.2923 19.024 18.2923H19.2258C19.8317 18.2923 20.0186 18.7245 20.0186 19.099C20.0186 19.458 19.8317 19.9331 19.2258 19.9331H19.2263ZM29.8792 26.2669C28.3947 26.2669 27.5874 27.3748 27.5874 28.7714V31.8803C27.5874 32.1387 27.5005 32.2548 27.3421 32.2548C27.2267 32.2548 27.1403 32.1833 27.0397 31.9815L25.0361 28.0957C24.2718 26.6127 23.4789 26.2675 22.5711 26.2675C21.0573 26.2675 20.221 27.404 20.221 28.8298V37.7259C20.221 39.1224 21.0282 40.2306 22.5128 40.2306C23.9979 40.2306 24.8046 39.122 24.8046 37.7259V34.6169C24.8046 34.3586 24.8914 34.2419 25.0499 34.2419C25.1654 34.2419 25.2522 34.314 25.3523 34.5158L27.3559 38.4021C28.1202 39.8851 28.9418 40.2304 29.8214 40.2304C31.3353 40.2304 32.1716 39.0932 32.1716 37.6681V28.772C32.1716 27.3754 31.3642 26.2674 29.8792 26.2674V26.2669Z" fill="white"/>
</g>
<defs>
<clipPath id="clip0_2045_23">
<rect width="45.4545" height="50" fill="white" transform="translate(0.0800781)"/>
</clipPath>
</defs>
</svg>
