<svg width="46" height="50" viewBox="0 0 46 50" fill="none" xmlns="http://www.w3.org/2000/svg">
<g clip-path="url(#clip0_2043_297)">
<path d="M42.1522 47.0233C38.4044 49.1386 31.9745 49.7434 23.0805 49.7434C14.1866 49.7434 7.75663 49.1386 4.00938 47.0233C1.75929 45.7564 0.621094 44.0293 0.621094 42.7909C0.621094 42.0861 0.996186 41.6824 1.83132 41.6824H44.3288C45.1646 41.6824 45.5397 42.086 45.5397 42.7909C45.5403 44.0293 44.4014 45.7562 42.1525 47.0233H42.1522ZM44.329 14.2042H1.83141C0.995636 14.2042 0.621185 13.7725 0.621185 12.9956C0.621185 8.38892 7.55484 0.256592 23.0805 0.256592C38.4627 0.256592 45.5404 8.38892 45.5404 12.9956C45.5404 13.7725 45.1654 14.2042 44.329 14.2042Z" fill="#FF8732"/>
<path d="M9.67333 33.2049C9.54356 33.0037 9.52982 32.8739 9.52982 32.8167C9.52982 32.6584 9.61615 32.5435 9.7888 32.3851C10.1925 32.0101 11.1877 31.0748 11.7353 30.2257C12.1532 29.5781 12.3258 28.988 12.3258 28.4992C12.3258 27.2468 11.1876 26.2673 9.94707 26.2673C9.15418 26.2673 8.40473 26.7138 7.90051 27.5342C7.223 28.6278 6.41536 29.8947 5.89694 30.3989C5.76708 30.5288 5.69514 30.5574 5.59452 30.5574C5.42122 30.5574 5.34928 30.4419 5.34928 30.255V28.816C5.34928 27.4055 4.51351 26.2679 2.99967 26.2679C1.47163 26.2679 0.649503 27.405 0.649503 28.816V37.6829C0.649503 39.0933 1.47098 40.2315 2.99967 40.2315C4.51351 40.2315 5.34928 39.0944 5.34928 37.6829V35.6397C5.34928 35.4665 5.42122 35.3372 5.59452 35.3372C5.82546 35.3372 5.8831 35.5678 5.94093 35.6827C6.2724 36.4745 7.23739 38.1582 8.132 39.1518C8.7373 39.8139 9.48684 40.2317 10.2798 40.2317C11.6204 40.2317 12.7454 39.0654 12.7454 37.8129C12.7454 37.0358 12.4132 36.46 11.7793 35.7695C10.9716 34.8898 10.0197 33.7379 9.67333 33.2055V33.2049ZM27.6508 25.4465C29.9139 25.4465 31.3413 24.007 31.3413 21.9054C31.3413 20.5671 30.533 19.6455 28.9192 19.6455H28.4584C27.6073 19.6455 26.9441 20.0491 26.9441 20.9558C26.9441 21.7619 27.6507 22.1507 28.1841 22.1507C28.4579 22.1507 28.6316 22.237 28.6316 22.4388C28.6316 22.6972 28.3292 22.8704 27.9827 22.8704C26.9012 22.8704 26.1661 22.1071 26.1661 20.682C26.1661 19.099 27.1757 18.5238 27.9538 18.5238C28.905 18.5238 29.0638 19.0132 29.727 19.0132C30.4912 19.0132 31.0104 18.3798 31.0104 17.7177C31.0104 17.2284 30.7937 16.8545 30.4623 16.5949C29.8569 16.1485 29.0067 15.818 27.7382 15.818C25.5031 15.818 23.3267 17.2861 23.3267 20.6831C23.3256 23.9349 25.5026 25.4465 27.6508 25.4465ZM2.30694 25.3601H4.3403C6.25764 25.3601 7.42498 24.0791 7.42498 22.4811C7.42498 21.2 6.66068 20.61 6.48803 20.4659C6.41655 20.4082 6.34452 20.351 6.34452 20.2933C6.34452 20.2218 6.38741 20.1926 6.45999 20.1063C6.73326 19.7896 7.00718 19.2859 7.00718 18.5513C7.00718 16.8248 5.83929 15.9027 4.02304 15.9027H2.30749C1.16875 15.9027 0.621094 16.5658 0.621094 17.4577V23.8052C0.621094 24.6981 1.16875 25.3601 2.30694 25.3601ZM3.15812 18.3792C3.15812 18.1923 3.27368 18.0476 3.51827 18.0476H3.70577C4.32546 18.0476 4.51351 18.4793 4.51351 18.8543C4.51351 19.1996 4.32646 19.689 3.70577 19.689H3.51882C3.27359 19.689 3.15803 19.5455 3.15803 19.3579L3.15812 18.3792ZM3.15812 21.7476C3.15812 21.5607 3.27368 21.4161 3.51827 21.4161H3.77789C4.47016 21.4161 4.67141 21.8763 4.67141 22.2942C4.67141 22.6692 4.46961 23.2014 3.77789 23.2014H3.51891C3.27368 23.2014 3.15812 23.0574 3.15812 22.8699V21.7476ZM39.9473 25.4316C40.8697 25.4316 41.374 24.7405 41.374 23.8772V22.3514C41.374 22.1643 41.4608 22.0781 41.6051 22.0781C41.7777 22.0781 41.8349 22.1787 41.8634 22.3514C41.9937 23.0854 42.3395 24.0784 42.7283 24.5827C43.2189 25.2309 43.6796 25.4328 44.1414 25.4328C44.8903 25.4328 45.5398 24.8422 45.5398 24.1076C45.5398 23.6182 45.338 23.2581 45.0784 22.9276C44.5879 22.309 44.2857 21.9062 44.0987 21.4023C44.0552 21.2868 44.0839 21.1857 44.2142 21.0855C44.6612 20.7402 45.1803 19.977 45.1803 18.7684C45.1803 16.9402 43.6661 15.9037 41.835 15.9037H40.2067C39.0679 15.9037 38.5204 16.5652 38.5204 17.4581V23.8782C38.5204 24.7415 39.0246 25.4315 39.9478 25.4315L39.9473 25.4316ZM41.2157 18.6244C41.2157 18.4375 41.3311 18.2923 41.5759 18.2923H41.7776C42.3836 18.2923 42.5705 18.7245 42.5705 19.099C42.5705 19.4591 42.3836 19.9336 41.7776 19.9336H41.5759C41.3306 19.9336 41.2157 19.7907 41.2157 19.6026V18.6239V18.6244ZM16.2474 26.2669C14.633 26.2669 13.7531 27.4754 13.7531 28.987V37.5092C13.7531 39.0213 14.633 40.2298 16.2474 40.2298C17.8617 40.2298 18.741 39.0208 18.741 37.5092V28.987C18.741 27.4764 17.8623 26.2669 16.2474 26.2669ZM41.8782 31.8088H41.1721C39.9037 31.8088 38.9233 32.3988 38.9233 33.6937C38.9233 34.8743 39.9901 35.4357 40.7828 35.4357C41.1721 35.4357 41.446 35.5511 41.446 35.853C41.446 36.2269 40.9846 36.4716 40.4947 36.4716C38.8655 36.4716 37.7553 35.3631 37.7553 33.3044C37.7553 31.0159 39.2692 30.1813 40.4364 30.1813C41.8639 30.1813 42.0942 30.9016 43.0888 30.9016C44.2418 30.9016 45.0204 29.9656 45.0204 29.0156C45.0204 28.3107 44.7032 27.7634 44.1989 27.3891C43.3191 26.7408 41.9936 26.2656 40.119 26.2656C36.7605 26.2656 33.4878 28.3814 33.4878 33.3044C33.4878 38.0111 36.7594 40.2139 39.9892 40.2139C43.3763 40.2139 45.5244 38.1267 45.5244 35.075C45.5253 33.1472 44.3152 31.8088 41.8782 31.8088ZM36.4292 25.3601C37.2375 25.3601 37.8715 24.8851 37.8715 24.0213C37.8715 23.1717 37.2369 22.6968 36.4297 22.6968H35.1322C34.8875 22.6968 34.7719 22.5532 34.7719 22.3657V22.0919C34.7719 21.905 34.8875 21.7609 35.1327 21.7609H36.1274C36.8198 21.7609 37.3674 21.3436 37.3674 20.609C37.3674 19.8755 36.8197 19.4576 36.1274 19.4576H35.1324C34.8876 19.4576 34.7721 19.3135 34.7721 19.126V18.8956C34.7721 18.7087 34.8876 18.5646 35.1329 18.5646H36.4299C37.2372 18.5646 37.8716 18.0895 37.8716 17.2263C37.8716 16.3762 37.2371 15.9011 36.4299 15.9011H33.7055C32.5674 15.9011 32.0191 16.5631 32.0191 17.4561V23.8037C32.0191 24.696 32.5668 25.3586 33.7055 25.3586H36.4299V25.3603H36.4293M11.6632 25.4316C13.9985 25.4316 15.2384 24.035 15.2384 22.2799V17.4285C15.2384 16.5652 14.7342 15.8735 13.8111 15.8735C12.8884 15.8735 12.3842 16.5652 12.3842 17.4285V22.121C12.3842 22.4657 12.1824 22.8688 11.6633 22.8688C11.1443 22.8688 10.9705 22.4657 10.9705 22.121V17.4285C10.9705 16.5652 10.452 15.8735 9.5289 15.8735C8.60634 15.8735 8.10203 16.5652 8.10203 17.4285V22.2793C8.10267 24.0356 9.3283 25.4312 11.6634 25.4312L11.6632 25.4316ZM21.7833 25.4316C22.5329 25.4316 23.1822 24.8416 23.1822 24.107C23.1822 23.6177 22.9804 23.2575 22.7209 22.927C22.303 22.3799 21.928 21.9049 21.7411 21.4018C21.6976 21.2863 21.7263 21.1851 21.8566 21.0845C22.3036 20.7397 22.8227 19.9765 22.8227 18.7674C22.8227 16.9391 21.3084 15.9027 19.4774 15.9027H17.8476C16.7094 15.9027 16.1612 16.5647 16.1612 17.4577V23.8777C16.1612 24.741 16.6661 25.4328 17.5887 25.4328C18.5113 25.4328 19.0161 24.741 19.0161 23.8777V22.3524C19.0161 22.1655 19.1023 22.0786 19.2465 22.0786C19.4197 22.0786 19.4768 22.1792 19.5054 22.3524C19.6353 23.086 19.981 24.079 20.3704 24.5838C20.8606 25.2304 21.3214 25.4316 21.7833 25.4316ZM19.4189 19.9331H19.2166C18.9714 19.9331 18.8564 19.7896 18.8564 19.6021V18.6239C18.8564 18.4369 18.9719 18.2923 19.2166 18.2923H19.4184C20.0243 18.2923 20.2113 18.7245 20.2113 19.099C20.2113 19.458 20.0243 19.9331 19.4184 19.9331H19.4189ZM30.0718 26.2669C28.5873 26.2669 27.78 27.3748 27.78 28.7714V31.8803C27.78 32.1387 27.6931 32.2548 27.5348 32.2548C27.4193 32.2548 27.333 32.1833 27.2323 31.9815L25.2287 28.0957C24.4644 26.6127 23.6715 26.2675 22.7637 26.2675C21.2499 26.2675 20.4136 27.404 20.4136 28.8298V37.7259C20.4136 39.1224 21.2208 40.2306 22.7054 40.2306C24.1906 40.2306 24.9972 39.122 24.9972 37.7259V34.6169C24.9972 34.3586 25.0841 34.2419 25.2425 34.2419C25.358 34.2419 25.4449 34.314 25.5449 34.5158L27.5485 38.4021C28.3128 39.8851 29.1344 40.2304 30.0141 40.2304C31.5279 40.2304 32.3642 39.0932 32.3642 37.6681V28.772C32.3642 27.3754 31.5569 26.2674 30.0718 26.2674V26.2669Z" fill="#D62300"/>
</g>
<defs>
<clipPath id="clip0_2043_297">
<rect width="45.4545" height="50" fill="white" transform="translate(0.272705)"/>
</clipPath>
</defs>
</svg>
