<svg width="402" height="50" viewBox="0 0 402 50" fill="none" xmlns="http://www.w3.org/2000/svg">
<path d="M50.449 7.93417C53.7424 11.6767 54.94 17.2156 54.1915 25.4491C53.5927 34.1318 51.4969 39.521 47.7544 42.9641C43.8622 46.5569 37.425 48.3533 27.8442 48.3533C18.2634 48.3533 11.8262 46.7066 7.93401 42.9641C4.3412 39.521 2.39509 34.1318 1.64659 25.4491C0.898084 17.2156 2.09569 11.6767 5.3891 7.93417C9.28132 3.59285 16.4669 1.49704 27.9939 1.49704C39.3711 1.49704 46.5568 3.59285 50.449 7.93417ZM27.9939 0.299438C4.94 0.299438 -1.04802 8.83237 0.299282 25.5988C1.79629 42.515 7.78431 49.7006 27.8442 49.7006C47.9041 49.7006 53.8921 42.515 55.3891 25.5988C56.8861 8.83237 50.8981 0.299438 27.9939 0.299438Z" fill="#0B457F"/>
<path d="M27.9939 2.69458C7.33525 2.69458 1.64662 10.3293 2.99393 25.5988C4.34123 40.7185 9.73045 47.1557 27.8442 47.1557C45.958 47.1557 51.3472 40.7185 52.6945 25.5988C54.0418 10.3293 48.6526 2.69458 27.9939 2.69458ZM38.3233 6.28739C34.2814 16.467 29.7903 26.1976 28.443 29.1916C28.3898 29.26 28.3217 29.3153 28.2439 29.3534C28.1661 29.3915 28.0806 29.4113 27.9939 29.4113C27.9073 29.4113 27.8218 29.3915 27.7439 29.3534C27.6661 29.3153 27.598 29.26 27.5448 29.1916C26.0478 26.0479 21.5568 16.467 17.6646 6.28739C17.5149 6.13769 17.6646 5.98799 17.8143 5.98799C20.6586 5.38919 24.1017 5.08979 28.1436 5.08979C32.1855 5.08979 35.479 5.38919 38.473 5.98799C38.3233 5.98799 38.473 6.13769 38.3233 6.28739ZM5.23944 25.2994C4.79033 18.2634 5.68854 13.6227 8.38315 10.479C9.88015 8.8323 11.976 7.6347 14.8203 6.7365C14.97 6.7365 14.97 6.7365 14.97 7.0359V20.8084C14.97 23.0539 15.5688 25.2994 16.6167 27.3952L25.7484 44.461C25.8981 44.6107 25.7484 44.7604 25.5987 44.7604C18.4131 44.461 13.7724 43.1137 10.7784 40.2694C7.63465 37.4251 5.98794 32.7844 5.23944 25.2994ZM50.5987 25.2994C49.9999 32.7844 48.2035 37.4251 45.0598 40.2694C42.0658 43.1137 37.2754 44.6107 30.2394 44.7604C29.94 44.7604 29.94 44.461 29.94 44.461L39.0718 27.3952C40.1197 25.2994 40.5688 23.0539 40.5688 20.8084V6.8862C40.5688 6.5868 40.7185 6.5868 40.8682 6.5868C43.7125 7.485 45.8083 8.6826 47.3053 10.3293C50.1496 13.6227 51.1975 18.2634 50.5987 25.2994Z" fill="#0B457F"/>
<path d="M82.4851 36.2275C74.8504 36.2275 70.3594 33.5329 70.3594 25.4491C70.3594 18.1138 75.0001 15.1198 82.7845 15.1198H92.6648V20.6587H83.2336C79.4911 20.6587 78.4432 21.7066 78.4432 25.5988C78.4432 29.7904 79.4911 30.8383 83.533 30.8383H92.6648V36.3772H82.4851V36.2275Z" fill="#0B457F"/>
<path d="M123.503 14.9701V36.2276H115.719V28.1437H107.036V36.2276H99.2515V14.9701H107.036V22.4551H115.719V14.9701H123.503Z" fill="#0B457F"/>
<path d="M127.844 36.2276L136.377 14.9701H143.563C145.359 14.9701 146.108 15.5689 146.557 16.7665L154.79 36.2276H146.407L141.018 23.0539C140.718 22.1557 140.12 22.1557 139.82 23.0539L134.581 36.2276H127.844Z" fill="#0B457F"/>
<path d="M175.898 35.03L166.018 25.7485C165.718 25.2994 165.419 25.4491 165.419 26.0479V36.2276H158.982V14.9701H163.174C164.671 14.9701 165.569 15.2695 166.317 15.8683L176.647 25.4491C176.946 25.8982 177.245 25.5988 177.245 25.1497V14.9701H183.683V35.1797C183.683 35.7785 183.383 36.2276 182.635 36.2276H179.192C177.844 36.2276 176.796 35.7785 175.898 35.03Z" fill="#0B457F"/>
<path d="M213.922 36.2275H202.096C194.012 36.2275 189.671 33.5329 189.671 25.4491C189.671 18.2635 193.862 15.1198 202.246 15.1198H214.82V20.6587H202.545C198.653 20.6587 197.455 21.5569 197.455 25.5988C197.455 29.9401 198.503 31.1377 202.545 31.1377H207.186C207.485 31.1377 207.635 30.8383 207.635 30.5389V28.4431C207.635 28.1437 207.485 27.8443 207.186 27.8443H203.443V23.3533H213.623C214.222 23.3533 214.671 23.6527 214.671 24.4012V35.1796C214.97 35.7784 214.521 36.2275 213.922 36.2275Z" fill="#0B457F"/>
<path d="M219.461 36.2276L227.994 14.9701H235.03C236.976 14.9701 237.575 15.5689 238.174 16.7665L246.258 36.2276H238.024L232.635 23.0539C232.335 22.1557 231.737 22.1557 231.437 23.0539L226.198 36.2276H219.461Z" fill="#0B457F"/>
<path d="M267.515 35.03L257.635 25.7485C257.186 25.2994 257.036 25.4491 257.036 26.0479V36.2276H250.599V14.9701H254.641C256.138 14.9701 257.186 15.2695 257.934 15.8683L268.264 25.4491C268.563 25.8982 268.862 25.5988 268.862 25.1497V14.9701H275.299V35.1797C275.299 35.7785 275 36.2276 274.252 36.2276H270.808C269.461 36.2276 268.413 35.7785 267.515 35.03Z" fill="#0B457F"/>
<path d="M287.725 36.2276L296.258 14.9701H303.443C305.24 14.9701 305.988 15.5689 306.437 16.7665L314.671 36.2276H306.287L300.898 23.0539C300.599 22.1557 300 22.1557 299.701 23.0539L294.461 36.2276H287.725Z" fill="#0B457F"/>
<path d="M341.617 14.9701V27.2455C341.617 34.7306 336.826 36.9761 329.491 36.9761C322.156 36.9761 317.365 34.8803 317.365 27.2455V14.9701H325V26.0479C325 30.3893 327.245 31.4372 329.94 31.4372C332.784 31.4372 335.03 30.3893 335.03 26.0479V14.9701H341.617Z" fill="#0B457F"/>
<path d="M346.557 14.9701H369.91V20.6587H362.126V36.2276H354.341V20.6587H346.557V14.9701Z" fill="#0B457F"/>
<path d="M400.898 25.4491C400.898 33.3832 396.258 36.8263 386.976 36.8263C377.844 36.8263 373.054 33.3832 373.054 25.4491C373.054 17.515 377.844 14.2216 386.976 14.2216C396.108 14.2216 400.898 17.515 400.898 25.4491ZM380.988 25.4491C380.988 29.6407 382.485 31.4371 386.976 31.4371C391.467 31.4371 392.814 29.7904 392.814 25.4491C392.814 21.4072 391.317 19.7605 386.976 19.7605C382.485 19.7605 380.988 21.2575 380.988 25.4491Z" fill="#0B457F"/>
</svg>
