<svg width="194" height="24" viewBox="0 0 194 24" fill="none" xmlns="http://www.w3.org/2000/svg">
<g clip-path="url(#clip0_2045_15)">
<path d="M24.6457 3.80835C26.2265 5.60475 26.8013 8.26344 26.4421 12.2155C26.1546 16.3832 25.1487 18.97 23.3522 20.6227C21.484 22.3473 18.3942 23.2095 13.7954 23.2095C9.19656 23.2095 6.10674 22.4191 4.23847 20.6227C2.51392 18.97 1.57979 16.3832 1.22051 12.2155C0.861227 8.26344 1.43608 5.60475 3.01692 3.80835C4.88518 1.72452 8.33428 0.718527 13.8672 0.718527C19.3283 0.718527 22.7774 1.72452 24.6457 3.80835ZM13.8672 0.143677C2.80135 0.143677 -0.0729048 4.23948 0.573802 12.2874C1.29236 20.4071 4.16662 23.8563 13.7954 23.8563C23.4241 23.8563 26.2984 20.4071 27.0169 12.2874C27.7355 4.23948 24.8612 0.143677 13.8672 0.143677Z" fill="white"/>
<path d="M13.8674 1.29346C3.9512 1.29346 1.22066 4.95813 1.86737 12.2875C2.51407 19.545 5.1009 22.6348 13.7955 22.6348C22.4901 22.6348 25.0769 19.545 25.7237 12.2875C26.3704 4.95813 23.7835 1.29346 13.8674 1.29346ZM18.8255 3.01801C16.8853 7.90424 14.7296 12.5749 14.0829 14.012C14.0574 14.0449 14.0247 14.0714 13.9874 14.0897C13.95 14.108 13.909 14.1175 13.8674 14.1175C13.8258 14.1175 13.7847 14.108 13.7474 14.0897C13.71 14.0714 13.6773 14.0449 13.6518 14.012C12.9332 12.503 10.7775 7.90424 8.90928 3.01801C8.83743 2.94615 8.90928 2.8743 8.98114 2.8743C10.3464 2.58687 11.9991 2.44316 13.9392 2.44316C15.8793 2.44316 17.4602 2.58687 18.8973 2.8743C18.8255 2.8743 18.8973 2.94615 18.8255 3.01801ZM2.94521 12.1438C2.72964 8.76651 3.16078 6.53897 4.45419 5.02998C5.17276 4.23956 6.17874 3.66471 7.54401 3.23358C7.61587 3.23358 7.61587 3.23358 7.61587 3.37729V9.98807C7.61587 11.0659 7.9033 12.1438 8.40629 13.1497L12.7895 21.3414C12.8614 21.4132 12.7895 21.4851 12.7177 21.4851C9.26857 21.3414 7.04102 20.6947 5.60389 19.3294C4.09491 17.9641 3.30449 15.7366 2.94521 12.1438ZM24.7177 12.1438C24.4302 15.7366 23.568 17.9641 22.059 19.3294C20.6219 20.6947 18.3225 21.4132 14.9452 21.4851C14.8015 21.4851 14.8015 21.3414 14.8015 21.3414L19.1847 13.1497C19.6877 12.1438 19.9033 11.0659 19.9033 9.98807V3.30543C19.9033 3.16172 19.9752 3.16172 20.047 3.16172C21.4123 3.59286 22.4183 4.16771 23.1368 4.95813C24.5021 6.53897 25.0051 8.76651 24.7177 12.1438Z" fill="white"/>
<path d="M40.023 17.3892C36.3583 17.3892 34.2026 16.0958 34.2026 12.2155C34.2026 8.69457 36.4302 7.25745 40.1667 7.25745H44.9092V9.91613H40.3823C38.5859 9.91613 38.0829 10.4191 38.0829 12.2874C38.0829 14.2994 38.5859 14.8024 40.526 14.8024H44.9092V17.461H40.023V17.3892Z" fill="white"/>
<path d="M59.7115 7.18567V17.3893H55.975V13.509H51.8073V17.3893H48.0708V7.18567H51.8073V10.7785H55.975V7.18567H59.7115Z" fill="white"/>
<path d="M61.7954 17.3893L65.8912 7.18567H69.3403C70.2026 7.18567 70.5619 7.47309 70.7774 8.04794L74.7295 17.3893H70.7056L68.1188 11.0659C67.975 10.6348 67.6876 10.6348 67.5439 11.0659L65.0289 17.3893H61.7954Z" fill="white"/>
<path d="M84.8612 16.8144L80.1187 12.3593C79.975 12.1438 79.8313 12.2156 79.8313 12.503V17.3893H76.7415V7.18567H78.7534C79.472 7.18567 79.9031 7.32938 80.2624 7.61681L85.2205 12.2156C85.3642 12.4312 85.5079 12.2875 85.5079 12.0719V7.18567H88.5977V16.8863C88.5977 17.1737 88.454 17.3893 88.0948 17.3893H86.4421C85.7953 17.3893 85.2924 17.1737 84.8612 16.8144Z" fill="white"/>
<path d="M103.113 17.3892H97.4362C93.556 17.3892 91.4722 16.0958 91.4722 12.2155C91.4722 8.76643 93.4842 7.25745 97.5081 7.25745H103.544V9.91613H97.6518C95.7835 9.91613 95.2087 10.3473 95.2087 12.2874C95.2087 14.3712 95.7117 14.9461 97.6518 14.9461H99.8794C100.023 14.9461 100.095 14.8024 100.095 14.6586V13.6527C100.095 13.5089 100.023 13.3652 99.8794 13.3652H98.0829V11.2095H102.969C103.257 11.2095 103.472 11.3533 103.472 11.7125V16.8862C103.616 17.1736 103.4 17.3892 103.113 17.3892Z" fill="white"/>
<path d="M105.771 17.3893L109.867 7.18567H113.245C114.179 7.18567 114.466 7.47309 114.754 8.04794L118.634 17.3893H114.682L112.095 11.0659C111.951 10.6348 111.664 10.6348 111.52 11.0659L109.005 17.3893H105.771Z" fill="white"/>
<path d="M128.837 16.8144L124.095 12.3593C123.879 12.1438 123.807 12.2156 123.807 12.503V17.3893H120.718V7.18567H122.658C123.376 7.18567 123.879 7.32938 124.238 7.61681L129.197 12.2156C129.34 12.4312 129.484 12.2875 129.484 12.0719V7.18567H132.574V16.8863C132.574 17.1737 132.43 17.3893 132.071 17.3893H130.418C129.771 17.3893 129.268 17.1737 128.837 16.8144Z" fill="white"/>
<path d="M138.538 17.3893L142.634 7.18567H146.083C146.945 7.18567 147.304 7.47309 147.52 8.04794L151.472 17.3893H147.448L144.861 11.0659C144.717 10.6348 144.43 10.6348 144.286 11.0659L141.771 17.3893H138.538Z" fill="white"/>
<path d="M164.406 7.18567V13.0779C164.406 16.6707 162.107 17.7485 158.586 17.7485C155.065 17.7485 152.766 16.7426 152.766 13.0779V7.18567H156.43V12.503C156.43 14.5869 157.508 15.0899 158.802 15.0899C160.167 15.0899 161.245 14.5869 161.245 12.503V7.18567H164.406Z" fill="white"/>
<path d="M166.777 7.18567H177.987V9.91621H174.25V17.3893H170.514V9.91621H166.777V7.18567Z" fill="white"/>
<path d="M192.861 12.2155C192.861 16.0239 190.634 17.6766 186.179 17.6766C181.795 17.6766 179.496 16.0239 179.496 12.2155C179.496 8.40713 181.795 6.82629 186.179 6.82629C190.562 6.82629 192.861 8.40713 192.861 12.2155ZM183.304 12.2155C183.304 14.2275 184.023 15.0898 186.179 15.0898C188.334 15.0898 188.981 14.2993 188.981 12.2155C188.981 10.2754 188.263 9.48498 186.179 9.48498C184.023 9.48498 183.304 10.2035 183.304 12.2155Z" fill="white"/>
</g>
<defs>
<clipPath id="clip0_2045_15">
<rect width="192.647" height="24" fill="white" transform="translate(0.430176)"/>
</clipPath>
</defs>
</svg>
