<svg width="73" height="40" viewBox="0 0 73 40" fill="none" xmlns="http://www.w3.org/2000/svg">
<path fill-rule="evenodd" clip-rule="evenodd" d="M52.8938 30.8381C52.9737 30.7162 52.8855 30.5556 52.7397 30.5556H18.9578C18.812 30.5556 18.7237 30.7162 18.8036 30.8381C22.4144 36.3509 28.6995 40 35.8487 40C42.998 40 49.2831 36.3509 52.8938 30.8381ZM52.513 8.60139C52.5986 8.72287 52.511 8.88889 52.3624 8.88889H19.3351C19.1865 8.88889 19.0988 8.72287 19.1844 8.60139C22.8464 3.40312 28.9446 0 35.8487 0C42.7528 0 48.851 3.40312 52.513 8.60139Z" fill="white"/>
<path fill-rule="evenodd" clip-rule="evenodd" d="M0.10791 10.3704C0.10791 10.1147 0.315186 9.90747 0.570873 9.90747H71.8672C72.1229 9.90747 72.3301 10.1147 72.3301 10.3704V29.0741C72.3301 29.3298 72.1229 29.5371 71.8672 29.5371H0.570872C0.315185 29.5371 0.10791 29.3298 0.10791 29.0741V10.3704ZM9.45966 12.5927H5.89485C5.63916 12.5927 5.43188 12.7999 5.43188 13.0556V26.4815C5.43188 26.7372 5.63916 26.9445 5.89485 26.9445H9.45966C13.256 26.9445 14.9226 23.2871 14.9226 19.7686C14.9226 16.2501 13.2563 12.5927 9.45966 12.5927ZM8.95515 15.6482H8.81151C8.55583 15.6482 8.34855 15.8555 8.34855 16.1112V23.426C8.34855 23.6817 8.55583 23.8889 8.81151 23.8889H8.95515C10.9551 23.8889 11.9597 21.7889 11.9597 19.7686C11.9597 17.7483 10.9553 15.6482 8.95515 15.6482ZM21.9003 12.5927H19.3348C19.1334 12.5927 18.9551 12.7229 18.8938 12.9148L14.6062 26.3407C14.5108 26.6394 14.7337 26.9445 15.0472 26.9445H17.2621C17.4672 26.9445 17.6478 26.8096 17.706 26.6131L18.2503 24.7759C18.3086 24.5794 18.4892 24.4445 18.6942 24.4445H22.5519C22.7512 24.4445 22.9281 24.572 22.9911 24.7611L23.6134 26.6279C23.6764 26.817 23.8533 26.9445 24.0526 26.9445H26.2313C26.5454 26.9445 26.7683 26.6384 26.6719 26.3394L22.3409 12.9135C22.2792 12.7223 22.1013 12.5927 21.9003 12.5927ZM19.4356 21.8519H21.8277C21.9516 21.8519 22.0406 21.7326 22.0052 21.6138L20.8031 17.5806C20.7505 17.404 20.5002 17.4043 20.448 17.5811L19.258 21.6143C19.223 21.733 19.3119 21.8519 19.4356 21.8519ZM41.9199 13.8986L40.6587 15.5102C40.5749 15.6173 40.4005 15.6037 40.3088 15.5032C40.0574 15.2275 39.5705 14.9075 38.8115 14.9075C37.8115 14.9075 37.5615 15.6482 37.5615 16.0186C37.5615 16.6637 38.3907 17.2647 39.3888 17.9883C40.8978 19.0822 42.793 20.456 42.793 22.6853C42.793 25.2316 40.4782 27.3612 37.793 27.3612C35.8865 27.3612 34.3009 26.1456 33.5476 25.3328C33.3981 25.1714 33.4049 24.9262 33.5478 24.759L35.0476 23.003C35.1255 22.9119 35.2688 22.9172 35.3485 23.0067C35.7681 23.478 36.6559 24.1667 37.793 24.1667C39.0893 24.1667 39.3825 23.1791 39.3671 22.6853C39.3671 21.5954 38.3234 20.8471 37.181 20.0281C35.7999 19.0379 34.2745 17.9443 34.2745 16.0186C34.2745 13.9816 35.8023 12.0371 38.3486 12.0371C40.0803 12.0371 41.3102 12.7955 41.8959 13.3452C42.052 13.4917 42.0519 13.73 41.9199 13.8986ZM33.3486 12.5927H26.0338C25.7781 12.5927 25.5708 12.7999 25.5708 13.0556V15.139C25.5708 15.3946 25.7781 15.6019 26.0338 15.6019H28.1634C28.2657 15.6019 28.3486 15.6848 28.3486 15.7871V26.4816C28.3486 26.7372 28.5559 26.9445 28.8115 26.9445H30.8486C31.1043 26.9445 31.3115 26.7372 31.3115 26.4816V15.7871C31.3115 15.6848 31.3945 15.6019 31.4967 15.6019H33.3486C33.6043 15.6019 33.8115 15.3946 33.8115 15.139V13.0556C33.8115 12.7999 33.6043 12.5927 33.3486 12.5927Z" fill="white"/>
<path d="M46.1779 12.59H44.1279C43.8518 12.59 43.6279 12.8138 43.6279 13.09V22.405C43.6279 25.114 45.824 27.31 48.5329 27.31Lnan nanCnan nan -nan -nan -nan -nanL-nan -nanC-nan -nan nan nan nan nanL48.5329 27.31C51.2419 27.31 53.4379 25.114 53.4379 22.405V13.09C53.4379 12.8138 53.2141 12.59 52.9379 12.59H50.8879C50.6118 12.59 50.3879 12.8138 50.3879 13.09V22.315C50.3879 23.3395 49.5574 24.17 48.5329 24.17C47.5084 24.17 46.6779 23.3395 46.6779 22.315V13.09C46.6779 12.8138 46.4541 12.59 46.1779 12.59Z" fill="black"/>
<path d="M58.5182 12.59H56.3479C56.0718 12.59 55.8479 12.8138 55.8479 13.09V26.44C55.8479 26.7161 56.0718 26.94 56.3479 26.94H58.3079C58.5841 26.94 58.8079 26.7161 58.8079 26.44V19.5362C58.8079 19.3844 59.0074 19.3286 59.0861 19.4583L63.4819 26.6995C63.5726 26.8488 63.7346 26.94 63.9093 26.94H66.0879C66.3641 26.94 66.5879 26.7161 66.5879 26.44V13.09C66.5879 12.8138 66.3641 12.59 66.0879 12.59H64.1279C63.8518 12.59 63.6279 12.8138 63.6279 13.09V20.4366C63.6279 20.5903 63.4242 20.6445 63.3478 20.5112L58.952 12.8413C58.8629 12.6859 58.6974 12.59 58.5182 12.59Z" fill="black"/>
</svg>
