<svg width="91" height="50" viewBox="0 0 91 50" fill="none" xmlns="http://www.w3.org/2000/svg">
<path d="M0 12.963C0 12.6434 0.259094 12.3843 0.578704 12.3843H89.6991C90.0187 12.3843 90.2778 12.6434 90.2778 12.963V36.3426C90.2778 36.6622 90.0187 36.9213 89.6991 36.9213H0.578702C0.259093 36.9213 0 36.6622 0 36.3426V12.963Z" fill="#04256B"/>
<path fill-rule="evenodd" clip-rule="evenodd" d="M65.9823 38.5477C66.0822 38.3952 65.9719 38.1944 65.7896 38.1944H23.5622C23.3799 38.1944 23.2696 38.3952 23.3695 38.5477C27.883 45.4386 35.7393 50 44.6759 50C53.6124 50 61.4688 45.4386 65.9823 38.5477ZM65.5063 10.7517C65.6133 10.9036 65.5037 11.1111 65.3179 11.1111H24.0339C23.8481 11.1111 23.7385 10.9036 23.8455 10.7517C28.423 4.2539 36.0458 0 44.6759 0C53.306 0 60.9287 4.2539 65.5063 10.7517Z" fill="#B20008"/>
<path fill-rule="evenodd" clip-rule="evenodd" d="M11.6898 15.7407H7.23373C6.91412 15.7407 6.65503 15.9998 6.65503 16.3194V33.1018C6.65503 33.4214 6.91412 33.6805 7.23373 33.6805H11.6898C16.4351 33.6805 18.5185 29.1088 18.5185 24.7106C18.5185 20.3125 16.4355 15.7407 11.6898 15.7407ZM11.0591 19.5602H10.8796C10.56 19.5602 10.3009 19.8193 10.3009 20.1389V29.2824C10.3009 29.602 10.56 29.8611 10.8796 29.8611H11.0591C13.5591 29.8611 14.8148 27.236 14.8148 24.7106C14.8148 22.1852 13.5593 19.5602 11.0591 19.5602ZM27.2406 15.7407H24.0337C23.7819 15.7407 23.5591 15.9035 23.4825 16.1434L18.1229 32.9258C18.0037 33.2991 18.2823 33.6805 18.6742 33.6805H21.4428C21.6991 33.6805 21.9249 33.512 21.9977 33.2662L22.6781 30.9698C22.7509 30.7241 22.9767 30.5555 23.233 30.5555H28.055C28.3041 30.5555 28.5253 30.7149 28.6041 30.9512L29.3819 33.2848C29.4607 33.5211 29.6818 33.6805 29.9309 33.6805H32.6543C33.0469 33.6805 33.3256 33.2978 33.205 32.9242L27.7913 16.1418C27.7142 15.9027 27.4917 15.7407 27.2406 15.7407ZM24.1596 27.3148H27.1498C27.3047 27.3148 27.4159 27.1656 27.3717 27.0172L25.8691 21.9757C25.8032 21.7549 25.4904 21.7553 25.4252 21.9763L23.9376 27.0178C23.8939 27.1661 24.005 27.3148 24.1596 27.3148Z" fill="white"/>
<path d="M73.5461 16.0335C73.4433 15.8525 73.2511 15.7407 73.043 15.7407H70.2547C69.9351 15.7407 69.676 15.9998 69.676 16.3194V33.1018C69.676 33.4214 69.9351 33.6805 70.2547 33.6805H72.801C73.1206 33.6805 73.3797 33.4214 73.3797 33.1018V24.5033C73.3797 24.2686 73.6887 24.1829 73.8096 24.384L79.2296 33.4C79.3342 33.5741 79.5225 33.6805 79.7256 33.6805H82.5232C82.8429 33.6805 83.102 33.4214 83.102 33.1018V16.3194C83.102 15.9998 82.8429 15.7407 82.5232 15.7407H79.977C79.6573 15.7407 79.3982 15.9998 79.3982 16.3194V25.4552C79.3982 25.6928 79.0829 25.7762 78.9655 25.5696L73.5461 16.0335Z" fill="white"/>
<path d="M66.6667 16.3194C66.6667 15.9998 66.4076 15.7407 66.088 15.7407H63.426C63.1064 15.7407 62.8473 15.9998 62.8473 16.3194V27.8935C62.8473 29.1719 61.8109 30.2083 60.5325 30.2083Lnan nanL60.5325 30.2083C59.254 30.2083 58.2176 29.1719 58.2176 27.8935V16.3194C58.2176 15.9998 57.9585 15.7407 57.6389 15.7407H54.9769C54.6573 15.7407 54.3982 15.9998 54.3982 16.3194V28.0092C54.3982 31.3971 57.1446 34.1435 60.5325 34.1435Lnan nanL60.5325 34.1435C63.9203 34.1435 66.6667 31.3971 66.6667 28.0092V16.3194Z" fill="white"/>
<path fill-rule="evenodd" clip-rule="evenodd" d="M50.6885 19.3876L52.265 17.3731C52.4299 17.1624 52.4302 16.8645 52.235 16.6814C51.5029 15.9943 49.9655 15.0463 47.8008 15.0463C44.618 15.0463 42.7082 17.4768 42.7082 20.0231C42.7082 22.4302 44.615 23.7972 46.3414 25.035C47.7694 26.0588 49.074 26.9941 49.074 28.3565C49.0933 28.9737 48.7268 30.2083 47.1064 30.2083C45.6849 30.2083 44.5752 29.3473 44.0507 28.7583C43.9511 28.6464 43.772 28.6397 43.6746 28.7537L41.7998 30.9486C41.6212 31.1577 41.6127 31.4642 41.7996 31.6658C42.7413 32.6819 44.7233 34.2014 47.1064 34.2014C50.4629 34.2014 53.3564 31.5393 53.3564 28.3565C53.3564 25.5699 50.9874 23.8526 49.1011 22.4852C47.8535 21.5808 46.817 20.8295 46.817 20.0231C46.817 19.5602 47.1295 18.6342 48.3795 18.6342C49.3282 18.6342 49.9369 19.0342 50.2511 19.3789C50.3657 19.5045 50.5837 19.5215 50.6885 19.3876ZM32.4073 15.7407H41.5508C41.8704 15.7407 42.1295 15.9998 42.1295 16.3194V18.9236C42.1295 19.2432 41.8704 19.5023 41.5508 19.5023H39.236C39.1082 19.5023 39.0045 19.6059 39.0045 19.7338V33.1018C39.0045 33.4214 38.7454 33.6805 38.4258 33.6805H35.8795C35.5599 33.6805 35.3008 33.4214 35.3008 33.1018V19.7338C35.3008 19.6059 35.1972 19.5023 35.0694 19.5023H32.4073C32.0877 19.5023 31.8286 19.2432 31.8286 18.9236V16.3194C31.8286 15.9998 32.0877 15.7407 32.4073 15.7407Z" fill="white"/>
</svg>
