<svg width="298" height="50" viewBox="0 0 298 50" fill="none" xmlns="http://www.w3.org/2000/svg">
<g clip-path="url(#clip0_2043_302)">
<path d="M22.3452 5.89092e-05C36.8762 5.89092e-05 48.0476 10.0001 48.0476 24.8429C48.0476 39.6882 36.8762 50.0001 22.3452 50.0001H6.01545C5.21498 50.0398 4.41507 49.9114 3.66725 49.6231C2.91943 49.3349 2.24028 48.8932 1.67357 48.3265C1.10686 47.7598 0.665146 47.0806 0.376895 46.3328C0.0886443 45.585 -0.0397535 44.785 -2.58153e-05 43.9846V6.25006C-0.0442584 5.43742 0.0792964 4.62438 0.362944 3.86156C0.646591 3.09875 1.08426 2.40251 1.64868 1.81619C2.21311 1.22988 2.8922 0.766051 3.64368 0.4536C4.39515 0.141148 5.20291 -0.0132372 6.01664 5.89092e-05H22.3452Z" fill="#FF6900"/>
<path d="M39.0631 19.4523C38.9845 20.0785 38.281 20.0785 37.9679 19.5309C36.9536 17.8131 35.625 17.5 33.5155 17.344C31.9536 17.2654 30.0786 17.4214 28.3595 17.4214C28.29 17.429 28.2198 17.416 28.1575 17.384C28.0953 17.3521 28.0438 17.3026 28.0095 17.2416C27.9876 17.2006 27.9738 17.1557 27.969 17.1095C28.281 15.625 29.531 12.8904 30.8595 12.6571C31.4845 12.5785 32.8905 12.4226 33.6714 12.4226C37.2667 12.4226 39.219 16.5619 39.0631 19.4523ZM18.75 33.5952C21.3976 34.2988 24.1429 34.563 26.875 34.3761C30.4543 34.1338 33.9175 33.0064 36.9536 31.0952C35.781 34.0642 31.3286 35.9392 27.1083 36.4071C27.1083 36.6416 27.031 36.7988 27.031 37.0321C29.7214 36.925 32.3464 36.175 34.6881 34.8452C33.906 37.7357 30 38.9071 26.406 39.1428C26.3174 39.3581 26.2131 39.5666 26.094 39.7666C27.8631 39.7916 29.6274 39.5547 31.3286 39.0642C29.6881 42.1107 22.656 44.219 16.719 41.4071C17.9551 38.9815 18.6482 36.3157 18.75 33.5952ZM38.3595 12.8142C37.7027 12.1932 36.9298 11.7079 36.0851 11.3861C35.2404 11.0644 34.3404 10.9125 33.4369 10.9392C31.094 10.9392 29.1405 11.5642 26.25 11.6416C24.2976 11.7202 22.5 7.42257 20.156 6.87615C19.1405 4.61067 16.7964 4.29757 15.3905 5.47019C14.0619 4.68924 12.031 5.07972 11.9536 6.56424C10.469 6.09519 8.51548 6.87615 9.375 8.9071C5.70357 8.98567 5.07738 12.2666 7.5 12.5797C4.29762 14.3773 5.78095 17.5011 8.4381 16.8773C8.90595 21.5642 11.0155 27.6571 7.57857 29.1416C7.1881 29.2976 5.625 29.6892 2.65595 28.9857L0 28.2821V30.7035C2.57857 31.3285 5.15595 31.7964 6.79762 31.6404C11.3286 31.1726 11.5631 27.4226 11.3286 24.1404C11.094 20.8583 10 17.1881 10.3905 14.5309L10.2345 14.3761C8.59405 16.094 7.5 15.6261 7.34405 15.0785C7.10952 13.9845 9.0631 12.5785 10.156 12.1095C10.156 12.0309 10.2345 11.9535 10.2345 11.875C9.21905 12.0309 7.96905 11.875 7.89048 11.1726C7.8119 10.3131 9.60952 9.45353 11.9536 9.68805C12.031 9.68805 12.031 9.60948 12.1083 9.60948L11.6405 9.37496C11.0155 9.06305 10.8595 8.51543 11.0929 8.20353C11.2677 8.00793 11.4863 7.85638 11.7309 7.76122C11.9754 7.66607 12.2389 7.62998 12.5 7.65591C13.2281 7.66393 13.9466 7.82368 14.6095 8.12496C14.6881 8.12496 14.6881 8.04638 14.7655 8.04638C14.6095 7.89162 14.375 7.73448 14.2964 7.57853C14.2122 7.46088 14.1738 7.31659 14.1882 7.17264C14.2027 7.02869 14.2691 6.89494 14.375 6.79638C14.681 6.64602 15.0265 6.59536 15.3628 6.65152C15.6992 6.70768 16.0094 6.86784 16.25 7.10948L16.6405 7.49996C16.683 7.50527 16.7261 7.50096 16.7667 7.48736C16.8073 7.47376 16.8443 7.45121 16.875 7.42138C16.7323 7.27428 16.6488 7.07974 16.6405 6.87496C16.6162 6.8136 16.6052 6.74782 16.6081 6.68192C16.611 6.61601 16.6278 6.55146 16.6573 6.49247C16.6869 6.43349 16.7285 6.3814 16.7796 6.33961C16.8306 6.29782 16.8899 6.26727 16.9536 6.24996C17.1307 6.22008 17.3126 6.24089 17.4784 6.30998C17.6442 6.37907 17.787 6.49363 17.8905 6.64043C18.0964 6.95472 18.2536 7.29638 18.3595 7.65591C17.4387 7.69802 16.5374 7.93586 15.7157 8.35359C14.894 8.77133 14.1707 9.35936 13.594 10.0785C12.966 11.007 12.5554 12.0652 12.393 13.1743C12.2306 14.2834 12.3205 15.4149 12.656 16.4845C13.2217 18.885 13.9793 21.2362 14.9214 23.5154V23.594C16.7964 28.9845 20.3905 42.2654 2.96905 49.2964C3.87248 49.7312 4.85733 49.9709 5.85952 50H7.65714C10.6832 48.4724 13.3264 46.2829 15.3905 43.594C23.3595 47.1095 30.625 45.313 33.75 39.5309C34.7215 38.9183 35.5422 38.0943 36.1509 37.1204C36.7596 36.1464 37.1406 35.0476 37.2655 33.9059C37.8403 33.208 38.2454 32.3861 38.4489 31.5051C38.6524 30.6241 38.6487 29.7079 38.4381 28.8285C38.3595 28.5154 38.0464 28.5154 37.5786 28.75C31.094 32.6559 25.3905 33.2809 18.594 31.25C18.4136 29.1233 18.1002 27.0101 17.656 24.9226C17.5 22.188 18.3583 20.8595 23.3583 22.5C26.6405 23.3595 28.125 24.844 29.2964 25.625C29.844 26.0154 30.5464 26.4845 30.9369 26.1726C31.1714 26.0154 31.25 25.5464 31.25 25C31.1127 23.2824 30.6348 21.6094 29.844 20.0785C31.3271 19.9968 32.8134 19.9968 34.2964 20.0785C34.8035 20.1026 35.2914 20.2797 35.6959 20.5866C36.1003 20.8935 36.4022 21.3157 36.5619 21.7976C37.1095 23.3595 40.1571 22.969 40.3905 21.6404C40.8595 18.9059 41.0155 15.3131 38.3595 12.8131M3.67143 36.25C2.44888 36.1712 1.22254 36.1712 0 36.25L0 37.8904C2.10952 37.4226 3.4381 37.188 3.4381 37.188L3.67143 36.25Z" fill="black"/>
<path d="M23.2035 19.1405C20.469 18.5155 17.4226 17.7334 15.8595 15.3905C15.8595 15.3119 15.7821 15.3119 15.7047 15.3119C15.6944 15.3119 15.6842 15.314 15.6746 15.3179C15.6651 15.3219 15.6564 15.3276 15.6492 15.3349C15.6419 15.3422 15.6361 15.3509 15.6321 15.3604C15.6282 15.37 15.6261 15.3802 15.6261 15.3905C15.6144 15.5254 15.6412 15.6608 15.7035 15.781L15.469 15.8584C15.2543 15.5966 15.1307 15.2721 15.1167 14.9338C15.1028 14.5955 15.1993 14.2619 15.3916 13.9834C15.7246 13.6466 16.166 13.4385 16.6377 13.3958C17.1093 13.3531 17.5809 13.4786 17.969 13.75L17.8916 13.9834C17.5278 13.8888 17.143 13.9164 16.7964 14.0619C16.7414 14.0891 16.693 14.1279 16.6546 14.1757C16.6162 14.2234 16.5886 14.279 16.5739 14.3385C16.5592 14.398 16.5576 14.46 16.5693 14.5202C16.581 14.5804 16.6057 14.6373 16.6416 14.6869C17.969 17.1869 21.8761 17.7345 26.4845 17.3429C26.6293 17.363 26.7762 17.3251 26.8932 17.2375C27.0102 17.1499 27.088 17.0196 27.1095 16.875C27.4539 15.3231 28.2097 13.8925 29.2976 12.7334C28.5488 12.856 27.7904 12.9084 27.0321 12.8905C24.688 13.0453 23.2821 12.7334 22.8916 12.4215L22.969 12.1869C23.2035 12.2655 23.5166 12.2655 23.5166 12.1869C23.5166 12.1084 23.5166 12.031 23.438 11.9524C22.969 11.5619 20.938 9.45241 20.938 9.45241C20.7035 7.65479 18.1261 7.65479 17.1095 9.37503L16.7976 9.29645C16.8654 8.96074 16.9976 8.64169 17.188 8.35836C16.233 8.61647 15.3785 9.15768 14.737 9.91076C14.0955 10.6638 13.697 11.5935 13.594 12.5774C12.6571 20.5465 24.7666 18.6715 28.2035 21.875C28.2821 21.9524 28.438 22.1869 28.5166 22.0298C28.594 21.875 27.1095 20 23.2035 19.1405ZM18.9845 9.60717C19.5321 9.45241 20.3916 9.99884 20.7821 10.8572C21.1726 11.7155 21.094 12.5762 20.5476 12.8107C19.9999 13.0453 19.1416 12.4203 18.7499 11.5607C18.6726 11.4048 18.6726 11.3262 18.5952 11.1703H18.6726C18.7381 11.2476 18.8252 11.3036 18.9227 11.3314C19.0202 11.3592 19.1237 11.3574 19.2202 11.3262C19.4535 11.1703 19.3749 10.8572 19.2202 10.5453C19.063 10.2322 18.8285 10.0762 18.594 10.0762L18.5166 9.99884C18.6297 9.82426 18.7927 9.68778 18.9845 9.60717ZM36.9535 31.0929C33.9178 33.0039 30.4551 34.1313 26.8761 34.3738C24.144 34.5167 21.4059 34.2548 18.7511 33.5929C18.7503 34.3818 18.6722 35.1631 18.5166 35.9369C20.7963 36.4731 23.1273 36.7613 25.469 36.7965C24.966 39.0658 23.7965 41.1331 22.1107 42.7334C26.3285 42.8905 30.1571 41.2488 31.3285 39.0619C29.6348 39.5853 27.8657 39.8227 26.094 39.7643C26.1726 39.531 26.3285 39.3738 26.4071 39.1393C30.0011 38.9845 33.9071 37.8119 34.688 34.8429C32.3467 36.1714 29.7219 36.9216 27.0321 37.031C27.0321 36.7965 27.1107 36.6393 27.1107 36.406C31.3285 35.8584 35.7821 34.0607 36.9535 31.0929Z" fill="white"/>
<path d="M286.273 27.3429C285.177 27.3429 284.081 27.1881 283.064 26.9524L286.194 20L289.324 26.9524C288.307 27.1869 287.289 27.3429 286.273 27.3429ZM297.306 32.656L290.029 16.7179C289.168 15 288.073 14.2179 286.429 14.2179H286.116C284.394 14.2179 283.299 15 282.438 16.7179L275.161 32.656C274.457 34.2179 274.926 35.625 276.413 36.1715C277.666 36.7191 279.074 36.25 279.7 35L279.777 34.8429L281.422 31.406C283.064 31.9536 284.707 32.1869 286.429 32.1869C288.073 32.1869 289.716 31.9524 291.202 31.406L292.767 34.8429C293.237 36.0929 294.645 36.7179 295.975 36.25H296.054L296.211 36.1715C297.462 35.6238 298.088 34.1405 297.541 32.8905C297.383 32.8119 297.383 32.7345 297.306 32.656ZM271.014 31.1715H269.606V16.6405C269.683 15.2345 268.51 14.0619 267.101 13.9834H266.867C265.458 13.906 264.285 15 264.206 16.406V31.25H254.894V16.6405C254.875 16.2805 254.785 15.9278 254.629 15.6028C254.473 15.2779 254.254 14.9871 253.985 14.7473C253.716 14.5075 253.402 14.3234 253.061 14.2058C252.721 14.0881 252.36 14.0392 252 14.0619C251.326 14.0937 250.688 14.3754 250.21 14.8521C249.733 15.3289 249.45 15.9665 249.417 16.6405V33.8274C249.339 35.2334 250.356 36.406 251.764 36.4845H268.197V38.8274C268.119 40.2334 269.136 41.406 270.544 41.4834H270.78C272.11 41.5619 273.362 40.5465 273.439 39.2179V33.9845C273.597 32.656 272.579 31.4845 271.327 31.3274H270.857M243.939 31.1715H242.531V16.6405C242.61 15.2345 241.436 14.0619 240.027 13.9834H239.87C238.462 13.9834 237.367 15.0786 237.288 16.4834V31.25H227.978V16.6405C227.959 16.2804 227.869 15.9276 227.713 15.6026C227.556 15.2775 227.337 14.9866 227.068 14.7468C226.799 14.507 226.485 14.323 226.144 14.2054C225.803 14.0878 225.442 14.0391 225.082 14.0619C224.408 14.094 223.771 14.3758 223.293 14.8525C222.816 15.3292 222.533 15.9667 222.5 16.6405V33.8274C222.422 35.2334 223.438 36.406 224.847 36.4845H241.28V38.8274C241.201 40.2334 242.218 41.406 243.626 41.4834H243.862C245.192 41.6405 246.444 40.625 246.6 39.2964V33.906C246.757 32.5774 245.739 31.406 244.487 31.25H244.018M214.049 14.2179H213.814C212.249 14.2179 211.154 15 210.058 16.5631L201.294 28.9834V16.7976C201.288 16.1152 201.013 15.4625 200.53 14.9803C200.047 14.498 199.395 14.2247 198.712 14.2191C198.03 14.2247 197.377 14.498 196.894 14.9803C196.411 15.4625 196.136 16.1152 196.13 16.7976V33.3607C196.051 34.9226 197.147 36.2512 198.712 36.3286H199.416C201.06 36.3286 202.233 35.4691 203.25 33.9857L212.014 21.5631V33.6726C212.014 35.0786 213.188 36.2512 214.597 36.2512C215.279 36.2456 215.932 35.9723 216.415 35.49C216.898 35.0077 217.172 34.3551 217.179 33.6726V17.1869C217.335 15.625 216.162 14.2965 214.597 14.2179H214.049ZM187.913 14.2179H172.889C171.56 14.1405 170.307 15.156 170.229 16.4845V33.9845C170.151 35.3893 171.325 36.5619 172.733 36.6393H172.968C174.376 36.7179 175.55 35.625 175.629 34.2179V19.375H185.252V33.9845C185.175 35.3893 186.27 36.5619 187.679 36.6393H187.992C189.4 36.7179 190.652 35.625 190.731 34.2179V16.7976C190.731 15.3917 189.635 14.2191 188.305 14.2191L187.913 14.2179ZM149.024 31.5631C145.502 31.5631 142.999 28.906 142.999 25.3131C142.999 21.9524 145.737 19.2965 149.024 19.2965C152.31 19.2965 155.049 22.031 155.049 25.3119C155.127 28.906 152.623 31.5619 149.024 31.5619M149.024 14.0619C147.56 14.0212 146.102 14.2702 144.735 14.7945C143.367 15.3187 142.117 16.108 141.055 17.117C139.993 18.126 139.142 19.3347 138.549 20.6738C137.955 22.013 137.633 23.4561 137.599 24.9203V25.3893C137.443 31.5607 142.373 36.6393 148.476 36.7167H148.945C155.127 36.7953 160.292 31.8738 160.37 25.7012V25.3893C160.448 19.2953 155.518 14.2167 149.414 14.1393L149.024 14.0619ZM127.192 31.25H118.35C118.976 30.0774 119.367 28.8274 119.68 27.5C119.993 25.7024 120.227 23.8274 120.227 22.031L120.306 19.4524H127.114L127.192 31.25ZM133.922 31.25H132.513V16.7965C132.592 15.3905 131.574 14.2179 130.166 14.1405H117.489C116.002 14.1405 115.063 15.0774 115.063 16.7965V20.3119C115.14 22.5101 114.983 24.7102 114.594 26.875C114.36 28.4369 113.733 29.9215 112.873 31.25H112.247C110.917 31.1715 109.743 32.1084 109.664 33.4369V38.8274C109.586 40.2334 110.604 41.406 112.012 41.4834H112.247C113.576 41.5619 114.83 40.5465 114.907 39.2179V36.5619H131.105V38.906C131.026 40.3119 132.044 41.4845 133.452 41.5619H133.687C135.017 41.6405 136.269 40.625 136.348 39.2964V34.0619C136.504 32.8119 135.643 31.5619 134.313 31.406H133.766M97.6918 31.5619C94.1715 31.5619 91.668 28.906 91.668 25.3119C91.668 21.9524 94.4061 19.2965 97.6918 19.2965C99.2884 19.2958 100.82 19.929 101.95 21.057C103.08 22.1849 103.716 23.7153 103.718 25.3119C103.795 28.906 101.448 31.5619 97.6918 31.5619ZM97.6918 14.0619C96.2276 14.0209 94.7698 14.2697 93.4021 14.794C92.0344 15.3182 90.7839 16.1076 89.7223 17.1168C88.6607 18.1259 87.809 19.335 87.2162 20.6744C86.6234 22.0138 86.3011 23.4571 86.268 24.9215V25.3905C86.2244 26.852 86.4726 28.3075 86.9981 29.672C87.5236 31.0364 88.3158 32.2824 89.3285 33.3371C90.3412 34.3917 91.5539 35.234 92.8959 35.8145C94.2379 36.3949 95.6821 36.7021 97.1442 36.7179H97.6918C103.874 36.7965 109.038 31.875 109.117 25.7024V25.3905C109.195 18.75 104.266 14.0619 97.6918 14.0619ZM75.7037 31.25H66.9406C67.5668 30 67.9573 28.75 68.2704 27.4215C68.5834 25.6238 68.818 23.75 68.818 21.9524L68.8965 19.375H75.7049L75.7037 31.25ZM82.4335 31.25H81.0251V16.7965C81.1037 15.3905 80.0858 14.2179 78.6775 14.1405H66.1584C64.6704 14.1405 63.7323 15.0774 63.7323 16.7965V20.3119C63.8095 22.5101 63.6523 24.7102 63.2632 26.875C63.0275 28.4369 62.4025 29.9215 61.5406 31.25H60.9156C59.5846 31.1715 58.4108 32.1084 58.3323 33.4369V38.8274C58.2549 40.2334 59.2727 41.406 60.6799 41.4834H60.9156C62.2454 41.5619 63.4977 40.5465 63.5763 39.2179V36.5619H79.7739V38.906C79.6954 40.3119 80.712 41.4845 82.1204 41.5619H82.3561C83.6858 41.6405 84.9382 40.625 85.0156 39.2964V34.0619C85.1727 32.7345 84.1549 31.5619 82.9037 31.406C82.7465 31.1715 82.5906 31.1715 82.4335 31.25Z" fill="black"/>
</g>
<defs>
<clipPath id="clip0_2043_302">
<rect width="297.619" height="50" fill="white"/>
</clipPath>
</defs>
</svg>
