<svg width="191" height="32" viewBox="0 0 191 32" fill="none" xmlns="http://www.w3.org/2000/svg">
<g clip-path="url(#clip0_2045_9)">
<path fill-rule="evenodd" clip-rule="evenodd" d="M14.4176 0.16626H4.81763C2.15789 0.16626 0.163086 2.24418 0.163086 4.94548V17.7689L1.40516 18.0665C2.39644 18.3147 3.77479 18.6598 4.69296 18.6598C5.93971 18.6598 6.85399 18.2027 6.85399 16.2079C6.85399 15.3059 6.66223 14.1642 6.48681 13.1198C6.37933 12.4799 6.27798 11.8765 6.23062 11.3871C4.69296 11.7611 3.82023 9.93255 5.69036 8.89359C4.23581 8.6858 4.6514 6.77411 6.77088 6.73255C6.27218 5.61047 7.39425 5.15333 8.26698 5.40268C8.30854 4.57151 9.51373 4.32216 10.2618 4.77931C11.093 4.11437 12.4644 4.2806 13.0462 5.61047C13.7187 5.75312 14.3012 6.41534 14.8624 7.05331C15.4457 7.71642 16.006 8.35333 16.6202 8.35333C17.462 8.35333 18.0502 8.26204 18.6455 8.16966C19.255 8.07505 19.8719 7.97931 20.7761 7.97931C22.9371 7.97931 25.015 9.55853 25.015 12.8416C25.015 14.3377 24.5163 14.7533 23.7267 14.7533C23.3111 14.7533 22.9371 14.5871 22.7293 14.2546C22.6916 14.1943 22.6593 14.127 22.6253 14.0562C22.4722 13.7369 22.2838 13.3442 21.3994 13.1741C20.9007 13.1326 19.9865 13.091 18.8228 13.1741C19.1969 13.7144 19.5293 15.1274 19.5293 16.0416C19.5293 16.4988 19.3215 16.6235 19.1137 16.6235C18.847 16.6235 18.5397 16.3601 18.1469 16.0233C17.7441 15.6781 17.2514 15.2557 16.6202 14.9611C15.3735 14.3793 13.7943 14.1715 12.9631 14.1715C11.841 14.1715 11.5917 14.9611 11.7579 16.0001C11.7898 16.202 11.8325 16.4365 11.8806 16.7001C12.0205 17.4676 12.2054 18.4818 12.2982 19.6572C13.7527 20.0728 15.1241 20.2806 16.454 20.2806C18.6566 20.2806 20.9839 19.5741 23.3527 18.1611C23.6436 17.9949 23.8098 17.9949 23.8514 18.2027C24.0592 18.9923 23.9345 20.1975 23.1865 21.1533C23.1033 22.2339 22.3137 23.73 21.1085 24.4364C19.9449 26.639 17.7007 27.8442 15.041 27.8442C13.628 27.8442 12.0904 27.5533 10.428 26.8053C9.64858 27.8965 8.54023 29.0608 6.41752 30.2982C5.13318 31.0469 3.23841 31.591 3.23841 31.591C3.7251 31.7491 4.25509 31.8338 4.81752 31.8338L14.4176 31.8338C23.8514 31.8338 30.7501 25.1429 30.7501 15.9169C30.7501 6.81561 23.8514 0.16626 14.4176 0.16626ZM9.24791 6.03046C9.43626 6.0637 9.60573 6.11186 9.75282 6.16449C9.81586 6.18704 9.8748 6.21041 9.92935 6.23379C9.97091 6.23379 10.0125 6.19225 10.0125 6.19225C9.88783 6.10914 9.80472 6.02602 9.76316 5.90134C9.68004 5.77667 9.63848 5.56888 9.80472 5.4442C9.92931 5.34453 10.1435 5.28968 10.3937 5.35131C10.5607 5.39247 10.7437 5.48558 10.9268 5.65199L11.1762 5.90133C11.2177 5.90133 11.2593 5.90133 11.3424 5.85978C11.2593 5.73511 11.2177 5.65199 11.1761 5.52732C11.1346 5.36108 11.2177 5.23641 11.3839 5.15329C11.4643 5.13722 11.5446 5.13979 11.6202 5.1586C11.74 5.18843 11.8477 5.25912 11.9242 5.36108C12.0489 5.56888 12.132 5.81823 12.1735 5.98446C11.2177 6.10914 8.68264 6.69095 8.68264 9.76628C8.68264 11.0978 9.1764 12.4622 9.72449 13.9768C10.4081 15.8657 11.1761 17.9882 11.1761 20.5715C11.1761 22.2754 10.8021 23.9793 9.26446 25.9325C8.05926 27.4702 6.1475 28.9663 3.23841 30.1715C2.49551 30.4457 2.1095 30.5289 1.49849 30.5455C0.659726 29.7235 0.163086 28.562 0.163086 27.2208V19.1L1.80375 19.5442C2.59373 19.7271 3.56878 19.91 4.43595 19.9696C4.62473 19.9825 4.8084 19.9897 4.98394 19.9897C6.93718 19.9897 8.0177 18.826 8.0177 16.665C8.0177 15.4117 7.82394 14.2046 7.64945 13.1175C7.45361 11.8976 7.28205 10.8288 7.43589 10.0156L7.39433 9.97407C6.79689 10.5975 6.31307 10.7338 6.02413 10.6672C6.00506 10.6628 5.98684 10.6576 5.9695 10.6515C5.82914 10.6023 5.74586 10.5006 5.73199 10.3897C5.60732 9.72472 6.72939 8.93511 7.39433 8.6442C7.39433 8.62342 7.40472 8.60264 7.41511 8.58186C7.4255 8.56108 7.43589 8.5403 7.43589 8.51952C7.12055 8.56156 6.78388 8.56107 6.52285 8.49652C6.26787 8.43346 6.08499 8.30929 6.06446 8.10394C6.0229 7.60524 7.06186 7.10654 8.43329 7.23121L8.51639 7.14809C8.43328 7.10653 8.35016 7.06498 8.2255 7.02342C7.89303 6.85719 7.76835 6.52472 7.89303 6.31693C8.0177 6.06758 8.39173 5.98446 8.7242 5.98446C8.91118 5.98446 9.08648 6.00198 9.24791 6.03046ZM3.44628 23.3143C3.44628 23.3143 2.40731 23.4806 1.40991 23.6884V22.7741C1.68128 22.7741 1.96738 22.7692 2.24459 22.7644C2.77395 22.7553 3.27091 22.7468 3.57095 22.7741L3.44628 23.3143ZM14.9624 9.16886C15.1089 9.21701 15.2877 9.25964 15.501 9.2911C15.9091 9.35129 16.4435 9.37055 17.119 9.30914C17.2638 9.29465 17.4086 9.28522 17.557 9.27555C17.8343 9.25749 18.1239 9.23862 18.4488 9.18448C17.8254 9.80785 17.4099 10.639 17.1606 11.5533C17.119 11.678 17.0774 11.8026 16.7865 11.8442C15.4229 11.9507 14.1575 11.9153 13.1474 11.665C12.1872 11.4271 11.4576 10.9951 11.093 10.3065C11.0099 10.1403 11.0099 10.0156 11.1761 9.93251C11.3424 9.84939 11.5502 9.84939 11.7995 9.84939L11.8411 9.72472C11.7282 9.65702 11.594 9.60157 11.4507 9.56587C11.0664 9.47006 10.6175 9.51637 10.345 9.84939C10.0956 10.1403 10.1372 10.5559 10.3865 10.9299L10.5112 10.8884C10.5112 10.8468 10.5008 10.8052 10.4904 10.7637C10.48 10.7221 10.4697 10.6806 10.4697 10.639C10.4697 10.6182 10.48 10.6078 10.4904 10.5974C10.5008 10.5871 10.5112 10.5767 10.5112 10.5559C10.5261 10.5559 10.5356 10.5559 10.5437 10.5578L10.5481 10.5591C10.5603 10.5634 10.5704 10.5736 10.5943 10.5974C11.1657 11.4546 12.078 11.9546 13.0675 12.3004C13.6611 12.5078 14.2826 12.6598 14.8748 12.8C17.1605 13.2987 18.0333 14.3793 17.9502 14.6286C17.9242 14.6546 17.8982 14.6603 17.8734 14.6545C17.8308 14.6446 17.792 14.6008 17.7635 14.5685L17.7564 14.5606L17.7491 14.5525L17.7424 14.5455C17.4766 14.2963 17.1215 14.0995 16.707 13.9347C16.0161 13.6599 15.16 13.4739 14.2766 13.2819C13.4325 13.0984 12.5633 12.9095 11.7895 12.6327C10.2121 12.0683 9.03078 11.1381 9.26446 9.1429C9.38913 8.06241 10.0956 6.94036 11.3423 6.64942C11.2592 6.77409 11.1761 6.9403 11.093 7.18965L11.3007 7.23119C11.6479 6.63608 12.3206 6.41086 12.8332 6.53785C13.1797 6.62369 13.4531 6.87048 13.5034 7.27277C13.5034 7.27277 14.6671 8.47797 14.958 8.72732C15.0411 8.76888 15.0411 8.81043 14.9995 8.89355C14.9658 8.92732 14.8771 8.93365 14.7558 8.91253C14.7279 8.90766 14.6982 8.90133 14.6671 8.89355L14.6255 9.01823C14.7086 9.07017 14.8203 9.12211 14.9624 9.16886ZM17.9199 11.8843C17.8883 11.8813 17.8602 11.8735 17.836 11.8625C17.7486 11.8224 17.7119 11.739 17.7424 11.678C18.0333 10.7637 18.2826 10.0987 18.7398 9.60004C19.2385 9.05978 19.7787 8.89355 21.0255 8.89355C21.0787 8.89355 21.1317 8.8952 21.1843 8.89849C21.3422 8.90839 21.4973 8.93298 21.6486 8.97145C23.0605 9.33051 24.1424 10.8987 24.1424 13.0078C24.1424 13.2336 23.9758 13.3079 23.8073 13.2675C23.6965 13.2409 23.5849 13.1647 23.519 13.0494C23.2281 12.5507 22.8852 12.2598 22.4644 12.0831C22.0436 11.9065 21.5449 11.8442 20.9424 11.8026C20.2504 11.7712 19.4632 11.8112 18.6888 11.8505C18.4401 11.8631 18.1927 11.8757 17.9502 11.8858C17.9398 11.8858 17.9297 11.8853 17.9199 11.8843ZM12.862 21.4101C13.5674 21.5704 14.3747 21.6866 15.1836 21.7395C15.831 21.7818 16.4793 21.7836 17.0774 21.7351C19.7787 21.5273 21.815 20.53 22.9371 19.8235C22.2721 21.5689 19.6956 22.6078 17.2021 22.9403C17.2021 23.0026 17.1917 23.0651 17.1813 23.1274C17.1709 23.1897 17.1606 23.252 17.1606 23.3143C18.9891 23.1481 20.776 22.5248 21.5657 21.9845C21.1085 23.6884 18.8229 24.3533 16.745 24.478C16.7242 24.5403 16.693 24.6027 16.6618 24.665C16.6307 24.7273 16.5995 24.7897 16.5787 24.852C17.7839 24.8935 18.9475 24.6442 19.6124 24.4364C18.989 25.6001 16.8697 26.5559 14.6671 26.5559C14.3969 26.5559 14.1112 26.5429 13.8163 26.515C12.9322 26.4312 11.9664 26.2132 11.0939 25.8082C11.925 24.2706 12.2567 22.691 12.3398 21.278C12.506 21.3247 12.6806 21.3689 12.862 21.4101ZM12.7216 7.26753C12.6999 7.2621 12.6783 7.2578 12.6568 7.25469C12.5757 7.24294 12.4969 7.24811 12.423 7.27275C12.2983 7.3143 12.2152 7.39742 12.1737 7.5221L12.2152 7.56364C12.2293 7.56364 12.2445 7.56578 12.2604 7.56974C12.3853 7.60076 12.5571 7.744 12.6308 7.85456C12.7555 8.06236 12.7555 8.27015 12.6308 8.35326C12.5847 8.37632 12.5258 8.38659 12.4612 8.36987C12.4093 8.35645 12.3538 8.32565 12.2983 8.27015H12.2152C12.2334 8.30659 12.2437 8.34303 12.2529 8.37597C12.2648 8.41816 12.275 8.4546 12.2983 8.47794C12.5182 8.88628 12.8568 9.19966 13.1526 9.27452C13.2481 9.2987 13.3392 9.29799 13.4204 9.26755C13.7944 9.14287 13.836 8.60262 13.5866 8.06236C13.3684 7.65713 13.0333 7.34542 12.7216 7.26753Z" fill="white"/>
<path d="M183.294 17.4995C182.594 17.4995 181.892 17.4004 181.241 17.2496L183.244 12.8L185.247 17.2496C184.597 17.3997 183.945 17.4995 183.294 17.4995ZM190.356 20.8998L185.698 10.6995C185.147 9.60004 184.446 9.09947 183.394 9.09947H183.194C182.092 9.09947 181.391 9.60004 180.84 10.6995L176.183 20.8998C175.733 21.8995 176.033 22.8 176.984 23.1498C177.786 23.5002 178.687 23.2 179.088 22.4L179.138 22.2995L180.19 20.0998C181.241 20.4503 182.293 20.5997 183.394 20.5997C184.446 20.5997 185.498 20.4496 186.45 20.0998L187.451 22.2995C187.752 23.0995 188.653 23.4995 189.504 23.2H189.554L189.655 23.1498C190.456 22.7993 190.856 21.8499 190.506 21.0499C190.405 20.9997 190.405 20.9501 190.356 20.8998ZM173.529 19.9498H172.628V10.6499C172.677 9.75013 171.926 8.99966 171.025 8.94937H170.875C169.973 8.89985 169.222 9.60004 169.172 10.4998V20H163.212V10.6499C163.2 10.4195 163.143 10.1938 163.043 9.98585C162.943 9.77786 162.803 9.59175 162.63 9.43827C162.458 9.28479 162.257 9.167 162.039 9.09172C161.821 9.01643 161.59 8.98514 161.36 8.99966C160.929 9.01998 160.52 9.20028 160.215 9.5054C159.909 9.81052 159.728 10.2186 159.707 10.6499V21.6496C159.657 22.5494 160.308 23.2998 161.209 23.3501H171.726V24.8496C171.676 25.7494 172.327 26.4998 173.228 26.5494H173.379C174.23 26.5997 175.032 25.9498 175.081 25.0995V21.7501C175.182 20.8998 174.53 20.1501 173.73 20.0496H173.429M156.201 19.9498H155.3V10.6499C155.35 9.75013 154.599 8.99966 153.698 8.94937H153.597C152.696 8.94937 151.995 9.65033 151.944 10.5494V20H145.986V10.6499C145.973 10.4195 145.916 10.1937 145.816 9.98566C145.716 9.77762 145.576 9.59147 145.404 9.43799C145.231 9.2845 145.03 9.16673 144.812 9.09149C144.594 9.01625 144.363 8.98503 144.133 8.99966C143.701 9.02016 143.293 9.20055 142.988 9.50565C142.682 9.81074 142.501 10.2187 142.48 10.6499V21.6496C142.43 22.5494 143.08 23.2998 143.982 23.3501H154.499V24.8496C154.449 25.7494 155.099 26.4998 156.001 26.5494H156.152C157.003 26.6499 157.804 26 157.904 25.1498V21.6999C158.005 20.8496 157.353 20.0998 156.552 20H156.251M137.071 9.09947H136.921C135.919 9.09947 135.218 9.60004 134.517 10.6004L128.908 18.5494V10.7505C128.904 10.3137 128.728 9.89606 128.419 9.5874C128.11 9.27875 127.692 9.10381 127.256 9.10023C126.819 9.10381 126.401 9.27875 126.092 9.5874C125.783 9.89606 125.607 10.3137 125.603 10.7505V21.3509C125.553 22.3505 126.254 23.2008 127.256 23.2503H127.706C128.758 23.2503 129.509 22.7002 130.16 21.7509L135.769 13.8004V21.5505C135.769 22.4503 136.52 23.2008 137.422 23.2008C137.858 23.1972 138.276 23.0223 138.585 22.7136C138.895 22.405 139.07 21.9873 139.074 21.5505V10.9997C139.174 10 138.424 9.14975 137.422 9.09947H137.071ZM120.344 9.09947H110.729C109.878 9.04994 109.077 9.69985 109.026 10.5501V21.7501C108.977 22.6492 109.728 23.3997 110.629 23.4492H110.779C111.681 23.4995 112.432 22.8 112.482 21.8995V12.4H118.642V21.7501C118.592 22.6492 119.293 23.3997 120.194 23.4492H120.395C121.296 23.4995 122.098 22.8 122.148 21.8995V10.7505C122.148 9.85071 121.446 9.10023 120.595 9.10023L120.344 9.09947ZM95.4552 20.2004C93.2015 20.2004 91.5992 18.4998 91.5992 16.2004C91.5992 14.0496 93.3516 12.3498 95.4552 12.3498C97.5581 12.3498 99.3112 14.0998 99.3112 16.1997C99.3615 18.4998 97.7585 20.1997 95.4552 20.1997M95.4552 8.99966C94.5182 8.97362 93.5854 9.13294 92.7101 9.46848C91.8349 9.80402 91.0346 10.3092 90.3552 10.9549C89.6757 11.6006 89.1306 12.3742 88.751 13.2313C88.3714 14.0883 88.1648 15.0119 88.1432 15.949V16.2492C88.0434 20.1989 91.1985 23.4492 95.1047 23.4987H95.4049C99.3615 23.549 102.667 20.3993 102.717 16.4488V16.2492C102.766 12.349 99.6114 9.09871 95.7051 9.04918L95.4552 8.99966ZM81.4827 20H75.824C76.2248 19.2496 76.4747 18.4496 76.675 17.6C76.8754 16.4496 77.0255 15.2496 77.0255 14.0998L77.0758 12.4496H81.4331L81.4827 20ZM85.7897 20H84.8884V10.7498C84.9387 9.84994 84.2872 9.09947 83.3859 9.04994H75.2731C74.3215 9.04994 73.7204 9.64956 73.7204 10.7498V12.9997C73.7698 14.4065 73.6692 15.8146 73.4202 17.2C73.2701 18.1997 72.8693 19.1498 72.3185 20H71.9177C71.0667 19.9498 70.3154 20.5494 70.2651 21.3997V24.8496C70.2148 25.7494 70.8663 26.4998 71.7676 26.5494H71.9177C72.7687 26.5997 73.571 25.9498 73.6206 25.0995V23.3997H83.987V24.8998C83.9367 25.7997 84.5882 26.5501 85.4895 26.5997H85.6396C86.4907 26.6499 87.2922 26 87.3425 25.1498V21.7997C87.4423 20.9997 86.8914 20.1997 86.0404 20.0998H85.6899M62.6026 20.1997C60.3497 20.1997 58.7474 18.4998 58.7474 16.1997C58.7474 14.0496 60.4998 12.3498 62.6026 12.3498C63.6245 12.3493 64.6046 12.7546 65.3278 13.4765C66.051 14.1984 66.458 15.1778 66.4594 16.1997C66.5089 18.4998 65.0065 20.1997 62.6026 20.1997ZM62.6026 8.99966C61.6656 8.97342 60.7326 9.13263 59.8573 9.46815C58.982 9.80368 58.1816 10.3089 57.5022 10.9548C56.8227 11.6006 56.2777 12.3744 55.8983 13.2316C55.5189 14.0888 55.3126 15.0126 55.2914 15.9498V16.2499C55.2635 17.1853 55.4224 18.1168 55.7587 18.9901C56.095 19.8633 56.602 20.6608 57.2501 21.3357C57.8983 22.0107 58.6744 22.5498 59.5333 22.9213C60.3922 23.2928 61.3165 23.4894 62.2522 23.4995H62.6026C66.5592 23.5498 69.8644 20.4 69.9146 16.4496V16.2499C69.9649 12 66.8099 8.99966 62.6026 8.99966ZM48.5303 20H42.9219C43.3227 19.2 43.5726 18.4 43.7729 17.5498C43.9733 16.3993 44.1234 15.2 44.1234 14.0496L44.1737 12.4H48.531L48.5303 20ZM52.8373 20H51.936V10.7498C51.9863 9.84994 51.3348 9.09947 50.4335 9.04994H42.4213C41.4689 9.04994 40.8686 9.64956 40.8686 10.7498V12.9997C40.918 14.4065 40.8174 15.8146 40.5684 17.2C40.4175 18.1997 40.0175 19.1498 39.4659 20H39.0659C38.2141 19.9498 37.4628 20.5494 37.4126 21.3997V24.8496C37.363 25.7494 38.0145 26.4998 38.915 26.5494H39.0659C39.9169 26.5997 40.7185 25.9498 40.7687 25.0995V23.3997H51.1352V24.8998C51.0849 25.7997 51.7356 26.5501 52.6369 26.5997H52.7878C53.6388 26.6499 54.4404 26 54.4899 25.1498V21.7997C54.5905 20.9501 53.939 20.1997 53.1383 20.0998C53.0377 19.9498 52.9379 19.9498 52.8373 20Z" fill="white"/>
</g>
<defs>
<clipPath id="clip0_2045_9">
<rect width="190.476" height="32" fill="white" transform="translate(0.0800781)"/>
</clipPath>
</defs>
</svg>
