<svg width="144.287842" height="20.000000" viewBox="0 0 144.288 20" fill="none" xmlns="http://www.w3.org/2000/svg" xmlns:xlink="http://www.w3.org/1999/xlink">
	<desc>
			Created with Pixso.
	</desc>
	<defs>
		<clipPath id="clip2126_656">
			<rect id="Logo" rx="0.000000" width="143.788162" height="19.500389" transform="translate(0.249806 0.249806)" fill="white" fill-opacity="0"/>
		</clipPath>
	</defs>
	<g opacity="0.400000">
		<g clip-path="url(#clip2126_656)">
			<path id="Vector" d="M19.55 9.79C13 14.22 9.77 19.55 9.77 19.55C9.77 19.55 6.54 14.22 0 9.79C6.54 6.22 9.77 0 9.77 0C9.77 0 11.11 2.56 13.79 5.35L10.8 5.3L5.67 14.51L8.89 14.51L13.79 5.35C15.29 6.89 17.21 8.5 19.55 9.79Z" fill="#141414" fill-opacity="1.000000" fill-rule="nonzero"/>
			<path id="Union" d="M28.66 5.13L32.86 5.13L32.86 6.97L30.62 6.97L30.62 8.99L32.69 8.99L32.69 10.84L30.62 10.84L30.62 16.25L28.66 16.25L28.66 10.84L27.36 10.84L27.36 8.99L28.66 8.99L28.66 5.13ZM40.33 8.77L36.71 8.77L36.71 16.27L34.76 16.27L34.76 7.19L36.23 7.19L36.7 7.94L38.11 7.19L40.33 7.19L40.33 8.77ZM42.82 12.44L49.83 12.44L49.93 11.51C49.93 10.25 49.51 9.2 48.67 8.37C47.83 7.53 46.79 7.11 45.53 7.11C44.27 7.11 43.2 7.56 42.3 8.46C41.4 9.35 40.95 10.43 40.95 11.69C40.95 13 41.41 14.12 42.33 15.06C43.26 15.99 44.36 16.45 45.63 16.45C46.1 16.45 46.56 16.39 47.01 16.25C47.46 16.11 47.82 15.96 48.1 15.81C48.38 15.64 48.65 15.46 48.9 15.25C49.15 15.04 49.31 14.89 49.38 14.8C49.46 14.71 49.52 14.64 49.55 14.59L48.34 13.38L48.06 13.72C47.87 13.95 47.55 14.18 47.09 14.42C46.64 14.66 46.15 14.77 45.63 14.77C44.9 14.77 44.28 14.54 43.75 14.08C43.22 13.62 42.91 13.07 42.82 12.44ZM43.82 9.31C44.28 8.9 44.85 8.7 45.53 8.7C46.22 8.7 46.79 8.9 47.24 9.31C47.7 9.7 47.98 10.22 48.09 10.85L42.9 10.85C43.06 10.22 43.36 9.7 43.82 9.31ZM51.1 13.37L53.17 13.37C53.26 13.61 53.41 13.83 53.62 14.05C54.07 14.5 54.67 14.72 55.43 14.72C56.09 14.72 56.57 14.62 56.87 14.41C57.17 14.21 57.32 13.95 57.32 13.64C57.32 13.53 57.3 13.43 57.25 13.35C57.2 13.25 57.12 13.17 57 13.09C56.88 13.02 56.76 12.96 56.65 12.91C56.55 12.85 56.38 12.8 56.17 12.75C55.95 12.69 55.78 12.65 55.64 12.62C55.51 12.59 55.31 12.54 55.03 12.48C54.77 12.42 54.57 12.38 54.44 12.35C52.51 11.92 51.55 11 51.55 9.58C51.55 8.85 51.88 8.22 52.54 7.68C53.2 7.14 54.07 6.87 55.16 6.87C56.66 6.87 57.78 7.35 58.53 8.31C58.87 8.73 59.1 9.22 59.22 9.76L57.23 9.76C57.14 9.52 57 9.32 56.83 9.18C56.41 8.78 55.85 8.58 55.16 8.58C54.62 8.58 54.21 8.68 53.93 8.87C53.67 9.07 53.53 9.31 53.53 9.59C53.53 9.7 53.56 9.8 53.61 9.9C53.65 9.99 53.74 10.06 53.86 10.14C53.98 10.21 54.09 10.27 54.2 10.32C54.32 10.36 54.48 10.42 54.69 10.48C54.89 10.53 55.07 10.57 55.21 10.6C55.36 10.63 55.55 10.67 55.81 10.73C56.07 10.78 56.28 10.82 56.42 10.86C58.34 11.29 59.31 12.22 59.31 13.64C59.31 14.41 58.96 15.07 58.26 15.62C57.57 16.16 56.63 16.43 55.43 16.43C53.86 16.43 52.67 15.92 51.84 14.9C51.46 14.43 51.22 13.92 51.1 13.37ZM62.79 15.86C63.54 16.29 64.35 16.5 65.23 16.5C65.89 16.5 66.51 16.38 67.1 16.14C67.69 15.89 68.21 15.54 68.65 15.08L67.31 13.73C66.76 14.28 66.07 14.56 65.23 14.56C64.73 14.56 64.26 14.43 63.83 14.18C63.4 13.93 63.06 13.58 62.81 13.14C62.57 12.69 62.45 12.19 62.45 11.66C62.45 11.12 62.57 10.63 62.81 10.19C63.06 9.75 63.4 9.4 63.83 9.15C64.26 8.9 64.73 8.77 65.23 8.77C65.68 8.77 66.1 8.85 66.47 9.02C66.84 9.18 67.16 9.41 67.43 9.71L68.76 8.34C68.31 7.87 67.78 7.5 67.16 7.24C66.56 6.96 65.91 6.83 65.23 6.83C64.35 6.83 63.54 7.05 62.79 7.49C62.05 7.91 61.45 8.5 61.01 9.23C60.58 9.97 60.37 10.78 60.37 11.66C60.37 12.54 60.58 13.35 61.01 14.1C61.45 14.83 62.05 15.42 62.79 15.86ZM70.75 15.04C69.82 14.09 69.35 12.93 69.35 11.55C69.35 10.17 69.82 9.01 70.75 8.08C71.7 7.13 72.86 6.66 74.24 6.66C75.62 6.66 76.78 7.13 77.71 8.08C78.66 9.01 79.13 10.17 79.13 11.55C79.13 12.93 78.66 14.09 77.71 15.04C76.78 15.97 75.62 16.44 74.24 16.44C72.86 16.44 71.7 15.97 70.75 15.04ZM72.17 9.28C71.65 9.84 71.38 10.6 71.38 11.55C71.38 12.5 71.65 13.26 72.17 13.84C72.7 14.4 73.39 14.69 74.24 14.69C75.09 14.69 75.78 14.4 76.31 13.84C76.84 13.26 77.1 12.5 77.1 11.55C77.1 10.6 76.84 9.84 76.31 9.28C75.78 8.7 75.09 8.41 74.24 8.41C73.39 8.41 72.7 8.7 72.17 9.28ZM80.23 15.25C80.23 15.61 80.35 15.92 80.6 16.16C80.84 16.4 81.14 16.53 81.51 16.53C81.87 16.53 82.18 16.4 82.42 16.16C82.66 15.92 82.78 15.61 82.78 15.25C82.78 14.88 82.66 14.58 82.42 14.34C82.18 14.09 81.87 13.97 81.51 13.97C81.14 13.97 80.84 14.09 80.6 14.34C80.35 14.58 80.23 14.88 80.23 15.25ZM86.33 7.54C87.04 7.11 87.83 6.9 88.7 6.9C89.55 6.9 90.34 7.11 91.05 7.54C91.77 7.96 92.33 8.52 92.75 9.23C93.17 9.94 93.38 10.73 93.39 11.59L93.39 11.6L93.39 16.29L91.68 16.29L91.68 15.21C91.3 15.54 90.86 15.79 90.38 15.98C89.85 16.19 89.29 16.29 88.7 16.29C87.83 16.29 87.04 16.08 86.33 15.66L86.33 15.66C85.62 15.24 85.05 14.67 84.63 13.96L84.63 13.96C84.21 13.25 84 12.46 84 11.6C84 10.74 84.21 9.95 84.63 9.24C85.05 8.53 85.62 7.96 86.33 7.54ZM88.7 8.61C88.14 8.61 87.64 8.74 87.19 9.01C86.74 9.28 86.38 9.64 86.1 10.09C85.84 10.54 85.71 11.04 85.71 11.6C85.71 12.15 85.84 12.66 86.1 13.11C86.38 13.56 86.74 13.92 87.18 14.19C87.64 14.46 88.14 14.59 88.7 14.59C89.25 14.59 89.75 14.46 90.2 14.19C90.65 13.92 91.01 13.56 91.28 13.11C91.55 12.66 91.68 12.15 91.68 11.6C91.68 11.04 91.55 10.54 91.28 10.09L91.28 10.09C91.01 9.64 90.65 9.28 90.2 9.01L90.2 9.01C89.75 8.74 89.25 8.61 88.7 8.61ZM101.9 8.6C101.81 8.51 101.71 8.42 101.61 8.33C101.82 8.41 102.03 8.49 102.26 8.57C102.83 8.75 103.38 8.84 103.94 8.84L103.99 8.84L103.99 7.09L99.97 7.09C99.77 7.03 99.57 6.99 99.37 6.96C99.16 6.93 98.93 6.91 98.7 6.91C97.91 6.91 97.2 7.07 96.56 7.41C95.93 7.73 95.43 8.19 95.06 8.8C94.69 9.39 94.5 10.1 94.5 10.92C94.5 11.76 94.69 12.48 95.06 13.07L95.06 13.07C95.44 13.66 95.95 14.12 96.6 14.42C96.68 14.46 96.77 14.5 96.86 14.54C96.69 14.55 96.52 14.57 96.36 14.59C95.9 14.65 95.52 14.81 95.22 15.06C94.91 15.32 94.76 15.69 94.76 16.18C94.76 16.43 94.81 16.66 94.91 16.86C95.01 17.08 95.17 17.26 95.38 17.39C95.6 17.54 95.87 17.66 96.19 17.73C96.51 17.81 96.9 17.84 97.35 17.84L99.48 17.84C100.14 17.84 100.62 17.97 100.95 18.23C101.27 18.48 101.44 18.91 101.44 19.52L101.44 20L103.28 20L103.28 19.14C103.28 18.4 103.12 17.81 102.8 17.37C102.49 16.95 102.05 16.64 101.49 16.46L101.49 16.46C100.95 16.28 100.33 16.2 99.63 16.2L97.4 16.2C97.14 16.2 96.95 16.14 96.82 16.04C96.69 15.95 96.62 15.82 96.62 15.65C96.62 15.5 96.66 15.39 96.74 15.29C96.83 15.2 96.95 15.13 97.13 15.08C97.49 14.99 98.01 14.92 98.7 14.88C99.48 14.88 100.18 14.73 100.81 14.42C101.45 14.11 101.95 13.66 102.31 13.07C102.68 12.48 102.86 11.77 102.86 10.96C102.86 10.48 102.78 10.05 102.6 9.66C102.44 9.27 102.21 8.91 101.9 8.6ZM97.5 8.82C97.87 8.63 98.27 8.53 98.7 8.53C99.13 8.53 99.52 8.63 99.88 8.82L99.88 8.82C100.23 9 100.51 9.27 100.71 9.64L100.72 9.64C100.93 9.99 101.04 10.43 101.04 10.94C101.04 11.45 100.93 11.87 100.72 12.23C100.5 12.57 100.22 12.84 99.86 13.03C99.52 13.21 99.13 13.3 98.7 13.3C98.26 13.3 97.86 13.21 97.5 13.03C97.15 12.84 96.86 12.57 96.65 12.23C96.44 11.87 96.33 11.45 96.33 10.94C96.33 10.41 96.44 9.97 96.65 9.62C96.86 9.26 97.15 9 97.5 8.82L97.5 8.82ZM114.07 12.29L106.83 12.29C106.93 12.95 107.25 13.51 107.79 13.99C108.34 14.47 108.99 14.71 109.73 14.71C110.28 14.71 110.78 14.58 111.24 14.34C111.71 14.09 112.05 13.86 112.24 13.62L112.53 13.26L113.79 14.52C113.75 14.57 113.69 14.64 113.61 14.73C113.53 14.82 113.37 14.98 113.11 15.2C112.85 15.41 112.58 15.6 112.29 15.77C112 15.93 111.62 16.09 111.16 16.23C110.7 16.37 110.22 16.44 109.73 16.44C108.42 16.44 107.29 15.96 106.33 15C105.38 14.03 104.91 12.87 104.91 11.52C104.91 10.22 105.37 9.11 106.29 8.18C107.22 7.25 108.34 6.79 109.63 6.79C110.93 6.79 112.01 7.22 112.87 8.09C113.74 8.95 114.17 10.03 114.17 11.33L114.07 12.29ZM109.63 8.44C108.93 8.44 108.35 8.65 107.87 9.06C107.4 9.47 107.08 10 106.92 10.65L112.28 10.65C112.17 10 111.87 9.47 111.4 9.06C110.93 8.65 110.34 8.44 109.63 8.44ZM120.77 6.74C119.92 6.74 119.17 6.99 118.51 7.48L118.51 7.48C118.21 7.72 117.98 7.96 117.83 8.2L117.78 8.2L117.78 6.92L115.82 6.92L115.82 16.28L117.78 16.28L117.78 11.24C117.78 10.42 118.01 9.77 118.48 9.28C118.97 8.77 119.57 8.52 120.31 8.52C121.05 8.52 121.59 8.71 121.94 9.1L121.94 9.1C122.3 9.47 122.48 10.06 122.48 10.87L122.48 16.28L124.44 16.28L124.44 10.69C124.44 9.41 124.12 8.43 123.47 7.75C122.83 7.08 121.93 6.74 120.77 6.74ZM130.7 16.5C129.82 16.5 129 16.29 128.25 15.86C127.5 15.42 126.9 14.83 126.46 14.09C126.03 13.34 125.82 12.52 125.82 11.64C125.82 10.75 126.03 9.94 126.46 9.2C126.9 8.46 127.5 7.88 128.25 7.45C129 7.01 129.82 6.79 130.7 6.79C131.39 6.79 132.03 6.92 132.64 7.2C133.25 7.46 133.79 7.83 134.24 8.31L132.9 9.68C132.64 9.38 132.32 9.15 131.94 8.99C131.57 8.82 131.15 8.74 130.7 8.74C130.19 8.74 129.72 8.87 129.29 9.12C128.86 9.37 128.52 9.72 128.27 10.16C128.02 10.6 127.9 11.1 127.9 11.64C127.9 12.18 128.02 12.67 128.27 13.13C128.52 13.57 128.86 13.91 129.29 14.17C129.72 14.42 130.19 14.55 130.7 14.55C131.54 14.55 132.24 14.27 132.79 13.72L134.13 15.08C133.69 15.53 133.17 15.88 132.57 16.14C131.99 16.38 131.36 16.5 130.7 16.5ZM137.06 6.92L135.01 6.92L137.58 16.28L139.48 16.28L138.38 19.75L140.44 19.75L144.28 6.92L142.23 6.92L140.04 14.41L139.07 14.41L137.06 6.92Z" fill="#141414" fill-opacity="1.000000" fill-rule="evenodd"/>
		</g>
	</g>
</svg>
