<svg width="275" height="50" viewBox="0 0 275 50" fill="none" xmlns="http://www.w3.org/2000/svg">
<g clip-path="url(#clip0_2043_378)">
<path fill-rule="evenodd" clip-rule="evenodd" d="M32.5663 27.9304H52.6367C52.6367 33.1814 47.7578 42.0022 34.0975 42.0022C23.6455 42.0022 15.5584 36.4009 15.5584 24.5008C15.5584 12.6007 23.6423 6.99931 34.0975 6.99931C40.3681 6.99931 46.0142 9.23795 49.4982 13.9286H65.5964C60.4417 4.76068 48.3855 0 34.1007 0C14.5851 0 -0.118164 8.75073 -0.118164 24.5008C-0.118164 40.2508 14.5851 49.0015 34.1007 49.0015C53.6163 49.0015 68.2498 40.2508 68.2498 24.5008C68.2498 23.3098 68.1801 22.1921 67.9709 21.0712H32.5663V27.9304ZM132.852 24.5008C132.852 8.75073 147.488 0 167.001 0C186.513 0 201.22 8.75073 201.22 24.5008C201.22 40.2508 186.516 49.0015 167.001 49.0015C147.485 49.0015 132.852 40.2508 132.852 24.5008ZM148.531 24.5008C148.531 36.0506 156.549 42.0022 167.001 42.0022C177.456 42.0022 185.54 36.0506 185.54 24.5008C185.54 12.951 177.456 6.99931 167.001 6.99931C156.546 6.99931 148.531 12.951 148.531 24.5008ZM124.489 27.9302H91.4555V40.4608H131.108V47.3232H75.9153V1.68121H130.759V8.54041H91.4555V21.071H124.489V27.9302ZM274.742 1.68121L245.612 23.73L274.882 47.3232H254.393L235.993 30.2421L216.969 47.3232H197.105L226.724 24.3605L197.244 1.68121H217.733L236.621 18.8993L254.878 1.68121H274.742Z" fill="black"/>
</g>
<defs>
<clipPath id="clip0_2043_378">
<rect width="275" height="50" fill="white"/>
</clipPath>
</defs>
</svg>
