<svg width="89" height="16" viewBox="0 0 89 16" fill="none" xmlns="http://www.w3.org/2000/svg">
<g clip-path="url(#clip0_2045_20)">
<path fill-rule="evenodd" clip-rule="evenodd" d="M10.5013 8.93772H16.9238C16.9238 10.6181 15.3625 13.4407 10.9913 13.4407C7.6466 13.4407 5.05872 11.6483 5.05872 7.84025C5.05872 4.03222 7.64558 2.23978 10.9913 2.23978C12.9979 2.23978 14.8046 2.95614 15.9195 4.45714H21.0709C19.4214 1.52342 15.5634 0 10.9923 0C4.74728 0 0.0422363 2.80023 0.0422363 7.84025C0.0422363 12.8803 4.74728 15.6805 10.9923 15.6805C17.2373 15.6805 21.92 12.8803 21.92 7.84025C21.92 7.45914 21.8977 7.10147 21.8307 6.74278H10.5013V8.93772ZM42.5926 7.84025C42.5926 2.80023 47.2763 0 53.5203 0C59.7643 0 64.4703 2.80023 64.4703 7.84025C64.4703 12.8803 59.7653 15.6805 53.5203 15.6805C47.2753 15.6805 42.5926 12.8803 42.5926 7.84025ZM47.6101 7.84025C47.6101 11.5362 50.1756 13.4407 53.5203 13.4407C56.866 13.4407 59.4528 11.5362 59.4528 7.84025C59.4528 4.14431 56.866 2.23978 53.5203 2.23978C50.1746 2.23978 47.6101 4.14431 47.6101 7.84025ZM39.9164 8.93767H29.3458V12.9475H42.0346V15.1434H24.3729V0.537988H41.923V2.73293H29.3458V6.74273H39.9164V8.93767ZM87.9976 0.537988L78.6757 7.5936L88.0422 15.1434H81.4858L75.5979 9.67747L69.5101 15.1434H63.1536L72.6316 7.79536L63.1982 0.537988H69.7546L75.7988 6.04776L81.641 0.537988H87.9976Z" fill="white"/>
</g>
<defs>
<clipPath id="clip0_2045_20">
<rect width="88" height="16" fill="white" transform="translate(0.0800781)"/>
</clipPath>
</defs>
</svg>
