<svg width="163" height="50" viewBox="0 0 163 50" fill="none" xmlns="http://www.w3.org/2000/svg">
<g clip-path="url(#clip0_2043_231)">
<path fill-rule="evenodd" clip-rule="evenodd" d="M126.748 26.3721C126.78 34.5809 132.801 42.0873 143.441 42.1049C147.342 42.0433 152.239 40.8982 156.095 39.6527L153.649 48.5801C148.822 49.621 143.031 49.9046 137.148 49.9987C117.175 50.1372 108.534 39.4465 108.48 28.7656C108.38 14.5783 124.23 0.157426 148.954 0.00521458C154.355 -0.0563371 158.907 0.430464 162.394 1.28284L159.796 10.7646C154.453 8.43765 150.287 7.89218 146.412 7.85815C134.071 7.97079 126.703 17.2349 126.748 26.3721ZM116.165 0.866164L113.078 12.4335L113.073 12.4526C111.543 10.5333 109.992 9.59454 106.141 9.54663L92.7487 9.5972L89.8818 20.3616L101.401 20.2498C101.433 20.2508 101.466 20.2519 101.502 20.2531C102.512 20.2871 104.958 20.3692 106.1 19.7493L103.16 31.0073C101.43 29.2182 100.006 28.4169 96.0525 28.4436L87.6889 28.5157L84.6248 39.9248C83.5024 43.8714 83.5758 46.6043 86.4118 49.0048L49.6354 49.2665L37.6785 49.4022L27.276 28.2616L23.5713 41.8586C22.7645 45.0285 22.7182 47.5231 25.859 49.4112L0 49.5812C5.04309 47.5438 6.04249 43.8869 6.91246 40.7036C6.93147 40.6341 6.95042 40.5647 6.96936 40.4956L15.3258 9.0192C16.208 5.27394 15.4784 3.2861 12.7055 1.93041L38.8288 1.77112C36.4269 2.73664 33.7388 4.67186 32.6115 8.41162L28.5261 23.5484L47.057 9.01938C50.6289 6.48369 50.1871 3.67043 46.8063 1.75775L71.0486 1.63801L43.7365 21.1392L56.8724 44.755C58.7883 47.6639 59.8248 48.8316 61.9265 48.8114C64.4559 48.8056 65.9054 46.1406 67.5656 40.0807L75.8681 8.65111C76.7781 4.95457 76.0762 3.01543 73.319 1.60239L111.436 1.3996C111.567 1.39954 111.72 1.40148 111.891 1.40364C113.086 1.41876 115.125 1.44454 116.165 0.866164Z" fill="#EE1832"/>
<path fill-rule="evenodd" clip-rule="evenodd" d="M77.6891 9.35546L68.9069 42.236C68.0847 45.2373 67.4101 46.7994 65.5977 47.6386C68.5147 47.7185 69.6653 46.3691 70.7112 42.4015L79.4814 9.4149C80.7488 4.78872 79.4295 3.15309 77.2502 2.55603C78.3593 4.13405 78.7906 5.48529 77.6891 9.35546ZM17.1314 9.55489L8.35965 42.3972L8.37876 42.4024C7.79533 44.8321 6.59178 46.8246 4.71313 47.8307C7.65969 47.8776 9.13374 46.4729 10.2074 42.5541L18.9723 9.58657C20.2502 4.92216 18.8961 3.33864 16.7341 2.82852C17.8607 4.26749 18.2538 5.60826 17.1314 9.55489ZM93.9282 5.89217L106.229 5.85076C109.831 5.83059 112.829 6.59027 112.76 9.46899C111.44 8.28535 109.967 7.51179 105.786 7.61995L93.3838 7.65429L93.9282 5.89217ZM88.7746 24.7028L88.2823 26.4997L95.6689 26.4683C99.8499 26.3601 101.342 27.1389 102.648 28.2982C102.683 25.4716 99.6815 24.6493 96.1072 24.7182L88.7746 24.7028ZM110.693 28.7143C110.647 12.9799 128.192 4.22297 139.25 3.01887C129.677 5.55457 112.748 13.1857 112.724 28.6541C112.774 43.5471 128.756 47.6995 139.874 48.3C127.565 49.3461 110.718 44.5252 110.693 28.7143ZM39.6818 44.3404C39.6818 44.3404 41.2986 47.2906 43.7774 47.3943L41.2098 47.3896L39.1167 47.4532L28.4523 25.7681L48.5455 10.1874C51.8618 7.68446 52.6819 4.99087 51.2626 2.67019C55.2993 4.06385 53.8567 8.35431 49.9784 11.2582L30.663 26.2505L39.7753 44.6743L39.6818 44.3404Z" fill="white"/>
</g>
<defs>
<clipPath id="clip0_2043_231">
<rect width="162.394" height="50" fill="white"/>
</clipPath>
</defs>
</svg>
