<svg width="66" height="20" viewBox="0 0 66 20" fill="none" xmlns="http://www.w3.org/2000/svg">
<g clip-path="url(#clip0_2045_10)">
<path fill-rule="evenodd" clip-rule="evenodd" d="M58.1746 16.8419C53.9183 16.8349 51.5103 13.8324 51.4974 10.5488C51.4794 6.89398 54.4264 3.18831 59.3629 3.14326C60.9128 3.15687 62.5793 3.37506 64.7165 4.30584L65.7556 0.513135C64.3611 0.172186 62.5402 -0.0225348 60.3796 0.00208583C50.4901 0.0629706 44.1501 5.83133 44.1901 11.5062C44.2116 15.7786 47.6681 20.0549 55.6572 19.9995C58.0104 19.9619 60.3268 19.8484 62.2576 19.432L63.2359 15.8611C61.6937 16.3593 59.7351 16.8173 58.1746 16.8419ZM46.0292 4.97338L47.264 0.346466C46.8481 0.577816 46.0327 0.567503 45.5544 0.561455C45.4861 0.560592 45.4247 0.559815 45.3723 0.559841L30.1257 0.640957C31.2286 1.20617 31.5093 1.98183 31.1453 3.46045L27.8243 16.0323C27.1602 18.4562 26.5805 19.5222 25.5687 19.5246C24.728 19.5326 24.3134 19.0656 23.5471 17.902L18.2927 8.45568L29.2175 0.655204L19.5206 0.7031C20.8729 1.46817 21.0496 2.59348 19.6209 3.60775L12.2085 9.41938L13.8427 3.36465C14.2936 1.86874 15.3689 1.09466 16.3296 0.70845L5.8803 0.772164C6.98947 1.31444 7.2813 2.10958 6.92841 3.60768L3.58584 16.1982L3.56308 16.2815C3.21509 17.5548 2.81533 19.0175 0.798096 19.8325L11.1417 19.7645C9.88537 19.0092 9.9039 18.0114 10.2266 16.7434L11.7085 11.3046L15.8695 19.7609L20.6523 19.7066L35.3628 19.6019C34.2284 18.6417 34.1991 17.5486 34.648 15.9699L35.8736 11.4063L39.2191 11.3775C40.8004 11.3668 41.3702 11.6873 42.0619 12.4029L43.2381 7.89972C42.7811 8.1477 41.8029 8.11483 41.3989 8.10125L41.3583 8.0999L36.7508 8.14464L37.8976 3.83888L43.2547 3.81865C44.7949 3.83782 45.4154 4.21333 46.0271 4.98103L46.0292 4.97338ZM28.3609 16.8944L31.8738 3.74217C32.3143 2.19411 32.1418 1.65361 31.6982 1.0224C32.5699 1.26122 33.0976 1.91547 32.5906 3.76595L29.0826 16.9606C28.6642 18.5476 28.204 19.0874 27.0372 19.0554C27.7621 18.7197 28.032 18.0949 28.3609 16.8944ZM4.14195 16.9589L7.65065 3.82194C8.0996 2.24329 7.94237 1.70698 7.49174 1.1314C8.35654 1.33544 8.89819 1.96885 8.38703 3.83462L4.88105 17.0216C4.45159 18.5892 3.86197 19.151 2.68335 19.1323C3.43481 18.7298 3.91623 17.9328 4.1496 16.961L4.14195 16.9589ZM43.2898 2.34029L38.3694 2.35686L38.1516 3.0617L43.1123 3.04797C44.7847 3.0047 45.3741 3.31413 45.902 3.78759C45.9297 2.63609 44.7306 2.33223 43.2898 2.34029ZM36.111 10.5999L36.3079 9.88109L39.241 9.88726C40.6707 9.85971 41.8712 10.1886 41.8574 11.3193C41.335 10.8555 40.738 10.544 39.0656 10.5873L36.111 10.5999ZM56.4981 1.20754C52.075 1.68918 45.0569 5.19195 45.0753 11.4857C45.0854 17.8101 51.824 19.7384 56.7477 19.32C52.3004 19.0798 45.9078 17.4188 45.8875 11.4616C45.8975 5.27428 52.669 2.22182 56.4981 1.20754ZM18.3091 18.9577C17.3175 18.9162 16.6708 17.7361 16.6708 17.7361L16.7082 17.8697L13.0633 10.5002L20.7895 4.50326C22.3408 3.34171 22.9178 1.62553 21.3031 1.06806C21.8709 1.99634 21.5428 3.07377 20.2163 4.07495L12.179 10.3072L16.4448 18.9813L17.282 18.9558L18.3091 18.9577Z" fill="white"/>
</g>
<defs>
<clipPath id="clip0_2045_10">
<rect width="64.9575" height="20" fill="white" transform="translate(0.798096)"/>
</clipPath>
</defs>
</svg>
