<svg width="266" height="50" viewBox="0 0 266 50" fill="none" xmlns="http://www.w3.org/2000/svg">
<g clip-path="url(#clip0_2043_389)">
<path fill-rule="evenodd" clip-rule="evenodd" d="M4.3643 4.4415C1.57169 7.27868 -0.000943052 11.1248 -0.00927734 15.1378V34.9721L1.34199 34.7616C2.95699 34.495 4.43967 33.6926 5.55849 32.4795C6.67733 31.2661 7.36928 29.7105 7.52628 28.0555L7.57133 15.1378C7.5808 13.1659 8.35609 11.2777 9.72849 9.88381C11.1009 8.48992 12.9594 7.70318 14.8997 7.69476H49.2895V0H14.8907C10.9419 0.00725658 7.15691 1.60431 4.3643 4.4415ZM117.384 29.9277H125.384L121.384 19.5092L117.384 29.9277ZM129.87 41.6095L128.068 36.954H114.686L112.885 41.6095H104.232L117.47 8.38594H125.429L138.671 41.6095H129.87ZM92.4356 21.8669V41.6142H101.043V8.3862H92.5482L83.8414 19.8116L75.1348 8.3862H66.6398V41.6142H75.2474V21.8669L83.8414 32.2992L92.4356 21.8669ZM141.901 41.6142V8.3862H162.544V16.1039H150.508V41.6142H141.901ZM188.515 41.6142V28.6005H175.727V41.6142H167.12V8.3862H175.727V20.7866H188.515V8.3862H197.122V41.6142H188.515ZM247.075 16.1039V41.6142H255.687V16.1039H265.79V8.3862H237.021V16.1039H247.075ZM224.355 41.6097V22.6771L210.653 41.6097H203.456V8.39074H212.063V27.1263L225.535 8.39074H232.967V41.6097H224.355ZM-0.00733063 49.9999V42.3049H34.3914C36.3322 42.2955 38.1906 41.5076 39.563 40.1131C40.9351 38.7184 41.7103 36.8297 41.7198 34.8576V22.5989C41.7293 20.8205 42.3606 19.1033 43.5008 17.7541C44.6411 16.405 46.2161 15.5117 47.9445 15.2338L49.2958 15.0278V34.8576C49.2874 38.871 47.7151 42.7176 44.9224 45.5555C42.1301 48.3934 38.3451 49.9913 34.3958 49.9999H-0.00733063ZM29.1335 25.0527V34.9995H35.0701V15.4262H29.4443L24.6472 21.7202L19.8503 15.4262H14.2245V34.9995H20.1656V25.0527L24.6472 30.4953L29.1335 25.0527Z" fill="#E30613"/>
</g>
<defs>
<clipPath id="clip0_2043_389">
<rect width="265.789" height="50" fill="white"/>
</clipPath>
</defs>
</svg>
