<svg width="128" height="24" viewBox="0 0 128 24" fill="none" xmlns="http://www.w3.org/2000/svg">
<g clip-path="url(#clip0_2045_5)">
<path fill-rule="evenodd" clip-rule="evenodd" d="M2.28023 2.13192C0.939774 3.49377 0.184909 5.33991 0.180908 7.26614V16.7866L0.829516 16.6856C1.60471 16.5576 2.3164 16.1725 2.85343 15.5901C3.39048 15.0077 3.72261 14.2611 3.79797 13.4667L3.8196 7.26614C3.82415 6.31965 4.19629 5.41329 4.85503 4.74423C5.5138 4.07516 6.40588 3.69753 7.33722 3.69349H23.8443V0H7.33288C5.43749 0.00348316 3.62068 0.770068 2.28023 2.13192ZM56.5298 14.3653H60.3695L58.4497 9.36443L56.5298 14.3653ZM62.523 19.9726L61.6582 17.7379H55.2348L54.3699 19.9726H50.2168L56.571 4.02525H60.3913L66.7476 19.9726H62.523ZM44.5544 10.4961V19.9748H48.686V4.02538H44.6085L40.4292 9.50958L36.2501 4.02538H32.1725V19.9748H36.3041V10.4961L40.4292 15.5036L44.5544 10.4961ZM68.2977 19.9748V4.02538H78.2063V7.72985H72.4293V19.9748H68.2977ZM90.6725 19.9748V13.7282H84.5345V19.9748H80.4029V4.02538H84.5345V9.97759H90.6725V4.02538H94.8041V19.9748H90.6725ZM118.781 7.72985V19.9748H122.915V7.72985H127.764V4.02538H113.955V7.72985H118.781ZM107.876 19.9727V10.885L101.299 19.9727H97.844V4.02756H101.976V13.0206L108.442 4.02756H112.01V19.9727H107.876ZM0.181843 24V20.3064H16.6932C17.6248 20.3018 18.5168 19.9236 19.1756 19.2543C19.8342 18.5848 20.2063 17.6782 20.2109 16.7316V10.8475C20.2154 9.99382 20.5184 9.16959 21.0658 8.52199C21.6131 7.8744 22.3691 7.4456 23.1987 7.3122L23.8474 7.21332V16.7316C23.8433 18.6581 23.0886 20.5044 21.7481 21.8666C20.4078 23.2288 18.591 23.9958 16.6954 24H0.181843ZM14.1694 12.0253V16.7998H17.019V7.40457H14.3186L12.016 10.4257L9.71349 7.40457H7.01311V16.7998H9.86483V12.0253L12.016 14.6377L14.1694 12.0253Z" fill="white"/>
</g>
<defs>
<clipPath id="clip0_2045_5">
<rect width="127.579" height="24" fill="white" transform="translate(0.185303)"/>
</clipPath>
</defs>
</svg>
