<svg width="268" height="32" viewBox="0 0 268 32" fill="none" xmlns="http://www.w3.org/2000/svg">
<g clip-path="url(#clip0_2045_8)">
<path d="M168.538 17.1276C167.08 17.1276 165.849 18.2164 165.849 19.5056C165.849 20.1732 166.181 22.0762 166.981 23.6555C167.446 24.5725 168.022 25.4161 168.507 26.0583C168.92 25.479 169.402 24.742 169.815 23.9438C170.689 22.256 171.226 20.2214 171.226 19.5056C171.226 18.2164 169.995 17.1276 168.538 17.1276ZM168.538 10.1511C165.725 10.1511 163.349 12.2964 163.349 14.8352C163.349 15.3437 163.459 16.2645 163.699 17.3654C164.555 15.6564 166.402 14.4707 168.538 14.4707C170.622 14.4707 172.431 15.5996 173.312 17.2423C173.584 16.1948 173.725 15.3329 173.725 14.8352C173.725 12.2964 171.35 10.1511 168.538 10.1511ZM168.538 2.66812C164.213 2.66812 160.559 5.99207 160.559 9.92647C160.559 10.6507 160.681 11.7453 160.933 13.0283C161.795 9.85143 164.878 7.49423 168.538 7.49423C172.116 7.49423 175.142 9.74757 176.081 12.8176C176.368 11.5844 176.516 10.57 176.516 9.92647C176.516 5.99207 172.862 2.66812 168.538 2.66812ZM168.569 32.0112L167.567 30.9393C167.407 30.7678 163.61 26.6808 161.002 21.5328C158.864 17.3139 157.902 12.2061 157.902 9.92647C157.902 4.45896 162.673 0.0109863 168.538 0.0109863C174.401 0.0109863 179.172 4.45896 179.172 9.92647C179.172 12.3513 177.734 17.7469 175.411 22.2352C172.949 26.9901 169.675 30.7496 169.537 30.9071L168.569 32.0112Z" fill="white"/>
<path fill-rule="evenodd" clip-rule="evenodd" d="M91.6091 26.7747H94.3366V12.2483L84.4938 21.3578V12.9401H81.767V27.4666L91.6091 18.3571V26.7747ZM87.2809 9.32301C87.1749 9.12547 87.1226 8.92135 87.1226 8.71045H85.344C85.344 9.22445 85.4657 9.69903 85.7094 10.1335C85.9532 10.5685 86.3156 10.9174 86.7966 11.1811C87.2773 11.4447 87.8602 11.5761 88.5457 11.5761C89.2439 11.5761 89.8303 11.4447 90.3047 11.1811C90.7789 10.9174 91.1415 10.5685 91.3914 10.1335C91.6418 9.69903 91.767 9.22445 91.767 8.71045H89.9688C89.9688 8.92135 89.9194 9.12547 89.8204 9.32301C89.7214 9.52098 89.5667 9.68229 89.3562 9.80734C89.1453 9.93282 88.8751 9.99493 88.5457 9.99493C88.2294 9.99493 87.9655 9.93282 87.755 9.80734C87.5444 9.68229 87.3862 9.52098 87.2809 9.32301ZM2.94818 26.7747H0.00341797L2.05858 12.2482L7.84954 21.1815L13.6403 12.2482L15.6957 26.7747H12.7509L11.8617 19.0076L7.84954 25.4902L3.83735 19.0076L2.94818 26.7747ZM34.4321 26.7747H31.7046V18.357L21.862 27.4665V12.9401H24.5897V21.3577L34.4321 12.2482V26.7747ZM42.7461 24.3041L48.2866 12.2482L53.827 24.3041H55.8958V28.9488H53.1483V26.7747H43.4245V28.9488H40.6775V24.3041H42.7461ZM50.7736 24.3041L48.2866 17.5843L45.7995 24.3041H50.7736ZM74.8102 26.7747H72.0825V18.357L62.24 27.4665V12.9401H64.9675V21.3578L74.8102 12.2482V26.7747ZM113.409 12.9401V26.7747H110.582V20.6874H104.12V26.7747H101.294V12.9401H104.12V18.1378H110.582V12.9401H113.409ZM124.615 23.83C123.969 23.4347 123.462 22.8948 123.093 22.2091C122.724 21.5247 122.54 20.7405 122.54 19.8574C122.54 18.9748 122.724 18.1908 123.093 17.5053C123.462 16.8205 123.969 16.28 124.615 15.8849C125.26 15.4894 126.011 15.292 126.868 15.292C127.737 15.292 128.495 15.4894 129.141 15.8849C129.786 16.28 130.287 16.8205 130.643 17.5053C130.999 18.1908 131.177 18.9748 131.177 19.8574C131.177 20.7405 130.995 21.5247 130.633 22.2091C130.27 22.8948 129.766 23.4347 129.121 23.83C128.475 24.2251 127.724 24.4228 126.868 24.4228C126.011 24.4228 125.26 24.2251 124.615 23.83ZM121.65 14.6792C120.991 15.3249 120.477 16.086 120.109 16.9621C119.74 17.8383 119.555 18.8034 119.555 19.8574C119.555 20.8984 119.733 21.8634 120.089 22.7528C120.445 23.642 120.952 24.4165 121.611 25.0746C122.269 25.734 123.043 26.2446 123.933 26.6067C124.822 26.9691 125.801 27.1503 126.868 27.1503C127.935 27.1503 128.914 26.9691 129.803 26.6067C130.692 26.2446 131.463 25.734 132.115 25.0746C132.768 24.4165 133.275 23.642 133.637 22.7528C133.999 21.8634 134.181 20.8984 134.181 19.8574C134.181 18.8034 133.999 17.8383 133.637 16.9621C133.275 16.086 132.761 15.3249 132.096 14.6792C131.43 14.0338 130.656 13.5364 129.773 13.1873C128.89 12.8382 127.922 12.6633 126.868 12.6633C125.827 12.6633 124.862 12.8382 123.973 13.1873C123.083 13.5364 122.309 14.0338 121.65 14.6792ZM140.327 26.7747H149.122V24.3829H143.055V20.6086H148.727V18.2565H143.055V15.3314H149.122V12.9401H140.327V26.7747ZM184.717 26.7747H187.661L188.551 19.0076L192.563 25.4902L196.575 19.0076L197.465 26.7747H200.409L198.353 12.2482L192.563 21.1815L186.772 12.2482L184.717 26.7747ZM206.575 26.7747H215.37V24.3829H209.303V20.6086H214.975V18.2565H209.303V15.3314H215.37V12.9401H206.575V26.7747ZM226.636 23.8003C225.964 23.4383 225.42 22.9177 225.005 22.2392C224.59 21.5605 224.383 20.7667 224.383 19.8574C224.383 18.9352 224.59 18.1378 225.005 17.4661C225.42 16.794 225.964 16.2772 226.636 15.9146C227.308 15.5521 228.039 15.3711 228.83 15.3711C229.488 15.3711 230.075 15.4567 230.589 15.6278C231.103 15.7992 231.567 16.0301 231.982 16.3196C232.397 16.6094 232.756 16.9262 233.059 17.2683V14.0864C232.492 13.6385 231.876 13.2892 231.211 13.0387C230.546 12.7886 229.706 12.6633 228.691 12.6633C227.637 12.6633 226.659 12.8348 225.756 13.1771C224.854 13.5198 224.069 14.0141 223.404 14.6597C222.739 15.3052 222.225 16.0661 221.863 16.9419C221.5 17.8188 221.319 18.7904 221.319 19.8574C221.319 20.9244 221.5 21.8963 221.863 22.7725C222.225 23.6492 222.739 24.4097 223.404 25.0557C224.069 25.7012 224.854 26.195 225.756 26.5378C226.659 26.8801 227.637 27.0513 228.691 27.0513C229.706 27.0513 230.546 26.9265 231.211 26.676C231.876 26.4259 232.492 26.0768 233.059 25.6285V22.4465C232.756 22.7893 232.397 23.1055 231.982 23.3955C231.567 23.6852 231.103 23.9158 230.589 24.0873C230.075 24.2588 229.488 24.3438 228.83 24.3438C228.039 24.3438 227.308 24.163 226.636 23.8003ZM237.842 12.9401H248.12V15.4893H244.384V26.7747H241.558V15.4893H237.842V12.9401ZM257.369 23.83C256.723 23.4347 256.216 22.8948 255.847 22.2091C255.478 21.5247 255.294 20.7405 255.294 19.8574C255.294 18.9748 255.478 18.1908 255.847 17.5053C256.216 16.8205 256.723 16.28 257.369 15.8849C258.015 15.4894 258.766 15.292 259.622 15.292C260.492 15.292 261.249 15.4894 261.895 15.8849C262.54 16.28 263.041 16.8205 263.397 17.5053C263.753 18.1908 263.931 18.9748 263.931 19.8574C263.931 20.7405 263.749 21.5247 263.387 22.2091C263.024 22.8948 262.52 23.4347 261.875 23.83C261.23 24.2251 260.478 24.4228 259.622 24.4228C258.766 24.4228 258.015 24.2251 257.369 23.83ZM254.404 14.6792C253.745 15.3249 253.231 16.086 252.863 16.9621C252.494 17.8383 252.309 18.8034 252.309 19.8574C252.309 20.8984 252.488 21.8634 252.843 22.7528C253.199 23.642 253.706 24.4165 254.365 25.0746C255.024 25.734 255.797 26.2446 256.687 26.6067C257.576 26.9691 258.555 27.1503 259.622 27.1503C260.689 27.1503 261.668 26.9691 262.557 26.6067C263.447 26.2446 264.217 25.734 264.869 25.0746C265.522 24.4165 266.029 23.642 266.392 22.7528C266.753 21.8634 266.935 20.8984 266.935 19.8574C266.935 18.8034 266.753 17.8383 266.392 16.9621C266.029 16.086 265.515 15.3249 264.85 14.6792C264.184 14.0338 263.41 13.5364 262.528 13.1873C261.644 12.8382 260.676 12.6633 259.622 12.6633C258.581 12.6633 257.616 12.8382 256.727 13.1873C255.837 13.5364 255.063 14.0338 254.404 14.6792Z" fill="white"/>
</g>
<defs>
<clipPath id="clip0_2045_8">
<rect width="266.932" height="32" fill="white" transform="translate(0.154541)"/>
</clipPath>
</defs>
</svg>
