<svg width="418" height="50" viewBox="0 0 418 50" fill="none" xmlns="http://www.w3.org/2000/svg">
<g clip-path="url(#clip0_2043_347)">
<path d="M263.099 26.7619C260.821 26.7619 258.897 28.4632 258.897 30.4775C258.897 31.5207 259.416 34.4941 260.666 36.9618C261.392 38.3945 262.293 39.7127 263.05 40.7162C263.696 39.811 264.449 38.6595 265.095 37.4122C266.461 34.775 267.299 31.5959 267.299 30.4775C267.299 28.4632 265.375 26.7619 263.099 26.7619ZM263.099 15.8612C258.704 15.8612 254.991 19.2132 254.991 23.1801C254.991 23.9746 255.164 25.4133 255.539 27.1335C256.876 24.4631 259.762 22.6105 263.099 22.6105C266.355 22.6105 269.181 24.3744 270.558 26.9411C270.983 25.3043 271.204 23.9577 271.204 23.1801C271.204 19.2132 267.493 15.8612 263.099 15.8612ZM263.099 4.16898C256.341 4.16898 250.632 9.36265 250.632 15.5102C250.632 16.6418 250.823 18.3521 251.216 20.3567C252.564 15.3929 257.38 11.7098 263.099 11.7098C268.689 11.7098 273.418 15.2306 274.885 20.0275C275.334 18.1007 275.564 16.5156 275.564 15.5102C275.564 9.36265 269.856 4.16898 263.099 4.16898ZM263.148 50.0175L261.582 48.3427C261.332 48.0748 255.4 41.6888 251.324 33.645C247.983 27.053 246.48 19.0721 246.48 15.5102C246.48 6.96718 253.935 0.0172119 263.099 0.0172119C272.261 0.0172119 279.716 6.96718 279.716 15.5102C279.716 19.2989 277.468 27.7296 273.838 34.7425C269.992 42.1721 264.876 48.0463 264.66 48.2924L263.148 50.0175Z" fill="#FF0000"/>
<path fill-rule="evenodd" clip-rule="evenodd" d="M142.898 41.8355H147.16V19.138L131.78 33.3716V20.2189H127.519V42.9165L142.898 28.683V41.8355ZM136.135 14.5672C135.969 14.2586 135.888 13.9396 135.888 13.6101H133.109C133.109 14.4132 133.299 15.1548 133.68 15.8337C134.06 16.5133 134.627 17.0584 135.378 17.4704C136.129 17.8824 137.04 18.0878 138.111 18.0878C139.202 18.0878 140.118 17.8824 140.86 17.4704C141.601 17.0584 142.167 16.5133 142.558 15.8337C142.949 15.1548 143.145 14.4132 143.145 13.6101H140.335C140.335 13.9396 140.258 14.2586 140.103 14.5672C139.948 14.8766 139.706 15.1286 139.378 15.324C139.048 15.5201 138.626 15.6171 138.111 15.6171C137.617 15.6171 137.205 15.5201 136.876 15.324C136.547 15.1286 136.3 14.8766 136.135 14.5672ZM4.3651 41.8355H-0.236084L2.97511 19.1379L12.0235 33.0961L21.0715 19.1379L24.283 41.8355H19.6818L18.2925 29.6995L12.0235 39.8285L5.75443 29.6995L4.3651 41.8355ZM53.5587 41.8355H49.297V28.6828L33.918 42.9165V20.2189H38.18V33.3715L53.5587 19.1379V41.8355ZM66.5493 37.9752L75.2064 19.1379L83.8632 37.9752H87.0957V45.2325H82.8029V41.8355H67.6093V45.2325H63.3171V37.9752H66.5493ZM79.0923 37.9752L75.2064 27.4755L71.3202 37.9752H79.0923ZM116.65 41.8355H112.388V28.6828L97.0085 42.9165V20.2189H101.27V33.3716L116.65 19.1379V41.8355ZM176.96 20.2189V41.8355H172.543V32.3241H162.445V41.8355H158.03V20.2189H162.445V28.3403H172.543V20.2189H176.96ZM194.469 37.2344C193.461 36.6167 192.668 35.7732 192.091 34.7018C191.515 33.6324 191.227 32.407 191.227 31.0273C191.227 29.6482 191.515 28.4231 192.091 27.3521C192.668 26.282 193.461 25.4375 194.469 24.8202C195.478 24.2022 196.651 23.8938 197.99 23.8938C199.348 23.8938 200.532 24.2022 201.541 24.8202C202.549 25.4375 203.332 26.282 203.888 27.3521C204.444 28.4231 204.722 29.6482 204.722 31.0273C204.722 32.407 204.439 33.6324 203.873 34.7018C203.306 35.7732 202.518 36.6167 201.51 37.2344C200.501 37.8517 199.328 38.1607 197.99 38.1607C196.651 38.1607 195.478 37.8517 194.469 37.2344ZM189.837 22.9364C188.808 23.9452 188.005 25.1344 187.428 26.5032C186.852 27.8724 186.564 29.3803 186.564 31.0273C186.564 32.6537 186.842 34.1616 187.398 35.5513C187.953 36.9406 188.745 38.1508 189.775 39.1791C190.804 40.2094 192.014 41.0073 193.404 41.5729C194.793 42.1393 196.322 42.4224 197.99 42.4224C199.657 42.4224 201.186 42.1393 202.575 41.5729C203.965 41.0073 205.169 40.2094 206.189 39.1791C207.208 38.1508 208 36.9406 208.567 35.5513C209.133 34.1616 209.416 32.6537 209.416 31.0273C209.416 29.3803 209.133 27.8724 208.567 26.5032C208 25.1344 207.197 23.9452 206.158 22.9364C205.118 21.9279 203.908 21.1506 202.529 20.6051C201.15 20.0597 199.636 19.7864 197.99 19.7864C196.363 19.7864 194.855 20.0597 193.466 20.6051C192.076 21.1506 190.867 21.9279 189.837 22.9364ZM219.02 41.8355H232.762V38.0984H223.281V32.2009H232.144V28.5257H223.281V23.9554H232.762V20.2189H219.02V41.8355ZM288.378 41.8355H292.979L294.369 29.6995L300.638 39.8285L306.907 29.6995L308.297 41.8355H312.898L309.686 19.1379L300.638 33.0961L291.589 19.1379L288.378 41.8355ZM322.533 41.8355H336.275V38.0984H326.794V32.2009H335.657V28.5257H326.794V23.9554H336.275V20.2189H322.533V41.8355ZM353.877 37.188C352.827 36.6223 351.978 35.8089 351.329 34.7488C350.681 33.6884 350.356 32.4481 350.356 31.0273C350.356 29.5863 350.681 28.3403 351.329 27.2908C351.978 26.2406 352.827 25.4332 353.877 24.8665C354.927 24.3002 356.07 24.0174 357.305 24.0174C358.334 24.0174 359.25 24.1512 360.054 24.4184C360.856 24.6864 361.582 25.047 362.23 25.4994C362.879 25.9521 363.439 26.4473 363.914 26.9818V22.01C363.028 21.3102 362.065 20.7644 361.026 20.373C359.986 19.9822 358.674 19.7864 357.089 19.7864C355.441 19.7864 353.913 20.0544 352.503 20.5892C351.092 21.1248 349.867 21.8971 348.828 22.9059C347.788 23.9144 346.985 25.1033 346.419 26.4718C345.853 27.8419 345.57 29.3601 345.57 31.0273C345.57 32.6945 345.853 34.213 346.419 35.5821C346.985 36.9519 347.788 38.1402 348.828 39.1496C349.867 40.1581 351.092 40.9298 352.503 41.4653C353.913 42.0002 355.441 42.2678 357.089 42.2678C358.674 42.2678 359.986 42.0727 361.026 41.6812C362.065 41.2904 363.028 40.745 363.914 40.0445V35.0727C363.439 35.6082 362.879 36.1024 362.23 36.5554C361.582 37.0082 360.856 37.3685 360.054 37.6364C359.25 37.9044 358.334 38.0372 357.305 38.0372C356.07 38.0372 354.927 37.7547 353.877 37.188ZM371.387 20.2189H387.445V24.2021H381.609V41.8355H377.192V24.2021H371.387V20.2189ZM401.898 37.2344C400.888 36.6167 400.096 35.7732 399.52 34.7018C398.943 33.6324 398.655 32.407 398.655 31.0273C398.655 29.6482 398.943 28.4231 399.52 27.3521C400.096 26.282 400.888 25.4375 401.898 24.8202C402.906 24.2022 404.08 23.8938 405.418 23.8938C406.777 23.8938 407.961 24.2022 408.97 24.8202C409.978 25.4375 410.76 26.282 411.316 27.3521C411.873 28.4231 412.151 29.6482 412.151 31.0273C412.151 32.407 411.867 33.6324 411.301 34.7018C410.734 35.7732 409.946 36.6167 408.938 37.2344C407.93 37.8517 406.756 38.1607 405.418 38.1607C404.08 38.1607 402.906 37.8517 401.898 37.2344ZM397.266 22.9364C396.236 23.9452 395.433 25.1344 394.857 26.5032C394.28 27.8724 393.992 29.3803 393.992 31.0273C393.992 32.6537 394.27 34.1616 394.826 35.5513C395.382 36.9406 396.174 38.1508 397.203 39.1791C398.233 40.2094 399.442 41.0073 400.832 41.5729C402.222 42.1393 403.75 42.4224 405.418 42.4224C407.086 42.4224 408.614 42.1393 410.004 41.5729C411.394 41.0073 412.598 40.2094 413.617 39.1791C414.637 38.1508 415.429 36.9406 415.995 35.5513C416.561 34.1616 416.845 32.6537 416.845 31.0273C416.845 29.3803 416.561 27.8724 415.995 26.5032C415.429 25.1344 414.626 23.9452 413.586 22.9364C412.547 21.9279 411.336 21.1506 409.958 20.6051C408.578 20.0597 407.065 19.7864 405.418 19.7864C403.791 19.7864 402.284 20.0597 400.894 20.6051C399.504 21.1506 398.295 21.9279 397.266 22.9364Z" fill="white"/>
</g>
<defs>
<clipPath id="clip0_2043_347">
<rect width="417.081" height="50" fill="white"/>
</clipPath>
</defs>
</svg>
