<svg width="46" height="46" viewBox="0 0 46 46" fill="none" xmlns="http://www.w3.org/2000/svg">
<g clip-path="url(#clip0_2043_86)">
<path d="M46 0H0V46H46V0Z" fill="#FF0032"/>
<path fill-rule="evenodd" clip-rule="evenodd" d="M14.0003 3.53772L10.613 10.5568L7.23529 3.53772H3.5376V14.151H6.13444V6.55798L9.43696 12.9748H11.7986L15.1011 6.55798V14.151H17.6886V3.53772H14.0003ZM30.6444 3.53772V5.65472H35.2735V14.151H37.861V5.65472H42.4808V3.53772H30.6444ZM39.385 39.9594C39.6579 39.696 39.8272 39.3478 39.8931 38.9244V38.9338H42.4805C42.4146 39.8089 42.1136 40.5616 41.5961 41.1544C41.1163 41.7001 40.467 42.0953 39.6484 42.3399C38.8581 42.5751 37.8137 42.6975 36.6376 42.6975C35.3956 42.6975 34.323 42.5187 33.4386 42.1706C32.5448 41.813 31.8485 41.2202 31.3687 40.4016C30.9076 39.6207 30.6724 38.567 30.6536 37.2873V37.165L30.7947 37.1556L30.6536 37.1462V37.0239C30.6724 35.7443 30.9076 34.6904 31.3687 33.9096C31.8485 33.091 32.5448 32.4982 33.4386 32.1407C34.323 31.7925 35.3956 31.6138 36.6376 31.6138C37.8137 31.6138 38.8581 31.7361 39.6484 31.9713C40.467 32.2159 41.1257 32.6111 41.5961 33.1569C42.1136 33.759 42.4052 34.5023 42.4805 35.3773H39.8931C39.8272 34.9539 39.6579 34.6058 39.385 34.3423C39.1309 34.0883 38.7828 33.919 38.35 33.8155C37.9266 33.7214 37.2963 33.6649 36.6376 33.6649C35.9508 33.6649 35.3392 33.7496 34.8311 33.9284C34.3324 34.0978 33.9466 34.3988 33.6644 34.8128C33.3821 35.2362 33.241 35.8383 33.241 36.6099V37.6919C33.241 38.4729 33.3821 39.075 33.6644 39.489C33.9372 39.903 34.3324 40.2041 34.8311 40.3734C35.3486 40.5522 35.9508 40.6369 36.6376 40.6369C37.2963 40.6369 37.9266 40.5804 38.35 40.4863C38.7828 40.3828 39.1309 40.2041 39.385 39.9594Z" fill="white"/>
</g>
<defs>
<clipPath id="clip0_2043_86">
<rect width="46" height="46" fill="white"/>
</clipPath>
</defs>
</svg>
