<svg width="47" height="46" viewBox="0 0 47 46" fill="none" xmlns="http://www.w3.org/2000/svg">
<g clip-path="url(#clip0_2045_12)">
<path fill-rule="evenodd" clip-rule="evenodd" d="M0.0800781 0H46.0801V46H0.0800781V0ZM10.6931 10.5568L14.0804 3.53772H17.7686V14.151H15.1811V6.55798L11.8787 12.9748H9.51704L6.21452 6.55798V14.151H3.61768V3.53772H7.31537L10.6931 10.5568ZM30.7245 5.65472V3.53772H42.5609V5.65472H37.9411V14.151H35.3536V5.65472H30.7245ZM39.9732 38.9244C39.9073 39.3478 39.7379 39.696 39.4651 39.9594C39.211 40.2041 38.8629 40.3828 38.4301 40.4863C38.0067 40.5804 37.3764 40.6369 36.7177 40.6369C36.0309 40.6369 35.4287 40.5522 34.9112 40.3734C34.4125 40.2041 34.0173 39.903 33.7444 39.489C33.4622 39.075 33.321 38.4729 33.321 37.6919V36.6099C33.321 35.8383 33.4622 35.2362 33.7444 34.8128C34.0267 34.3988 34.4125 34.0978 34.9112 33.9284C35.4193 33.7496 36.0309 33.665 36.7177 33.665C37.3764 33.665 38.0067 33.7214 38.4301 33.8155C38.8629 33.919 39.211 34.0883 39.4651 34.3423C39.7379 34.6058 39.9073 34.9539 39.9732 35.3773H42.5606C42.4853 34.5023 42.1937 33.759 41.6762 33.1569C41.2058 32.6111 40.5471 32.216 39.7285 31.9713C38.9382 31.7361 37.8938 31.6138 36.7177 31.6138C35.4757 31.6138 34.4031 31.7925 33.5186 32.1407C32.6249 32.4982 31.9286 33.091 31.4487 33.9096C30.9877 34.6904 30.7525 35.7443 30.7336 37.0239V37.1462L30.8748 37.1556L30.7336 37.165V37.2873C30.7525 38.567 30.9877 39.6207 31.4487 40.4016C31.9286 41.2202 32.6249 41.813 33.5186 42.1706C34.4031 42.5187 35.4757 42.6975 36.7177 42.6975C37.8938 42.6975 38.9382 42.5751 39.7285 42.3399C40.5471 42.0953 41.1963 41.7001 41.6762 41.1544C42.1937 40.5616 42.4947 39.8089 42.5606 38.9338H39.9732V38.9244Z" fill="white"/>
</g>
<defs>
<clipPath id="clip0_2045_12">
<rect width="46" height="46" fill="white" transform="translate(0.0800781)"/>
</clipPath>
</defs>
</svg>
