<svg width="60" height="50" viewBox="0 0 60 50" fill="none" xmlns="http://www.w3.org/2000/svg">
<g clip-path="url(#clip0_2043_99)">
<path fill-rule="evenodd" clip-rule="evenodd" d="M8.69401 17.5599C11.8005 8.48944 20.3611 2.39507 30.0125 2.39507C39.6639 2.39507 48.2363 8.48944 51.3309 17.5599L51.3546 17.631H58.1486V16.8129L55.3267 16.4809C53.5925 16.2804 53.2199 15.5164 52.7491 14.5511L52.7419 14.5364L52.6233 14.2993C48.5446 5.62011 39.6639 0 30.0125 0C20.3492 0 11.4804 5.62011 7.40162 14.323L7.28306 14.5601L7.27588 14.5748C6.80504 15.5401 6.43242 16.3041 4.69828 16.5046L1.87637 16.8366V17.6547H8.65844L8.69401 17.5599ZM8.77702 21.5082V28.4681H6.83251L1.66296 23.2511V28.4681H0.121582V21.5082H2.10166L7.23564 26.7014V21.5082H8.77702ZM13.7213 21.5082H12.1799V28.4681H13.7213V21.5082ZM23.0407 27.0097C23.1118 27.0097 23.3015 27.0097 23.349 26.9979C23.7521 26.9267 23.9181 26.6184 23.9181 26.3339C23.9181 26.0375 23.764 25.7055 23.3134 25.6462C23.2778 25.6343 23.1 25.6343 23.0288 25.6343H19.0687C18.9383 25.6343 18.6418 25.6343 18.4284 25.6106C17.2546 25.4446 16.721 24.4487 16.721 23.595C16.721 22.5516 17.4324 21.7335 18.4521 21.5912C18.6063 21.5675 18.796 21.5556 19.045 21.5556H25.0089V22.9547H19.1398C18.9145 22.9547 18.8078 22.9666 18.713 22.9903C18.381 23.0851 18.2624 23.3697 18.2624 23.5831C18.2624 23.8202 18.381 24.1048 18.7011 24.1878C18.7723 24.2115 18.9738 24.2234 19.1517 24.2234H23.2185C23.3015 24.2234 23.4913 24.2234 23.7165 24.2471C24.8666 24.3538 25.4713 25.3735 25.4713 26.322C25.4713 27.2468 24.8903 28.3021 23.6217 28.4207C23.5505 28.4325 23.183 28.4325 23.1355 28.4325H16.9107V27.0097H23.0407ZM34.6248 27.0097C34.7077 27.0097 34.8975 27.0097 34.9449 26.9979C35.3362 26.9267 35.514 26.6184 35.514 26.3339C35.514 26.0375 35.3599 25.7055 34.9093 25.6462C34.8737 25.6343 34.6959 25.6343 34.6248 25.6343H30.6646C30.5342 25.6343 30.2378 25.6343 30.0243 25.6106C28.8505 25.4446 28.317 24.4487 28.317 23.595C28.317 22.5516 29.0284 21.7335 30.048 21.5912C30.2022 21.5675 30.3919 21.5556 30.6409 21.5556H36.6048V22.9547H30.7357C30.5105 22.9547 30.4037 22.9666 30.3089 22.9903C29.9769 23.0851 29.8583 23.3697 29.8583 23.5831C29.8583 23.8202 29.9769 24.1048 30.297 24.1878C30.3682 24.2115 30.5697 24.2234 30.7476 24.2234H34.8145C34.8975 24.2234 35.0872 24.2234 35.3124 24.2471C36.4625 24.3538 37.0672 25.3735 37.0672 26.322C37.0672 27.2468 36.4863 28.3021 35.2176 28.4207C35.1465 28.4325 34.7789 28.4325 34.7315 28.4325H28.5067V27.0097H34.6248ZM58.3501 21.5082V26.7014L53.2161 21.5082H51.2361V28.4681H52.7774V23.2511L57.9351 28.4681H59.8796V21.5082H58.3501ZM38.8695 28.4681L43.2091 21.5082H44.869L49.2086 28.4681H47.3471L46.5764 27.2231H41.5135L40.7428 28.4681H38.8695ZM42.3079 25.907H45.782L44.0509 23.1088L42.3079 25.907ZM51.3309 32.4282L51.3546 32.3571H58.1604V33.1752L55.3385 33.5072C53.6044 33.7077 53.2317 34.4717 52.7609 35.437L52.7537 35.4517L52.6352 35.6888C48.5564 44.3798 39.6757 49.9999 30.0243 49.9999C20.3729 49.9999 11.4922 44.3798 7.41347 35.677L7.2949 35.4398L7.28772 35.4251C6.81688 34.4598 6.44426 33.6959 4.71012 33.4953L1.88821 33.1633V32.3452H8.67028L8.694 32.4164C11.7886 41.4868 20.3611 47.5812 30.0125 47.5812C39.6639 47.5812 48.2244 41.4986 51.3309 32.4282Z" fill="black"/>
</g>
<defs>
<clipPath id="clip0_2043_99">
<rect width="59.7579" height="50" fill="white" transform="translate(0.121094)"/>
</clipPath>
</defs>
</svg>
