<svg width="60" height="50" viewBox="0 0 60 50" fill="none" xmlns="http://www.w3.org/2000/svg">
<g clip-path="url(#clip0_2045_14)">
<path fill-rule="evenodd" clip-rule="evenodd" d="M8.653 17.5599C11.7595 8.48944 20.3201 2.39507 29.9715 2.39507C39.6229 2.39507 48.1953 8.48944 51.2899 17.5599L51.3136 17.631H58.1076V16.8129L55.2856 16.4809C53.5515 16.2804 53.1789 15.5164 52.708 14.5511L52.7009 14.5364L52.5823 14.2993C48.5036 5.62011 39.6229 0 29.9715 0C20.3082 0 11.4393 5.62011 7.36061 14.323L7.24204 14.5601L7.23486 14.5748C6.76402 15.5401 6.39141 16.3041 4.65727 16.5046L1.83536 16.8366V17.6547H8.61743L8.653 17.5599ZM8.736 21.5082V28.4681H6.79149L1.62195 23.2511V28.4681H0.0805664V21.5082H2.06065L7.19462 26.7014V21.5082H8.736ZM13.6803 21.5082H12.1389V28.4681H13.6803V21.5082ZM22.9997 27.0097C23.0708 27.0097 23.2605 27.0097 23.308 26.9979C23.7111 26.9267 23.8771 26.6184 23.8771 26.3339C23.8771 26.0375 23.7229 25.7055 23.2724 25.6462C23.2368 25.6343 23.059 25.6343 22.9878 25.6343H19.0277C18.8972 25.6343 18.6008 25.6343 18.3874 25.6106C17.2136 25.4446 16.68 24.4487 16.68 23.595C16.68 22.5516 17.3914 21.7335 18.4111 21.5912C18.5652 21.5675 18.755 21.5556 19.0039 21.5556H24.9679V22.9547H19.0988C18.8735 22.9547 18.7668 22.9666 18.672 22.9903C18.34 23.0851 18.2214 23.3697 18.2214 23.5831C18.2214 23.8202 18.34 24.1048 18.6601 24.1878C18.7312 24.2115 18.9328 24.2234 19.1107 24.2234H23.1775C23.2605 24.2234 23.4503 24.2234 23.6755 24.2471C24.8256 24.3538 25.4303 25.3735 25.4303 26.322C25.4303 27.2468 24.8493 28.3021 23.5807 28.4207C23.5095 28.4325 23.142 28.4325 23.0945 28.4325H16.8697V27.0097H22.9997ZM34.5837 27.0097C34.6667 27.0097 34.8564 27.0097 34.9039 26.9979C35.2951 26.9267 35.473 26.6184 35.473 26.3339C35.473 26.0375 35.3189 25.7055 34.8683 25.6462C34.8327 25.6343 34.6549 25.6343 34.5837 25.6343H30.6236C30.4932 25.6343 30.1967 25.6343 29.9833 25.6106C28.8095 25.4446 28.2759 24.4487 28.2759 23.595C28.2759 22.5516 28.9873 21.7335 30.007 21.5912C30.1612 21.5675 30.3509 21.5556 30.5999 21.5556H36.5638V22.9547H30.6947C30.4694 22.9547 30.3627 22.9666 30.2679 22.9903C29.9359 23.0851 29.8173 23.3697 29.8173 23.5831C29.8173 23.8202 29.9359 24.1048 30.256 24.1878C30.3272 24.2115 30.5287 24.2234 30.7066 24.2234H34.7734C34.8564 24.2234 35.0462 24.2234 35.2714 24.2471C36.4215 24.3538 37.0262 25.3735 37.0262 26.322C37.0262 27.2468 36.4452 28.3021 35.1766 28.4207C35.1054 28.4325 34.7379 28.4325 34.6904 28.4325H28.4656V27.0097H34.5837ZM58.3091 21.5082V26.7014L53.1751 21.5082H51.195V28.4681H52.7364V23.2511L57.8941 28.4681H59.8386V21.5082H58.3091ZM38.8285 28.4681L43.168 21.5082H44.828L49.1676 28.4681H47.306L46.5354 27.2231H41.4725L40.7018 28.4681H38.8285ZM42.2669 25.907H45.741L44.0099 23.1088L42.2669 25.907ZM51.2899 32.4282L51.3136 32.3571H58.1194V33.1752L55.2975 33.5072C53.5634 33.7077 53.1907 34.4717 52.7199 35.437L52.7127 35.4517L52.5941 35.6888C48.5154 44.3798 39.6347 49.9999 29.9833 49.9999C20.3319 49.9999 11.4512 44.3798 7.37245 35.677L7.25388 35.4398L7.2467 35.4251C6.77586 34.4598 6.40325 33.6959 4.66911 33.4953L1.8472 33.1633V32.3452H8.62927L8.65298 32.4164C11.7476 41.4868 20.32 47.5812 29.9714 47.5812C39.6228 47.5812 48.1834 41.4986 51.2899 32.4282Z" fill="white"/>
</g>
<defs>
<clipPath id="clip0_2045_14">
<rect width="59.7579" height="50" fill="white" transform="translate(0.0800781)"/>
</clipPath>
</defs>
</svg>
