<svg width="379" height="50" viewBox="0 0 379 50" fill="none" xmlns="http://www.w3.org/2000/svg">
<g clip-path="url(#clip0_2043_416)">
<path d="M27.1416 13.6792L21.6699 19.1509L16.1982 13.6792C13.1794 10.6603 13.1794 5.75468 16.1982 2.64147C19.2171 -0.377398 24.1228 -0.377398 27.1416 2.64147C30.1605 5.75468 30.1605 10.6603 27.1416 13.6792Z" fill="#5FAF2D"/>
<path d="M16.1982 29.1509L21.6699 23.6792L27.1416 29.1509C30.1605 32.1698 30.1605 37.0754 27.1416 40.1886C24.1228 43.2075 19.2171 43.2075 16.1982 40.1886C13.1794 37.0754 13.1794 32.1698 16.1982 29.1509Z" fill="#005A28"/>
<path d="M29.4058 26.9811L23.9341 21.415L29.4058 15.9434C32.4247 12.9245 37.3303 12.9245 40.3492 15.9434C43.368 18.9622 43.368 23.8679 40.3492 26.9811C37.3303 30 32.4247 30 29.4058 26.9811Z" fill="#1EAF37"/>
<path d="M14.0283 15.9434L19.5 21.4151L14.0283 26.8868C11.0095 29.9057 6.10382 29.9057 3.08495 26.8868C0.0660838 23.868 0.0660838 18.9623 3.08495 15.8491C6.00948 12.9246 11.0095 12.9246 14.0283 15.9434Z" fill="#AAE641"/>
<path d="M320.538 19.7169H312.519V39.0566H305.915V19.7169H297.896V13.3018H320.538V19.7169ZM95.2549 28.9622H114.5C114.689 28.1132 114.783 27.1698 114.783 26.2264C114.783 18.6792 109.406 12.6415 101.859 12.6415C93.8398 12.6415 88.3681 18.5849 88.3681 26.2264C88.3681 33.8679 93.7454 39.8113 102.33 39.8113C107.236 39.8113 111.104 37.8301 113.462 34.3396L108.179 31.2264C107.047 32.7358 104.972 33.7735 102.425 33.7735C99.0284 33.7735 96.1982 32.3584 95.2549 28.9622ZM95.1605 23.7735C95.9152 20.4717 98.3681 18.5849 101.859 18.5849C104.594 18.5849 107.425 20.0943 108.179 23.7735H95.1605ZM134.217 12.6415C130.538 12.6415 127.802 14.0566 125.915 16.415V13.3962H119.311V49.3396H125.915V36.0377C127.802 38.3962 130.444 39.8113 134.217 39.8113C141.104 39.8113 146.67 33.8679 146.67 26.2264C146.764 18.5849 141.104 12.6415 134.217 12.6415ZM132.991 33.3962C128.934 33.3962 125.915 30.4716 125.915 26.132C125.915 21.7924 128.934 18.8679 132.991 18.8679C137.047 18.8679 140.066 21.7924 140.066 26.132C140.066 30.4716 137.142 33.3962 132.991 33.3962ZM156.953 28.9622H176.198C176.387 28.1132 176.481 27.1698 176.481 26.2264C176.481 18.6792 171.104 12.6415 163.557 12.6415C155.538 12.6415 150.066 18.5849 150.066 26.2264C150.066 33.8679 155.444 39.8113 164.028 39.8113C168.934 39.8113 172.802 37.8301 175.161 34.3396L169.877 31.2264C168.745 32.7358 166.67 33.7735 164.123 33.7735C160.727 33.7735 157.896 32.3584 156.953 28.9622ZM156.859 23.7735C157.613 20.4717 160.066 18.5849 163.557 18.5849C166.293 18.5849 169.123 20.0943 169.877 23.7735H156.859ZM224.689 12.6415C220.915 12.6415 218.274 14.0566 216.387 16.415V13.3962H209.783V49.3396H216.387V36.0377C218.274 38.3962 220.915 39.8113 224.689 39.8113C231.576 39.8113 237.142 33.8679 237.142 26.2264C237.142 18.5849 231.481 12.6415 224.689 12.6415ZM223.462 33.3962C219.406 33.3962 216.387 30.4716 216.387 26.132C216.387 21.7924 219.406 18.8679 223.462 18.8679C227.519 18.8679 230.538 21.7924 230.538 26.132C230.538 30.4716 227.519 33.3962 223.462 33.3962ZM247.425 28.9622H266.67C266.859 28.1132 266.953 27.1698 266.953 26.2264C266.953 18.6792 261.576 12.6415 254.028 12.6415C246.01 12.6415 240.538 18.5849 240.538 26.2264C240.538 33.8679 245.915 39.8113 254.5 39.8113C259.406 39.8113 263.274 37.8301 265.632 34.3396L260.349 31.2264C259.217 32.7358 257.142 33.7735 254.594 33.7735C251.104 33.7735 248.274 32.3584 247.425 28.9622ZM248.84 10.6603C250.727 10.6603 252.236 9.1509 252.236 7.2641C252.236 5.37731 250.727 3.77354 248.84 3.77354C246.953 3.77354 245.349 5.37731 245.349 7.2641C245.349 9.1509 246.953 10.6603 248.84 10.6603ZM247.236 23.7735C247.991 20.4717 250.444 18.5849 253.934 18.5849C256.67 18.5849 259.5 20.0943 260.255 23.7735H247.236ZM258.462 10.6603C260.349 10.6603 261.859 9.1509 261.859 7.2641C261.859 5.37731 260.349 3.77354 258.462 3.77354C256.576 3.77354 254.972 5.37731 254.972 7.2641C255.066 9.1509 256.576 10.6603 258.462 10.6603ZM283.462 39.7169C288.462 39.7169 292.802 37.0754 294.972 33.0188L289.217 29.7169C288.179 31.7924 286.01 33.1132 283.368 33.1132C279.406 33.1132 276.481 30.1886 276.481 26.132C276.481 22.0754 279.406 19.1509 283.368 19.1509C286.01 19.1509 288.179 20.4717 289.217 22.5471L294.878 19.2452C292.802 15.283 288.462 12.6415 283.462 12.6415C275.727 12.6415 269.972 18.5849 269.972 26.2264C269.972 33.8679 275.727 39.7169 283.462 39.7169ZM336.198 39.7169C343.745 39.7169 349.689 33.7735 349.689 26.132C349.689 18.4905 343.745 12.6415 336.198 12.6415C328.651 12.6415 322.708 18.5849 322.708 26.2264C322.708 33.8679 328.651 39.7169 336.198 39.7169ZM336.198 33.3018C332.33 33.3018 329.311 30.3773 329.311 26.2264C329.311 22.0754 332.33 19.1509 336.198 19.1509C340.161 19.1509 343.179 22.0754 343.179 26.2264C343.179 30.3773 340.161 33.3018 336.198 33.3018ZM197.802 39.0566H205.444L195.632 26.0377L205.066 13.3962H197.236L189.972 23.7735H187.708V13.3962H181.104V39.0566H187.708V28.9622H190.444L197.802 39.0566ZM370.349 39.0566H377.991L368.274 26.0377L377.708 13.3962H369.878L362.519 23.8679H360.255V13.3962H353.651V39.0566H360.255V28.9622H362.991L370.349 39.0566ZM84.0284 3.6792H57.3303V38.9622H64.4058V10.3773H77.0473V39.0566H84.1228V3.6792H84.0284Z" fill="#005A28"/>
</g>
<defs>
<clipPath id="clip0_2043_416">
<rect width="378.302" height="50" fill="white" transform="translate(0.349121)"/>
</clipPath>
</defs>
</svg>
