<svg width="182" height="24" viewBox="0 0 182 24" fill="none" xmlns="http://www.w3.org/2000/svg">
<g clip-path="url(#clip0_2045_4)">
<path d="M12.9405 6.56606L10.314 9.19247L7.68762 6.56606C6.23857 5.117 6.23857 2.76228 7.68762 1.26794C9.13668 -0.181112 11.4914 -0.181112 12.9405 1.26794C14.3895 2.76228 14.3895 5.117 12.9405 6.56606Z" fill="white"/>
<path d="M7.68762 13.9925L10.314 11.3661L12.9405 13.9925C14.3895 15.4416 14.3895 17.7963 12.9405 19.2906C11.4914 20.7397 9.13668 20.7397 7.68762 19.2906C6.23857 17.7963 6.23857 15.4416 7.68762 13.9925Z" fill="white"/>
<path d="M14.0273 12.9509L11.4009 10.2792L14.0273 7.65283C15.4764 6.20378 17.8311 6.20378 19.2801 7.65283C20.7292 9.10189 20.7292 11.4566 19.2801 12.9509C17.8311 14.4 15.4764 14.4 14.0273 12.9509Z" fill="white"/>
<path d="M6.64602 7.65282L9.27243 10.2792L6.64602 12.9057C5.19696 14.3547 2.84225 14.3547 1.39319 12.9057C-0.0558676 11.4566 -0.0558676 9.10188 1.39319 7.60754C2.79696 6.20377 5.19696 6.20377 6.64602 7.65282Z" fill="white"/>
<path d="M153.771 9.4641H149.921V18.7471H146.752V9.4641H142.903V6.38486H153.771V9.4641ZM45.6347 13.9018H54.8724C54.963 13.4943 55.0083 13.0415 55.0083 12.5886C55.0083 8.96599 52.4271 6.06788 48.8045 6.06788C44.9554 6.06788 42.329 8.92071 42.329 12.5886C42.329 16.2566 44.9102 19.1094 49.0309 19.1094C51.3856 19.1094 53.2422 18.1584 54.3743 16.483L51.8385 14.9886C51.2951 15.7132 50.2988 16.2113 49.0762 16.2113C47.446 16.2113 46.0875 15.532 45.6347 13.9018ZM45.5894 11.4113C45.9517 9.82637 47.129 8.92071 48.8045 8.92071C50.1177 8.92071 51.4762 9.64524 51.8385 11.4113H45.5894ZM64.3366 6.06788C62.5705 6.06788 61.2573 6.74712 60.3517 7.8792V6.43014H57.1819V23.683H60.3517V17.2981C61.2573 18.4301 62.5252 19.1094 64.3366 19.1094C67.6422 19.1094 70.3139 16.2566 70.3139 12.5886C70.3592 8.92071 67.6422 6.06788 64.3366 6.06788ZM63.7479 16.0301C61.8007 16.0301 60.3517 14.6264 60.3517 12.5433C60.3517 10.4603 61.8007 9.05656 63.7479 9.05656C65.6951 9.05656 67.1441 10.4603 67.1441 12.5433C67.1441 14.6264 65.7403 16.0301 63.7479 16.0301ZM75.2498 13.9018H84.4875C84.5781 13.4943 84.6234 13.0415 84.6234 12.5886C84.6234 8.96599 82.0422 6.06788 78.4196 6.06788C74.5705 6.06788 71.9441 8.92071 71.9441 12.5886C71.9441 16.2566 74.5252 19.1094 78.646 19.1094C81.0007 19.1094 82.8573 18.1584 83.9894 16.483L81.4535 14.9886C80.9102 15.7132 79.9139 16.2113 78.6913 16.2113C77.0611 16.2113 75.7026 15.532 75.2498 13.9018ZM75.2045 11.4113C75.5668 9.82637 76.7441 8.92071 78.4196 8.92071C79.7328 8.92071 81.0913 9.64524 81.4535 11.4113H75.2045ZM107.763 6.06788C105.952 6.06788 104.684 6.74712 103.778 7.8792V6.43014H100.608V23.683H103.778V17.2981C104.684 18.4301 105.952 19.1094 107.763 19.1094C111.069 19.1094 113.74 16.2566 113.74 12.5886C113.74 8.92071 111.023 6.06788 107.763 6.06788ZM107.174 16.0301C105.227 16.0301 103.778 14.6264 103.778 12.5433C103.778 10.4603 105.227 9.05656 107.174 9.05656C109.121 9.05656 110.571 10.4603 110.571 12.5433C110.571 14.6264 109.121 16.0301 107.174 16.0301ZM118.676 13.9018H127.914C128.004 13.4943 128.05 13.0415 128.05 12.5886C128.05 8.96599 125.469 6.06788 121.846 6.06788C117.997 6.06788 115.371 8.92071 115.371 12.5886C115.371 16.2566 117.952 19.1094 122.072 19.1094C124.427 19.1094 126.284 18.1584 127.416 16.483L124.88 14.9886C124.337 15.7132 123.34 16.2113 122.118 16.2113C120.442 16.2113 119.084 15.532 118.676 13.9018ZM119.355 5.11693C120.261 5.11693 120.986 4.39241 120.986 3.48675C120.986 2.58109 120.261 1.81127 119.355 1.81127C118.45 1.81127 117.68 2.58109 117.68 3.48675C117.68 4.39241 118.45 5.11693 119.355 5.11693ZM118.586 11.4113C118.948 9.82637 120.125 8.92071 121.801 8.92071C123.114 8.92071 124.472 9.64524 124.835 11.4113H118.586ZM123.974 5.11693C124.88 5.11693 125.604 4.39241 125.604 3.48675C125.604 2.58109 124.88 1.81127 123.974 1.81127C123.069 1.81127 122.299 2.58109 122.299 3.48675C122.344 4.39241 123.069 5.11693 123.974 5.11693ZM135.974 19.0641C138.374 19.0641 140.457 17.7962 141.499 15.849L138.737 14.2641C138.238 15.2603 137.197 15.8943 135.929 15.8943C134.027 15.8943 132.623 14.4905 132.623 12.5433C132.623 10.5962 134.027 9.1924 135.929 9.1924C137.197 9.1924 138.238 9.82637 138.737 10.8226L141.454 9.23769C140.457 7.3358 138.374 6.06788 135.974 6.06788C132.261 6.06788 129.499 8.92071 129.499 12.5886C129.499 16.2566 132.261 19.0641 135.974 19.0641ZM161.288 19.0641C164.91 19.0641 167.763 16.2113 167.763 12.5433C167.763 8.87542 164.91 6.06788 161.288 6.06788C157.665 6.06788 154.812 8.92071 154.812 12.5886C154.812 16.2566 157.665 19.0641 161.288 19.0641ZM161.288 15.9849C159.431 15.9849 157.982 14.5811 157.982 12.5886C157.982 10.5962 159.431 9.1924 161.288 9.1924C163.189 9.1924 164.638 10.5962 164.638 12.5886C164.638 14.5811 163.189 15.9849 161.288 15.9849ZM94.8573 18.7471H98.5252L93.8158 12.4981L98.3441 6.43014H94.5856L91.0988 11.4113H90.012V6.43014H86.8422V18.7471H90.012V13.9018H91.3253L94.8573 18.7471ZM177.68 18.7471H181.348L176.684 12.4981L181.212 6.43014H177.454L173.921 11.4566H172.835V6.43014H169.665V18.7471H172.835V13.9018H174.148L177.68 18.7471ZM40.246 1.76599H27.4309V18.7018H30.8271V4.98108H36.8951V18.7471H40.2913V1.76599H40.246Z" fill="white"/>
</g>
<defs>
<clipPath id="clip0_2045_4">
<rect width="181.585" height="24" fill="white" transform="translate(0.0800781)"/>
</clipPath>
</defs>
</svg>
