<svg width="117" height="50" viewBox="0 0 117 50" fill="none" xmlns="http://www.w3.org/2000/svg">
<g clip-path="url(#clip0_2043_451)">
<path fill-rule="evenodd" clip-rule="evenodd" d="M41.4086 18.916C41.4823 19.1593 41.5708 19.4396 41.6077 19.5354C41.6372 19.6313 41.6814 19.6977 41.6962 19.6829C41.7404 19.6313 41.5339 18.2596 41.4159 17.8024C41.3496 17.5517 41.2979 17.264 41.2979 17.1608C41.2979 17.0649 41.2463 16.8584 41.1873 16.7036C41.1209 16.5561 41.0398 16.298 41.0029 16.1284C40.9292 15.7817 40.7522 15.236 40.5457 14.7714C40.472 14.5944 40.413 14.4174 40.413 14.3658C40.413 14.3142 40.3392 14.1225 40.2581 13.9381L40.2409 13.9022C40.1549 13.7232 40.0488 13.5024 40.0074 13.385C39.8378 12.972 39.5059 12.3378 38.9012 11.2463C38.6431 10.7817 37.7581 9.42481 37.6475 9.32894C37.6032 9.29207 37.5295 9.20357 37.4926 9.1372C37.4189 8.99708 37.0501 8.55461 36.6372 8.09C36.4823 7.92039 36.3569 7.73602 36.3569 7.69177C36.3569 7.64015 36.3053 7.5959 36.2463 7.5959C36.1873 7.5959 36.1357 7.56641 36.1357 7.52216C36.1357 7.44841 34.9041 6.17998 34.7198 6.07673C34.6608 6.03986 34.3953 5.81862 34.1372 5.57526C33.3186 4.82304 31.0029 3.17113 30.767 3.17113C30.7227 3.17113 30.6785 3.149 30.6637 3.11213C30.6563 3.08263 30.3909 2.92776 30.0885 2.7729C29.9719 2.71317 29.8553 2.65454 29.7526 2.60293C29.5892 2.52077 29.461 2.4563 29.4248 2.43366C29.3658 2.40416 29.233 2.33779 29.1298 2.29354C29.0265 2.2493 28.8938 2.18292 28.8348 2.14605C28.7758 2.1018 28.4956 1.98381 28.2153 1.87319C27.9351 1.76995 27.6475 1.65195 27.5885 1.61508C27.5221 1.5782 27.3378 1.50446 27.1755 1.44546C27.0133 1.38646 26.7847 1.30534 26.6593 1.26847C26.4454 1.19472 25.8776 1.02511 24.8525 0.737497C24.1593 0.538382 23.2153 0.361391 22.4557 0.287644C22.0944 0.250771 21.5782 0.184399 21.3127 0.147526C20.2729 -0.0147156 18.8274 -0.0220902 17.2419 0.140152C16.4086 0.228647 15.4941 0.295019 15.2139 0.302394C14.941 0.302394 14.4321 0.354016 14.0855 0.405638C13.7389 0.464635 13.1858 0.545756 12.854 0.590004C12.5221 0.626877 12.1091 0.707998 11.9321 0.77437C11.7552 0.833367 11.4897 0.88499 11.3348 0.88499C11.1799 0.88499 11.0693 0.914488 11.0914 0.951361C11.1136 0.98086 11.9764 1.01036 13.0015 1.00298C14.0265 0.995609 15.1475 1.01773 15.4941 1.04723C15.8333 1.07673 16.792 1.12098 17.6254 1.1431C18.5029 1.1726 19.5133 1.25372 20.0369 1.33484C20.5383 1.40859 21.0693 1.47496 21.2168 1.47496C21.3717 1.47496 21.7109 1.54133 21.9764 1.62245C22.2419 1.70357 22.5369 1.76995 22.6401 1.76995C22.8835 1.76995 25.0074 2.35992 25.295 2.50741C25.354 2.53691 25.5973 2.61803 25.826 2.6844C26.0546 2.75077 26.2684 2.83927 26.2906 2.87614C26.3127 2.92039 26.3938 2.94989 26.4602 2.94989C26.5339 2.94989 26.7183 3.01626 26.8732 3.09C27.028 3.17113 27.2493 3.25962 27.3599 3.28174C27.4779 3.30387 27.6106 3.37761 27.6622 3.43661C27.7065 3.49561 27.7802 3.53986 27.8171 3.53986C27.9277 3.53986 28.9307 4.03396 29.2257 4.23307C29.3805 4.33632 29.5428 4.42481 29.587 4.42481C29.6239 4.42481 29.882 4.56493 30.1549 4.74192C30.885 5.20652 30.9218 5.22865 31.1062 5.30977C31.1947 5.34664 31.2684 5.41301 31.2684 5.45726C31.2684 5.50151 31.3791 5.58263 31.5192 5.64163C31.6593 5.70062 31.7847 5.78174 31.7994 5.82599C31.8142 5.87024 31.8732 5.91449 31.9322 5.92186C32.0428 5.93661 32.1165 5.99561 32.5442 6.37909C32.6475 6.47496 32.7434 6.53396 32.7655 6.51921C32.7802 6.50446 32.9204 6.62245 33.0752 6.7847C33.2375 6.94694 33.3923 7.07968 33.4218 7.07968C33.5103 7.07968 34.6903 8.21537 35.8112 9.38057C36.497 10.0959 37.8245 11.8068 38.3112 12.6033C38.3555 12.6697 38.4071 12.736 38.4292 12.7581C38.4513 12.7803 38.5324 12.8983 38.5988 13.0163C38.6652 13.1416 38.8201 13.385 38.9381 13.5694C39.056 13.7537 39.2552 14.1003 39.3805 14.3437C39.5059 14.5871 39.6386 14.8378 39.6755 14.8968C39.7493 15.0295 40.6268 16.8658 40.8481 17.3525C40.9292 17.5443 41.0029 17.7508 41.0029 17.8171C41.0029 17.8761 41.0693 18.0531 41.1431 18.2006C41.2242 18.3481 41.3422 18.6726 41.4086 18.916ZM35.0295 37.4041C35.0295 37.3746 35.0811 37.2714 35.1549 37.1755C35.354 36.8879 35.8923 35.8481 36.1283 35.2876C36.2168 35.0885 36.3569 34.7935 36.4307 34.646C36.5118 34.4985 36.5782 34.3289 36.5782 34.2773C36.5782 34.2256 36.6445 34.056 36.7257 33.9012C36.8068 33.7537 36.8732 33.5693 36.8732 33.5029C36.8732 33.4292 36.9395 33.2743 37.0206 33.1489C37.1018 33.031 37.1681 32.8318 37.1681 32.7212C37.1681 32.6032 37.205 32.441 37.2566 32.3525C37.4263 32.0501 37.8245 30.4941 38.0162 29.3879C38.047 29.2187 38.0878 28.9853 38.1292 28.7484L38.1296 28.7462L38.1304 28.7414C38.168 28.5263 38.206 28.3087 38.2375 28.1342C38.3776 27.3377 38.4366 24.4469 38.3407 23.0826C38.2301 21.4233 37.795 19.2551 37.3156 17.9572C37.2419 17.7581 37.1092 17.3599 37.0133 17.0723C36.9248 16.792 36.792 16.4233 36.7183 16.261C36.6445 16.0988 36.4971 15.7522 36.3864 15.4867C36.2832 15.2212 36.1431 14.9557 36.0914 14.8894C36.0324 14.8304 35.9882 14.7419 35.9882 14.705C35.9882 14.6681 35.885 14.4543 35.767 14.233C35.6416 14.0118 35.4867 13.702 35.4204 13.5546C35.354 13.3997 35.2729 13.2743 35.2434 13.2743C35.2065 13.2743 35.1254 13.1637 35.0664 13.0383C34.9336 12.7655 34.8599 12.6327 34.5501 12.1755C34.4566 12.0434 34.3466 11.8702 34.2631 11.7387C34.2347 11.6941 34.2094 11.6542 34.1888 11.6224C34.0634 11.4085 33.4661 10.6268 33.1711 10.2876C33.1521 10.2644 33.1193 10.225 33.0772 10.1743C32.9717 10.0476 32.8076 9.85037 32.6549 9.66074C32.441 9.39526 31.91 8.82004 31.4749 8.37018C31.0324 7.92771 30.6785 7.53685 30.6785 7.50735C30.6785 7.42623 30.8112 7.43361 30.8407 7.51473C30.8555 7.54423 31.0472 7.69909 31.2684 7.83921C31.4897 7.9867 31.8142 8.20794 31.9912 8.33331C32.1608 8.45131 32.3378 8.55455 32.3746 8.55455C32.4189 8.55455 32.4484 8.58405 32.4484 8.61355C32.4484 8.64305 32.677 8.84953 32.9646 9.0634C33.6652 9.60175 35.472 11.3938 35.472 11.5634C35.472 11.5929 35.59 11.7404 35.7301 11.8879C35.8702 12.0354 35.9882 12.1976 35.9882 12.2419C35.9882 12.2861 36.0398 12.3377 36.0988 12.3599C36.1578 12.382 36.3127 12.5885 36.4454 12.8245C36.5708 13.0531 36.7183 13.2743 36.7699 13.3112C36.8215 13.3554 36.9395 13.5324 37.0354 13.7168C37.2198 14.0708 37.3968 14.3658 37.618 14.6902C37.6991 14.8009 37.7581 14.9262 37.7581 14.9705C37.7581 15.0147 37.8392 15.177 37.9425 15.3245C38.0457 15.472 38.1268 15.6489 38.1268 15.7153C38.1268 15.7817 38.1785 15.8776 38.2375 15.9292C38.2965 15.9808 38.3481 16.0914 38.3481 16.1725C38.3481 16.3053 38.5029 16.6888 38.8496 17.3967C38.9159 17.5368 38.9676 17.6917 38.9528 17.7433C38.9454 17.795 38.9971 17.9793 39.0782 18.1563C39.1593 18.3333 39.2552 18.6209 39.2994 18.8053C39.3226 18.921 39.3602 19.0745 39.3942 19.2129C39.4143 19.2949 39.4332 19.3718 39.4469 19.4321C40.0442 21.7625 40.236 24.4911 39.941 26.6224C39.7935 27.7286 39.4911 29.3141 39.3732 29.6312C39.3289 29.7419 39.2699 29.9631 39.233 30.1253C39.1445 30.5236 38.9454 31.1135 38.8201 31.3569C38.7611 31.4602 38.7168 31.5929 38.7168 31.6445C38.7168 31.7256 38.5988 31.9985 38.2006 32.854C38.1195 33.0162 38.0383 33.2006 38.0162 33.2596C37.9941 33.3186 37.8982 33.5029 37.795 33.6652C37.6991 33.8274 37.5516 34.0855 37.4705 34.233C37.3894 34.3805 37.2861 34.5206 37.2419 34.5501C37.205 34.5723 37.1681 34.6607 37.1681 34.7419C37.1681 34.8156 37.1386 34.882 37.1018 34.882C37.0649 34.882 37.0133 34.9484 36.9838 35.0295C36.9617 35.1106 36.792 35.354 36.6077 35.5752C36.4307 35.7964 36.2832 35.9956 36.2832 36.0177C36.2832 36.0693 36.0914 36.3053 35.8776 36.5339C35.7965 36.6224 35.7301 36.7109 35.7301 36.733C35.7301 36.7551 35.6047 36.9026 35.4572 37.0575C35.3024 37.205 35.177 37.3599 35.177 37.3967C35.177 37.4336 35.1475 37.4631 35.1032 37.4631C35.0664 37.4631 35.0295 37.441 35.0295 37.4041ZM25.1475 47.2788C25.1475 47.2493 25.3688 47.1534 25.649 47.0575C25.9219 46.9617 26.1947 46.8437 26.2537 46.7921C26.3127 46.7404 26.4455 46.6741 26.5487 46.6446C26.6519 46.6151 26.8216 46.5266 26.9322 46.4528C27.0354 46.3717 27.1608 46.3127 27.205 46.3127C27.2567 46.3127 27.3894 46.2463 27.5074 46.1652C27.5701 46.1247 27.6494 46.0712 27.7286 46.0177C27.8078 45.9644 27.8873 45.9107 27.9499 45.8702C28.0679 45.7891 28.1932 45.7227 28.2375 45.7227C28.3186 45.7227 29.2257 45.177 29.5428 44.9337C29.6682 44.8452 29.8083 44.764 29.8599 44.764C29.9042 44.764 29.9632 44.7124 29.9853 44.6534C30.0148 44.5944 30.0959 44.5428 30.1696 44.5428C30.2508 44.5428 30.3319 44.4986 30.354 44.4396C30.3761 44.3879 30.59 44.2109 30.826 44.0561C31.0694 43.9012 31.2685 43.7463 31.2685 43.7168C31.2685 43.68 31.3201 43.6578 31.3791 43.6578C31.4455 43.6578 31.5118 43.6136 31.534 43.5546C31.5561 43.503 31.7257 43.3481 31.9174 43.208C32.1092 43.0752 32.2935 42.9204 32.323 42.8688C32.3525 42.8171 32.4189 42.7729 32.4558 42.7729C32.5 42.7729 32.6623 42.6401 32.8245 42.4779C32.9868 42.3157 33.1342 42.1829 33.1564 42.1829C33.2227 42.1829 35.3245 40.0443 35.3245 39.9705C35.3245 39.9337 35.3835 39.8599 35.4573 39.8083C35.6269 39.6829 36.3643 38.7758 36.8142 38.1416C37.0059 37.8688 37.2198 37.5812 37.2935 37.5C37.3673 37.4189 37.5074 37.205 37.6033 37.0207C37.6991 36.8363 37.8319 36.6224 37.8983 36.5413C38.0089 36.4012 38.0974 36.2537 38.326 35.8407C38.385 35.7375 38.5104 35.5236 38.6062 35.3614C38.857 34.9263 39.2183 34.2036 39.2699 34.0192C39.2921 33.9233 39.3511 33.8496 39.3879 33.8496C39.4248 33.8496 39.4543 33.8127 39.4543 33.7611C39.4543 33.7168 39.5207 33.5325 39.6018 33.3555C39.619 33.3179 39.6389 33.2749 39.6604 33.2289L39.7028 33.1378L39.7034 33.1364C39.7736 32.9859 39.8514 32.819 39.9042 32.6991C39.9927 32.5148 40.0664 32.3009 40.0738 32.2345C40.0812 32.1682 40.1254 32.0428 40.177 31.9469C40.295 31.7404 40.5236 31.0915 40.6785 30.531C40.7449 30.3098 40.826 30.0959 40.8555 30.0516C40.8924 30.0148 40.9366 29.8452 40.9661 29.6829C40.9956 29.5207 41.0767 29.1741 41.1505 28.9086C41.3348 28.2449 41.5045 27.4779 41.5856 26.9543C41.6224 26.7109 41.7036 26.18 41.7699 25.7744C41.8363 25.3688 41.9248 24.587 41.9691 24.0413C42.0059 23.4956 42.0723 22.9499 42.1092 22.8245L42.1682 22.6033L42.1755 22.8614C42.1829 23.0015 42.2493 23.4661 42.3304 23.8938C42.5148 24.941 42.5 27.8761 42.3083 29.0929C42.0576 30.6637 41.7699 31.8437 41.357 33.0384C41.327 33.1262 41.2952 33.2188 41.2636 33.311C41.1704 33.5825 41.0784 33.8502 41.0399 33.9823C40.9809 34.1519 40.885 34.3658 40.8186 34.4543C40.7596 34.5502 40.708 34.6682 40.708 34.7345C40.708 34.7935 40.5605 35.1401 40.3761 35.4941C40.1991 35.8481 40.0664 36.1357 40.0885 36.1357C40.1106 36.1357 40.0443 36.2463 39.9484 36.3791C39.8452 36.5045 39.6387 36.8437 39.4838 37.1313C39.1077 37.8245 38.0679 39.3437 37.6401 39.823C37.5946 39.8686 37.3948 40.0992 37.1499 40.382L36.9248 40.6416C36.1873 41.4897 35.9145 41.7626 35.1401 42.4337C34.8157 42.7139 34.5428 42.972 34.5281 43.0015C34.5133 43.0384 34.4543 43.0679 34.3953 43.0679C34.3363 43.0679 34.2699 43.1121 34.2478 43.1711C34.2257 43.2227 34.0118 43.3997 33.7758 43.5546C33.5325 43.7095 33.3334 43.8643 33.3334 43.9012C33.3334 43.9307 33.2891 43.9528 33.2375 43.9528C33.1785 43.9528 33.0752 44.0192 33.0015 44.1003C32.9278 44.1814 32.8319 44.2478 32.7803 44.2478C32.7286 44.2478 32.6328 44.3142 32.559 44.3953C32.4853 44.4764 32.3968 44.5428 32.3599 44.5428C32.323 44.5428 32.0944 44.6755 31.8511 44.8378C31.6077 45 31.3643 45.1328 31.3127 45.1328C31.2611 45.1328 31.1505 45.1991 31.0694 45.2803C30.9809 45.354 30.826 45.4425 30.7227 45.472C30.6195 45.4941 30.5015 45.5605 30.4499 45.6195C30.4056 45.6785 30.3098 45.7227 30.236 45.7227C30.1696 45.7227 30.0295 45.7817 29.9337 45.8629C29.8378 45.9366 29.6313 46.0177 29.4838 46.0472C29.3289 46.0767 29.2036 46.1283 29.2036 46.1652C29.2036 46.1947 29.0929 46.2463 28.9676 46.2758C28.8348 46.3053 28.5915 46.3865 28.4292 46.4602C28.267 46.534 27.9794 46.6298 27.7803 46.6814C27.5885 46.7331 27.4115 46.8068 27.3894 46.8363C27.3673 46.8732 27.2567 46.9027 27.1387 46.9027C27.0207 46.9027 26.8363 46.9396 26.7183 46.9838C26.4602 47.0944 25.1475 47.3378 25.1475 47.2788ZM14.5797 49.8009C14.4543 49.5133 14.4838 48.3481 14.6387 47.3525C14.7493 46.6667 14.764 46.2832 14.7198 45.3245C14.6977 44.6682 14.6387 43.9086 14.6018 43.621C14.5576 43.3407 14.4912 42.677 14.4543 42.146C14.4174 41.6224 14.3363 40.9735 14.2773 40.708C14.2109 40.4425 14.1593 40.0738 14.1593 39.882V39.528H13.8865C13.7316 39.528 13.4587 39.5944 13.2817 39.6755C13.1048 39.7566 12.9351 39.823 12.8983 39.823C12.8171 39.823 12.1387 40.2802 12.1092 40.354C12.0944 40.3835 12.0502 40.413 12.0059 40.413C11.9691 40.413 11.8437 40.472 11.7404 40.5531C11.4233 40.7743 10.8334 40.8702 10.4056 40.767C9.97791 40.6711 9.97791 40.5605 10.4056 40.5605C10.5679 40.5605 10.8112 40.5089 10.9514 40.4572C11.2758 40.3171 11.7257 39.9779 11.7331 39.8673C11.7404 39.764 12.7876 38.9381 12.9204 38.9381C12.972 38.9381 13.0974 38.8791 13.2006 38.8127C13.2965 38.7463 13.4956 38.6726 13.6357 38.6431C13.8938 38.6062 13.9012 38.5915 13.8791 38.3112C13.8643 38.0457 13.7537 37.5664 13.4956 36.5782C13.4514 36.3938 13.3702 36.062 13.3112 35.8407C13.2596 35.6195 13.1637 35.2507 13.0974 35.0295C12.5295 33.1416 12.3894 32.4779 12.4189 31.8363C12.441 31.5487 12.4779 31.2389 12.5074 31.1578C12.5664 31.0177 12.5738 31.0251 12.618 31.1947C12.6475 31.2979 12.6696 31.4897 12.677 31.6151C12.6844 31.7478 12.7508 31.9985 12.8245 32.1682C12.8983 32.3451 13.1195 32.854 13.3186 33.2965C13.5104 33.7463 13.7168 34.1593 13.7685 34.2257C13.8201 34.2847 13.8643 34.3658 13.8643 34.3953C13.8643 34.4322 13.916 34.5575 13.975 34.6829C14.034 34.8156 14.1298 35.0516 14.1814 35.2139C14.1977 35.2586 14.2168 35.31 14.2368 35.364L14.2371 35.365C14.2896 35.5066 14.3486 35.6658 14.3806 35.767C14.4322 35.9071 14.5354 36.18 14.6165 36.3717C14.6903 36.5634 14.7493 36.7847 14.7493 36.8658C14.7493 36.9543 14.8157 37.146 14.8968 37.2935C14.9779 37.4484 15.0443 37.7139 15.0443 37.8909C15.0443 38.2596 15.1401 38.326 15.5163 38.2006C15.6564 38.1564 15.9292 38.09 16.121 38.0605C16.6003 37.972 17.2493 37.6918 17.4632 37.4779C17.5664 37.3746 17.6623 37.1534 17.6991 36.9248C17.736 36.7109 17.8098 36.4086 17.854 36.2463C17.8983 36.0841 17.9646 35.7375 17.9941 35.472C18.031 35.2065 18.1121 34.8451 18.1711 34.6682C18.2375 34.4912 18.2891 34.2404 18.2891 34.1077C18.2891 33.9749 18.3555 33.5398 18.444 33.1416C18.5694 32.5221 18.5989 32.1239 18.6062 30.4572C18.6136 28.6283 18.6062 28.4587 18.444 27.8392C18.3555 27.4779 18.1932 26.9985 18.0974 26.7847C18.0015 26.5708 17.9204 26.3422 17.9204 26.2758C17.9204 26.1062 18.4661 26.9027 18.7021 27.4189C18.7388 27.4948 18.7796 27.5797 18.8204 27.6646L18.8209 27.6655C18.9028 27.836 18.9848 28.0064 19.034 28.1047C19.1151 28.2522 19.1741 28.4587 19.1741 28.562C19.1741 28.6578 19.2257 28.8864 19.2847 29.0634C19.4101 29.4174 19.5649 30.7227 19.5723 31.4897C19.5797 33.2596 19.3953 34.9926 19.0487 36.4307C18.9823 36.6962 18.9086 37.0797 18.8865 37.2788C18.7906 38.0236 18.09 38.7611 17.3083 38.9307C17.1387 38.9749 16.8806 39.0561 16.7404 39.1151C16.6003 39.1741 16.2316 39.2331 15.9292 39.2478C15.5163 39.2699 15.3688 39.3068 15.354 39.3879C15.3466 39.4469 15.3909 39.8156 15.4573 40.1991C15.5531 40.7301 15.59 41.4602 15.6121 43.3555C15.649 46.2021 15.6416 46.2463 14.882 48.5841C14.8009 48.8422 14.7272 49.2626 14.7198 49.528C14.7198 49.7861 14.705 50 14.6903 50C14.6829 50 14.6313 49.9115 14.5797 49.8009ZM58.702 39.9853C58.8422 40.0516 59.2035 40.1696 59.4985 40.2508C60.6563 40.5457 61.9395 40.2139 62.854 39.3805C63.3333 38.9454 63.6431 38.4292 63.8643 37.6918C64.0044 37.2419 64.0192 37.0428 63.997 36.2611C63.9602 35.3245 63.82 34.7198 63.5546 34.3732C63.4808 34.2773 63.4218 34.1593 63.4218 34.1077C63.4218 34.0634 63.2301 33.8274 63.0015 33.5841C62.2124 32.7655 61.2758 32.3968 60.1843 32.4705C59.1371 32.5443 58.4587 32.8319 57.7728 33.5103C57.0206 34.2478 56.7183 34.9779 56.6593 36.1726C56.6224 36.8584 56.6445 37.0723 56.7773 37.5738C57.0796 38.6726 57.795 39.5649 58.702 39.9853ZM62.3525 37.6475C62.1386 38.7021 61.7183 39.3584 61.0914 39.646C60.5605 39.8894 60.0442 39.882 59.5354 39.6165C59.1371 39.41 58.702 38.9381 58.702 38.7168C58.702 38.6431 58.6578 38.5472 58.5988 38.503C58.4587 38.385 58.2374 37.1829 58.2301 36.4676C58.2227 35.2729 58.4956 34.2921 59.0265 33.5988C59.6018 32.8466 60.9587 32.8171 61.6298 33.5398C62.3304 34.2921 62.6549 36.1578 62.3525 37.6475ZM74.3879 40.1917C72.7655 39.6534 71.8289 38.267 71.8289 36.3864C71.8289 34.1962 73.2375 32.6106 75.295 32.4705C76.7626 32.3746 78.0162 33.0531 78.7316 34.3363C79.0118 34.8377 79.0708 35.0369 79.2183 35.9661C79.4322 37.3451 78.6136 39.2404 77.5811 39.7714L77.4949 39.8166C77.3682 39.8831 77.2219 39.9598 77.1387 40.0074C76.4897 40.3613 75.1696 40.4498 74.3879 40.1917ZM76.2684 39.6313C76.9027 39.3141 77.1534 38.9749 77.4336 38.09C77.5738 37.6549 77.5959 37.3967 77.6033 36.4307C77.6033 35.1844 77.559 34.9115 77.1903 34.1445C76.9248 33.6136 76.733 33.4071 76.2758 33.1858C75.826 32.972 75.0738 32.9793 74.7124 33.2006C74.1446 33.5398 73.7979 34.0929 73.5546 35.0295C73.3776 35.7227 73.444 37.5295 73.6652 38.1932C73.9454 39.0044 74.2699 39.4026 74.8525 39.6681C75.3171 39.882 75.8038 39.8672 76.2684 39.6313ZM79.4838 40.236C79.5944 40.2581 79.7198 40.2876 79.7566 40.3023C80.0443 40.3982 80.7965 40.1622 81.1136 39.8746C81.5782 39.4469 81.9174 38.6062 82.1165 37.3894L82.1333 37.2916C82.1871 36.9793 82.221 36.7819 82.2428 36.5832C82.2801 36.2421 82.2815 35.8971 82.2853 34.9601L82.2861 34.7566L82.3009 33.2596H84.6608L84.6755 36.6962L84.6976 40.1401H86.1726L86.1947 36.4012L86.2094 32.6622L83.1859 32.677L83.1843 32.677C80.0295 32.6991 80.0222 32.6992 80.1401 33.0088C80.1623 33.0752 80.236 33.1121 80.3171 33.09C80.3835 33.0678 80.5457 33.1195 80.6711 33.1932C81.0103 33.3997 81.0767 33.7463 81.0177 35.1844C80.9661 36.6003 80.8333 37.6032 80.6047 38.2743C80.3024 39.174 80.1401 39.3953 79.5502 39.7124C79.2036 39.8967 79.174 40.1622 79.4838 40.236ZM70.5383 40.118C69.8156 39.9263 69.1888 39.4395 67.7728 37.9425L67.5387 37.7001C67.2203 37.3704 66.9796 37.1211 66.9616 37.1092C66.9395 37.1018 66.9321 37.7729 66.9469 38.6062L66.969 40.118H65.4351L65.4277 36.969C65.413 34.823 65.3835 33.7316 65.3245 33.5398C65.236 33.2375 64.9779 33.0384 64.7124 33.0605C64.6018 33.0752 64.5649 33.031 64.5649 32.8982V32.7139L65.4498 32.736C65.9292 32.7434 66.3864 32.7876 66.4528 32.8245C66.5265 32.8614 66.6593 33.0015 66.7551 33.1269C66.9174 33.3628 66.9248 33.4218 66.9248 34.7935C66.9248 35.5679 66.9395 36.2094 66.9616 36.2094C66.9838 36.2094 67.1386 36.0177 67.3082 35.7817C67.4779 35.5531 68.0088 34.882 68.4882 34.2994C69.6091 32.9277 69.8304 32.7802 70.9292 32.7212L71.6814 32.677V32.8909C71.6814 33.0679 71.6519 33.1121 71.5192 33.1195C70.5236 33.1564 69.8894 33.4735 69.3584 34.2036C69.1962 34.4248 68.997 34.6755 68.9159 34.7566C68.5914 35.1033 67.9941 35.885 67.9941 35.9661C67.9941 36.0177 68.7315 36.7994 69.6386 37.7065C71.2168 39.3068 71.7625 39.7493 72.1312 39.7493C72.2345 39.7493 72.2714 39.8009 72.2714 39.9558V40.1696L71.5192 40.177C71.0988 40.177 70.6637 40.1549 70.5383 40.118ZM88.0384 36.8363C88.0457 38.5841 88.0679 40.0443 88.0826 40.0812C88.0974 40.1254 88.9159 40.1476 90.3688 40.1402C92.2935 40.1328 92.6623 40.1107 92.8098 40.0148C92.9794 39.9042 93.1047 39.6756 93.2891 39.1594C93.3407 39.0192 93.4145 38.8275 93.4513 38.7464C93.5546 38.5178 93.4956 38.3113 93.3186 38.2891C93.1932 38.2744 93.1195 38.3481 92.972 38.6579C92.8319 38.9455 92.6844 39.1151 92.4115 39.2921L92.0428 39.5281H89.528L89.5428 38.0753L89.5649 36.6151L91.003 36.6077L92.441 36.593L92.4631 36.2906C92.466 36.256 92.4705 36.2251 92.4746 36.1976C92.4831 36.139 92.4894 36.0956 92.4732 36.0637C92.4268 35.9723 92.1961 35.9747 91.3056 35.9836L91.0046 35.9866L90.8039 35.9883L89.528 35.9956V33.2596H90.5457C92.1903 33.2596 92.6254 33.4809 92.6254 34.3363C92.6254 34.4765 92.6475 34.5871 92.6844 34.5871C92.7139 34.5871 92.8098 34.6092 92.9056 34.6313C93.0679 34.6756 93.0679 34.6682 93.0679 33.9307V33.1933L92.8098 32.9278L92.5443 32.6697L89.8378 32.6844L87.1313 32.7066V32.8909C87.1313 33.0163 87.1755 33.0827 87.2788 33.0974C87.6549 33.149 87.7286 33.1933 87.8688 33.4219C88.0089 33.6505 88.0162 33.8201 88.0384 36.8363ZM94.823 40.1328C94.6977 40.1107 94.6903 39.8968 94.6829 36.9986C94.6755 35.2877 94.6829 33.8275 94.6903 33.7464C94.6977 33.6726 94.6608 33.5178 94.6165 33.3998C94.5502 33.2375 94.4617 33.1785 94.2552 33.1417C93.8348 33.0753 93.7906 33.0458 93.8201 32.8762C93.8422 32.7139 93.8717 32.7066 94.7272 32.6844C95.5089 32.6697 95.6416 32.6844 95.8555 32.8172C95.9882 32.8983 96.1283 33.0532 96.1726 33.1712C96.2168 33.2818 96.2611 33.9307 96.2685 34.6608L96.2758 35.9514L99.1888 35.9956V32.6697H100.737V35.7375C100.737 39.4248 100.774 39.6682 101.357 39.6903C101.6 39.6977 101.622 39.7198 101.622 39.9116V40.1181H100.678C99.823 40.1181 99.7124 40.1033 99.5944 39.9706C99.5207 39.8894 99.4396 39.8452 99.4101 39.8599C99.3142 39.9189 99.2626 39.4617 99.2183 38.0015L99.1667 36.5782H97.795C97.0428 36.5782 96.3791 36.6077 96.3275 36.6446C96.2463 36.6962 96.2316 37.0428 96.2537 38.4293L96.2758 40.1549H95.6121C95.2508 40.1549 94.8894 40.1476 94.823 40.1328ZM102.802 40.1107L103.009 40.1328C103.119 40.1476 103.444 40.1549 103.732 40.1549H104.248L104.41 39.8231C104.499 39.6387 104.698 39.2626 104.86 38.975C104.911 38.8816 104.977 38.7637 105.048 38.6359L105.049 38.6342L105.05 38.6321C105.192 38.3773 105.355 38.084 105.472 37.8688C105.656 37.5443 105.981 36.947 106.195 36.5414C106.409 36.1358 106.622 35.7523 106.674 35.6933C106.726 35.6343 106.858 35.3835 106.969 35.1402L107.02 35.0305C107.146 34.7597 107.226 34.586 107.278 34.5942C107.368 34.6088 107.368 35.1892 107.367 36.7946L107.367 37.2346C107.375 38.7832 107.389 40.0738 107.404 40.1033C107.419 40.1328 107.78 40.1476 108.201 40.1328L108.96 40.1107L108.945 36.4086L108.923 32.7066H107.485L107.375 32.9278C107.316 33.0532 107.176 33.3039 107.065 33.4883C106.954 33.6726 106.718 34.1077 106.541 34.447C106.364 34.7862 106.003 35.4499 105.737 35.9145C105.479 36.3791 105.066 37.1387 104.823 37.5959C104.587 38.0458 104.373 38.4219 104.351 38.4219C104.329 38.4219 104.322 37.4484 104.336 36.2685C104.351 35.0812 104.336 33.8939 104.314 33.6284C104.27 33.208 104.233 33.1269 103.997 32.913L103.732 32.6697H101.917V32.8909C101.917 33.0679 101.947 33.1122 102.087 33.1122C102.426 33.1122 102.544 33.2007 102.677 33.503C102.788 33.7832 102.802 34.1372 102.802 36.9617V40.1107ZM49.5206 33.4661L49.2773 33.2523C49.1445 33.1343 48.9602 33.0384 48.8569 33.0384C48.7168 33.0384 48.6725 33.0015 48.6725 32.8762V32.7065H55.4572V40.118H53.9454L53.9602 36.6888L53.9675 33.2596L52.5221 33.2744L51.0693 33.2965V40.118H49.5649L49.5206 33.4661ZM110.125 33.1121C110.745 33.1194 110.767 33.2522 110.767 36.9985V40.1253L115.487 40.0811L115.612 39.8967C115.76 39.6902 116.224 38.5914 116.224 38.4439C116.224 38.3923 116.143 38.348 116.047 38.348C115.907 38.348 115.833 38.4218 115.715 38.6652C115.56 38.9896 115.406 39.1519 115.022 39.3879C114.816 39.5132 114.639 39.528 113.518 39.528H112.242V36.5781L113.702 36.5634L115.155 36.5413V36.025L113.702 36.0029L112.242 35.9882V33.2595H113.193C114.535 33.2595 114.779 33.3038 115.074 33.5988C115.325 33.8495 115.457 34.2404 115.369 34.469C115.332 34.5649 115.369 34.587 115.553 34.587H115.782V33.9601C115.782 33.2743 115.701 33.0236 115.42 32.8392C115.258 32.736 114.919 32.7138 112.559 32.6991L109.882 32.6843V32.8982C109.882 33.0899 109.904 33.1121 110.125 33.1121ZM16.0767 35.6932C16.1578 35.9145 16.2168 36.2242 16.2242 36.3791C16.2242 36.9838 16.4676 36.5192 16.5856 35.6637C16.6298 35.3835 16.6446 35.1254 16.6224 35.0885C16.6003 35.059 16.5634 34.7419 16.5487 34.3806C16.5266 34.0266 16.4602 33.5398 16.3938 33.2965C16.3348 33.0531 16.2611 32.5959 16.2242 32.2714C16.1652 31.7109 16.0472 31.416 15.9735 31.6446L15.9646 31.6716C15.7464 32.3349 15.6633 32.5874 15.6416 32.8449C15.6282 33.0032 15.6379 33.1634 15.6537 33.422L15.6564 33.4661C15.6785 33.857 15.7522 34.3511 15.8112 34.5502C15.8776 34.7567 15.9292 35 15.9292 35.1033C15.9292 35.2065 15.9956 35.472 16.0767 35.6932ZM91.674 31.1136C91.2537 31.0767 90.6563 30.9808 90.3614 30.8923C90.059 30.8112 89.7493 30.7301 89.6755 30.7153C89.4322 30.6711 88.2596 30.0737 87.795 29.7566C87.2566 29.3953 86.3053 28.5103 86.1652 28.2375C86.1136 28.1268 86.0251 27.9941 85.9661 27.9351C85.7965 27.7655 85.3466 26.969 85.1549 26.5118C84.4616 24.8451 84.1814 22.6401 84.4764 21.1136C84.5428 20.7965 84.6091 20.4204 84.6313 20.2802C84.705 19.8009 85.0295 18.8569 85.3614 18.1785C85.7965 17.2788 86.2611 16.6003 86.9026 15.944C87.3746 15.4572 88.2006 14.7493 88.3038 14.7493C88.326 14.7493 88.4882 14.646 88.6726 14.528C89.1372 14.2109 90.4867 13.6799 91.2242 13.5177C91.674 13.4218 93.5841 13.4218 94.4322 13.5177C95.3614 13.6283 96.4675 13.9307 97.0133 14.2183C98.0162 14.7566 98.7611 15.3761 99.0265 15.8923C99.2625 16.3569 99.41 17.3451 99.41 18.4218V19.3953H98.5472L98.4956 19.1003C98.3702 18.3038 97.8024 17.0207 97.2935 16.3864C96.7035 15.649 96.1799 15.2655 95.3392 14.9631C94.8451 14.7788 94.5796 14.7345 93.8864 14.6976C92.1386 14.6165 90.7301 15.0738 89.8599 16.0177C88.6062 17.3599 88.0162 19.3879 88.0162 22.3451C88.0162 25.295 88.6357 27.2271 90.0074 28.562C90.7448 29.2847 91.2021 29.5428 92.2124 29.7935C93.7316 30.177 95.3687 29.8525 96.9616 28.8569C97.4779 28.5325 98.9675 26.8289 98.9675 26.5634C98.9675 26.5266 99.0118 26.4528 99.0708 26.4086C99.1445 26.3496 99.1888 26.3496 99.2552 26.4233C99.2994 26.4823 99.4838 26.6224 99.6681 26.733C99.8451 26.851 100.007 26.9838 100.029 27.028C100.096 27.1976 99.2847 28.3333 98.6062 29.0192C97.3156 30.3319 95.8555 30.9587 93.7168 31.1209C93.1785 31.1578 92.6696 31.1873 92.5885 31.1873C92.5074 31.1799 92.0944 31.1431 91.674 31.1136ZM60.7669 27.8983C61.5708 29.5502 62.9351 30.531 64.6386 30.6785C65.3908 30.7449 65.7891 30.7449 66.3274 30.6859L66.7625 30.6416L66.792 30.295C66.8141 29.9632 66.8068 29.9411 66.615 29.9042C65.6121 29.6903 64.764 28.8496 64.1961 27.5074C64.1159 27.3148 64.0123 27.0795 63.9334 26.9001L63.8906 26.8029L63.8569 26.7257C63.7758 26.5635 63.7168 26.3865 63.7168 26.3349C63.7168 26.2906 63.6504 26.121 63.5693 25.9735C63.407 25.6638 63.1268 25.0296 63.1268 24.9632C63.1268 24.9189 62.4188 23.2228 62.1681 22.677C62.0944 22.5148 61.9469 22.1682 61.8363 21.9027C61.733 21.6372 61.5781 21.2832 61.497 21.1136C61.4233 20.9366 61.3569 20.7744 61.3569 20.7523C61.3569 20.7228 61.2905 20.5679 61.2168 20.3983C60.9808 19.8894 60.4719 18.68 60.4719 18.621C60.4719 18.5915 60.3687 18.3481 60.2433 18.0827C60.118 17.8098 59.9041 17.2936 59.764 16.9396C59.6239 16.5782 59.4764 16.2316 59.4395 16.1652C59.4026 16.0989 59.2846 15.826 59.174 15.5605C59.1256 15.4443 59.0701 15.3126 59.0175 15.1875C58.9498 15.0269 58.8868 14.8774 58.8495 14.7862C58.7758 14.624 58.6725 14.3658 58.6209 14.2183L58.525 13.9381H57.9203C57.3525 13.9381 57.3082 13.9529 57.264 14.1077C57.2345 14.1962 57.087 14.5355 56.9321 14.8599C56.7773 15.1844 56.5781 15.6195 56.4896 15.8186C56.1209 16.6741 55.8259 17.3378 55.4646 18.0827C55.3023 18.4366 55.1622 18.7464 55.1622 18.7759C55.1622 18.8201 55.0663 19.0487 54.7566 19.7272C54.5206 20.2434 54.2109 20.9219 54.0486 21.298C53.9779 21.446 53.8734 21.6838 53.794 21.8645L53.7084 22.0594C53.632 22.2334 53.5385 22.4466 53.4734 22.5886L53.3955 22.761C53.1954 23.2044 52.9346 23.7821 52.7138 24.2626C52.5885 24.5281 52.4262 24.8747 52.3525 25.0443C52.2787 25.2139 52.2124 25.3762 52.2124 25.4057C52.2124 25.4352 52.1017 25.6933 51.9616 25.9809C51.4528 27.065 51.2537 27.5001 51.2537 27.5443C51.2537 27.5664 51.143 27.8245 51.0029 28.1195L50.9066 28.3332C50.7581 28.6622 50.5397 29.1462 50.3687 29.5355C50.1548 30.0222 49.9557 30.4573 49.9188 30.5015C49.8082 30.6416 49.9336 30.6785 50.4941 30.6785C51.0767 30.6785 51.3274 30.5974 51.3274 30.413C51.3274 30.354 51.4454 30.0443 51.5929 29.7346C52.1017 28.6505 52.1976 28.4293 52.2419 28.267C52.2714 28.1859 52.3377 28.0679 52.3967 28.0237C52.4557 27.972 52.5073 27.8835 52.5073 27.8172C52.5073 27.7582 52.5737 27.5738 52.6475 27.4042C52.6783 27.3397 52.7219 27.2454 52.7719 27.1374C52.8532 26.9615 52.9515 26.749 53.0383 26.5709C53.2743 26.0546 53.2891 26.0325 53.5398 26.0325C53.571 26.0325 53.6704 26.0321 53.8248 26.0316C54.3633 26.0296 55.5714 26.0251 56.8952 26.0251L59.9926 26.0178L60.1032 26.3717C60.1622 26.5709 60.2728 26.8142 60.3466 26.9175C60.4129 27.0133 60.4719 27.1387 60.4719 27.1903C60.4719 27.2493 60.6047 27.5591 60.7669 27.8983ZM59.2773 24.3732C59.3141 24.4986 59.3731 24.6461 59.4026 24.7124C59.4247 24.7862 59.41 24.8452 59.351 24.8599C59.2256 24.8968 53.8348 24.8599 53.8348 24.8231C53.8348 24.8083 53.9159 24.6313 54.0118 24.4322C54.1051 24.259 54.2465 23.9472 54.3545 23.7092L54.3879 23.6357C54.4911 23.3924 54.6607 23.0163 54.764 22.8024C54.8599 22.5886 54.941 22.3673 54.941 22.3083C54.941 22.2493 54.9705 22.1977 55.0073 22.1977C55.0442 22.1977 55.118 22.0723 55.1696 21.9248C55.2138 21.77 55.2802 21.6151 55.3097 21.5709C55.3392 21.534 55.3908 21.416 55.4203 21.3127C55.4498 21.2095 55.5973 20.8629 55.7522 20.5384C56.202 19.5871 56.3274 19.2995 56.379 19.0856C56.4085 18.9676 56.4601 18.8791 56.4896 18.8791C56.5265 18.8791 56.5929 18.7537 56.6445 18.6063C56.6961 18.444 56.7478 18.3703 56.7625 18.4366C56.8068 18.5841 56.9247 18.8717 57.0501 19.1225C57.1091 19.2405 57.1534 19.3732 57.1534 19.4175C57.1534 19.4691 57.2419 19.6903 57.3451 19.9116L57.3659 19.9552C57.5765 20.3966 57.6274 20.5032 58.1489 21.7036C58.3775 22.2272 58.6799 22.9573 58.82 23.326C58.9675 23.7021 59.1076 24.0414 59.1445 24.0782C59.174 24.1225 59.233 24.2552 59.2773 24.3732ZM79.5502 29.6829C79.0708 29.1151 78.4513 28.385 78.1711 28.0605C75.6269 25.0516 75.5826 25 75.3909 24.823C75.295 24.7419 75.2213 24.646 75.2213 24.6092C75.2213 24.5797 75.177 24.5059 75.1328 24.4543C74.9484 24.2626 73.8643 23.0089 73.621 22.7065C73.5398 22.6106 73.2817 22.3083 72.382 21.2758C71.9912 20.826 71.5708 20.3319 70.9218 19.5428C70.7006 19.2773 70.4425 18.9749 70.3392 18.8717C70.2434 18.7685 70.0738 18.5693 69.9631 18.4292L69.764 18.1785V30.6785H68.4366V16.1431L68.2522 15.7965C68.1564 15.6047 67.9941 15.3761 67.8909 15.2803C67.6033 15.0148 67.0354 14.8009 66.5118 14.764L66.0251 14.7345L66.062 14.351C66.0767 14.1446 66.1062 13.9676 66.1136 13.9528C66.121 13.9454 66.674 13.9307 67.3378 13.9233C68.2375 13.9159 68.68 13.9454 69.0487 14.0413C69.3289 14.1077 69.6165 14.1593 69.6903 14.1593C69.8968 14.1593 70.6416 14.5133 70.9808 14.7714C71.3201 15.0295 71.5044 15.2213 72.0133 15.826C72.2124 16.062 72.3968 16.2758 72.4189 16.298C72.4484 16.3201 72.6623 16.5708 72.8982 16.851C73.1342 17.1387 73.3702 17.3968 73.4292 17.4263C73.4808 17.4558 73.5251 17.5295 73.5251 17.5885C73.5251 17.6401 73.5546 17.6991 73.5841 17.7139C73.6431 17.736 73.9528 18.09 75.2213 19.5723C75.4867 19.882 75.7227 20.1328 75.7522 20.1328C75.7891 20.1328 75.8112 20.1696 75.8112 20.2139C75.8112 20.2581 75.8555 20.3319 75.9071 20.3835C76.18 20.6637 77.1608 21.7847 77.4558 22.1608C77.4752 22.1899 77.5459 22.2704 77.6319 22.3682C77.6765 22.4189 77.7251 22.4742 77.7729 22.5295C77.9204 22.6918 78.2891 23.1195 78.5988 23.4808C78.9086 23.8422 79.2257 24.2109 79.3068 24.2994C79.3953 24.3805 79.6387 24.6755 79.8599 24.9484C80.0811 25.2213 80.2803 25.4425 80.3024 25.4425C80.3245 25.4425 80.3392 22.854 80.3245 19.6903L80.3097 13.9381H81.6741L81.6888 30.7522L81.062 30.7375L80.4351 30.7154L79.5502 29.6829ZM102.913 16.1136L102.935 23.3997L102.95 30.6858L113.016 30.6416L113.422 30.4351C113.761 30.2655 113.886 30.1401 114.145 29.7345C114.314 29.469 114.454 29.1962 114.454 29.1298C114.454 29.0634 114.484 28.9823 114.521 28.9381C114.558 28.9012 114.639 28.7094 114.698 28.5029L114.732 28.4003C114.807 28.1741 114.93 27.8029 115.037 27.5074L115.056 27.4567C115.182 27.1214 115.24 26.9678 115.19 26.8689C115.148 26.7854 115.029 26.7408 114.809 26.6586L114.771 26.6445C114.543 26.5634 114.535 26.5634 114.447 26.8289C114.403 26.969 114.263 27.2419 114.152 27.4263C114.034 27.6106 113.909 27.8319 113.872 27.913C113.761 28.1563 113.031 28.8053 112.64 29.0044C111.881 29.3879 111.519 29.4248 108.827 29.4248H106.342V22.5664H112.883L112.913 21.3864H106.342V15.1032L108.761 15.1401C110.605 15.1622 111.261 15.1991 111.541 15.2802C112.493 15.5605 113.024 16.0546 113.267 16.8732C113.355 17.1534 113.422 17.4484 113.422 17.5295C113.422 17.6106 113.444 17.7876 113.466 17.913C113.51 18.1342 113.525 18.1416 113.909 18.1416H114.307V17.0133C114.307 14.9926 114.041 14.3953 112.979 14.0413C112.603 13.9086 112.205 13.9012 106.932 13.8864C103.827 13.8717 101.195 13.8864 101.084 13.9086C100.885 13.9528 100.878 13.9676 100.9 14.3289L100.922 14.7124L101.504 14.8009C101.822 14.8525 102.139 14.941 102.205 15C102.279 15.0664 102.367 15.118 102.412 15.118C102.456 15.118 102.589 15.3392 102.699 15.6195L102.913 16.1136ZM12.5369 29.8304C12.4557 29.7271 12.4189 29.4469 12.4041 28.6578C12.382 27.6475 12.3894 27.5959 12.6475 26.7699C13.0604 25.4351 13.1268 25.1622 13.1268 24.7935C13.1268 23.5103 12.3451 21.7035 11.5413 21.1283C11.4655 21.0753 11.4287 21.0495 11.4327 21.036C11.4366 21.0231 11.4771 21.0213 11.556 21.0177C11.7773 21.0177 12.3082 21.2316 12.5295 21.4159C13.1121 21.91 13.2374 22.0354 13.4513 22.3746C13.8938 23.0678 14.1371 23.6578 14.2773 24.3215C14.4026 24.9631 14.4026 25.0148 14.2773 25.5678C14.2035 25.885 14.0855 26.2832 14.0044 26.4528C13.9307 26.6298 13.8643 26.792 13.8643 26.8142C13.8643 26.8363 13.7315 27.1313 13.5693 27.4705C13.4071 27.8097 13.2743 28.1047 13.2743 28.1342C13.2743 28.1637 13.2153 28.326 13.1342 28.4956C12.972 28.8643 12.7581 29.4617 12.6917 29.7493C12.6475 29.9484 12.6401 29.9558 12.5369 29.8304ZM0.154867 28.2375C0.0663717 28.4956 0 28.7758 0 28.8496C0 28.9233 0.0147493 28.9823 0.0294985 28.9823C0.0442478 28.9823 0.213864 28.739 0.412979 28.4514C0.848083 27.7876 2.0944 26.5266 2.69174 26.1357C2.9351 25.9735 3.41445 25.7006 3.76106 25.5236C4.10767 25.3393 4.49115 25.1328 4.60914 25.0664C4.73451 24.9926 4.96313 24.8599 5.12537 24.7714C5.28761 24.6829 5.56047 24.5133 5.73009 24.4027C5.89971 24.2847 6.06932 24.1888 6.10619 24.1888C6.14307 24.1888 6.23156 24.1224 6.30531 24.0413C6.37906 23.9602 6.47493 23.8938 6.51917 23.8938C6.5708 23.8938 6.65192 23.8275 6.71092 23.7463C6.76991 23.6652 6.85103 23.5988 6.88791 23.5988C6.98378 23.5988 7.70649 23.0457 8.10472 22.6623C8.28909 22.4926 8.46608 22.3452 8.50295 22.3452C8.53245 22.3452 8.55457 22.3083 8.55457 22.264C8.55457 22.2198 8.65044 22.1092 8.76844 22.0059C8.89381 21.9027 9.06342 21.6962 9.15929 21.5487C9.24779 21.4012 9.36578 21.2316 9.41741 21.18C9.46903 21.121 9.60915 20.9587 9.71976 20.8112C9.83038 20.6564 9.95575 20.5015 10 20.4573L10.0295 20.4225C10.0834 20.3591 10.1733 20.2532 10.2581 20.1623C10.354 20.0443 10.6047 19.8157 10.8038 19.6608C11.1287 19.4017 11.2602 19.2969 11.2449 19.267C11.2345 19.2466 11.1564 19.2608 11.0251 19.2847C10.3245 19.4027 9.41003 20.0148 8.25221 21.1357C8.0236 21.357 7.80236 21.5339 7.75811 21.5339C7.71386 21.5339 7.66962 21.5561 7.65487 21.5929C7.63274 21.6519 7.14602 22.0207 6.89528 22.1755C6.81416 22.2272 6.44543 22.4558 6.06932 22.6844C5.69322 22.913 5.35398 23.1416 5.30236 23.2006C5.25811 23.2596 5.18437 23.3039 5.14749 23.3039C5.0885 23.3039 3.86431 24.0561 2.76549 24.7714C1.6003 25.5236 0.589971 26.8658 0.154867 28.2375ZM17.4484 24.6682C17.382 24.5723 17.3304 24.469 17.3304 24.4395C17.3304 24.41 17.2861 24.3289 17.2345 24.2699C17.0649 24.0782 16.8289 23.3628 16.7773 22.9351C16.7551 22.7139 16.7404 22.1829 16.7551 21.7552C16.7994 19.6682 16.792 19.5354 16.5634 19.1077C16.4528 18.8938 16.2094 18.5546 16.0324 18.3628C15.8554 18.1711 15.7079 18.0015 15.7079 17.9794C15.7079 17.9572 15.8702 17.9646 16.0693 18.0015C16.8215 18.1195 17.3967 18.5767 17.7655 19.3584C17.972 19.8009 17.9941 19.9041 17.9941 20.5974C17.9941 21.0103 17.9425 21.6151 17.8835 21.9395C17.8245 22.264 17.7507 23.0531 17.7286 23.6947C17.6991 24.3289 17.6549 24.8525 17.6254 24.8525C17.5959 24.8525 17.5147 24.7714 17.4484 24.6682ZM11.9985 17.9056C12.1017 17.7655 12.3599 16.9986 12.4705 16.4897C12.6548 15.6416 12.5663 14.4322 12.264 13.8201C11.9985 13.2596 11.4823 12.8319 11.084 12.8319C10.8481 12.8319 10.8702 12.6697 11.1283 12.5148C11.4454 12.3304 12.1607 12.3452 12.559 12.5443C13.0826 12.8098 13.4218 13.2523 13.6357 13.9455C13.8127 14.5133 13.6652 16.1874 13.4071 16.5045C13.3554 16.5782 13.2448 16.7552 13.1637 16.9101C13.0014 17.2346 12.2197 17.9941 12.0427 17.9941C11.9616 17.9941 11.9469 17.9646 11.9985 17.9056ZM15.4056 15.6416C15.2876 15.9071 15.1917 16.1504 15.1917 16.1799C15.1917 16.2758 15.7301 15.7669 15.966 15.4498C16.4749 14.7714 17.1091 13.5398 17.1091 13.2448C17.1091 13.1563 17.1386 13.0531 17.1681 13.0088C17.2345 12.9425 17.3082 12.6843 17.5073 11.8363C17.5811 11.556 17.6843 10.59 17.736 9.69762C17.795 8.80529 17.8908 7.79497 17.9498 7.44836C18.0457 6.85102 18.3702 5.87019 18.5177 5.71532C18.5545 5.67845 18.584 5.58995 18.584 5.51621C18.584 5.44984 18.643 5.35397 18.7242 5.31709C18.7979 5.27284 18.879 5.16222 18.9012 5.07373C18.9306 4.97786 19.056 4.77874 19.1888 4.63125C19.5354 4.24777 19.646 4.05603 19.5132 4.05603C19.4616 4.05603 19.3363 4.11503 19.2404 4.19615C19.1445 4.26989 18.9675 4.38051 18.8422 4.44689C18.525 4.60913 17.6917 5.46458 17.5147 5.80382C17.441 5.95868 17.3451 6.1283 17.3009 6.17992C16.91 6.7109 16.5191 8.49556 16.5191 9.7345C16.5191 10.6268 16.3053 12.4631 16.0988 13.2743C16.0324 13.5398 15.9587 13.9012 15.9292 14.0855C15.8702 14.4616 15.7079 14.941 15.4056 15.6416Z" fill="url(#paint0_linear_2043_451)"/>
</g>
<defs>
<linearGradient id="paint0_linear_2043_451" x1="0" y1="25.0111" x2="116.224" y2="25.0111" gradientUnits="userSpaceOnUse">
<stop stop-color="#FEFCDB"/>
<stop offset="0.2" stop-color="#FF78FE"/>
<stop offset="1" stop-color="#B4FCFE"/>
</linearGradient>
<clipPath id="clip0_2043_451">
<rect width="116.224" height="50" fill="white"/>
</clipPath>
</defs>
</svg>
