<svg width="93" height="40" viewBox="0 0 93 40" fill="none" xmlns="http://www.w3.org/2000/svg">
<g clip-path="url(#clip0_2045_3)">
<path fill-rule="evenodd" clip-rule="evenodd" d="M33.1229 15.1328C33.1819 15.3275 33.2527 15.5517 33.2822 15.6284C33.3058 15.7051 33.3412 15.7582 33.353 15.7464C33.3884 15.7051 33.2232 14.6077 33.1288 14.2419C33.0757 14.0414 33.0344 13.8113 33.0344 13.7287C33.0344 13.652 32.9931 13.4868 32.9459 13.3629C32.8928 13.2449 32.828 13.0384 32.7985 12.9027C32.7395 12.6254 32.5979 12.1888 32.4327 11.8172C32.3737 11.6756 32.3265 11.534 32.3265 11.4927C32.3265 11.4514 32.2675 11.298 32.2026 11.1505L32.1888 11.1218C32.12 10.9786 32.0351 10.8019 32.002 10.708C31.8663 10.3776 31.6008 9.87026 31.117 8.9971C30.9105 8.62542 30.2026 7.53988 30.1141 7.46318C30.0787 7.43368 30.0197 7.36288 29.9902 7.30979C29.9312 7.19769 29.6362 6.84371 29.3058 6.47203C29.1819 6.33634 29.0816 6.18884 29.0816 6.15344C29.0816 6.11215 29.0403 6.07675 28.9931 6.07675C28.9459 6.07675 28.9046 6.05315 28.9046 6.01775C28.9046 5.95875 27.9194 4.944 27.7719 4.86141C27.7247 4.83191 27.5123 4.65492 27.3058 4.46023C26.651 3.85846 24.7985 2.53692 24.6097 2.53692C24.5743 2.53692 24.5389 2.51923 24.5271 2.48973C24.5212 2.46613 24.3088 2.34223 24.0669 2.21834C23.9736 2.17056 23.8803 2.12366 23.7982 2.08237C23.6675 2.01664 23.5649 1.96507 23.5359 1.94695C23.4887 1.92336 23.3825 1.87026 23.2999 1.83486C23.2173 1.79946 23.1111 1.74636 23.0639 1.71687C23.0167 1.68147 22.7926 1.58707 22.5684 1.49858C22.3442 1.41598 22.1141 1.32159 22.0669 1.29209C22.0138 1.26259 21.8663 1.20359 21.7365 1.15639C21.6067 1.1092 21.4238 1.0443 21.3235 1.0148C21.1524 0.955804 20.6982 0.82011 19.8781 0.590022C19.3235 0.43073 18.5684 0.289137 17.9607 0.23014C17.6716 0.200641 17.2586 0.147544 17.0462 0.118045C16.2144 -0.0117481 15.058 -0.0176478 13.7896 0.112146C13.1229 0.182942 12.3914 0.23604 12.1672 0.241939C11.9489 0.241939 11.5418 0.283237 11.2645 0.324535C10.9872 0.371733 10.5448 0.43663 10.2793 0.472028C10.0138 0.501526 9.68341 0.566423 9.54181 0.61952C9.40022 0.666718 9.18783 0.708016 9.06394 0.708016C8.94004 0.708016 8.85155 0.731615 8.86925 0.761113C8.88695 0.784712 9.57721 0.808311 10.3973 0.802411C11.2173 0.796512 12.1141 0.814211 12.3914 0.83781C12.6628 0.861408 13.4297 0.896807 14.0964 0.914506C14.7985 0.938104 15.6067 1.003 16.0256 1.0679C16.4268 1.1269 16.8515 1.17999 16.9695 1.17999C17.0934 1.17999 17.3648 1.23309 17.5772 1.29799C17.7896 1.36288 18.0256 1.41598 18.1082 1.41598C18.3029 1.41598 20.002 1.88796 20.2321 2.00595C20.2793 2.02955 20.474 2.09445 20.6569 2.14754C20.8398 2.20064 21.0108 2.27144 21.0285 2.30094C21.0462 2.33633 21.1111 2.35993 21.1642 2.35993C21.2232 2.35993 21.3707 2.41303 21.4946 2.47203C21.6185 2.53692 21.7955 2.60772 21.884 2.62542C21.9784 2.64312 22.0846 2.70212 22.1259 2.74931C22.1613 2.79651 22.2203 2.83191 22.2498 2.83191C22.3383 2.83191 23.1406 3.22719 23.3766 3.38648C23.5005 3.46908 23.6303 3.53987 23.6657 3.53987C23.6952 3.53987 23.9017 3.65197 24.12 3.79356C24.7041 4.16524 24.7336 4.18294 24.881 4.24784C24.9518 4.27734 25.0108 4.33044 25.0108 4.36583C25.0108 4.40123 25.0993 4.46613 25.2114 4.51333C25.3235 4.56052 25.4238 4.62542 25.4356 4.66082C25.4474 4.69622 25.4946 4.73162 25.5418 4.73751C25.6303 4.74931 25.6893 4.79651 26.0315 5.1033C26.1141 5.17999 26.1908 5.22719 26.2085 5.21539C26.2203 5.20359 26.3324 5.29799 26.4563 5.42778C26.5861 5.55757 26.71 5.66377 26.7336 5.66377C26.8044 5.66377 27.7483 6.57232 28.6451 7.50448C29.1937 8.07675 30.2557 9.44548 30.6451 10.0826C30.6805 10.1357 30.7218 10.1888 30.7395 10.2065C30.7572 10.2242 30.8221 10.3186 30.8752 10.413C30.9282 10.5133 31.0521 10.708 31.1465 10.8555C31.2409 11.003 31.4002 11.2803 31.5005 11.475C31.6008 11.6697 31.707 11.8703 31.7365 11.9175C31.7955 12.0237 32.4976 13.4927 32.6746 13.8821C32.7395 14.0355 32.7985 14.2006 32.7985 14.2537C32.7985 14.3009 32.8516 14.4425 32.9105 14.5605C32.9754 14.6785 33.0698 14.9381 33.1229 15.1328ZM28.0197 29.9233C28.0197 29.8997 28.061 29.8171 28.12 29.7404C28.2793 29.5103 28.71 28.6785 28.8987 28.2301C28.9695 28.0708 29.0816 27.8348 29.1406 27.7168C29.2055 27.5988 29.2586 27.4631 29.2586 27.4218C29.2586 27.3805 29.3117 27.2448 29.3766 27.121C29.4415 27.003 29.4946 26.8555 29.4946 26.8024C29.4946 26.7434 29.5477 26.6195 29.6126 26.5192C29.6775 26.4248 29.7306 26.2655 29.7306 26.177C29.7306 26.0826 29.7601 25.9528 29.8014 25.882C29.9371 25.6401 30.2557 24.3953 30.4091 23.5103C30.4337 23.375 30.4663 23.1883 30.4994 22.9987L30.4998 22.997L30.5004 22.9931C30.5305 22.821 30.5609 22.647 30.5861 22.5074C30.6982 21.8702 30.7454 19.5575 30.6687 18.4661C30.5802 17.1387 30.2321 15.4041 29.8486 14.3658C29.7896 14.2065 29.6834 13.8879 29.6067 13.6578C29.5359 13.4337 29.4297 13.1386 29.3707 13.0089C29.3117 12.8791 29.1937 12.6018 29.1052 12.3894C29.0226 12.177 28.9106 11.9646 28.8693 11.9115C28.8221 11.8643 28.7867 11.7935 28.7867 11.764C28.7867 11.7345 28.7041 11.5634 28.6097 11.3864C28.5094 11.2094 28.3855 10.9617 28.3324 10.8437C28.2793 10.7198 28.2144 10.6195 28.1908 10.6195C28.1613 10.6195 28.0964 10.531 28.0492 10.4307C27.943 10.2124 27.884 10.1062 27.6362 9.74042C27.5613 9.63474 27.4733 9.49618 27.4065 9.391C27.3839 9.35529 27.3636 9.32336 27.3471 9.29794C27.2468 9.12685 26.769 8.50148 26.533 8.23009C26.5178 8.21156 26.4916 8.18002 26.4578 8.13948C26.3735 8.03808 26.2422 7.88032 26.12 7.72862C25.9489 7.51623 25.5241 7.05605 25.176 6.69617C24.8221 6.34219 24.5389 6.02951 24.5389 6.00591C24.5389 5.94101 24.6451 5.94691 24.6687 6.01181C24.6805 6.0354 24.8339 6.1593 25.0108 6.27139C25.1878 6.38939 25.4474 6.56638 25.589 6.66667C25.7247 6.76107 25.8663 6.84366 25.8958 6.84366C25.9312 6.84366 25.9548 6.86726 25.9548 6.89086C25.9548 6.91446 26.1377 7.07965 26.3678 7.25074C26.9282 7.68142 28.3737 9.11505 28.3737 9.25074C28.3737 9.27434 28.4681 9.39234 28.5802 9.51033C28.6923 9.62833 28.7867 9.75812 28.7867 9.79352C28.7867 9.82892 28.828 9.87021 28.8752 9.88791C28.9223 9.90561 29.0462 10.0708 29.1524 10.2596C29.2527 10.4425 29.3707 10.6195 29.412 10.649C29.4533 10.6844 29.5477 10.826 29.6244 10.9735C29.7719 11.2566 29.9135 11.4926 30.0905 11.7522C30.1554 11.8407 30.2026 11.941 30.2026 11.9764C30.2026 12.0118 30.2675 12.1416 30.3501 12.2596C30.4327 12.3776 30.4976 12.5192 30.4976 12.5723C30.4976 12.6254 30.5389 12.7021 30.5861 12.7434C30.6333 12.7847 30.6746 12.8732 30.6746 12.9381C30.6746 13.0443 30.7985 13.351 31.0757 13.9174C31.1288 14.0295 31.1701 14.1534 31.1583 14.1947C31.1524 14.236 31.1937 14.3835 31.2586 14.5251C31.3235 14.6667 31.4002 14.8968 31.4356 15.0443C31.4541 15.1368 31.4843 15.2596 31.5115 15.3704C31.5276 15.4359 31.5426 15.4975 31.5536 15.5457C32.0315 17.41 32.1849 19.5929 31.9489 21.2979C31.8309 22.1829 31.589 23.4513 31.4946 23.705C31.4592 23.7935 31.412 23.9705 31.3825 24.1003C31.3117 24.4189 31.1524 24.8909 31.0521 25.0856C31.0049 25.1681 30.9695 25.2743 30.9695 25.3156C30.9695 25.3805 30.8752 25.5988 30.5566 26.2832C30.4917 26.413 30.4268 26.5605 30.4091 26.6077C30.3914 26.6549 30.3147 26.8024 30.2321 26.9322C30.1554 27.062 30.0374 27.2684 29.9725 27.3864C29.9076 27.5044 29.825 27.6165 29.7896 27.6401C29.7601 27.6578 29.7306 27.7286 29.7306 27.7935C29.7306 27.8525 29.707 27.9056 29.6775 27.9056C29.648 27.9056 29.6067 27.9587 29.5831 28.0236C29.5654 28.0885 29.4297 28.2832 29.2822 28.4602C29.1406 28.6372 29.0226 28.7965 29.0226 28.8142C29.0226 28.8555 28.8693 29.0443 28.6982 29.2271C28.6333 29.2979 28.5802 29.3687 28.5802 29.3864C28.5802 29.4041 28.4799 29.5221 28.3619 29.646C28.238 29.764 28.1377 29.8879 28.1377 29.9174C28.1377 29.9469 28.1141 29.9705 28.0787 29.9705C28.0492 29.9705 28.0197 29.9528 28.0197 29.9233ZM20.1141 37.8231C20.1141 37.7995 20.2911 37.7228 20.5153 37.6461C20.7336 37.5694 20.9519 37.475 20.9991 37.4337C21.0463 37.3924 21.1525 37.3393 21.2351 37.3157C21.3177 37.2921 21.4533 37.2213 21.5418 37.1623C21.6244 37.0974 21.7247 37.0502 21.7601 37.0502C21.8014 37.0502 21.9076 36.9971 22.002 36.9322C22.0522 36.8998 22.1156 36.857 22.179 36.8142C22.2423 36.7715 22.3059 36.7286 22.356 36.6962C22.4504 36.6313 22.5507 36.5782 22.5861 36.5782C22.651 36.5782 23.3766 36.1416 23.6303 35.9469C23.7306 35.8762 23.8427 35.8113 23.884 35.8113C23.9194 35.8113 23.9666 35.77 23.9843 35.7228C24.0079 35.6756 24.0728 35.6343 24.1318 35.6343C24.1967 35.6343 24.2616 35.5989 24.2793 35.5517C24.297 35.5104 24.4681 35.3688 24.6569 35.2449C24.8516 35.121 25.0109 34.9971 25.0109 34.9735C25.0109 34.944 25.0522 34.9263 25.0994 34.9263C25.1525 34.9263 25.2056 34.8909 25.2233 34.8437C25.241 34.8024 25.3766 34.6785 25.53 34.5664C25.6834 34.4602 25.8309 34.3363 25.8545 34.295C25.8781 34.2537 25.9312 34.2183 25.9607 34.2183C25.9961 34.2183 26.1259 34.1121 26.2557 33.9823C26.3855 33.8526 26.5035 33.7464 26.5212 33.7464C26.5743 33.7464 28.2557 32.0354 28.2557 31.9764C28.2557 31.9469 28.3029 31.888 28.3619 31.8467C28.4976 31.7464 29.0876 31.0207 29.4474 30.5133C29.6008 30.295 29.7719 30.0649 29.8309 30C29.8899 29.9352 30.002 29.7641 30.0787 29.6166C30.1554 29.4691 30.2616 29.298 30.3147 29.2331C30.4032 29.121 30.474 29.003 30.6569 28.6726C30.7041 28.59 30.8044 28.4189 30.8811 28.2891C31.0817 27.941 31.3707 27.3629 31.412 27.2154C31.4297 27.1387 31.4769 27.0797 31.5064 27.0797C31.5359 27.0797 31.5595 27.0502 31.5595 27.0089C31.5595 26.9735 31.6126 26.826 31.6775 26.6844C31.6913 26.6543 31.7072 26.62 31.7244 26.5831L31.7583 26.5103L31.7588 26.5092C31.815 26.3888 31.8772 26.2552 31.9194 26.1593C31.9902 26.0118 32.0492 25.8408 32.0551 25.7877C32.061 25.7346 32.0964 25.6343 32.1377 25.5576C32.2321 25.3924 32.415 24.8732 32.5389 24.4248C32.592 24.2478 32.6569 24.0767 32.6805 24.0413C32.71 24.0118 32.7454 23.8762 32.769 23.7464C32.7926 23.6166 32.8575 23.3393 32.9165 23.1269C33.064 22.5959 33.1997 21.9823 33.2646 21.5635C33.2941 21.3688 33.3589 20.944 33.412 20.6195C33.4651 20.295 33.5359 19.6697 33.5713 19.2331C33.6008 18.7965 33.6539 18.3599 33.6834 18.2596L33.7306 18.0826L33.7365 18.2891C33.7424 18.4012 33.7955 18.7729 33.8604 19.1151C34.0079 19.9528 33.9961 22.3009 33.8427 23.2744C33.6421 24.531 33.412 25.475 33.0817 26.4307C33.0577 26.501 33.0323 26.5751 33.007 26.6488C32.9324 26.866 32.8588 27.0802 32.828 27.1859C32.7808 27.3216 32.7041 27.4927 32.651 27.5635C32.6038 27.6402 32.5625 27.7346 32.5625 27.7877C32.5625 27.8349 32.4445 28.1121 32.297 28.3953C32.1554 28.6785 32.0492 28.9086 32.0669 28.9086C32.0846 28.9086 32.0315 28.9971 31.9548 29.1033C31.8722 29.2036 31.707 29.475 31.5831 29.7051C31.2823 30.2596 30.4504 31.475 30.1082 31.8585C30.0717 31.8949 29.912 32.0794 29.716 32.3056L29.5359 32.5133C28.946 33.1918 28.7277 33.4101 28.1082 33.9469C27.8486 34.1711 27.6303 34.3776 27.6185 34.4012C27.6067 34.4307 27.5595 34.4543 27.5123 34.4543C27.4651 34.4543 27.412 34.4897 27.3943 34.5369C27.3766 34.5782 27.2056 34.7198 27.0168 34.8437C26.8221 34.9676 26.6628 35.0915 26.6628 35.121C26.6628 35.1446 26.6274 35.1623 26.5861 35.1623C26.5389 35.1623 26.4563 35.2154 26.3973 35.2803C26.3383 35.3452 26.2616 35.3983 26.2203 35.3983C26.179 35.3983 26.1023 35.4514 26.0433 35.5163C25.9843 35.5812 25.9135 35.6343 25.884 35.6343C25.8545 35.6343 25.6716 35.7405 25.4769 35.8703C25.2823 36 25.0876 36.1062 25.0463 36.1062C25.005 36.1062 24.9165 36.1593 24.8516 36.2242C24.7808 36.2832 24.6569 36.354 24.5743 36.3776C24.4917 36.3953 24.3973 36.4484 24.356 36.4956C24.3206 36.5428 24.2439 36.5782 24.1849 36.5782C24.1318 36.5782 24.0197 36.6254 23.943 36.6903C23.8663 36.7493 23.7011 36.8142 23.5831 36.8378C23.4592 36.8614 23.3589 36.9027 23.3589 36.9322C23.3589 36.9558 23.2705 36.9971 23.1702 37.0207C23.064 37.0443 22.8693 37.1092 22.7395 37.1682C22.6097 37.2272 22.3796 37.3039 22.2203 37.3452C22.0669 37.3865 21.9253 37.4455 21.9076 37.4691C21.8899 37.4986 21.8014 37.5222 21.707 37.5222C21.6126 37.5222 21.4651 37.5517 21.3707 37.5871C21.1643 37.6756 20.1141 37.8703 20.1141 37.8231ZM11.6598 39.8407C11.5595 39.6107 11.5831 38.6785 11.707 37.882C11.7955 37.3334 11.8073 37.0266 11.7719 36.2596C11.7542 35.7346 11.707 35.1269 11.6775 34.8968C11.6421 34.6726 11.589 34.1416 11.5595 33.7169C11.53 33.298 11.4651 32.7788 11.4179 32.5664C11.3649 32.354 11.3236 32.059 11.3236 31.9056V31.6225H11.1053C10.9814 31.6225 10.7631 31.6756 10.6215 31.7404C10.4799 31.8053 10.3442 31.8584 10.3147 31.8584C10.2498 31.8584 9.70703 32.2242 9.68343 32.2832C9.67163 32.3068 9.63624 32.3304 9.60084 32.3304C9.57134 32.3304 9.47104 32.3776 9.38845 32.4425C9.13476 32.6195 8.66278 32.6962 8.3206 32.6136C7.97842 32.5369 7.97842 32.4484 8.3206 32.4484C8.4504 32.4484 8.64509 32.4071 8.75718 32.3658C9.01677 32.2537 9.37665 31.9823 9.38255 31.8938C9.38845 31.8112 10.2262 31.1505 10.3324 31.1505C10.3737 31.1505 10.474 31.1033 10.5566 31.0502C10.6333 30.9971 10.7926 30.9381 10.9047 30.9145C11.1112 30.885 11.1171 30.8732 11.0994 30.649C11.0876 30.4366 10.9991 30.0531 10.7926 29.2626C10.7572 29.1151 10.6923 28.8496 10.6451 28.6726C10.6038 28.4956 10.5271 28.2006 10.474 28.0236C10.0197 26.5133 9.90762 25.9823 9.93122 25.4691C9.94892 25.239 9.97842 24.9912 10.002 24.9263C10.0492 24.8142 10.0551 24.8201 10.0905 24.9558C10.1141 25.0384 10.1318 25.1918 10.1377 25.2921C10.1436 25.3983 10.1967 25.5989 10.2557 25.7345C10.3147 25.8761 10.4917 26.2832 10.651 26.6372C10.8044 26.9971 10.9696 27.3275 11.0109 27.3806C11.0522 27.4278 11.0876 27.4927 11.0876 27.5163C11.0876 27.5458 11.1289 27.6461 11.1761 27.7463C11.2233 27.8525 11.3 28.0413 11.3413 28.1711C11.3543 28.2069 11.3695 28.2481 11.3855 28.2913L11.3858 28.292C11.4278 28.4053 11.475 28.5327 11.5005 28.6136C11.5418 28.7257 11.6244 28.944 11.6893 29.0974C11.7483 29.2508 11.7955 29.4278 11.7955 29.4927C11.7955 29.5635 11.8486 29.7168 11.9135 29.8348C11.9784 29.9587 12.0315 30.1711 12.0315 30.3127C12.0315 30.6077 12.1082 30.6608 12.4091 30.5605C12.5212 30.5251 12.7395 30.472 12.8929 30.4484C13.2764 30.3776 13.7955 30.1534 13.9666 29.9823C14.0492 29.8997 14.1259 29.7227 14.1554 29.5399C14.1849 29.3688 14.2439 29.1269 14.2793 28.9971C14.3147 28.8673 14.3678 28.59 14.3914 28.3776C14.4209 28.1652 14.4858 27.8761 14.533 27.7345C14.5861 27.593 14.6274 27.3924 14.6274 27.2862C14.6274 27.18 14.6805 26.8319 14.7513 26.5133C14.8516 26.0177 14.8752 25.6991 14.8811 24.3658C14.887 22.9027 14.8811 22.767 14.7513 22.2714C14.6805 21.9823 14.5507 21.5989 14.474 21.4278C14.3973 21.2567 14.3324 21.0738 14.3324 21.0207C14.3324 20.885 14.769 21.5222 14.9578 21.9351C14.9872 21.9959 15.0198 22.0638 15.0524 22.1317L15.0528 22.1325C15.1184 22.2688 15.1839 22.4051 15.2233 22.4838C15.2882 22.6018 15.3354 22.767 15.3354 22.8496C15.3354 22.9263 15.3766 23.1092 15.4238 23.2508C15.5241 23.534 15.648 24.5782 15.6539 25.1918C15.6598 26.6077 15.5123 27.9941 15.2351 29.1446C15.182 29.357 15.123 29.6638 15.1053 29.823C15.0286 30.4189 14.4681 31.0089 13.8427 31.1446C13.707 31.18 13.5005 31.2449 13.3884 31.2921C13.2764 31.3393 12.9814 31.3865 12.7395 31.3983C12.4091 31.416 12.2911 31.4455 12.2793 31.5104C12.2734 31.5576 12.3088 31.8525 12.3619 32.1593C12.4386 32.5841 12.4681 33.1682 12.4858 34.6844C12.5153 36.9617 12.5094 36.9971 11.9017 38.8673C11.8368 39.0738 11.7778 39.4101 11.7719 39.6225C11.7719 39.8289 11.7601 40 11.7483 40C11.7424 40 11.7011 39.9292 11.6598 39.8407ZM46.9577 31.9882C47.0698 32.0413 47.3589 32.1357 47.5949 32.2006C48.5212 32.4366 49.5477 32.1711 50.2793 31.5045C50.6627 31.1564 50.9105 30.7434 51.0875 30.1534C51.1996 29.7935 51.2114 29.6343 51.1937 29.0089C51.1642 28.2596 51.0521 27.7758 50.8397 27.4986C50.7807 27.4219 50.7335 27.3275 50.7335 27.2862C50.7335 27.2508 50.5802 27.062 50.3973 26.8673C49.766 26.2124 49.0167 25.9174 48.1436 25.9764C47.3058 26.0354 46.763 26.2655 46.2144 26.8083C45.6126 27.3983 45.3707 27.9823 45.3235 28.9381C45.294 29.4868 45.3117 29.6579 45.4179 30.059C45.6598 30.9381 46.2321 31.652 46.9577 31.9882ZM49.8781 30.118C49.707 30.9617 49.3707 31.4868 48.8692 31.7169C48.4445 31.9115 48.0315 31.9056 47.6244 31.6933C47.3058 31.5281 46.9577 31.1505 46.9577 30.9735C46.9577 30.9145 46.9223 30.8378 46.8751 30.8024C46.763 30.708 46.5861 29.7464 46.5802 29.1741C46.5743 28.2183 46.7925 27.4337 47.2173 26.8791C47.6775 26.2773 48.763 26.2537 49.2999 26.8319C49.8604 27.4337 50.12 28.9263 49.8781 30.118ZM59.5064 32.1534C58.2085 31.7227 57.4592 30.6136 57.4592 29.1092C57.4592 27.3569 58.5861 26.0885 60.2321 25.9764C61.4061 25.8997 62.4091 26.4425 62.9814 27.469C63.2055 27.8702 63.2527 28.0295 63.3707 28.7729C63.5418 29.8761 62.887 31.3923 62.061 31.8171L61.9921 31.8533C61.8907 31.9065 61.7736 31.9679 61.707 32.0059C61.1878 32.2891 60.1318 32.3599 59.5064 32.1534ZM61.0109 31.705C61.5182 31.4513 61.7188 31.18 61.943 30.472C62.0551 30.1239 62.0728 29.9174 62.0787 29.1446C62.0787 28.1475 62.0433 27.9292 61.7483 27.3156C61.5359 26.8909 61.3825 26.7257 61.0168 26.5487C60.6569 26.3776 60.0551 26.3835 59.766 26.5605C59.3117 26.8319 59.0345 27.2744 58.8398 28.0236C58.6982 28.5782 58.7513 30.0236 58.9283 30.5546C59.1524 31.2036 59.412 31.5221 59.8781 31.7345C60.2498 31.9056 60.6392 31.8938 61.0109 31.705ZM63.5831 32.1888C63.6716 32.2065 63.7719 32.2301 63.8014 32.2419C64.0315 32.3186 64.6333 32.1298 64.887 31.8997C65.2586 31.5575 65.53 30.885 65.6893 29.9115L65.7028 29.8333C65.7457 29.5834 65.7729 29.4256 65.7903 29.2666C65.8202 28.9937 65.8213 28.7177 65.8243 27.9681L65.825 27.8053L65.8368 26.6077H67.7247L67.7365 29.3569L67.7542 32.1121H68.9342L68.9519 29.121L68.9637 26.1298L66.5448 26.1416L66.5435 26.1416C64.0197 26.1593 64.0138 26.1594 64.1082 26.4071C64.1259 26.4602 64.1849 26.4897 64.2498 26.472C64.3029 26.4543 64.4327 26.4956 64.533 26.5546C64.8044 26.7198 64.8575 26.9971 64.8103 28.1475C64.769 29.2803 64.6628 30.0826 64.4799 30.6195C64.238 31.3392 64.1082 31.5162 63.6362 31.7699C63.3589 31.9174 63.3353 32.1298 63.5831 32.1888ZM56.4268 32.0944C55.8486 31.941 55.3471 31.5517 54.2144 30.354L54.027 30.1601C53.7724 29.8964 53.5797 29.6969 53.5654 29.6873C53.5477 29.6814 53.5418 30.2183 53.5536 30.885L53.5713 32.0944H52.3442L52.3383 29.5753C52.3265 27.8584 52.3029 26.9853 52.2557 26.8319C52.1849 26.59 51.9784 26.4307 51.766 26.4484C51.6775 26.4602 51.648 26.4248 51.648 26.3186V26.1711L52.356 26.1888C52.7394 26.1947 53.1052 26.2301 53.1583 26.2596C53.2173 26.2891 53.3235 26.4012 53.4002 26.5015C53.53 26.6903 53.5359 26.7375 53.5359 27.8348C53.5359 28.4543 53.5477 28.9676 53.5654 28.9676C53.5831 28.9676 53.707 28.8142 53.8427 28.6254C53.9784 28.4425 54.4032 27.9056 54.7866 27.4396C55.6834 26.3422 55.8604 26.2242 56.7394 26.177L57.3412 26.1416V26.3127C57.3412 26.4543 57.3176 26.4897 57.2114 26.4956C56.415 26.5251 55.9076 26.7788 55.4828 27.3629C55.353 27.5399 55.1937 27.7404 55.1288 27.8053C54.8692 28.0826 54.3914 28.708 54.3914 28.7729C54.3914 28.8142 54.9813 29.4396 55.707 30.1652C56.9695 31.4455 57.4061 31.7994 57.7011 31.7994C57.7837 31.7994 57.8132 31.8407 57.8132 31.9646V32.1357L57.2114 32.1416C56.8751 32.1416 56.5271 32.1239 56.4268 32.0944ZM70.4268 29.4691C70.4327 30.8673 70.4504 32.0355 70.4622 32.065C70.474 32.1004 71.1289 32.1181 72.2911 32.1122C73.8309 32.1063 74.1259 32.0886 74.2439 32.0119C74.3796 31.9234 74.4799 31.7405 74.6274 31.3275C74.6687 31.2154 74.7277 31.062 74.7572 30.9971C74.8398 30.8142 74.7926 30.649 74.651 30.6313C74.5507 30.6195 74.4917 30.6785 74.3737 30.9263C74.2616 31.1564 74.1436 31.2921 73.9253 31.4337L73.6303 31.6225H71.6185L71.6303 30.4603L71.648 29.2921L72.7985 29.2862L73.9489 29.2744L73.9666 29.0325C73.9689 29.0048 73.9725 28.9801 73.9757 28.9581C73.9826 28.9112 73.9876 28.8765 73.9747 28.8509C73.9376 28.7779 73.753 28.7798 73.0405 28.7869L72.7998 28.7893L72.6392 28.7906L71.6185 28.7965V26.6077H72.4327C73.7483 26.6077 74.0964 26.7847 74.0964 27.4691C74.0964 27.5812 74.1141 27.6697 74.1436 27.6697C74.1672 27.6697 74.2439 27.6874 74.3206 27.7051C74.4504 27.7405 74.4504 27.7346 74.4504 27.1446V26.5546L74.2439 26.3423L74.0315 26.1358L71.8663 26.1476L69.7011 26.1653V26.3128C69.7011 26.4131 69.7365 26.4662 69.8191 26.4779C70.12 26.5192 70.179 26.5546 70.2911 26.7375C70.4032 26.9204 70.4091 27.0561 70.4268 29.4691ZM75.8545 32.1063C75.7542 32.0886 75.7483 31.9175 75.7424 29.5989C75.7365 28.2302 75.7424 27.062 75.7483 26.9971C75.7542 26.9381 75.7247 26.8142 75.6893 26.7198C75.6362 26.59 75.5654 26.5428 75.4002 26.5133C75.064 26.4603 75.0286 26.4367 75.0522 26.301C75.0699 26.1712 75.0935 26.1653 75.7778 26.1476C76.4032 26.1358 76.5094 26.1476 76.6805 26.2538C76.7867 26.3187 76.8988 26.4426 76.9342 26.5369C76.9696 26.6254 77.005 27.1446 77.0109 27.7287L77.0168 28.7611L79.3471 28.7965V26.1358H80.5861V28.59C80.5861 31.5399 80.6156 31.7346 81.0817 31.7523C81.2764 31.7582 81.2941 31.7759 81.2941 31.9293V32.0945H80.5389C79.8545 32.0945 79.766 32.0827 79.6716 31.9765C79.6126 31.9116 79.5477 31.8762 79.5241 31.888C79.4474 31.9352 79.4061 31.5694 79.3708 30.4013L79.3295 29.2626H78.2321C77.6303 29.2626 77.0994 29.2862 77.0581 29.3157C76.9932 29.357 76.9814 29.6343 76.9991 30.7434L77.0168 32.124H76.4858C76.1967 32.124 75.9076 32.1181 75.8545 32.1063ZM82.238 32.0886L82.4032 32.1063C82.4917 32.1181 82.7513 32.124 82.9814 32.124H83.3943L83.5241 31.8585C83.5949 31.711 83.7542 31.4101 83.884 31.18C83.9253 31.1053 83.9777 31.0109 84.0345 30.9087L84.0352 30.9074L84.0362 30.9057C84.1494 30.7019 84.2798 30.4672 84.3737 30.2951C84.5212 30.0355 84.7808 29.5576 84.9519 29.2331C85.1229 28.9086 85.294 28.6018 85.3353 28.5546C85.3766 28.5075 85.4828 28.3069 85.5713 28.1122L85.6121 28.0244C85.7127 27.8078 85.7772 27.6688 85.8182 27.6754C85.8907 27.687 85.8905 28.1514 85.89 29.4357L85.8899 29.7877C85.8958 31.0266 85.9076 32.0591 85.9194 32.0827C85.9312 32.1063 86.2203 32.1181 86.5566 32.1063L87.1642 32.0886L87.1525 29.1269L87.1348 26.1653H85.9843L85.8958 26.3423C85.8486 26.4426 85.7365 26.6431 85.648 26.7906C85.5595 26.9381 85.3707 27.2862 85.2291 27.5576C85.0875 27.829 84.7985 28.36 84.5861 28.7316C84.3796 29.1033 84.0492 29.711 83.8545 30.0768C83.6657 30.4367 83.4946 30.7375 83.4769 30.7375C83.4592 30.7375 83.4533 29.9588 83.4651 29.0148C83.4769 28.065 83.4651 27.1151 83.4474 26.9027C83.412 26.5664 83.3825 26.5015 83.1937 26.3305L82.9814 26.1358H81.53V26.3128C81.53 26.4544 81.5536 26.4897 81.6657 26.4897C81.9371 26.4897 82.0315 26.5605 82.1377 26.8024C82.2262 27.0266 82.238 27.3098 82.238 29.5694V32.0886ZM39.6126 26.7729L39.4179 26.6018C39.3117 26.5074 39.1642 26.4307 39.0816 26.4307C38.9695 26.4307 38.9341 26.4012 38.9341 26.301V26.1653H44.3619V32.0945H43.1524L43.1642 29.3511L43.1701 26.6077L42.0138 26.6195L40.8515 26.6372V32.0945H39.648L39.6126 26.7729ZM88.0964 26.4897C88.592 26.4956 88.6097 26.6018 88.6097 29.5988V32.1003L92.3855 32.0649L92.4858 31.9174C92.6038 31.7522 92.9755 30.8731 92.9755 30.7552C92.9755 30.7139 92.9106 30.6785 92.8339 30.6785C92.7218 30.6785 92.6628 30.7375 92.5684 30.9321C92.4445 31.1917 92.3206 31.3215 92.0138 31.5103C91.8486 31.6106 91.707 31.6224 90.8103 31.6224H89.7896V29.2625L90.9578 29.2507L92.12 29.233V28.8201L90.9578 28.8024L89.7896 28.7906V26.6077H90.5507C91.6244 26.6077 91.8191 26.6431 92.0551 26.879C92.2557 27.0796 92.3619 27.3923 92.2911 27.5752C92.2616 27.6519 92.2911 27.6696 92.4386 27.6696H92.6215V27.1681C92.6215 26.6195 92.5566 26.4189 92.3324 26.2714C92.2026 26.1888 91.9312 26.1711 90.0433 26.1593L87.9017 26.1475V26.3186C87.9017 26.472 87.9194 26.4897 88.0964 26.4897ZM12.8575 28.5546C12.9224 28.7316 12.9696 28.9794 12.9755 29.1033C12.9755 29.5871 13.1701 29.2154 13.2645 28.531C13.2999 28.3068 13.3117 28.1003 13.294 28.0708C13.2763 28.0472 13.2468 27.7936 13.235 27.5045C13.2173 27.2213 13.1642 26.8319 13.1111 26.6372C13.0639 26.4425 13.005 26.0767 12.9755 25.8172C12.9283 25.3688 12.8339 25.1328 12.7749 25.3157L12.7677 25.3373C12.5932 25.8679 12.5268 26.0699 12.5093 26.276C12.4986 26.4026 12.5064 26.5307 12.519 26.7376L12.5212 26.7729C12.5389 27.0856 12.5979 27.4809 12.6451 27.6402C12.6982 27.8054 12.7395 28 12.7395 28.0826C12.7395 28.1652 12.7926 28.3776 12.8575 28.5546ZM73.3353 24.8909C72.999 24.8614 72.5212 24.7847 72.2852 24.7139C72.0433 24.649 71.7955 24.5841 71.7365 24.5723C71.5418 24.5369 70.6038 24.059 70.2321 23.8053C69.8014 23.5163 69.0403 22.8083 68.9282 22.59C68.8869 22.5015 68.8162 22.3953 68.769 22.3481C68.6333 22.2124 68.2734 21.5752 68.12 21.2095C67.5654 19.8761 67.3412 18.1121 67.5772 16.8909C67.6303 16.6372 67.6834 16.3363 67.7011 16.2242C67.7601 15.8407 68.0197 15.0856 68.2852 14.5428C68.6333 13.823 69.0049 13.2803 69.5182 12.7552C69.8958 12.3658 70.5566 11.7994 70.6392 11.7994C70.6569 11.7994 70.7867 11.7168 70.9341 11.6224C71.3058 11.3688 72.3855 10.944 72.9754 10.8142C73.3353 10.7375 74.8633 10.7375 75.5418 10.8142C76.2852 10.9027 77.1701 11.1446 77.6067 11.3747C78.4091 11.8053 79.0049 12.3009 79.2173 12.7139C79.4061 13.0856 79.5241 13.8761 79.5241 14.7375V15.5163H78.8339L78.7926 15.2803C78.6923 14.6431 78.238 13.6165 77.8309 13.1092C77.3589 12.5192 76.94 12.2124 76.2675 11.9705C75.8722 11.823 75.6598 11.7876 75.1052 11.7581C73.707 11.6932 72.5802 12.059 71.884 12.8142C70.8811 13.8879 70.4091 15.5104 70.4091 17.8761C70.4091 20.236 70.9046 21.7817 72.002 22.8496C72.592 23.4278 72.9577 23.6342 73.766 23.8348C74.9813 24.1416 76.2911 23.882 77.5654 23.0856C77.9784 22.826 79.1701 21.4632 79.1701 21.2508C79.1701 21.2213 79.2055 21.1623 79.2527 21.1269C79.3117 21.0797 79.3471 21.0797 79.4002 21.1387C79.4356 21.1859 79.5831 21.298 79.7306 21.3865C79.8722 21.4809 80.002 21.587 80.0197 21.6224C80.0728 21.7581 79.4238 22.6667 78.8811 23.2154C77.8486 24.2655 76.6805 24.767 74.9695 24.8968C74.5389 24.9263 74.1318 24.9499 74.0669 24.9499C74.002 24.944 73.6716 24.9145 73.3353 24.8909ZM48.6096 22.3187C49.2527 23.6402 50.3442 24.4248 51.707 24.5428C52.3088 24.5959 52.6273 24.5959 53.058 24.5487L53.4061 24.5133L53.4297 24.2361C53.4474 23.9706 53.4415 23.9529 53.2881 23.9234C52.4857 23.7523 51.8073 23.0797 51.353 22.006C51.2888 21.8519 51.206 21.6636 51.1428 21.5201L51.1086 21.4423L51.0816 21.3806C51.0167 21.2508 50.9695 21.1092 50.9695 21.0679C50.9695 21.0325 50.9164 20.8968 50.8515 20.7788C50.7217 20.531 50.4975 20.0237 50.4975 19.9706C50.4975 19.9352 49.9312 18.5782 49.7306 18.1417C49.6716 18.0119 49.5536 17.7346 49.4651 17.5222C49.3825 17.3098 49.2586 17.0266 49.1937 16.8909C49.1347 16.7493 49.0816 16.6195 49.0816 16.6018C49.0816 16.5782 49.0285 16.4543 48.9695 16.3187C48.7807 15.9116 48.3737 14.944 48.3737 14.8968C48.3737 14.8732 48.2911 14.6785 48.1908 14.4661C48.0905 14.2479 47.9194 13.8349 47.8073 13.5517C47.6952 13.2626 47.5772 12.9853 47.5477 12.9322C47.5182 12.8791 47.4238 12.6608 47.3353 12.4484C47.2966 12.3555 47.2522 12.2501 47.2101 12.1501C47.1559 12.0216 47.1056 11.902 47.0757 11.829C47.0167 11.6992 46.9341 11.4927 46.8928 11.3747L46.8161 11.1505H46.3324C45.8781 11.1505 45.8427 11.1623 45.8073 11.2862C45.7837 11.357 45.6657 11.6284 45.5418 11.888C45.4179 12.1476 45.2586 12.4956 45.1878 12.6549C44.8928 13.3393 44.6568 13.8703 44.3677 14.4661C44.238 14.7493 44.1259 14.9971 44.1259 15.0207C44.1259 15.0561 44.0492 15.239 43.8014 15.7818C43.6126 16.1948 43.3648 16.7375 43.235 17.0384C43.1784 17.1568 43.0948 17.3471 43.0313 17.4916L42.9628 17.6476C42.9017 17.7867 42.8269 17.9573 42.7748 18.0709L42.7125 18.2088C42.5524 18.5635 42.3438 19.0257 42.1672 19.4101C42.0669 19.6225 41.9371 19.8998 41.8781 20.0355C41.8191 20.1712 41.766 20.301 41.766 20.3246C41.766 20.3482 41.6775 20.5546 41.5654 20.7847C41.1583 21.652 40.999 22.0001 40.999 22.0355C40.999 22.0532 40.9105 22.2597 40.7984 22.4956L40.7214 22.6666C40.6026 22.9298 40.4279 23.317 40.2911 23.6284C40.12 24.0178 39.9607 24.3659 39.9312 24.4013C39.8427 24.5133 39.943 24.5428 40.3913 24.5428C40.8574 24.5428 41.058 24.4779 41.058 24.3305C41.058 24.2833 41.1524 24.0355 41.2704 23.7877C41.6775 22.9204 41.7542 22.7434 41.7896 22.6136C41.8132 22.5487 41.8663 22.4543 41.9135 22.419C41.9607 22.3777 42.002 22.3069 42.002 22.2538C42.002 22.2066 42.0551 22.0591 42.1141 21.9234C42.1387 21.8718 42.1736 21.7963 42.2136 21.71C42.2787 21.5692 42.3573 21.3993 42.4267 21.2567C42.6155 20.8437 42.6273 20.826 42.8279 20.826C42.8529 20.826 42.9324 20.8257 43.056 20.8253C43.4867 20.8237 44.4532 20.8201 45.5123 20.8201L47.9902 20.8142L48.0787 21.0974C48.1259 21.2567 48.2144 21.4514 48.2734 21.534C48.3265 21.6107 48.3737 21.711 48.3737 21.7523C48.3737 21.7995 48.4798 22.0473 48.6096 22.3187ZM47.4179 19.4986C47.4474 19.5989 47.4946 19.7169 47.5182 19.77C47.5359 19.829 47.5241 19.8762 47.4769 19.888C47.3766 19.9175 43.0639 19.888 43.0639 19.8585C43.0639 19.8467 43.1288 19.7051 43.2055 19.5458C43.2801 19.4072 43.3933 19.1578 43.4797 18.9674L43.5064 18.9086C43.589 18.7139 43.7247 18.413 43.8073 18.242C43.884 18.0709 43.9489 17.8939 43.9489 17.8467C43.9489 17.7995 43.9725 17.7582 44.002 17.7582C44.0315 17.7582 44.0905 17.6579 44.1318 17.5399C44.1672 17.416 44.2203 17.2921 44.2439 17.2567C44.2675 17.2272 44.3088 17.1328 44.3324 17.0502C44.356 16.9676 44.4739 16.6903 44.5978 16.4307C44.9577 15.6697 45.058 15.4396 45.0993 15.2685C45.1229 15.1741 45.1642 15.1033 45.1878 15.1033C45.2173 15.1033 45.2704 15.003 45.3117 14.885C45.353 14.7552 45.3943 14.6962 45.4061 14.7493C45.4415 14.8673 45.5359 15.0974 45.6362 15.298C45.6834 15.3924 45.7188 15.4986 45.7188 15.534C45.7188 15.5753 45.7896 15.7523 45.8722 15.9293L45.8888 15.9642C46.0573 16.3173 46.098 16.4026 46.5152 17.3629C46.6981 17.7818 46.94 18.3659 47.0521 18.6608C47.1701 18.9617 47.2822 19.2331 47.3117 19.2626C47.3353 19.298 47.3825 19.4042 47.4179 19.4986ZM63.6362 23.7464C63.2527 23.2921 62.7572 22.708 62.533 22.4484C60.4976 20.0413 60.4622 20 60.3088 19.8584C60.2321 19.7935 60.1731 19.7169 60.1731 19.6874C60.1731 19.6638 60.1377 19.6048 60.1023 19.5635C59.9548 19.4101 59.0876 18.4071 58.8929 18.1652C58.828 18.0885 58.6215 17.8466 57.9017 17.0207C57.589 16.6608 57.2527 16.2655 56.7336 15.6343C56.5566 15.4219 56.3501 15.18 56.2675 15.0974C56.1908 15.0148 56.0551 14.8555 55.9666 14.7434L55.8073 14.5428V24.5428H54.7454V12.9145L54.5979 12.6372C54.5212 12.4838 54.3914 12.3009 54.3088 12.2242C54.0787 12.0118 53.6244 11.8407 53.2055 11.8112L52.8162 11.7876L52.8457 11.4809C52.8575 11.3157 52.8811 11.1741 52.887 11.1623C52.8929 11.1564 53.3353 11.1446 53.8663 11.1387C54.5861 11.1328 54.9401 11.1564 55.235 11.2331C55.4592 11.2862 55.6893 11.3275 55.7483 11.3275C55.9135 11.3275 56.5094 11.6107 56.7808 11.8171C57.0522 12.0236 57.1996 12.177 57.6067 12.6608C57.766 12.8496 57.9135 13.0207 57.9312 13.0384C57.9548 13.0561 58.1259 13.2567 58.3147 13.4809C58.5035 13.711 58.6923 13.9174 58.7395 13.941C58.7808 13.9646 58.8162 14.0236 58.8162 14.0708C58.8162 14.1121 58.8398 14.1593 58.8634 14.1711C58.9106 14.1888 59.1583 14.472 60.1731 15.6579C60.3855 15.9056 60.5743 16.1062 60.5979 16.1062C60.6274 16.1062 60.6451 16.1357 60.6451 16.1711C60.6451 16.2065 60.6805 16.2655 60.7218 16.3068C60.9401 16.531 61.7247 17.4278 61.9607 17.7287C61.9763 17.752 62.0328 17.8163 62.1017 17.8946C62.1373 17.9351 62.1762 17.9794 62.2144 18.0236C62.3324 18.1534 62.6274 18.4956 62.8752 18.7847C63.123 19.0738 63.3766 19.3688 63.4415 19.4396C63.5123 19.5045 63.707 19.7404 63.884 19.9587C64.061 20.177 64.2203 20.354 64.238 20.354C64.2557 20.354 64.2675 18.2832 64.2557 15.7522L64.2439 11.1505H65.3353L65.3471 24.6018L64.8457 24.59L64.3442 24.5723L63.6362 23.7464ZM82.3265 12.8909L82.3442 18.7198L82.356 24.5487L90.4091 24.5133L90.7336 24.3481C91.005 24.2124 91.1053 24.1121 91.3117 23.7876C91.4474 23.5752 91.5595 23.357 91.5595 23.3039C91.5595 23.2508 91.5831 23.1859 91.6126 23.1505C91.6421 23.121 91.707 22.9676 91.7542 22.8024L91.7815 22.7203C91.8415 22.5393 91.9401 22.2424 92.0256 22.0059L92.0409 21.9654C92.142 21.6971 92.1883 21.5743 92.1483 21.4952C92.1145 21.4284 92.0191 21.3927 91.8433 21.3269L91.8132 21.3157C91.6303 21.2508 91.6244 21.2508 91.5536 21.4632C91.5182 21.5752 91.4061 21.7935 91.3176 21.941C91.2233 22.0885 91.1229 22.2655 91.0935 22.3304C91.005 22.5251 90.4209 23.0443 90.1082 23.2036C89.5005 23.5103 89.2114 23.5398 87.0581 23.5398H85.0699V18.0531H90.3029L90.3265 17.1092H85.0699V12.0826L87.005 12.1121C88.4799 12.1298 89.005 12.1593 89.2291 12.2242C89.9902 12.4484 90.415 12.8437 90.6097 13.4985C90.6805 13.7227 90.7336 13.9587 90.7336 14.0236C90.7336 14.0885 90.7513 14.2301 90.769 14.3304C90.8044 14.5074 90.8162 14.5133 91.1229 14.5133H91.4415V13.6106C91.4415 11.9941 91.2291 11.5162 90.3796 11.2331C90.0787 11.1269 89.7601 11.121 85.5418 11.1092C83.0581 11.0974 80.9519 11.1092 80.8634 11.1269C80.7041 11.1623 80.6982 11.1741 80.7159 11.4632L80.7336 11.7699L81.1996 11.8407C81.4533 11.882 81.707 11.9528 81.7601 12C81.8191 12.0531 81.8899 12.0944 81.9253 12.0944C81.9607 12.0944 82.0669 12.2714 82.1554 12.4956L82.3265 12.8909ZM10.0256 23.8643C9.96068 23.7817 9.93118 23.5575 9.91938 22.9263C9.90168 22.118 9.90758 22.0767 10.1141 21.416C10.4445 20.3481 10.4976 20.1298 10.4976 19.8348C10.4976 18.8083 9.87218 17.3629 9.22911 16.9027C9.16852 16.8603 9.13904 16.8396 9.14228 16.8288C9.14536 16.8185 9.17778 16.8171 9.24091 16.8142C9.4179 16.8142 9.84268 16.9853 10.0197 17.1328C10.4858 17.528 10.586 17.6283 10.7571 17.8997C11.1111 18.4543 11.3058 18.9263 11.4179 19.4573C11.5182 19.9705 11.5182 20.0118 11.4179 20.4543C11.3589 20.708 11.2645 21.0266 11.1996 21.1623C11.1406 21.3039 11.0875 21.4337 11.0875 21.4514C11.0875 21.4691 10.9813 21.705 10.8515 21.9764C10.7217 22.2478 10.6155 22.4838 10.6155 22.5074C10.6155 22.531 10.5683 22.6608 10.5035 22.7965C10.3737 23.0915 10.2026 23.5693 10.1495 23.7994C10.1141 23.9587 10.1082 23.9646 10.0256 23.8643ZM0.119988 22.59C0.0491911 22.7965 -0.00390625 23.0207 -0.00390625 23.0797C-0.00390625 23.1387 0.00789316 23.1859 0.0196926 23.1859C0.031492 23.1859 0.167185 22.9912 0.326477 22.7611C0.67456 22.2301 1.67161 21.2213 2.14949 20.9086C2.34418 20.7788 2.72766 20.5605 3.00494 20.4189C3.28223 20.2714 3.58901 20.1062 3.68341 20.0531C3.7837 19.9941 3.9666 19.8879 4.09639 19.8172C4.22618 19.7464 4.44447 19.6107 4.58016 19.5222C4.71586 19.4278 4.85155 19.3511 4.88105 19.3511C4.91055 19.3511 4.98134 19.298 5.04034 19.2331C5.09934 19.1682 5.17603 19.1151 5.21143 19.1151C5.25273 19.1151 5.31763 19.062 5.36483 18.9971C5.41202 18.9322 5.47692 18.8791 5.50642 18.8791C5.58311 18.8791 6.16129 18.4366 6.47987 18.1298C6.62736 17.9941 6.76896 17.8762 6.79845 17.8762C6.82205 17.8762 6.83975 17.8467 6.83975 17.8113C6.83975 17.7759 6.91645 17.6874 7.01084 17.6048C7.11114 17.5222 7.24683 17.357 7.32353 17.239C7.39432 17.121 7.48872 16.9853 7.53002 16.944C7.57132 16.8968 7.68341 16.767 7.77191 16.649C7.8604 16.5251 7.9607 16.4012 7.99609 16.3658L8.01972 16.3381C8.06282 16.2873 8.13471 16.2026 8.20258 16.1298C8.27928 16.0354 8.47987 15.8526 8.63916 15.7287C8.89909 15.5214 9.00426 15.4376 8.99203 15.4136C8.98373 15.3973 8.92119 15.4087 8.81615 15.4278C8.25568 15.5222 7.52412 16.0118 6.59786 16.9086C6.41497 17.0856 6.23798 17.2272 6.20258 17.2272C6.16719 17.2272 6.13179 17.2449 6.11999 17.2744C6.10229 17.3216 5.71291 17.6166 5.51232 17.7405C5.44742 17.7818 5.15244 17.9646 4.85155 18.1475C4.55067 18.3304 4.27928 18.5133 4.23798 18.5605C4.20258 18.6077 4.14359 18.6431 4.11409 18.6431C4.06689 18.6431 3.08754 19.2449 2.20848 19.8172C1.27633 20.4189 0.46807 21.4927 0.119988 22.59ZM13.9548 19.7345C13.9017 19.6579 13.8604 19.5753 13.8604 19.5517C13.8604 19.5281 13.825 19.4632 13.7837 19.416C13.648 19.2626 13.4592 18.6903 13.4179 18.3481C13.4002 18.1711 13.3884 17.7463 13.4002 17.4042C13.4356 15.7345 13.4297 15.6284 13.2468 15.2862C13.1583 15.1151 12.9636 14.8437 12.822 14.6903C12.6804 14.5369 12.5625 14.4012 12.5625 14.3835C12.5625 14.3658 12.6922 14.3717 12.8515 14.4012C13.4533 14.4956 13.9135 14.8614 14.2085 15.4868C14.3737 15.8407 14.3914 15.9233 14.3914 16.4779C14.3914 16.8083 14.3501 17.2921 14.3029 17.5517C14.2557 17.8112 14.1967 18.4425 14.179 18.9558C14.1554 19.4632 14.12 19.882 14.0964 19.882C14.0728 19.882 14.0079 19.8171 13.9548 19.7345ZM9.59489 14.3245C9.67749 14.2124 9.88398 13.5989 9.97247 13.1918C10.12 12.5133 10.0492 11.5458 9.80728 11.0561C9.59489 10.6077 9.18191 10.2655 8.86333 10.2655C8.67454 10.2655 8.69224 10.1357 8.89873 10.0119C9.15241 9.86436 9.72468 9.87616 10.0433 10.0355C10.4621 10.2478 10.7335 10.6018 10.9046 11.1564C11.0462 11.6107 10.9282 12.9499 10.7217 13.2036C10.6804 13.2626 10.5919 13.4042 10.527 13.5281C10.3973 13.7877 9.77188 14.3953 9.63029 14.3953C9.56539 14.3953 9.55359 14.3717 9.59489 14.3245ZM12.3206 12.5133C12.2262 12.7257 12.1495 12.9204 12.1495 12.944C12.1495 13.0207 12.5801 12.6136 12.7689 12.3599C13.176 11.8171 13.6834 10.8319 13.6834 10.5959C13.6834 10.5251 13.707 10.4425 13.7306 10.4071C13.7837 10.354 13.8427 10.1475 14.002 9.46904C14.061 9.24485 14.1436 8.47199 14.1849 7.75812C14.2321 7.04426 14.3088 6.236 14.356 5.95871C14.4326 5.48084 14.6922 4.69618 14.8102 4.57228C14.8397 4.54278 14.8633 4.47199 14.8633 4.41299C14.8633 4.35989 14.9105 4.2832 14.9754 4.2537C15.0344 4.2183 15.0993 4.1298 15.117 4.05901C15.1406 3.98231 15.2409 3.82302 15.3471 3.70503C15.6244 3.39824 15.7129 3.24485 15.6067 3.24485C15.5654 3.24485 15.4651 3.29205 15.3884 3.35694C15.3117 3.41594 15.1701 3.50444 15.0698 3.55753C14.8161 3.68733 14.1495 4.37169 14.0079 4.64308C13.9489 4.76697 13.8722 4.90267 13.8368 4.94396C13.5241 5.36874 13.2114 6.79647 13.2114 7.78762C13.2114 8.50149 13.0403 9.97051 12.8751 10.6195C12.822 10.8319 12.763 11.121 12.7394 11.2684C12.6922 11.5693 12.5624 11.9528 12.3206 12.5133Z" fill="white"/>
</g>
<defs>
<clipPath id="clip0_2045_3">
<rect width="92.9794" height="40" fill="white" transform="translate(-0.00390625)"/>
</clipPath>
</defs>
</svg>
