<svg width="50" height="50" viewBox="0 0 50 50" fill="none" xmlns="http://www.w3.org/2000/svg">
<g clip-path="url(#clip0_2043_251)">
<rect width="50" height="50" rx="2" fill="black"/>
<path d="M2 3C2 2.44771 2.44772 2 3 2H11L4.61647 20.1685C4.54108 20.3831 4.54108 20.6169 4.61647 20.8315L11 39H3C2.44772 39 2 38.5523 2 38V3Z" fill="#ED1C29"/>
<path d="M39 2H47C47.5523 2 48 2.44772 48 3V38C48 38.5523 47.5523 39 47 39H39L45.3835 20.8315C45.4589 20.6169 45.4589 20.3831 45.3835 20.1685L39 2Z" fill="#ED1C29"/>
<path fill-rule="evenodd" clip-rule="evenodd" d="M2 49C1.44771 49 1 48.5523 1 48V2C1 1.44771 1.44772 1 2 1H48.0031C48.5542 1 49.0014 1.44581 49.0031 1.99687V48C49.0031 48.5523 48.5554 49 48.0031 49H2ZM14.1181 46.8365C15.3236 46.3835 15.987 45.0485 15.6958 43.6488C15.4369 42.3786 14.6683 41.6747 13.3657 41.5129C12.1521 41.3592 11.1407 41.6747 10.4854 42.4029C10.0323 42.9045 9.87052 43.4061 9.87052 44.2556C9.87052 46.1246 11.0194 47.1521 12.9854 47.0469C13.3899 47.0307 13.8268 46.9498 14.1181 46.8365ZM20.3074 46.9255C20.8495 46.8204 21.2459 46.6343 21.6019 46.3107C21.9903 45.9547 22.1278 45.5582 22.0469 45.0081C21.9984 44.6844 21.9255 44.555 21.6181 44.2556C21.1974 43.8511 20.9547 43.7621 19.4013 43.4061C18.309 43.1553 18.1553 43.0744 18.2362 42.7751C18.3009 42.4919 18.5356 42.3786 19.0857 42.3705C19.6359 42.3705 19.9514 42.5162 20.3236 42.9611C20.5987 43.2767 20.623 43.2848 21.1003 43.2848H21.6019V42.6375C21.6019 42.0145 21.5938 41.9903 21.3835 41.877C21.0518 41.7152 20.5987 41.6019 19.8139 41.5048C18.4951 41.343 17.322 41.6747 16.788 42.3382C16.5776 42.6132 16.5453 42.7103 16.5534 43.1472C16.5696 44.2071 17.0954 44.6521 18.7378 44.9838C20.0809 45.2508 20.4207 45.4369 20.2265 45.7929C20.0404 46.1408 18.9806 46.2297 18.398 45.9547C18.2119 45.8576 17.9692 45.6634 17.8721 45.5097C17.6861 45.2346 17.6618 45.2265 17.1359 45.2265H16.5857V46.4401L16.8932 46.5938C17.7103 47.0145 19.1343 47.1521 20.3074 46.9255ZM36.5048 46.9741C37.1602 46.8285 37.4514 46.6828 37.8155 46.3107C38.123 45.9951 38.3252 45.623 38.398 45.2265L38.4547 44.9757L36.7961 45.0242L36.6424 45.4288C36.4644 45.9061 36.2378 46.1165 35.9061 46.1165C35.3155 46.1165 35.0162 45.623 34.9676 44.5307C34.9272 43.6408 35.089 42.9692 35.4369 42.6294C35.8657 42.2006 36.4725 42.3948 36.6424 43.0097L36.699 43.2443L38.3576 43.2929L38.3333 42.6618C38.309 42.0631 38.3009 42.0307 38.0663 41.8932C37.5971 41.6262 36.8204 41.4806 35.8414 41.4806C35.0566 41.4806 34.8301 41.5048 34.4336 41.6666C33.7783 41.9174 33.2281 42.4433 33.0016 43.034C32.7508 43.6731 32.7508 44.8382 33.0016 45.4854C33.4789 46.7152 34.8867 47.3139 36.5048 46.9741ZM45.267 46.9094C46.6586 46.61 47.322 45.6068 46.8042 44.5793C46.5372 44.0534 46.1165 43.843 44.6116 43.487C43.2362 43.1553 43.123 43.1068 43.123 42.8398C43.123 42.4595 43.7621 42.2492 44.4013 42.411C44.6763 42.4757 44.8786 42.6052 45.1537 42.8964C45.5178 43.2767 45.534 43.2848 46.0275 43.2848H46.521V42.6375C46.521 42.0064 46.5129 41.9903 46.2783 41.8689C45.8819 41.6666 44.9029 41.4886 44.0938 41.4806C42.8236 41.4644 41.9094 41.8365 41.5857 42.5081C41.1893 43.3333 41.6019 44.3123 42.5081 44.6925C42.6537 44.7492 43.2119 44.8948 43.7621 45.0081C44.8786 45.2427 45.1456 45.3721 45.1456 45.6796C45.1456 45.9466 44.7492 46.1165 44.1181 46.1165C43.5275 46.1165 43.0501 45.9061 42.7589 45.5178C42.5404 45.2346 42.5242 45.2265 41.9822 45.2265H41.4239V45.7929C41.4239 46.3511 41.432 46.3673 41.6909 46.521C42.4514 46.9984 44.0534 47.1683 45.267 46.9094ZM9.20709 46.9579C9.36082 46.9094 9.38509 46.8527 9.38509 46.4806C9.38509 46.1246 9.36082 46.0356 9.23137 45.9951C9.08573 45.9466 7.55661 44.2718 7.61324 44.2233C7.62942 44.2152 7.81551 44.11 8.01777 43.9886C8.7702 43.5598 9.02101 43.0259 8.77829 42.411C8.67311 42.1521 8.54366 42.0064 8.26049 41.8446L7.88832 41.6262L2.9935 41.5776V42.0226C2.9935 42.3786 3.01777 42.4757 3.11486 42.4757C3.18767 42.4757 3.33331 42.5647 3.43848 42.678C3.64075 42.8721 3.64075 42.8964 3.64075 44.2556C3.64075 45.6149 3.64075 45.6391 3.43848 45.8333C3.33331 45.9466 3.18767 46.0356 3.11486 46.0356C3.01777 46.0356 2.9935 46.1327 2.9935 46.4806V46.9255H6.22975V46.4806C6.22975 46.1569 6.19738 46.0356 6.11648 46.0356C6.05984 46.0356 5.91421 45.9628 5.79285 45.8657C5.61486 45.7281 5.5825 45.6391 5.5825 45.267C5.5825 44.5712 5.76049 44.6197 6.56146 45.534C7.33816 46.4158 7.75078 46.7395 8.30903 46.8932C8.75402 47.0145 8.94819 47.0226 9.20709 46.9579ZM27.0226 46.4886C27.0226 46.1165 26.9984 46.0356 26.8608 45.9951C26.7718 45.9708 26.6262 45.8495 26.5372 45.7362C26.3916 45.542 26.3754 45.4126 26.3754 44.0048C26.3754 42.8317 26.3997 42.4757 26.4806 42.4757C26.7071 42.4757 27.0954 42.7993 27.1925 43.0744C27.2977 43.3576 27.3058 43.3657 27.7265 43.3657H28.1553V41.5857H22.6537V43.3657H23.123C23.5841 43.3657 23.5922 43.3576 23.6974 43.0825C23.8107 42.7751 24.1343 42.4757 24.3608 42.4757C24.5064 42.4757 24.5145 42.5647 24.5145 44.0534C24.5145 45.631 24.5145 45.6391 24.3123 45.8333C24.2071 45.9466 24.0615 46.0356 23.9886 46.0356C23.8916 46.0356 23.8673 46.1327 23.8673 46.4806V46.9255H27.0226V46.4886ZM32.2006 46.4806C32.2006 46.1327 32.1763 46.0356 32.0793 46.0356C32.0064 46.0356 31.8608 45.9466 31.7556 45.8333C31.5534 45.6391 31.5534 45.6149 31.5534 44.2395C31.5534 42.7022 31.61 42.4757 32.0064 42.4757C32.1925 42.4757 32.2006 42.4514 32.2006 42.0307V41.5857H29.0453V42.0307C29.0453 42.4191 29.0615 42.4757 29.2071 42.4757C29.2961 42.4757 29.4417 42.5485 29.5307 42.6375C29.6763 42.7831 29.6925 42.9045 29.6925 44.1343C29.6925 45.5825 29.644 45.809 29.2718 45.9708C29.0615 46.0679 29.0453 46.1084 29.0453 46.4967V46.9255H32.2006V46.4806ZM40.7039 42.7831L40.898 41.6262L40.0566 41.6019C39.5954 41.5938 39.2071 41.5938 39.199 41.6019C39.1909 41.6181 39.199 42.144 39.2233 42.7831L39.2637 43.932H40.5097L40.7039 42.7831ZM10.9628 38.5356C10.9385 38.4547 9.44172 34.3446 7.63751 29.4013L4.36891 20.4126L10.9789 2.22489L6.73136 2.20062C2.86405 2.18444 2.46761 2.19253 2.33007 2.31389C2.19253 2.45143 2.18444 3.0825 2.18444 20.5663V38.6731H6.60191C10.7767 38.6731 11.0194 38.665 10.9628 38.5356ZM47.8155 20.5663C47.8155 3.0825 47.8074 2.45143 47.6699 2.31389C47.5323 2.19253 47.1359 2.18444 43.2605 2.20062L39.0129 2.22489L45.631 20.4126L42.3463 29.4417C40.534 34.4094 39.0372 38.5194 39.021 38.576C38.9886 38.6488 39.8948 38.6731 43.398 38.6731H47.8155V20.5663ZM37.9611 31.5938L38.4142 31.4563L38.5437 30.7119C38.6165 30.3074 38.7621 29.4984 38.8673 28.9158L39.0534 27.856L38.5841 27.7589C37.6861 27.5809 37.5647 27.4433 34.7815 23.7459C33.3738 21.877 32.2411 20.3236 32.2734 20.2993C32.2977 20.267 32.7346 20.0728 33.2443 19.8543C35.0323 19.1019 36.5938 18.1149 37.5323 17.1602C40.0728 14.5712 39.3285 10.7929 36.0518 9.7168L35.9542 9.68418C35.8083 9.63528 35.6799 9.59228 35.5501 9.55441C34.603 9.27821 33.5762 9.27524 25.0604 9.2506L24.0129 9.24755C14.3042 9.21518 13.843 9.22327 13.8026 9.36082C13.7459 9.57117 13.1877 12.7589 13.1877 12.9045C13.1877 13.0016 13.2929 13.0259 13.6569 13.0259C14.9029 13.0259 15.8819 13.7217 16.1003 14.7573C16.1812 15.1537 16.1246 15.5744 15.2831 20.3155L15.2695 20.393C14.2718 26.0762 14.2684 26.0954 13.5194 26.8042C12.7831 27.5081 11.9741 27.8317 10.9628 27.8317C10.72 27.8317 10.5178 27.8641 10.5178 27.8964C10.5178 27.9611 9.98379 31.0437 9.90289 31.4158L9.85434 31.6343H17.3463C22.2492 31.6343 24.8382 31.61 24.8382 31.5534C24.8382 31.4725 25.3802 28.3333 25.445 28.0259C25.4854 27.8641 25.445 27.8479 24.7734 27.8155C23.9725 27.7751 23.4223 27.5728 22.9854 27.1602C22.6213 26.8123 22.3301 26.1812 22.3301 25.7281C22.3301 25.3883 22.7103 23.0582 22.7751 22.9935C22.7912 22.9773 23.131 22.8802 23.5356 22.7751L24.2718 22.589L24.5469 22.9288C24.6925 23.1068 25.6472 24.3851 26.6666 25.7686C27.7993 27.3058 28.7702 28.5275 29.1747 28.932C30.5663 30.3317 32.1925 31.2297 34.0615 31.6424C34.9676 31.8446 37.2411 31.8123 37.9611 31.5938ZM12.3058 45.9143C11.8527 45.3317 11.8608 43.1715 12.3139 42.5971C12.4515 42.4191 12.5324 42.3868 12.8074 42.411C13.3819 42.4515 13.5841 42.9288 13.5922 44.2638C13.5922 45.0809 13.4547 45.7039 13.2201 45.9628C13.0097 46.1974 12.5162 46.1732 12.3058 45.9143ZM5.78478 42.597C5.5987 42.775 5.58252 42.8559 5.58252 43.5679C5.58252 43.9886 5.5987 44.3365 5.62297 44.3365C5.88187 44.3365 6.73948 43.6326 6.92556 43.2767C7.08737 42.9611 7.07119 42.8236 6.83656 42.597C6.69093 42.4433 6.55339 42.3948 6.31067 42.3948C6.06796 42.3948 5.93042 42.4433 5.78478 42.597ZM34.8787 29.8463C34.2881 29.733 33.7379 29.5308 33.0906 29.199C31.6991 28.479 30.6716 27.4757 28.8916 25.0809C28.5582 24.6293 28.1432 24.0697 27.7514 23.5413C27.3922 23.057 27.0522 22.5984 26.8123 22.2735L25.8981 21.0518L27.047 20.4045C30.0162 18.7298 31.7719 17.1036 32.3949 15.4612C32.5243 15.0971 32.5648 14.822 32.5648 14.0777C32.5648 13.2201 32.5486 13.1149 32.3382 12.678C31.8932 11.7799 30.9305 11.0518 29.8706 10.8333C29.1182 10.6796 27.7508 10.7767 26.9822 11.0356C25.3317 11.5939 24.0211 12.8236 23.5518 14.2638C23.4628 14.5388 22.9855 17.1683 22.4838 20.1052C21.4968 25.9547 21.4806 26.1651 21.8447 27.0065C22.1198 27.6376 22.7589 28.1958 23.4466 28.39C23.746 28.479 24.1586 28.568 24.3771 28.6003L24.3917 28.6023C24.5624 28.6252 24.6611 28.6385 24.7086 28.6949C24.7737 28.7721 24.7429 28.9303 24.6697 29.3051L24.6683 29.3123L24.5712 29.7735H12.2169V29.555C12.2249 29.2071 12.3544 28.7055 12.4677 28.6408C12.5162 28.6003 12.7104 28.5518 12.8965 28.5275C13.0745 28.4952 13.5194 28.3333 13.8754 28.1554C15 27.6133 15.9547 26.5777 16.2622 25.5744C16.3431 25.3236 16.8123 22.7832 17.322 19.9191C18.2039 14.8867 18.2363 14.7007 18.1473 14.1829C18.0097 13.4062 17.6457 12.7185 17.0712 12.1926C16.6182 11.7719 15.8495 11.3269 15.5826 11.3269C15.4288 11.3269 15.4207 11.1812 15.5421 10.5664L15.6392 10.1133L25.2751 10.1295C34.3528 10.1537 34.9434 10.1618 35.4369 10.3075C36.1813 10.5178 37.2088 11.0113 37.5648 11.3269C38.7703 12.3787 38.6327 14.2638 37.2411 15.712C36.1327 16.8528 34.4337 17.767 30.9385 19.0939C30.7444 19.1667 30.8334 19.3042 33.7622 23.1958C35.4288 25.4126 36.9337 27.3544 37.1036 27.5162C37.2816 27.6699 37.5971 27.8722 37.8075 27.9612C38.2363 28.1311 38.2363 28.1392 38.0987 28.9563C37.9774 29.6683 37.9288 29.7411 37.5081 29.8463C37.0874 29.9515 35.4046 29.9515 34.8787 29.8463ZM34.8949 27.3625C34.5371 26.8987 33.5662 25.6319 32.5554 24.313L31.8851 23.4385C30.6716 21.8528 29.636 20.5502 29.5874 20.5502C29.466 20.5502 28.3981 21.2217 28.3981 21.3026C28.3981 21.3835 31.6748 25.8091 32.2169 26.4644C32.9855 27.3948 34.6279 28.3738 35.4612 28.39C35.6716 28.3981 35.6473 28.3495 34.8949 27.3625ZM20.712 28.2686C20.712 28.2444 20.623 28.1149 20.5178 27.9855C20.0648 27.4515 19.7654 26.1165 19.8544 25.0809C19.9596 23.9806 21.6829 14.3932 21.8932 13.7541C22.144 13.0097 22.5 12.3706 22.9207 11.9175L23.2444 11.5696H19.0858L19.28 11.8366C19.7816 12.5 19.9838 13.1796 19.9838 14.2071C19.9838 14.7816 19.7978 16.0113 19.0939 19.9919C18.6004 22.767 18.1311 25.3075 18.0421 25.6311C17.8156 26.4563 17.3544 27.3463 16.8851 27.8722L16.4887 28.3172H18.6004C19.7654 28.3172 20.712 28.2929 20.712 28.2686ZM34.9919 15.6554C35.5664 15.2508 36.246 14.5469 36.4563 14.1505C37.0955 12.9288 35.7525 11.4887 33.9644 11.4887H33.5761L33.8512 12.0388C34.547 13.4223 34.4175 14.9353 33.4871 16.3269L33.3091 16.602L33.9078 16.3026C34.2395 16.1327 34.7249 15.8414 34.9919 15.6554ZM24.1505 15.2104C24.0372 15.5259 23.1392 20.5744 23.1392 20.89C23.1392 21.0032 23.2929 20.9547 23.9725 20.6392C26.424 19.4903 28.8026 17.8722 29.7006 16.7314C30.6877 15.4854 30.8657 14.1828 30.1537 13.3819C29.733 12.8964 29.199 12.678 28.3495 12.6375C27.4595 12.5971 26.9013 12.7023 26.1408 13.0663C25.2023 13.5194 24.4741 14.3042 24.1505 15.2104Z" fill="white"/>
</g>
<defs>
<clipPath id="clip0_2043_251">
<rect width="50" height="50" fill="white"/>
</clipPath>
</defs>
</svg>
