<svg width="122" height="16" viewBox="0 0 122 16" fill="none" xmlns="http://www.w3.org/2000/svg">
<g clip-path="url(#clip0_2045_11)">
<path d="M26.8493 0.230591C22.0172 0.230591 18.7166 3.0042 18.7166 7.97994C18.7166 12.9557 21.7986 15.7503 26.8493 15.7503C31.8999 15.7503 35.0416 12.9555 35.0416 7.97994C35.0416 3.0044 31.9397 0.230591 26.8493 0.230591ZM26.8493 13.167C25.3379 13.167 24.6223 11.4522 24.6223 7.97973C24.6223 4.50728 25.3381 2.72866 26.8493 2.72866C28.3605 2.72866 29.1162 4.48609 29.1162 7.97973C29.1162 11.4734 28.3805 13.167 26.8493 13.167Z" fill="white"/>
<path d="M99.5509 7.02716H103.15L104.303 0.54834H99.531L99.5509 7.02716Z" fill="white"/>
<path d="M90.4154 13.1672C88.6853 13.1672 87.8104 10.8381 87.8104 7.97994C87.8104 5.12173 88.9437 2.79245 90.6539 2.79245C92.0553 2.79245 92.5618 4.49837 92.6989 5.37073H97.1563V1.83985C95.4464 0.717687 93.239 0.209595 89.9581 0.209595C84.132 0.209595 81.885 3.68186 81.885 7.98015C81.885 12.2784 84.132 15.7083 89.9581 15.7083C95.0594 15.7083 97.0307 12.9735 97.53 10.0388H92.8061C92.5803 11.5598 91.9958 13.1676 90.4154 13.1676V13.1672Z" fill="white"/>
<path d="M47.7781 6.22268L44.3578 5.43925C42.7273 5.05812 41.7727 4.88876 41.7727 4.08411C41.7727 3.27949 42.7273 2.70782 44.3578 2.70782C46.0996 2.70782 47.2124 3.73054 48.1944 5.18014H51.2378V1.75502C50.0447 0.844614 46.6844 0.209351 44.3578 0.209351C39.8835 0.209351 37.1396 2.03016 37.1396 4.80396C37.1396 7.57779 38.7493 9.06403 42.2898 9.8007L44.3575 10.203C46.4852 10.6263 47.4796 10.9865 47.4796 11.7909C47.4796 12.5953 46.4655 13.0824 44.3575 13.0824C42.4547 13.0824 41.1925 12.2021 40.3215 10.6101H37.2387V13.8658C38.5908 14.7339 40.7185 15.6657 44.3575 15.6657C49.1895 15.6657 52.4504 13.8872 52.4504 10.8171C52.4504 8.4458 50.9395 6.94252 47.7778 6.22268H47.7781Z" fill="white"/>
<path d="M54.0308 5.58251H56.611C56.7447 4.30387 57.7675 2.96935 59.1012 3.068C59.1019 3.068 59.1022 3.068 59.1028 3.068L59.1408 11.1983C59.1408 12.0663 58.3254 12.8497 57.4309 12.8497H57.3714V15.3692H66.1403V12.8497H66.0809C65.1858 12.8497 64.3707 12.0663 64.3707 11.1983L64.3308 3.068C65.5438 3.13158 66.5977 4.16896 66.6376 5.35471L66.6445 5.58272H69.2226V0.54834H54.0308V5.58251Z" fill="white"/>
<path d="M71.5334 3.06797H72.0506C72.7664 3.06797 73.3031 3.61843 73.3031 4.35947V11.1984C73.3031 12.0664 72.488 12.8499 71.5932 12.8499H71.5334V15.3693H80.3024V12.8499H80.2429C79.3481 12.8499 78.533 12.0664 78.533 11.1984V4.35929C78.533 3.61843 79.0299 3.06775 79.7457 3.06775H80.3024V0.548096H71.5334V3.06797Z" fill="white"/>
<path d="M16.4251 12.2144L12.647 7.87416C14.9734 6.83661 16.2262 5.65104 16.2262 4.0418C16.2262 1.58572 13.8399 0.54834 11.7124 0.54834H0.0800781V3.068C0.974934 3.068 1.77016 3.85143 1.77016 4.71945V11.1983C1.77016 12.0663 0.974735 12.8497 0.0800781 12.8497V15.3692H8.85309V12.8497H8.76968C7.87483 12.8497 7.05964 12.0663 7.05964 11.1983V9.65261L7.97427 9.39845L10.937 12.8285C12.309 14.4164 14.3175 15.4878 16.2661 15.4878C16.5909 15.4878 17.0045 15.4674 17.5423 15.3821V12.8497C16.9351 12.8497 16.5309 12.3436 16.4251 12.2144ZM7.05943 8.36108L7.03947 4.86761C7.03947 3.49131 8.19268 2.77146 9.26643 2.77146C10.1811 2.77146 11.0362 3.30076 11.0362 4.40171C11.0362 6.13795 8.25255 7.74701 7.05943 8.36108Z" fill="white"/>
<path d="M116.295 6.22268L112.875 5.43925C111.245 5.05812 110.29 4.88876 110.29 4.08411C110.29 3.27949 111.245 2.70782 112.875 2.70782C114.617 2.70782 115.73 3.73054 116.712 5.18014H119.755V1.75502C118.562 0.844614 115.202 0.209351 112.875 0.209351C108.401 0.209351 105.657 2.03016 105.657 4.80396C105.657 7.57779 107.267 9.06403 110.807 9.8007L112.875 10.203C115.003 10.6263 115.997 10.9865 115.997 11.7909C115.997 12.5953 114.983 13.0824 112.875 13.0824C110.972 13.0824 109.71 12.2021 108.839 10.6101H105.756V13.8658C107.108 14.7339 109.236 15.6657 112.875 15.6657C117.707 15.6657 120.968 13.8872 120.968 10.8171C120.968 8.4458 119.457 6.94252 116.295 6.22268Z" fill="white"/>
</g>
<defs>
<clipPath id="clip0_2045_11">
<rect width="121.057" height="16" fill="white" transform="translate(0.0800781)"/>
</clipPath>
</defs>
</svg>
