<svg width="145" height="24" viewBox="0 0 145 24" fill="none" xmlns="http://www.w3.org/2000/svg">
<g clip-path="url(#clip0_2045_18)">
<path fill-rule="evenodd" clip-rule="evenodd" d="M38.5592 15.2502C37.7992 15.6693 36.9499 15.8891 36.0801 15.8891C33.4911 15.8891 31.621 14.0191 31.621 11.4468C31.621 8.8746 33.4911 7.00457 36.0801 7.00457C37.0151 6.98408 37.9296 7.29141 38.6895 7.84087L40.757 6.30238L40.6266 6.17013C39.4308 5.0917 37.8197 4.54224 35.9925 4.54224C34.0145 4.54224 32.2078 5.22394 30.9039 6.45511C29.5983 7.73098 28.8588 9.51161 28.9017 11.3593C28.8793 13.2275 29.5983 15.0304 30.9039 16.3491C32.2729 17.6474 34.1001 18.3738 35.972 18.3291C38.0376 18.3291 39.8425 17.6027 41.0606 16.284L39.2129 14.8982L38.5592 15.2502ZM49.8278 9.95118H46.3466V6.96174H51.9158L54.9182 4.71919H43.4764V18.154H49.4571C52.8079 18.154 54.7432 16.6136 54.7432 13.9315C54.7432 11.3593 53.0035 9.95118 49.8278 9.95118ZM49.3491 15.9096H46.3466V12.1937H49.3491C51.1763 12.1937 52.0238 12.8102 52.0238 14.0638C52.0238 15.3173 51.1111 15.9096 49.3491 15.9096ZM64.4677 6.96174L67.4683 4.71919H57.4197V18.154H67.4683V15.9096H60.29V12.4806H66.4253V10.238H60.29V6.96174H64.4677ZM70.1449 4.71919H75.6041C79.1058 4.71919 81.2813 6.56501 81.2813 9.53397C81.2813 12.5029 79.1058 14.3487 75.6265 14.3487H73.0151V18.154H70.1449V4.71919ZM72.9946 12.1062H75.5389C77.3885 12.1062 78.3887 11.1824 78.3887 9.53397C78.3887 7.88558 77.3885 6.96174 75.5389 6.96174H72.9946V12.1062ZM115.802 18.1745V4.74154H118.673V10.2604H124.786V4.74154H127.658V18.1745H124.786V12.678H118.673V18.1745H115.802ZM113.888 18.1745H110.865L109.777 15.47H103.686L102.533 18.1745H99.6407L105.361 4.74154H108.276L113.888 18.1745ZM106.774 7.84088L104.556 13.2275H108.862L106.774 7.84088ZM135.879 12.7451H134.097V18.154H131.225V4.71919H134.097V10.4802H135.684L139.947 4.71919H143.231L138.097 11.2047L143.97 18.154H140.273L135.879 12.7451ZM90.1565 6.98409V9.97354H93.6358C96.8133 9.97354 98.553 11.3816 98.553 13.9539C98.553 16.636 96.6159 18.1745 93.267 18.1745H87.2844V4.74154H97.6608V6.98409H90.1565ZM90.1565 12.2161V15.9543H93.159C94.9414 15.9543 95.8336 15.3396 95.8336 14.0861C95.8336 12.8326 94.9843 12.2161 93.159 12.2161H90.1565Z" fill="white"/>
<path d="M19.9184 4.63159C20.44 5.3133 20.8758 6.06019 21.2446 6.85179L11.196 14.3487L6.97534 11.6666V8.45734L11.1736 11.1171L19.9184 4.63159Z" fill="white"/>
<path d="M2.68955 11.4468C2.68955 11.2922 2.68955 11.1618 2.7119 11.0072L0.167615 10.875C0.167615 11.0519 0.145264 11.2494 0.145264 11.4245C0.145264 14.5033 1.38574 17.2953 3.38616 19.3181L5.191 17.4928C3.64692 15.9543 2.68955 13.8216 2.68955 11.4468Z" fill="white"/>
<path d="M11.1737 2.87142C11.3264 2.87142 11.4568 2.87142 11.6095 2.89377L11.7399 0.321545C11.5648 0.321545 11.3693 0.299194 11.196 0.299194C8.15072 0.299194 5.38851 1.55271 3.38623 3.57548L5.19107 5.40081C6.71467 3.83996 8.84546 2.87142 11.1737 2.87142Z" fill="white"/>
<path d="M11.1736 20.0222C11.0209 20.0222 10.8905 20.0222 10.7378 19.9998L10.6074 22.5721C10.7825 22.5721 10.9781 22.5944 11.1513 22.5944C14.1966 22.5944 16.9607 21.3409 18.9611 19.3181L17.1563 17.4928C15.6327 19.076 13.5224 20.0222 11.1736 20.0222Z" fill="white"/>
<path d="M15.9586 4.36709L18.1117 2.76154C16.2193 1.22305 13.8054 0.276855 11.1736 0.276855V2.84908C12.9579 2.87143 14.61 3.4209 15.9586 4.36709Z" fill="white"/>
<path d="M22.2242 11.4468C22.2242 10.7651 22.1591 10.1058 22.0492 9.44641L19.6781 11.227C19.6781 11.2922 19.6781 11.3816 19.6781 11.4468C19.6781 13.9762 18.5903 16.2411 16.873 17.802L18.5903 19.7148C20.8105 17.6921 22.2242 14.7231 22.2242 11.4468Z" fill="white"/>
<path d="M11.1737 20.0221C8.67227 20.0221 6.43158 18.9232 4.8875 17.1854L2.99512 18.9232C5.01788 21.1881 7.93282 22.5944 11.1737 22.5944V20.0221Z" fill="white"/>
<path d="M5.49646 5.09171L3.7773 3.17883C1.53661 5.22395 0.145264 8.17055 0.145264 11.4468H2.68955C2.68955 8.9398 3.7773 6.65441 5.49646 5.09171Z" fill="white"/>
</g>
<defs>
<clipPath id="clip0_2045_18">
<rect width="144" height="24" fill="white" transform="translate(0.0800781)"/>
</clipPath>
</defs>
</svg>
