<svg width="300" height="50" viewBox="0 0 300 50" fill="none" xmlns="http://www.w3.org/2000/svg">
<g clip-path="url(#clip0_2043_38)">
<path fill-rule="evenodd" clip-rule="evenodd" d="M80.1584 31.7713C78.5752 32.6443 76.8057 33.1022 74.9936 33.1022C69.5998 33.1022 65.7039 29.2063 65.7039 23.8475C65.7039 18.4887 69.5998 14.5928 74.9936 14.5928C76.9415 14.5501 78.8468 15.1904 80.43 16.3351L84.7372 13.1299L84.4656 12.8544C81.9744 10.6077 78.6179 9.46295 74.8112 9.46295C70.6902 9.46295 66.9263 10.8832 64.21 13.4481C61.4898 16.1062 59.9493 19.8158 60.0386 23.6651C59.992 27.5572 61.4898 31.3134 64.21 34.0607C67.0621 36.7653 70.8687 38.2787 74.7685 38.1855C79.0719 38.1855 82.8319 36.6722 85.3697 33.9249L81.5204 31.0379L80.1584 31.7713ZM103.635 20.7316H96.3823V14.5036H107.985L114.24 9.8316H90.4026V37.8208H102.862C109.843 37.8208 113.875 34.6117 113.875 29.024C113.875 23.6652 110.251 20.7316 103.635 20.7316ZM102.637 33.1449H96.3823V25.4036H102.637C106.444 25.4036 108.21 26.688 108.21 29.2995C108.21 31.911 106.308 33.1449 102.637 33.1449ZM134.135 14.5036L140.386 9.8316H119.451V37.8208H140.386V33.1449H125.431V26.0012H138.213V21.3292H125.431V14.5036H134.135ZM145.962 9.8316H157.335C164.63 9.8316 169.163 13.6771 169.163 19.8624C169.163 26.0477 164.63 29.8932 157.382 29.8932H151.942V37.8208H145.962V9.8316ZM151.899 25.2212H157.2C161.053 25.2212 163.136 23.2965 163.136 19.8624C163.136 16.4283 161.053 14.5036 157.2 14.5036H151.899V25.2212ZM241.082 37.8635V9.87817H247.061V21.3757H259.797V9.87817H265.78V37.8635H259.797V26.4125H247.061V37.8635H241.082ZM237.093 37.8635H230.795L228.529 32.2292H215.84L213.438 37.8635H207.412L219.328 9.87817H225.401L237.093 37.8635ZM222.274 16.3351L217.652 27.5572H226.623L222.274 16.3351ZM282.908 26.5522H279.195V37.8208H273.211V9.8316H279.195V21.8336H282.501L291.383 9.8316H298.224L287.53 23.3431L299.765 37.8208H292.062L282.908 26.5522ZM187.653 14.5501V20.7782H194.901C201.521 20.7782 205.146 23.7117 205.146 29.0705C205.146 34.6583 201.11 37.8635 194.133 37.8635H181.669V9.87817H203.287V14.5501H187.653ZM187.653 25.4501V33.2381H193.908C197.621 33.2381 199.48 31.9575 199.48 29.346C199.48 26.7345 197.711 25.4501 193.908 25.4501H187.653Z" fill="#21A038"/>
<path d="M41.3237 9.64923C42.4102 11.0695 43.3182 12.6255 44.0865 14.2746L23.1518 29.8932L14.3589 24.3054V17.6195L23.1053 23.1607L41.3237 9.64923Z" fill="#21A038"/>
<path d="M5.42999 23.8475C5.42999 23.5255 5.42999 23.2538 5.47656 22.9318L0.175959 22.6562C0.175959 23.0249 0.129395 23.4362 0.129395 23.801C0.129395 30.2152 2.71373 36.0319 6.88126 40.246L10.6413 36.4432C7.42451 33.238 5.42999 28.795 5.42999 23.8475Z" fill="url(#paint0_linear_2043_38)"/>
<path d="M23.1052 5.98228C23.4234 5.98228 23.695 5.98228 24.0132 6.02884L24.2849 0.670038C23.9201 0.670038 23.5127 0.623474 23.1518 0.623474C16.8074 0.623474 11.0528 3.23497 6.88135 7.44906L10.6414 11.2518C13.8156 8.00008 18.2547 5.98228 23.1052 5.98228Z" fill="url(#paint1_linear_2043_38)"/>
<path d="M23.1052 41.7128C22.787 41.7128 22.5154 41.7128 22.1972 41.6662L21.9255 47.025C22.2903 47.025 22.6977 47.0716 23.0586 47.0716C29.403 47.0716 35.1615 44.4601 39.329 40.246L35.569 36.4432C32.3948 39.7416 27.9983 41.7128 23.1052 41.7128Z" fill="url(#paint2_linear_2043_38)"/>
<path d="M33.0739 9.09822L37.5596 5.75333C33.6172 2.54814 28.5882 0.576904 23.1052 0.576904V5.93571C26.8226 5.98228 30.2645 7.12699 33.0739 9.09822Z" fill="url(#paint3_linear_2043_38)"/>
<path d="M46.1276 23.8475C46.1276 22.4273 45.9918 21.0536 45.7628 19.68L40.8231 23.3896C40.8231 23.5255 40.8231 23.7117 40.8231 23.8475C40.8231 29.1171 38.557 33.8356 34.9792 37.0874L38.557 41.0725C43.1824 36.8584 46.1276 30.6731 46.1276 23.8475Z" fill="#21A038"/>
<path d="M23.1052 41.7128C17.8938 41.7128 13.2257 39.4234 10.0089 35.803L6.06641 39.4234C10.2805 44.1419 16.3533 47.0716 23.1052 47.0716V41.7128Z" fill="url(#paint4_linear_2043_38)"/>
<path d="M11.2777 10.6076L7.69614 6.6225C3.02804 10.8832 0.129395 17.0219 0.129395 23.8475H5.42999C5.42999 18.6245 7.69614 13.8633 11.2777 10.6076Z" fill="url(#paint5_linear_2043_38)"/>
</g>
<defs>
<linearGradient id="paint0_linear_2043_38" x1="6.31601" y1="39.5945" x2="0.872075" y2="23.7871" gradientUnits="userSpaceOnUse">
<stop offset="0.1444" stop-color="#F2E913"/>
<stop offset="0.3037" stop-color="#E7E518"/>
<stop offset="0.5823" stop-color="#CADB26"/>
<stop offset="0.891" stop-color="#A3CD39"/>
</linearGradient>
<linearGradient id="paint1_linear_2043_38" x1="8.39326" y1="6.84412" x2="22.1482" y2="1.5786" gradientUnits="userSpaceOnUse">
<stop offset="0.0592" stop-color="#0FA8E0"/>
<stop offset="0.5385" stop-color="#0099F9"/>
<stop offset="0.9234" stop-color="#0291EB"/>
</linearGradient>
<linearGradient id="paint2_linear_2043_38" x1="21.6158" y1="42.5138" x2="38.0057" y2="38.7929" gradientUnits="userSpaceOnUse">
<stop offset="0.1226" stop-color="#A3CD39"/>
<stop offset="0.2846" stop-color="#86C339"/>
<stop offset="0.8693" stop-color="#21A038"/>
</linearGradient>
<linearGradient id="paint3_linear_2043_38" x1="22.0161" y1="3.9914" x2="35.6464" y2="8.21606" gradientUnits="userSpaceOnUse">
<stop offset="0.0566" stop-color="#0291EB"/>
<stop offset="0.79" stop-color="#0C8ACB"/>
</linearGradient>
<linearGradient id="paint4_linear_2043_38" x1="7.41427" y1="40.2711" x2="22.058" y2="45.7675" gradientUnits="userSpaceOnUse">
<stop offset="0.1324" stop-color="#F2E913"/>
<stop offset="0.2977" stop-color="#EBE716"/>
<stop offset="0.5306" stop-color="#D9E01F"/>
<stop offset="0.8023" stop-color="#BBD62D"/>
<stop offset="0.9829" stop-color="#A3CD39"/>
</linearGradient>
<linearGradient id="paint5_linear_2043_38" x1="4.19212" y1="24.495" x2="10.0767" y2="9.11764" gradientUnits="userSpaceOnUse">
<stop offset="0.0698" stop-color="#A3CD39"/>
<stop offset="0.2599" stop-color="#81C55F"/>
<stop offset="0.9216" stop-color="#0FA8E0"/>
</linearGradient>
<clipPath id="clip0_2043_38">
<rect width="300" height="50" fill="white" transform="translate(-0.00634766)"/>
</clipPath>
</defs>
</svg>
