<svg width="156" height="32" viewBox="0 0 156 32" fill="none" xmlns="http://www.w3.org/2000/svg">
<g clip-path="url(#clip0_2045_21)">
<path fill-rule="evenodd" clip-rule="evenodd" d="M16.0541 29.5624C8.63761 29.5624 2.56954 24.013 2.56954 16.0259C2.56954 8.0389 8.63761 2.4376 16.0541 2.4376C23.4707 2.4376 29.5387 7.98703 29.5387 16.0259C29.5387 24.0648 23.5225 29.5624 16.0541 29.5624ZM16.0541 0C7.23729 0 0.0800781 6.63857 0.0800781 16.0259C0.0800781 25.4133 7.23729 32 16.0541 32C24.871 32 32.0801 25.3614 32.0801 16.0259C32.0801 6.69044 24.871 0 16.0541 0ZM108.787 20.0713C107.438 20.0713 106.505 19.1896 106.505 17.53C106.505 15.8704 107.283 14.8849 108.89 14.8849C110.498 14.8849 111.172 16.0259 111.172 17.3744C111.172 18.7229 110.291 20.0713 108.787 20.0713ZM108.424 9.38737C107.104 9.35351 105.81 9.75443 104.741 10.5284V12.6029C105.768 11.8609 107.002 11.4616 108.268 11.4619C110.291 11.4619 111.224 12.4992 111.276 13.8995C110.531 13.2077 109.544 12.8354 108.527 12.8623C105.675 12.8623 104.067 14.9368 104.067 17.53C104.067 20.1232 105.675 22.094 108.631 22.094C111.587 22.094 113.662 20.1232 113.662 15.9741V15.7666C113.662 11.4619 111.795 9.38737 108.424 9.38737ZM150.226 20.1232C148.826 20.1232 147.996 19.034 147.996 17.4781C147.996 15.9222 148.826 14.6775 150.226 14.6256C151.626 14.5738 152.664 15.7666 152.664 17.3744C152.664 18.9822 151.678 20.1232 150.226 20.1232ZM155.672 21.8347C155.205 21.0567 155.101 20.1751 155.101 17.2707V12.8622H152.715V13.6402C151.959 12.9719 150.975 12.6192 149.967 12.6548C147.218 12.6548 145.558 14.8331 145.558 17.53C145.558 20.2269 147.477 22.094 149.707 22.094C150.306 22.0962 150.898 21.9619 151.437 21.7013C151.976 21.4406 152.449 21.0606 152.819 20.59C152.861 21.0311 153.003 21.4569 153.234 21.8347H155.672ZM55.9893 17.3744C55.9893 18.9303 56.7673 20.0713 58.2713 20.0713C59.7754 20.0713 60.5533 18.8784 60.5533 17.3744C60.5533 15.8703 59.7235 14.6775 58.2713 14.6775C56.8191 14.6775 55.9893 15.8185 55.9893 17.3744ZM53.5517 17.3744C53.5517 14.6775 55.3151 12.6548 58.2713 12.6548C61.2794 12.6548 62.9909 14.6775 62.9909 17.3744C62.9909 20.0713 61.2794 22.094 58.2713 22.094C55.2632 22.094 53.5517 20.0713 53.5517 17.3744ZM9.88236 9.95789H12.32C12.8396 11.0652 13.139 12.263 13.2016 13.4846C13.2016 14.5933 12.7915 15.7276 12.379 16.8684C11.9617 18.0224 11.542 19.1831 11.542 20.3307C11.5341 20.9835 11.6394 21.6327 11.8532 22.2496H9.41558C9.16774 21.6406 9.0443 20.9881 9.05254 20.3307C9.05254 19.1831 9.48534 18.0224 9.91567 16.8684C10.3411 15.7276 10.764 14.5933 10.764 13.4846C10.7014 12.263 10.402 11.0652 9.88236 9.95789ZM22.1222 9.95789H19.6846C20.2042 11.0652 20.5037 12.263 20.5663 13.4846C20.5663 14.5933 20.1561 15.7276 19.7436 16.8684C19.3264 18.0224 18.9067 19.1831 18.9067 20.3307C18.8988 20.9835 19.0041 21.6327 19.2178 22.2496H21.6554C21.4417 21.6327 21.3364 20.9835 21.3443 20.3307C21.3443 19.1831 21.7771 18.0224 22.2074 16.8684C22.6328 15.7276 23.0558 14.5933 23.0558 13.4846C22.9865 12.258 22.6689 11.0582 22.1222 9.95789ZM14.7575 9.95789H17.247C17.7666 11.0652 18.0661 12.263 18.1287 13.4846C18.1287 14.5933 17.7057 15.7276 17.2803 16.8684C16.85 18.0224 16.4172 19.1831 16.4172 20.3307C16.4093 20.9835 16.5146 21.6327 16.7284 22.2496H14.2908C14.077 21.6327 13.9717 20.9835 13.9796 20.3307C13.9796 19.1831 14.4124 18.0224 14.8427 16.8684C15.2681 15.7276 15.6911 14.5933 15.6911 13.4846C15.6218 12.258 15.3042 11.0582 14.7575 9.95789ZM49.5063 19.7601H46.8094V10.1653H44.3718V19.7601H41.6749V10.1653H38.4593C38.978 10.9433 39.2373 12.1361 39.2373 14.3144V21.8347H51.9439V10.1653H49.5063V19.7601ZM117.707 16.389H121.286V12.8623H123.724V21.8347H121.286V18.308H117.707V21.8347H115.322V17.0114C115.322 13.8995 114.855 12.8623 114.855 12.8623H117.707V16.389ZM127.924 18.3598V12.8623H125.539V21.8347H127.924L131.503 16.3371V21.8347H133.941V12.8623H131.503L127.924 18.3598ZM70.0444 12.8623H72.7414L69.3183 17.1151L72.6895 21.8347H69.7851L67.0363 17.8412V21.8347H64.5987V16.9595C64.5987 13.8995 64.132 12.8623 64.132 12.8623H67.0363V16.5965L70.0444 12.8623ZM97.5841 20.1232C96.2357 20.1232 95.354 19.0341 95.354 17.4781C95.354 15.9222 96.1838 14.6775 97.5841 14.6256C98.9845 14.5738 100.022 15.7666 100.022 17.3744C100.022 18.9822 99.0363 20.1232 97.5841 20.1232ZM102.459 12.8623H100.074V13.6921C99.3282 13.0003 98.3415 12.6279 97.3248 12.6548C94.576 12.6548 92.9164 14.8331 92.9164 17.53C92.9164 20.2269 94.8354 22.094 97.1174 22.094C97.7021 22.0875 98.2784 21.9543 98.8067 21.7036C99.3349 21.4529 99.8026 21.0907 100.177 20.6418C100.24 21.0697 100.4 21.4776 100.644 21.8347H103.03C102.563 21.0567 102.459 20.1751 102.459 17.2707V12.8623ZM83.3734 19.9676C84.0477 19.9676 84.4107 19.5527 84.4107 18.5673V12.8623H91.3086V21.8347H88.9229V14.8331H86.7446V18.5673C86.7446 20.2788 86.2259 22.094 83.9439 22.094C83.5475 22.1082 83.1543 22.0189 82.8029 21.8347V19.8639C82.9838 19.9379 83.1781 19.9732 83.3734 19.9676ZM145.04 19.8639H143.95V12.8623H141.565V19.8639H138.142V12.8623H135.704V21.8347H142.602C142.601 22.5523 142.761 23.2611 143.069 23.9093H145.506C145.506 23.9093 144.832 22.872 145.04 19.8639ZM75.1789 17.3744C75.1789 18.9303 75.9569 20.0713 77.4609 20.0713C78.965 20.0713 79.743 18.8784 79.743 17.3744C79.743 15.8703 78.965 14.6775 77.4609 14.6775C75.9569 14.6775 75.1789 15.8185 75.1789 17.3744ZM72.7413 17.3744C72.7413 14.6775 74.4528 12.6548 77.4609 12.6548C80.469 12.6548 82.1805 14.6775 82.1805 17.3744C82.1805 20.0713 80.5209 22.094 77.4609 22.094C74.401 22.094 72.7413 20.0713 72.7413 17.3744Z" fill="white"/>
</g>
<defs>
<clipPath id="clip0_2045_21">
<rect width="155.592" height="32" fill="white" transform="translate(0.0800781)"/>
</clipPath>
</defs>
</svg>
