<svg width="244" height="50" viewBox="0 0 244 50" fill="none" xmlns="http://www.w3.org/2000/svg">
<g clip-path="url(#clip0_2043_316)">
<path fill-rule="evenodd" clip-rule="evenodd" d="M24.9595 46.1912C13.3712 46.1912 3.88979 37.5203 3.88979 25.0405C3.88979 12.5608 13.3712 3.80875 24.9595 3.80875C36.5478 3.80875 46.0292 12.4797 46.0292 25.0405C46.0292 37.6013 36.6288 46.1912 24.9595 46.1912ZM24.9595 0C11.1831 0 0 10.3728 0 25.0405C0 39.7083 11.1831 50 24.9595 50C38.7358 50 50 39.6272 50 25.0405C50 10.4538 38.7358 0 24.9595 0ZM169.854 31.3615C167.747 31.3615 166.288 29.9838 166.288 27.3906C166.288 24.7974 167.504 23.2577 170.016 23.2577C172.528 23.2577 173.582 25.0405 173.582 27.1475C173.582 29.2545 172.204 31.3615 169.854 31.3615ZM169.287 14.6678C167.225 14.6149 165.204 15.2413 163.533 16.4506V19.6921C165.137 18.5327 167.065 17.9088 169.044 17.9093C172.204 17.9093 173.663 19.53 173.744 21.718C172.579 20.6371 171.037 20.0553 169.449 20.0973C164.992 20.0973 162.48 23.3388 162.48 27.3906C162.48 31.4425 164.992 34.5219 169.611 34.5219C174.23 34.5219 177.472 31.4425 177.472 24.9595V24.6354C177.472 17.9093 174.554 14.6678 169.287 14.6678ZM234.603 31.4425C232.415 31.4425 231.118 29.7407 231.118 27.3096C231.118 24.8785 232.415 22.9336 234.603 22.8525C236.791 22.7715 238.412 24.6354 238.412 27.1475C238.412 29.6597 236.872 31.4425 234.603 31.4425ZM243.112 34.1167C242.383 32.9012 242.22 31.5235 242.22 26.9854V20.0973H238.493V21.3128C237.311 20.2687 235.774 19.7176 234.198 19.7731C229.903 19.7731 227.31 23.1767 227.31 27.3906C227.31 31.6046 230.308 34.5219 233.793 34.5219C234.728 34.5253 235.652 34.3154 236.495 33.9082C237.337 33.501 238.076 32.9072 238.655 32.1718C238.72 32.8611 238.941 33.5264 239.303 34.1167H243.112ZM87.3582 27.1475C87.3582 29.5786 88.5737 31.3614 90.9238 31.3614C93.2739 31.3614 94.4895 29.4975 94.4895 27.1475C94.4895 24.7974 93.1929 22.9335 90.9238 22.9335C88.6548 22.9335 87.3582 24.7163 87.3582 27.1475ZM83.5494 27.1475C83.5494 22.9335 86.3047 19.7731 90.9238 19.7731C95.624 19.7731 98.2982 22.9335 98.2982 27.1475C98.2982 31.3614 95.624 34.5219 90.9238 34.5219C86.2237 34.5219 83.5494 31.3614 83.5494 27.1475ZM15.3161 15.5592H19.1248C19.9367 17.2894 20.4046 19.161 20.5024 21.0697C20.5024 22.802 19.8616 24.5744 19.217 26.3569C18.565 28.16 17.9093 29.9736 17.9093 31.7667C17.897 32.7867 18.0615 33.8012 18.3955 34.765H14.5867C14.1995 33.8134 14.0066 32.794 14.0195 31.7667C14.0195 29.9736 14.6957 28.16 15.3681 26.3569C16.0328 24.5744 16.6937 22.802 16.6937 21.0697C16.5959 19.161 16.128 17.2894 15.3161 15.5592ZM34.4408 15.5592H30.6321C31.444 17.2894 31.9119 19.161 32.0097 21.0697C32.0097 22.802 31.3689 24.5744 30.7243 26.3569C30.0723 28.16 29.4165 29.9736 29.4165 31.7667C29.4043 32.7867 29.5688 33.8012 29.9028 34.765H33.7115C33.3775 33.8012 33.213 32.7867 33.2253 31.7667C33.2253 29.9736 33.9016 28.16 34.5739 26.3569C35.2386 24.5744 35.8995 22.802 35.8995 21.0697C35.7913 19.1531 35.295 17.2784 34.4408 15.5592ZM22.9335 15.5592H26.8233C27.6353 17.2894 28.1031 19.161 28.201 21.0697C28.201 22.802 27.5401 24.5744 26.8754 26.3569C26.203 28.16 25.5267 29.9736 25.5267 31.7667C25.5145 32.7867 25.679 33.8012 26.013 34.765H22.2042C21.8702 33.8012 21.7057 32.7867 21.718 31.7667C21.718 29.9736 22.3943 28.16 23.0666 26.3569C23.7313 24.5744 24.3922 22.802 24.3922 21.0697C24.284 19.1531 23.7877 17.2784 22.9335 15.5592ZM77.2285 30.8752H73.0146V15.8833H69.2058V30.8752H64.9919V15.8833H59.9676C60.778 17.0989 61.1832 18.9627 61.1832 22.3663V34.1167H81.0373V15.8833H77.2285V30.8752ZM183.793 25.6078H189.384V20.0973H193.193V34.1167H189.384V28.6062H183.793V34.1167H180.065V26.5803C180.065 21.718 179.336 20.0973 179.336 20.0973H183.793V25.6078ZM199.757 28.6872V20.0973H196.029V34.1167H199.757L205.348 25.5268V34.1167H209.157V20.0973H205.348L199.757 28.6872ZM109.319 20.0973H113.533L108.185 26.7423L113.452 34.1167H108.914L104.619 27.8769V34.1167H100.81V26.4992C100.81 21.718 100.081 20.0973 100.081 20.0973H104.619V25.932L109.319 20.0973ZM152.35 31.4425C150.243 31.4425 148.866 29.7407 148.866 27.3096C148.866 24.8785 150.162 22.9336 152.35 22.8525C154.538 22.7715 156.159 24.6354 156.159 27.1475C156.159 29.6597 154.619 31.4425 152.35 31.4425ZM159.968 20.0973H156.24V21.3939C155.075 20.3129 153.533 19.7311 151.945 19.7731C147.65 19.7731 145.057 23.1767 145.057 27.3906C145.057 31.6046 148.055 34.5219 151.621 34.5219C152.534 34.5117 153.435 34.3036 154.26 33.9119C155.086 33.5201 155.816 32.9541 156.402 32.2529C156.501 32.9214 156.75 33.5588 157.131 34.1167H160.859C160.13 32.9012 159.968 31.5235 159.968 26.9854V20.0973ZM130.146 31.1994C131.199 31.1994 131.767 30.5511 131.767 29.0114V20.0973H142.545V34.1167H138.817V23.1767H135.413V29.0114C135.413 31.6856 134.603 34.5219 131.037 34.5219C130.418 34.5441 129.803 34.4045 129.254 34.1167V31.0373C129.537 31.153 129.841 31.2082 130.146 31.1994ZM226.499 31.0373H224.797V20.0973H221.07V31.0373H215.721V20.0973H211.912V34.1167H222.69C222.689 35.238 222.939 36.3454 223.42 37.3582H227.229C227.229 37.3582 226.175 35.7375 226.499 31.0373ZM117.342 27.1475C117.342 29.5786 118.558 31.3614 120.908 31.3614C123.258 31.3614 124.473 29.4975 124.473 27.1475C124.473 24.7974 123.258 22.9335 120.908 22.9335C118.558 22.9335 117.342 24.7163 117.342 27.1475ZM113.533 27.1475C113.533 22.9335 116.207 19.7731 120.908 19.7731C125.608 19.7731 128.282 22.9335 128.282 27.1475C128.282 31.3614 125.689 34.5219 120.908 34.5219C116.126 34.5219 113.533 31.3614 113.533 27.1475Z" fill="#65222D"/>
</g>
<defs>
<clipPath id="clip0_2043_316">
<rect width="243.112" height="50" fill="white"/>
</clipPath>
</defs>
</svg>
