<svg width="64" height="50" viewBox="0 0 64 50" fill="none" xmlns="http://www.w3.org/2000/svg">
<g clip-path="url(#clip0_2043_222)">
<path d="M11.9565 49.9931C18.4197 49.9931 23.6591 44.7537 23.6591 38.2905C23.6591 31.8273 18.4197 26.5879 11.9565 26.5879C5.49334 26.5879 0.253906 31.8273 0.253906 38.2905C0.253906 44.7537 5.49334 49.9931 11.9565 49.9931Z" fill="#E8410F"/>
<path d="M23.1453 0.464245C23.0819 0.354822 22.9969 0.25946 22.8955 0.183981C22.794 0.108502 22.6783 0.0544896 22.5552 0.02524C22.4322 -0.00400959 22.3045 -0.00788239 22.18 0.013858C22.0554 0.0355984 21.9366 0.082496 21.8308 0.151688C19.7651 1.48537 18.1762 3.44042 17.2931 5.73511C17.2479 5.85416 17.2052 5.97268 17.1649 6.09069C16.6641 7.59973 16.4916 9.19835 16.6588 10.7795C16.8261 12.3606 17.3293 13.8878 18.1347 15.2586C24.6727 26.5786 31.2108 37.8985 37.7488 49.2184C37.8102 49.3245 37.8919 49.4174 37.9892 49.4918C38.0866 49.5662 38.1976 49.6206 38.3161 49.652C38.4345 49.6834 38.558 49.691 38.6794 49.6746C38.8009 49.6581 38.9178 49.6178 39.0236 49.556C40.4794 48.7224 41.7157 47.5541 42.6302 46.1479C44.044 43.9451 44.3368 41.5904 44.2093 39.6169C44.0639 37.5658 43.4475 35.5758 42.4081 33.8015C35.9872 22.6891 29.5662 11.5767 23.1453 0.464245Z" fill="#EF7403"/>
<path d="M42.6551 0.464245C42.5917 0.354822 42.5067 0.25946 42.4052 0.183981C42.3038 0.108502 42.188 0.0544896 42.065 0.02524C41.942 -0.00400959 41.8143 -0.00788239 41.6897 0.013858C41.5652 0.0355984 41.4464 0.082496 41.3405 0.151688C39.2749 1.48537 37.686 3.44042 36.8028 5.73511C36.7577 5.85416 36.715 5.97268 36.6747 6.09069C36.1739 7.59973 36.0014 9.19835 36.1686 10.7795C36.3359 12.3606 36.839 13.8878 37.6445 15.2586C44.1825 26.5786 50.7205 37.8985 57.2586 49.2184C57.3199 49.3245 57.4016 49.4174 57.499 49.4918C57.5963 49.5662 57.7074 49.6206 57.8259 49.652C57.9443 49.6834 58.0678 49.691 58.1892 49.6746C58.3106 49.6581 58.4276 49.6178 58.5334 49.556C59.9891 48.7224 61.2254 47.5541 62.14 46.1479C63.5537 43.9451 63.8466 41.5904 63.7191 39.6169C63.5736 37.5658 62.9573 35.5758 61.9179 33.8015C55.4969 22.6891 49.076 11.5767 42.6551 0.464245Z" fill="#EF7403"/>
</g>
<defs>
<clipPath id="clip0_2043_222">
<rect width="63.4921" height="50" fill="white" transform="translate(0.253906)"/>
</clipPath>
</defs>
</svg>
