<svg width="47" height="36" viewBox="0 0 47 36" fill="none" xmlns="http://www.w3.org/2000/svg">
<g clip-path="url(#clip0_2045_13)">
<path d="M9.39487 35.9951C14.0484 35.9951 17.8207 32.2227 17.8207 27.5692C17.8207 22.9157 14.0484 19.1433 9.39487 19.1433C4.74139 19.1433 0.968994 22.9157 0.968994 27.5692C0.968994 32.2227 4.74139 35.9951 9.39487 35.9951Z" fill="white"/>
<path d="M17.4509 0.334256C17.4053 0.255472 17.3441 0.186811 17.271 0.132467C17.198 0.0781217 17.1147 0.0392325 17.0261 0.0181728C16.9375 -0.00288691 16.8456 -0.00567532 16.7559 0.00997777C16.6662 0.0256309 16.5806 0.0593971 16.5044 0.109215C15.0172 1.06946 13.8732 2.4771 13.2373 4.12928C13.2048 4.21499 13.174 4.30033 13.145 4.3853C12.7845 5.4718 12.6602 6.62281 12.7807 7.76123C12.9011 8.89965 13.2634 9.9992 13.8433 10.9862C18.5507 19.1366 23.258 27.2869 27.9654 35.4373C28.0096 35.5136 28.0684 35.5805 28.1385 35.6341C28.2086 35.6877 28.2886 35.7269 28.3739 35.7494C28.4592 35.772 28.5481 35.7775 28.6355 35.7657C28.7229 35.7538 28.8071 35.7248 28.8833 35.6803C29.9314 35.0801 30.8216 34.239 31.4801 33.2265C32.498 31.6405 32.7088 29.9451 32.617 28.5242C32.5123 27.0474 32.0685 25.6145 31.3201 24.3371C26.6971 16.3361 22.074 8.33519 17.4509 0.334256Z" fill="white"/>
<path d="M31.4978 0.334256C31.4522 0.255472 31.391 0.186811 31.3179 0.132467C31.2449 0.0781217 31.1615 0.0392325 31.073 0.0181728C30.9844 -0.00288691 30.8924 -0.00567532 30.8028 0.00997777C30.7131 0.0256309 30.6275 0.0593971 30.5513 0.109215C29.0641 1.06946 27.9201 2.4771 27.2842 4.12928C27.2517 4.21499 27.2209 4.30033 27.1919 4.3853C26.8313 5.4718 26.7071 6.62281 26.8275 7.76123C26.948 8.89965 27.3103 9.99919 27.8902 10.9862C32.5975 19.1366 37.3049 27.2869 42.0123 35.4373C42.0565 35.5136 42.1153 35.5805 42.1854 35.6341C42.2555 35.6877 42.3355 35.7269 42.4208 35.7494C42.506 35.772 42.5949 35.7775 42.6824 35.7657C42.7698 35.7538 42.854 35.7248 42.9302 35.6803C43.9783 35.0801 44.8684 34.239 45.5269 33.2265C46.5448 31.6405 46.7557 29.9451 46.6639 28.5242C46.5592 27.0474 46.1154 25.6145 45.367 24.3371C40.7439 16.3361 36.1209 8.33519 31.4978 0.334256Z" fill="white"/>
</g>
<defs>
<clipPath id="clip0_2045_13">
<rect width="45.7143" height="36" fill="white" transform="translate(0.968994)"/>
</clipPath>
</defs>
</svg>
