<svg width="111" height="24" viewBox="0 0 111 24" fill="none" xmlns="http://www.w3.org/2000/svg">
<g clip-path="url(#clip0_2045_19)">
<path fill-rule="evenodd" clip-rule="evenodd" d="M0.0800781 12C0.0800781 5.3721 5.45257 0 12.0793 0C18.7068 0 24.0793 5.3721 24.0793 12C24.0793 18.6267 18.7064 24 12.0793 24C5.45257 24 0.0800781 18.6267 0.0800781 12ZM1.43316 12C1.43316 17.8789 6.20003 22.6453 12.0793 22.6453C17.959 22.6453 22.7254 17.8789 22.7254 12C22.7254 6.11995 17.959 1.35387 12.0793 1.35387C6.19964 1.35387 1.43316 6.11995 1.43316 12ZM19.0589 14.798L20.8011 16.8325C20.8519 16.8903 20.8632 16.9759 20.8238 17.0474C20.7828 17.1174 20.7027 17.1514 20.6265 17.1369L17.9941 16.6438C17.9625 16.6375 17.9308 16.6262 17.9015 16.6094C17.8128 16.5578 17.7601 16.468 17.7527 16.3719C17.7288 16.0788 17.5659 15.8006 17.2916 15.6424C17.0478 15.5021 16.7657 15.4841 16.5199 15.5709C15.8936 15.7912 15.1786 15.7471 14.5585 15.3884L13.7786 14.9391V20.0607H12.6803V14.3049L12.0813 13.9591L11.4819 14.3049V20.0611H10.384V14.9394L9.60367 15.3888C8.98359 15.7475 8.26895 15.7916 7.64261 15.5713C7.39606 15.4849 7.11435 15.5029 6.87093 15.6428C6.59664 15.801 6.43331 16.0792 6.40948 16.3722C6.40166 16.4684 6.34931 16.5578 6.25983 16.6098C6.23092 16.6266 6.19927 16.6379 6.16762 16.6442L3.5349 17.1373C3.4591 17.1517 3.37861 17.1178 3.33798 17.0478C3.29734 16.9759 3.30828 16.89 3.35947 16.8317L5.10211 14.798C5.12282 14.7738 5.1486 14.7523 5.1783 14.7351C5.26699 14.6843 5.37132 14.6835 5.45806 14.7249C5.72454 14.8508 6.04571 14.8484 6.32039 14.6902C6.5646 14.5503 6.71972 14.3143 6.76817 14.058C6.89046 13.4051 7.28588 12.808 7.90596 12.4505L8.68664 12.0004L4.25071 9.43958L4.79929 8.48816L9.78419 11.3659L10.3832 11.0208V10.3285L5.39828 7.45039L5.94725 6.49936L10.3832 9.06057V8.15995C10.3832 7.44414 10.702 6.80256 11.206 6.37042C11.4049 6.20085 11.5303 5.94844 11.5303 5.66672C11.5303 5.34984 11.3709 5.0693 11.1287 4.90207C11.0501 4.84815 10.9986 4.75672 10.9986 4.65396C10.9986 4.61997 11.004 4.58714 11.0146 4.55667L11.9047 2.03101C11.9293 1.95716 11.9988 1.90441 12.0801 1.90441C12.1618 1.90441 12.2313 1.95716 12.2559 2.03101L13.1464 4.55667C13.1565 4.58714 13.162 4.61997 13.162 4.65396C13.162 4.75672 13.1108 4.84815 13.0315 4.90207C12.7889 5.0693 12.6302 5.34984 12.6302 5.66672C12.6302 5.94844 12.7561 6.20085 12.9542 6.37042C13.4578 6.80256 13.7774 7.44375 13.7774 8.15995V9.06057L18.2129 6.49936L18.7619 7.45039L13.7774 10.3285V11.0205L14.3764 11.3659L19.3613 8.48816L19.9103 9.43958L15.4743 12.0004L16.2546 12.4505C16.8747 12.808 17.2697 13.4051 17.3924 14.058C17.4409 14.3143 17.5964 14.5503 17.8406 14.6902C18.1149 14.8484 18.4364 14.8508 18.7025 14.7249C18.7889 14.6831 18.8936 14.6843 18.9827 14.7351C19.012 14.7523 19.0374 14.7734 19.0589 14.798ZM8.91873 14.5163L10.3828 13.6715L10.3832 12.9792L9.78419 12.633L8.32013 13.4781C8.03334 13.6438 7.93527 14.0099 8.10054 14.2971C8.26582 14.5835 8.63193 14.682 8.91873 14.5163ZM12.0797 7.40467C11.7488 7.40467 11.4807 7.6731 11.4807 8.00444V9.69433L12.0801 10.0397L12.6791 9.69433V8.00444C12.6791 7.6731 12.4107 7.40467 12.0797 7.40467ZM12.0801 12.7951L12.7689 12.3978V11.6015L12.0801 11.2033L11.3905 11.6015V12.3974L12.0801 12.7951ZM15.2403 14.5167C15.5267 14.682 15.8936 14.5835 16.0593 14.2975C16.2241 14.0099 16.1261 13.6442 15.8393 13.4785L14.3756 12.6334L13.7766 12.9796V13.6711L15.2403 14.5167ZM91.9751 9.56226H87.9702V1.55549H84.3118V22.4441H87.9702V13.271H91.9751V22.4441H95.7132V1.55549H91.9751V9.56226ZM30.8104 14.3639L26.7503 1.55549H30.3993L32.9003 9.69354L35.6632 1.55549H39.0832L34.8743 13.949V22.4441H30.8104V14.3639ZM62.0337 1.55549L60.2813 11.4921L58.2491 1.55549H52.5379V22.4441H55.813V6.69823L58.6078 20.3866H61.6664L64.1452 6.47591V22.4441H67.9853V1.55549H62.0337ZM101.203 1.55549H106.86L110.307 22.4441H106.577L105.791 17.5835H101.58L100.771 22.4441H97.3855L101.203 1.55549ZM103.718 4.75906L102.161 14.1013H105.229L103.718 4.75906ZM73.4754 1.55549L69.6568 22.4441H73.0428L73.8532 17.5835H78.064L78.8494 22.4441H82.5789L79.1319 1.55549H73.4754ZM74.433 14.1013L75.9897 4.75906L77.5006 14.1013H74.433ZM37.8821 22.4441L41.7007 1.55549H47.3573L50.8039 22.4441H47.0751L46.2894 17.5835H42.0789L41.2686 22.4441H37.8821ZM44.2154 4.75906L42.6588 14.1013H45.726L44.2154 4.75906Z" fill="white"/>
</g>
<defs>
<clipPath id="clip0_2045_19">
<rect width="110.227" height="24" fill="white" transform="translate(0.0800781)"/>
</clipPath>
</defs>
</svg>
