<svg width="230" height="50" viewBox="0 0 230 50" fill="none" xmlns="http://www.w3.org/2000/svg">
<g clip-path="url(#clip0_2043_431)">
<path fill-rule="evenodd" clip-rule="evenodd" d="M0 25C0 11.1919 11.1927 0 24.9984 0C38.8057 0 49.9984 11.1919 49.9984 25C49.9984 38.8057 38.8049 50 24.9984 50C11.1927 50 0 38.8057 0 25ZM2.81893 25C2.81893 37.2477 12.7499 47.1778 24.9984 47.1778C37.2477 47.1778 47.1778 37.2477 47.1778 25C47.1778 12.7499 37.2477 2.82056 24.9984 2.82056C12.7491 2.82056 2.81893 12.7499 2.81893 25ZM39.5391 30.8292L43.1688 35.0678C43.2747 35.1882 43.2983 35.3665 43.216 35.5155C43.1306 35.6612 42.9637 35.732 42.805 35.7019L37.321 34.6746C37.255 34.6616 37.1891 34.638 37.128 34.6029C36.9433 34.4955 36.8334 34.3083 36.8179 34.108C36.7682 33.4975 36.4288 32.9179 35.8574 32.5883C35.3494 32.296 34.7617 32.2586 34.2497 32.4393C32.9448 32.8984 31.4552 32.8064 30.1633 32.0592L28.5386 31.123V41.7931H26.2504V29.8019L25.0025 29.0815L23.7538 29.8019V41.7939H21.4664V31.1239L19.8408 32.06C18.549 32.8072 17.0601 32.8992 15.7553 32.4401C15.2416 32.2602 14.6547 32.2977 14.1476 32.5891C13.5762 32.9188 13.2359 33.4983 13.1863 34.1088C13.17 34.3091 13.0609 34.4955 12.8745 34.6038C12.8142 34.6388 12.7483 34.6624 12.6824 34.6754L7.19755 35.7027C7.03963 35.7328 6.87195 35.662 6.78729 35.5163C6.70263 35.3665 6.72542 35.1874 6.83206 35.0661L10.4626 30.8292C10.5057 30.7787 10.5594 30.7339 10.6213 30.6981C10.8061 30.5923 11.0234 30.5907 11.2041 30.677C11.7593 30.9391 12.4284 30.9342 13.0007 30.6045C13.5094 30.3131 13.8326 29.8214 13.9335 29.2874C14.1883 27.9272 15.0121 26.6834 16.3039 25.9386L17.9303 25.0008L8.68882 19.6658L9.8317 17.6837L20.2169 23.6789L21.4648 22.9601V21.5177L11.0796 15.5216L12.2233 13.5403L21.4648 18.8762V16.9999C21.4648 15.5086 22.129 14.172 23.1791 13.2717C23.5934 12.9184 23.8547 12.3926 23.8547 11.8057C23.8547 11.1455 23.5226 10.561 23.0179 10.2126C22.8543 10.1003 22.7468 9.90983 22.7468 9.69575C22.7468 9.62493 22.7582 9.55655 22.7802 9.49306L24.6345 4.23127C24.6858 4.07742 24.8307 3.96753 25 3.96753C25.1702 3.96753 25.3151 4.07742 25.3663 4.23127L27.2215 9.49306C27.2426 9.55655 27.254 9.62493 27.254 9.69575C27.254 9.90983 27.1474 10.1003 26.9822 10.2126C26.4767 10.561 26.1462 11.1455 26.1462 11.8057C26.1462 12.3926 26.4083 12.9184 26.821 13.2717C27.8703 14.172 28.5361 15.5078 28.5361 16.9999V18.8762L37.7768 13.5403L38.9205 15.5216L28.5361 21.5177V22.9593L29.784 23.6789L40.1692 17.6837L41.3129 19.6658L32.0714 25.0008L33.697 25.9386C34.9888 26.6834 35.8118 27.9272 36.0674 29.2874C36.1683 29.8214 36.4923 30.3131 37.001 30.6045C37.5725 30.9342 38.2424 30.9391 38.7968 30.677C38.9767 30.5899 39.1948 30.5923 39.3804 30.6981C39.4415 30.7339 39.4944 30.7779 39.5391 30.8292ZM18.4139 30.2423L21.464 28.4824L21.4648 27.0399L20.2169 26.3187L17.1668 28.0794C16.5693 28.4246 16.365 29.1873 16.7093 29.7856C17.0536 30.3823 17.8164 30.5874 18.4139 30.2423ZM24.9992 15.4264C24.3098 15.4264 23.7513 15.9856 23.7513 16.6759V20.1965L25 20.9161L26.2479 20.1965V16.6759C26.2479 15.9856 25.6887 15.4264 24.9992 15.4264ZM25 26.6565L26.4351 25.8287V24.1697L25 23.3403L23.5633 24.1697V25.8279L25 26.6565ZM31.5838 30.2431C32.1805 30.5874 32.9448 30.3823 33.29 29.7864C33.6335 29.1873 33.4292 28.4254 32.8317 28.0803L29.7824 26.3195L28.5345 27.0408V28.4816L31.5838 30.2431ZM191.448 19.9214H183.104V3.2406H175.483V46.7586H183.104V27.648H191.448V46.7586H199.236V3.2406H191.448V19.9214ZM64.0214 29.9248L55.563 3.2406H63.1651L68.3756 20.1949L74.1315 3.2406H81.2565L72.488 29.0603V46.7586H64.0214V29.9248ZM129.07 3.2406L125.419 23.9418L121.186 3.2406H109.287V46.7586H116.11V13.9547L121.933 42.472H128.305L133.469 13.4915V46.7586H141.469V3.2406H129.07ZM210.673 3.2406H222.459L229.639 46.7586H221.868L220.231 36.6323H211.459L209.772 46.7586H202.72L210.673 3.2406ZM215.912 9.9147L212.668 29.3778H219.059L215.912 9.9147ZM152.907 3.2406L144.951 46.7586H152.006L153.694 36.6323H162.467L164.103 46.7586H171.873L164.691 3.2406H152.907ZM154.902 29.3778L158.145 9.9147L161.293 29.3778H154.902ZM78.7543 46.7586L86.7096 3.2406H98.4941L105.675 46.7586H97.9064L96.2694 36.6323H87.4976L85.8093 46.7586H78.7543ZM91.9486 9.9147L88.7056 29.3778H95.0956L91.9486 9.9147Z" fill="#48217A"/>
</g>
<defs>
<clipPath id="clip0_2043_431">
<rect width="229.64" height="50" fill="white"/>
</clipPath>
</defs>
</svg>
