<svg width="24.000000" height="24.000000" viewBox="0 0 24 24" fill="none" xmlns="http://www.w3.org/2000/svg" xmlns:xlink="http://www.w3.org/1999/xlink">
	<desc>
			Created with Pixso.
	</desc>
	<defs>
		<clipPath id="clip2440_1347">
			<rect id="Icon/Arrow Left" rx="0.000000" width="23.000000" height="23.000000" transform="translate(0.500000 0.500000)" fill="white" fill-opacity="0"/>
		</clipPath>
	</defs>
	<g clip-path="url(#clip2440_1347)">
		<path id="Vector" d="M11.03 5.96C11.32 6.26 11.32 6.73 11.03 7.03L6.81 11.25L19 11.25C19.41 11.25 19.75 11.58 19.75 12C19.75 12.41 19.41 12.75 19 12.75L6.81 12.75L11.03 16.96C11.32 17.26 11.32 17.73 11.03 18.03C10.73 18.32 10.26 18.32 9.96 18.03L4.46 12.53C4.17 12.23 4.17 11.76 4.46 11.46L9.96 5.96C10.26 5.67 10.73 5.67 11.03 5.96Z" fill="#65684C" fill-opacity="1.000000" fill-rule="evenodd"/>
	</g>
</svg>
