<svg width="24" height="24" viewBox="0 0 24 24" fill="none" xmlns="http://www.w3.org/2000/svg">
<path d="M15.8 3C16.5244 3.00012 17.228 3.24224 17.7991 3.68794C18.3701 4.13363 18.7759 4.75733 18.952 5.46L19.337 7H20.25C20.4312 7.00001 20.6063 7.06564 20.7429 7.18477C20.8795 7.30389 20.9684 7.46845 20.993 7.648L21 7.75C21 7.93124 20.9344 8.10634 20.8152 8.24293C20.6961 8.37952 20.5316 8.46835 20.352 8.493L20.25 8.5H19.714L19.922 9.326C20.2525 9.52671 20.5256 9.80919 20.7152 10.1462C20.9047 10.4832 21.0042 10.8634 21.004 11.25V19.747C21.004 20.2111 20.8196 20.6562 20.4914 20.9844C20.1632 21.3126 19.7181 21.497 19.254 21.497H17.75C17.2859 21.497 16.8408 21.3126 16.5126 20.9844C16.1844 20.6562 16 20.2111 16 19.747L15.999 18.5H8.004V19.747C8.004 20.2111 7.81963 20.6562 7.49144 20.9844C7.16325 21.3126 6.71813 21.497 6.254 21.497H4.75C4.28587 21.497 3.84075 21.3126 3.51256 20.9844C3.18437 20.6562 3 20.2111 3 19.747V11.25C3 10.435 3.433 9.721 4.082 9.327L4.289 8.5H3.75C3.56876 8.49999 3.39366 8.43436 3.25707 8.31523C3.12048 8.19611 3.03165 8.03155 3.007 7.852L3 7.75C3.00001 7.56876 3.06564 7.39366 3.18477 7.25707C3.30389 7.12048 3.46845 7.03165 3.648 7.007L3.75 7H4.663L5.049 5.462C5.22475 4.75879 5.63052 4.13451 6.20183 3.68842C6.77313 3.24232 7.47716 3.00001 8.202 3H15.8ZM6.503 18.5H4.499L4.5 19.747C4.5 19.885 4.612 19.997 4.75 19.997H6.254C6.3203 19.997 6.38389 19.9707 6.43078 19.9238C6.47766 19.8769 6.504 19.8133 6.504 19.747L6.503 18.5ZM19.503 18.5H17.498L17.499 19.747C17.499 19.885 17.611 19.997 17.749 19.997H19.253C19.3193 19.997 19.3829 19.9707 19.4298 19.9238C19.4767 19.8769 19.503 19.8133 19.503 19.747V18.5ZM18.753 10.5H5.25C5.05109 10.5 4.86032 10.579 4.71967 10.7197C4.57902 10.8603 4.5 11.0511 4.5 11.25V17H19.504V11.25C19.504 11.0511 19.425 10.8603 19.2843 10.7197C19.1437 10.579 18.9519 10.5 18.753 10.5ZM10.25 14H13.752C13.9419 14.0003 14.1247 14.0727 14.2633 14.2025C14.402 14.3323 14.4862 14.5099 14.4991 14.6994C14.5119 14.8889 14.4523 15.0762 14.3324 15.2235C14.2125 15.3708 14.0412 15.4671 13.853 15.493L13.752 15.5H10.25C10.06 15.4999 9.87706 15.4278 9.73821 15.298C9.59936 15.1683 9.51493 14.9907 9.50197 14.8011C9.48902 14.6115 9.54851 14.4241 9.66843 14.2767C9.78835 14.1293 9.95975 14.0329 10.148 14.007L10.25 14ZM17 12C17.2652 12 17.5196 12.1054 17.7071 12.2929C17.8946 12.4804 18 12.7348 18 13C18 13.2652 17.8946 13.5196 17.7071 13.7071C17.5196 13.8946 17.2652 14 17 14C16.7348 14 16.4804 13.8946 16.2929 13.7071C16.1054 13.5196 16 13.2652 16 13C16 12.7348 16.1054 12.4804 16.2929 12.2929C16.4804 12.1054 16.7348 12 17 12ZM7 12C7.26522 12 7.51957 12.1054 7.70711 12.2929C7.89464 12.4804 8 12.7348 8 13C8 13.2652 7.89464 13.5196 7.70711 13.7071C7.51957 13.8946 7.26522 14 7 14C6.73478 14 6.48043 13.8946 6.29289 13.7071C6.10536 13.5196 6 13.2652 6 13C6 12.7348 6.10536 12.4804 6.29289 12.2929C6.48043 12.1054 6.73478 12 7 12ZM15.8 4.5H8.201C7.81062 4.49997 7.43144 4.63047 7.12377 4.87074C6.81609 5.11101 6.59758 5.44725 6.503 5.826L5.711 9H18.293L17.497 5.824C17.402 5.44562 17.1834 5.10983 16.8757 4.86995C16.5681 4.63007 16.1891 4.49986 15.799 4.5" fill="#65684C"/>
</svg>
