<svg width="24.000000" height="24.000000" viewBox="0 0 24 24" fill="none" xmlns="http://www.w3.org/2000/svg" xmlns:xlink="http://www.w3.org/1999/xlink">
	<desc>
			Created with Pixso.
	</desc>
	<defs>
		<clipPath id="clip2382_351">
			<rect id="Icon/Fabrikant" rx="0.000000" width="23.000000" height="23.000000" transform="translate(0.500000 0.500000)" fill="white" fill-opacity="0"/>
		</clipPath>
	</defs>
	<g clip-path="url(#clip2382_351)">
		<path id="Vector" d="M11.99 5.6C14.49 5.6 16.34 5.97 16.34 5.97L17.33 2.07L14.54 3L11.99 0L9.45 3L6.66 2.07L7.65 5.97C7.65 5.97 9.5 5.6 11.99 5.6ZM15.63 10.81C14.68 10.81 14.24 11.05 14.02 11.99L13.85 12.68L15.63 12.53C16.7 12.44 17.35 11.76 17.35 10.81L15.63 10.81ZM19.39 14.19C19.45 13.58 19.47 12.86 19.48 11.99L23.99 11.62C23.98 13.52 23.71 14.93 23.27 16L19.39 14.19ZM19.47 10.81L23.99 10.81C23.93 8.88 23.62 7.47 23.1 6.44L19.22 8.66C19.34 9.18 19.44 9.88 19.47 10.81ZM18.87 7.53C18.85 7.48 18.84 7.44 18.82 7.4C18.6 6.87 18.28 6.52 17.33 6.24L17.37 6.08L17.94 3.84C19.97 3.92 21.61 4.34 22.67 5.76L18.87 7.53ZM4.51 11.99L-6.11e-5 11.62C0.01 13.52 0.28 14.93 0.72 16L4.6 14.19C4.54 13.58 4.51 12.86 4.51 11.99ZM0.89 6.44L4.77 8.66C4.65 9.18 4.55 9.88 4.52 10.81L0 10.81C0.06 8.88 0.37 7.47 0.89 6.44ZM5.17 7.4C5.39 6.87 5.71 6.52 6.66 6.24L6.62 6.08L6.05 3.84C4.02 3.92 2.38 4.34 1.32 5.76L5.12 7.53C5.14 7.48 5.15 7.44 5.17 7.4ZM12 16.06C13.1 16.06 14 15.97 14.57 15.87C15.29 15.75 15.4 16.32 15.4 16.32L15.56 16.99L15.56 16.99L15.55 17L12.64 18.34L12.64 20.54C13.73 20.6 14.31 20.74 14.55 20.82C14.97 20.96 15.24 21.32 15.24 21.76C15.24 22.31 14.79 22.75 14.25 22.75C13.69 22.75 13.26 22.29 13.26 21.76L10.73 21.76C10.73 22.29 10.3 22.75 9.75 22.75C9.2 22.75 8.76 22.31 8.76 21.76C8.76 21.32 9.02 20.96 9.45 20.82C9.69 20.74 10.26 20.6 11.36 20.54L11.36 18.34L8.44 16.99L8.43 16.99L9.09 14.27C9.13 14.15 9.12 13.88 9.09 13.75L8.79 12.56L8.62 12.55C8.54 12.54 8.45 12.54 8.36 12.53C7.29 12.44 6.64 11.76 6.64 10.81L8.36 10.81C9.31 10.81 9.75 11.05 9.97 11.98L9.97 12L10.33 13.44C10.42 13.77 10.42 14.24 10.34 14.57L10.01 15.95C10.54 16.01 11.22 16.06 12 16.06ZM4.8 15.34L1.08 16.72C1.81 17.96 2.85 18.62 4.02 19.07C4.85 19.38 5.54 19.56 6.19 19.7L6.84 17.4C6.76 17.36 6.67 17.32 6.59 17.29C6.35 17.17 6.14 17.07 6.05 17.02C5.41 16.65 5.03 16.14 4.8 15.34ZM17.38 17.29C17.63 17.18 17.85 17.07 17.94 17.02C18.58 16.65 18.96 16.14 19.19 15.34L22.91 16.72C22.18 17.96 21.14 18.62 19.97 19.07C19.14 19.38 18.45 19.56 17.8 19.7L17.15 17.4C17.23 17.37 17.31 17.33 17.38 17.29Z" fill="#65684C" fill-opacity="1.000000" fill-rule="evenodd"/>
	</g>
</svg>
