<svg width="24" height="24" viewBox="0 0 24 24" fill="none" xmlns="http://www.w3.org/2000/svg">
<path d="M6.25 3.5C6.05109 3.5 5.86032 3.57902 5.71967 3.71967C5.57902 3.86032 5.5 4.05109 5.5 4.25V20.5H7.5V17.75C7.5 17.06 8.06 16.5 8.75 16.5H15.25C15.94 16.5 16.5 17.06 16.5 17.75V20.5H18.5V11.75C18.5 11.5511 18.421 11.3603 18.2803 11.2197C18.1397 11.079 17.9489 11 17.75 11H15.75C15.5511 11 15.3603 10.921 15.2197 10.7803C15.079 10.6397 15 10.4489 15 10.25V4.25C15 4.05109 14.921 3.86032 14.7803 3.71967C14.6397 3.57902 14.4489 3.5 14.25 3.5H6.25ZM9 18V20.5H11.25V18H9ZM12.75 18V20.5H15V18H12.75ZM19.25 22H4.75C4.55109 22 4.36032 21.921 4.21967 21.7803C4.07902 21.6397 4 21.4489 4 21.25V4.25C4 3.65326 4.23705 3.08097 4.65901 2.65901C5.08097 2.23705 5.65326 2 6.25 2H14.25C14.8467 2 15.419 2.23705 15.841 2.65901C16.2629 3.08097 16.5 3.65326 16.5 4.25V9.5H17.75C18.0455 9.5 18.3381 9.5582 18.611 9.67127C18.884 9.78434 19.1321 9.95008 19.341 10.159C19.5499 10.3679 19.7157 10.616 19.8287 10.889C19.9418 11.1619 20 11.4545 20 11.75V21.25C20 21.4489 19.921 21.6397 19.7803 21.7803C19.6397 21.921 19.4489 22 19.25 22ZM7.5 6.5C7.5 6.23478 7.60536 5.98043 7.79289 5.79289C7.98043 5.60536 8.23478 5.5 8.5 5.5C8.76522 5.5 9.01957 5.60536 9.20711 5.79289C9.39464 5.98043 9.5 6.23478 9.5 6.5C9.5 6.76522 9.39464 7.01957 9.20711 7.20711C9.01957 7.39464 8.76522 7.5 8.5 7.5C8.23478 7.5 7.98043 7.39464 7.79289 7.20711C7.60536 7.01957 7.5 6.76522 7.5 6.5ZM8.5 12.5C8.23478 12.5 7.98043 12.6054 7.79289 12.7929C7.60536 12.9804 7.5 13.2348 7.5 13.5C7.5 13.7652 7.60536 14.0196 7.79289 14.2071C7.98043 14.3946 8.23478 14.5 8.5 14.5C8.76522 14.5 9.01957 14.3946 9.20711 14.2071C9.39464 14.0196 9.5 13.7652 9.5 13.5C9.5 13.2348 9.39464 12.9804 9.20711 12.7929C9.01957 12.6054 8.76522 12.5 8.5 12.5ZM8.5 9C8.23478 9 7.98043 9.10536 7.79289 9.29289C7.60536 9.48043 7.5 9.73478 7.5 10C7.5 10.2652 7.60536 10.5196 7.79289 10.7071C7.98043 10.8946 8.23478 11 8.5 11C8.76522 11 9.01957 10.8946 9.20711 10.7071C9.39464 10.5196 9.5 10.2652 9.5 10C9.5 9.73478 9.39464 9.48043 9.20711 9.29289C9.01957 9.10536 8.76522 9 8.5 9ZM12 5.5C11.7348 5.5 11.4804 5.60536 11.2929 5.79289C11.1054 5.98043 11 6.23478 11 6.5C11 6.76522 11.1054 7.01957 11.2929 7.20711C11.4804 7.39464 11.7348 7.5 12 7.5C12.2652 7.5 12.5196 7.39464 12.7071 7.20711C12.8946 7.01957 13 6.76522 13 6.5C13 6.23478 12.8946 5.98043 12.7071 5.79289C12.5196 5.60536 12.2652 5.5 12 5.5ZM12 12.5C11.7348 12.5 11.4804 12.6054 11.2929 12.7929C11.1054 12.9804 11 13.2348 11 13.5C11 13.7652 11.1054 14.0196 11.2929 14.2071C11.4804 14.3946 11.7348 14.5 12 14.5C12.2652 14.5 12.5196 14.3946 12.7071 14.2071C12.8946 14.0196 13 13.7652 13 13.5C13 13.2348 12.8946 12.9804 12.7071 12.7929C12.5196 12.6054 12.2652 12.5 12 12.5ZM15.5 12.5C15.2348 12.5 14.9804 12.6054 14.7929 12.7929C14.6054 12.9804 14.5 13.2348 14.5 13.5C14.5 13.7652 14.6054 14.0196 14.7929 14.2071C14.9804 14.3946 15.2348 14.5 15.5 14.5C15.7652 14.5 16.0196 14.3946 16.2071 14.2071C16.3946 14.0196 16.5 13.7652 16.5 13.5C16.5 13.2348 16.3946 12.9804 16.2071 12.7929C16.0196 12.6054 15.7652 12.5 15.5 12.5ZM12 9C11.7348 9 11.4804 9.10536 11.2929 9.29289C11.1054 9.48043 11 9.73478 11 10C11 10.2652 11.1054 10.5196 11.2929 10.7071C11.4804 10.8946 11.7348 11 12 11C12.2652 11 12.5196 10.8946 12.7071 10.7071C12.8946 10.5196 13 10.2652 13 10C13 9.73478 12.8946 9.48043 12.7071 9.29289C12.5196 9.10536 12.2652 9 12 9Z" fill="black"/>
</svg>
