<svg width="24" height="24" viewBox="0 0 24 24" fill="none" xmlns="http://www.w3.org/2000/svg">
<path d="M20.5 12C20.5 9.74566 19.6045 7.58365 18.0104 5.98959C16.4163 4.39553 14.2543 3.5 12 3.5C9.74566 3.5 7.58365 4.39553 5.98959 5.98959C4.39553 7.58365 3.5 9.74566 3.5 12C3.5 14.2543 4.39553 16.4163 5.98959 18.0104C7.58365 19.6045 9.74566 20.5 12 20.5C14.2543 20.5 16.4163 19.6045 18.0104 18.0104C19.6045 16.4163 20.5 14.2543 20.5 12ZM22 12C22 17.523 17.523 22 12 22C6.477 22 2 17.523 2 12C2 6.477 6.477 2 12 2C17.523 2 22 6.477 22 12ZM7 13.25C7.33152 13.25 7.64946 13.1183 7.88388 12.8839C8.1183 12.6495 8.25 12.3315 8.25 12C8.25 11.6685 8.1183 11.3505 7.88388 11.1161C7.64946 10.8817 7.33152 10.75 7 10.75C6.66848 10.75 6.35054 10.8817 6.11612 11.1161C5.8817 11.3505 5.75 11.6685 5.75 12C5.75 12.3315 5.8817 12.6495 6.11612 12.8839C6.35054 13.1183 6.66848 13.25 7 13.25ZM12 13.25C12.3315 13.25 12.6495 13.1183 12.8839 12.8839C13.1183 12.6495 13.25 12.3315 13.25 12C13.25 11.6685 13.1183 11.3505 12.8839 11.1161C12.6495 10.8817 12.3315 10.75 12 10.75C11.6685 10.75 11.3505 10.8817 11.1161 11.1161C10.8817 11.3505 10.75 11.6685 10.75 12C10.75 12.3315 10.8817 12.6495 11.1161 12.8839C11.3505 13.1183 11.6685 13.25 12 13.25ZM17 13.25C17.3315 13.25 17.6495 13.1183 17.8839 12.8839C18.1183 12.6495 18.25 12.3315 18.25 12C18.25 11.6685 18.1183 11.3505 17.8839 11.1161C17.6495 10.8817 17.3315 10.75 17 10.75C16.6685 10.75 16.3505 10.8817 16.1161 11.1161C15.8817 11.3505 15.75 11.6685 15.75 12C15.75 12.3315 15.8817 12.6495 16.1161 12.8839C16.3505 13.1183 16.6685 13.25 17 13.25Z" fill="#65684C"/>
</svg>
