<svg width="24" height="24" viewBox="0 0 24 24" fill="none" xmlns="http://www.w3.org/2000/svg">
<path fill-rule="evenodd" clip-rule="evenodd" d="M11.9999 2.01758C9.6906 2.01758 7.47586 2.93495 5.84292 4.56789C5.03434 5.37642 4.39293 6.3363 3.95532 7.39272C3.51771 8.44914 3.29248 9.58142 3.29248 10.7249C3.29248 11.8684 3.51771 13.0006 3.95532 14.0571C4.39293 15.1135 5.03434 16.0734 5.84292 16.8819C6.13826 17.1779 6.50559 17.5412 6.94492 17.9719L10.4359 21.3679C10.8555 21.7736 11.4163 22.0004 11.9999 22.0004C12.5836 22.0004 13.1443 21.7736 13.5639 21.3679C14.9599 20.0179 16.0953 18.9139 16.9699 18.0559L18.1569 16.8819C19.7899 15.249 20.7072 13.0342 20.7072 10.7249C20.7072 8.41557 19.7899 6.20083 18.1569 4.56789C16.524 2.93495 14.3092 2.01758 11.9999 2.01758ZM13.1488 8.22742C12.7845 8.07655 12.3942 7.9989 11.9999 7.9989V7.9999C11.2134 8.01426 10.4639 8.3368 9.91272 8.89813C9.36154 9.45945 9.05273 10.2147 9.05273 11.0014C9.05273 11.7881 9.36154 12.5433 9.91272 13.1047C10.4639 13.666 11.2134 13.9885 11.9999 14.0029C12.3942 14.0029 12.7845 13.9253 13.1488 13.7744C13.513 13.6235 13.8439 13.4024 14.1227 13.1236C14.4014 12.8449 14.6226 12.5139 14.7734 12.1497C14.9243 11.7855 15.0019 11.3951 15.0019 11.0009C15.0019 10.6067 14.9243 10.2163 14.7734 9.85209C14.6226 9.48787 14.4014 9.15693 14.1227 8.87817C13.8439 8.59941 13.513 8.37828 13.1488 8.22742Z" fill="black"/>
</svg>
