<svg width="61" height="60" viewBox="0 0 61 60" fill="none" xmlns="http://www.w3.org/2000/svg">
<path d="M36.1666 6H13.6666C12.0098 6 10.6666 7.34315 10.6666 9V51C10.6666 52.6569 12.0098 54 13.6666 54H29.4166M36.1666 6L46.6666 16.5M36.1666 6V13.5C36.1666 15.1569 37.5098 16.5 39.1666 16.5H46.6666M46.6666 16.5V33M17.4166 16.5H30.1666M17.4166 22.5H39.9166M17.4166 28.5H39.9166M17.4166 34.5H24.9166M17.4166 40.5H22.6666M43.9206 46.5719C44.7123 45.232 45.1666 43.6691 45.1666 42C45.1666 37.0294 41.1372 33 36.1666 33C31.1961 33 27.1666 37.0294 27.1666 42C27.1666 46.9706 31.1961 51 36.1666 51C37.8357 51 39.3987 50.5456 40.7386 49.7539M43.9206 46.5719L49.4092 52.0606C50.2879 52.9393 50.2879 54.3639 49.4092 55.2426C48.5306 56.1212 47.1059 56.1212 46.2273 55.2426L40.7386 49.7539M43.9206 46.5719C43.1462 47.8824 42.0491 48.9795 40.7386 49.7539" stroke="white" stroke-width="1.5" stroke-linecap="round" stroke-linejoin="round"/>
</svg>
