<svg width="61" height="60" viewBox="0 0 61 60" fill="none" xmlns="http://www.w3.org/2000/svg">
<path d="M9.56055 49.7671C9.79723 49.917 10.0748 50 10.3633 50H51.428C51.9727 50 52.4747 49.7047 52.7392 49.2285L55.6414 44.0046C55.7717 43.77 55.8344 43.5094 55.8299 43.25M9.56055 49.7671C9.38585 49.6564 9.23342 49.5093 9.11528 49.3321L5.5853 44.0371C5.2647 43.5562 5.24891 42.9339 5.54472 42.4373L25.6243 8.73229C25.7364 8.54416 25.8861 8.38622 26.0605 8.26574M9.56055 49.7671L26.0605 21.4823L29.8916 27.875M35.0605 36.5H42.5605L26.0605 8.26574M35.0605 36.5L29.8916 27.875M35.0605 36.5H24.7974M26.0605 8.26574C26.3072 8.09543 26.6034 8 26.913 8H34.2082C34.7368 8 35.2263 8.2782 35.4968 8.73229L55.6188 42.5084C55.7549 42.7369 55.8254 42.9929 55.8299 43.25M55.8299 43.25H20.8105L24.7974 36.5M29.8916 27.875L24.7974 36.5" stroke="white" stroke-width="1.5" stroke-linecap="round" stroke-linejoin="round"/>
</svg>
