<svg width="60" height="60" viewBox="0 0 60 60" fill="none" xmlns="http://www.w3.org/2000/svg">
<path d="M46.0254 38.7362L40.7221 44.0395M46.0254 38.7362L50.3225 47.3303C50.6448 47.975 49.9609 48.6589 49.3163 48.3365L40.7221 44.0395M46.0254 38.7362L38.6008 31.3116M40.7221 44.0395L33.8278 37.1452M21.6302 14.341L17.9179 10.6287C16.7463 9.45711 14.8468 9.45711 13.6753 10.6287L12.6146 11.6893C11.443 12.8609 11.443 14.7604 12.6146 15.932L16.3269 19.6443M21.6302 14.341L16.3269 19.6443M21.6302 14.341L30.1155 22.8263M16.3269 19.6443L24.2819 27.5992M21.7933 34.4966L47.0272 11.0979C47.9483 10.2438 49.3798 10.2708 50.268 11.159C51.1563 12.0472 51.1833 13.4788 50.3292 14.3999L26.9304 39.6338C25.7737 40.8812 23.8123 40.9182 22.6093 39.7153L21.7118 38.8177C20.5088 37.6148 20.5458 35.6533 21.7933 34.4966ZM22.1606 46.6912C19.4109 49.4409 12.3514 50.5888 9.33327 49.4025C8.83215 49.2056 8.93079 48.5868 9.39858 48.3202C13.5514 45.9533 12.8295 41.1729 14.7359 39.2665C16.7862 37.2163 20.1103 37.2163 22.1606 39.2665C24.2108 41.3168 24.2108 44.6409 22.1606 46.6912Z" stroke="white" stroke-width="1.5" stroke-linecap="round" stroke-linejoin="round"/>
</svg>
