<svg width="32.000000" height="32.000000" viewBox="0 0 32 32" fill="none" xmlns="http://www.w3.org/2000/svg" xmlns:xlink="http://www.w3.org/1999/xlink">
	<desc>
			Created with Pixso.
	</desc>
	<defs>
		<clipPath id="clip2_1127">
			<rect id="Icon/Telegram" rx="0.000000" width="30.666666" height="30.666666" transform="translate(0.666667 0.666667)" fill="white" fill-opacity="0"/>
		</clipPath>
	</defs>
	<g clip-path="url(#clip2_1127)">
		<path id="Vector" d="M16 2.66C12.46 2.66 9.07 4.07 6.57 6.57C4.07 9.07 2.66 12.46 2.66 16C2.66 19.53 4.07 22.92 6.57 25.42C9.07 27.92 12.46 29.33 16 29.33C19.53 29.33 22.92 27.92 25.42 25.42C27.92 22.92 29.33 19.53 29.33 16C29.33 12.46 27.92 9.07 25.42 6.57C22.92 4.07 19.53 2.66 16 2.66Z" fill="#141414" fill-opacity="1.000000" fill-rule="nonzero"/>
		<path id="Vector" d="M8.7 15.85C12.58 14.16 15.18 13.04 16.47 12.51C20.18 10.96 20.95 10.7 21.45 10.69C21.56 10.69 21.8 10.71 21.96 10.84C22.1 10.95 22.13 11.1 22.15 11.2C22.17 11.31 22.19 11.54 22.17 11.73C21.97 13.84 21.11 18.95 20.66 21.32C20.48 22.31 20.11 22.65 19.75 22.68C18.98 22.75 18.39 22.17 17.64 21.68C16.47 20.91 15.81 20.43 14.67 19.68C13.35 18.81 14.2 18.34 14.95 17.56C15.15 17.35 18.56 14.25 18.63 13.97C18.63 13.93 18.64 13.8 18.56 13.73C18.49 13.66 18.37 13.69 18.29 13.71C18.17 13.73 16.3 14.97 12.66 17.42C12.13 17.79 11.65 17.97 11.22 17.96C10.74 17.95 9.83 17.69 9.14 17.47C8.31 17.2 7.65 17.05 7.71 16.59C7.73 16.35 8.07 16.11 8.7 15.85Z" fill="#FFFFFF" fill-opacity="1.000000" fill-rule="nonzero"/>
	</g>
</svg>
