<svg width="32.000000" height="32.000000" viewBox="0 0 32 32" fill="none" xmlns="http://www.w3.org/2000/svg" xmlns:xlink="http://www.w3.org/1999/xlink">
	<desc>
			Created with Pixso.
	</desc>
	<defs>
		<clipPath id="clip2_1130">
			<rect id="Icon/VK" rx="0.000000" width="30.666666" height="30.666666" transform="translate(0.666667 0.666667)" fill="white" fill-opacity="0"/>
		</clipPath>
	</defs>
	<g clip-path="url(#clip2_1130)">
		<path id="Vector" d="M15.44 29.33L16.55 29.33C22.59 29.33 25.61 29.33 27.47 27.46C29.33 25.6 29.33 22.57 29.33 16.55L29.33 15.42C29.33 9.42 29.33 6.4 27.47 4.53C25.61 2.66 22.58 2.66 16.55 2.66L15.44 2.66C9.39 2.66 6.38 2.66 4.52 4.53C2.66 6.4 2.66 9.42 2.66 15.44L2.66 16.57C2.66 22.57 2.66 25.6 4.53 27.46C6.39 29.33 9.42 29.33 15.44 29.33Z" fill="#141414" fill-opacity="1.000000" fill-rule="nonzero"/>
		<path id="Vector" d="M16.85 21.87C10.77 21.87 7.31 17.71 7.16 10.77L10.21 10.77C10.31 15.86 12.55 18.02 14.33 18.46L14.33 10.77L17.2 10.77L17.2 15.16C18.95 14.97 20.8 12.97 21.42 10.77L24.28 10.77C24.05 11.91 23.58 12.99 22.91 13.95C22.24 14.9 21.38 15.7 20.38 16.31C21.5 16.86 22.48 17.64 23.26 18.6C24.05 19.56 24.63 20.67 24.95 21.87L21.8 21.87C21.5 20.83 20.91 19.9 20.09 19.2C19.28 18.49 18.27 18.04 17.2 17.91L17.2 21.87L16.85 21.87Z" fill="#FFFFFF" fill-opacity="1.000000" fill-rule="nonzero"/>
	</g>
</svg>
