<svg width="40" height="40" viewBox="0 0 40 40" fill="none" xmlns="http://www.w3.org/2000/svg">
<path fill-rule="evenodd" clip-rule="evenodd" d="M8 1C6.34315 1 5 2.34315 5 4V36C5 37.6569 6.34315 39 8 39H32C33.6569 39 35 37.6569 35 36V10.5858L25.4142 1H8ZM7 4C7 3.44772 7.44772 3 8 3H24V9C24 10.6569 25.3431 12 27 12H33V36C33 36.5523 32.5523 37 32 37H8C7.44772 37 7 36.5523 7 36V4ZM31.5858 10L26 4.41421V9C26 9.55229 26.4477 10 27 10H31.5858ZM16.4376 19.7263C15.8146 19.6237 15.2525 19.4964 14.7661 19.3515C15.4079 18.6294 16.1964 18.0413 17.0847 17.6339C17.0353 17.7511 16.9879 17.8706 16.9424 17.992C16.7459 18.5158 16.5765 19.0983 16.4376 19.7263ZM12.3326 19.285C13.9153 16.7161 16.7568 15 20 15C23.2432 15 26.0847 16.7161 27.6674 19.285C28.5126 20.6568 29 22.273 29 24C29 25.727 28.5126 27.3432 27.6674 28.715C26.0847 31.2839 23.2432 33 20 33C16.7568 33 13.9153 31.2839 12.3326 28.715C11.4874 27.3432 11 25.727 11 24C11 22.273 11.4874 20.6568 12.3326 19.285ZM19.5805 17.2921C19.8304 17.0102 19.9745 17 20 17C20.0255 17 20.1696 17.0102 20.4195 17.2921C20.6683 17.5728 20.9381 18.036 21.185 18.6943C21.3255 19.0691 21.4524 19.4903 21.5619 19.9504C21.0617 19.9827 20.5395 20 20 20C19.4605 20 18.9383 19.9827 18.4381 19.9504C18.5476 19.4903 18.6745 19.0691 18.815 18.6943C19.0619 18.036 19.3317 17.5728 19.5805 17.2921ZM23.0576 17.992C23.2541 18.5158 23.4235 19.0983 23.5624 19.7263C24.1854 19.6237 24.7475 19.4964 25.2339 19.3515C24.5921 18.6294 23.8036 18.0413 22.9153 17.6339C22.9647 17.7511 23.0121 17.8706 23.0576 17.992ZM20 22C20.6458 22 21.28 21.9769 21.8936 21.9323C21.9625 22.5847 22 23.2781 22 24C22 24.7219 21.9625 25.4153 21.8936 26.0677C21.28 26.0231 20.6458 26 20 26C19.3542 26 18.72 26.0231 18.1064 26.0677C18.0375 25.4153 18 24.7219 18 24C18 23.2781 18.0375 22.5847 18.1064 21.9323C18.72 21.9769 19.3542 22 20 22ZM24 24C24 24.7919 23.9587 25.5632 23.8802 26.2991C24.8084 26.4516 25.651 26.6594 26.3661 26.9154C26.7731 26.0285 27 25.0417 27 24C27 22.9583 26.7731 21.9715 26.3661 21.0846C25.651 21.3406 24.8084 21.5484 23.8802 21.7009C23.9587 22.4368 24 23.2081 24 24ZM20 28C20.5395 28 21.0617 28.0173 21.5619 28.0496C21.4524 28.5097 21.3255 28.9309 21.185 29.3057C20.9381 29.964 20.6683 30.4272 20.4195 30.7079C20.1696 30.9898 20.0255 31 20 31C19.9745 31 19.8304 30.9898 19.5805 30.7079C19.3317 30.4272 19.0619 29.964 18.815 29.3057C18.6745 28.9309 18.5476 28.5097 18.4381 28.0496C18.9383 28.0173 19.4605 28 20 28ZM23.0576 30.008C23.0121 30.1294 22.9647 30.2489 22.9153 30.3661C23.8036 29.9587 24.5921 29.3706 25.2339 28.6485C24.7475 28.5036 24.1854 28.3763 23.5624 28.2737C23.4235 28.9017 23.2541 29.4842 23.0576 30.008ZM16.9424 30.008C16.9879 30.1294 17.0353 30.2489 17.0847 30.3661C16.1964 29.9587 15.4079 29.3706 14.7661 28.6485C15.2525 28.5036 15.8146 28.3763 16.4376 28.2737C16.5765 28.9017 16.7459 29.4842 16.9424 30.008ZM16.1198 26.2991C15.1916 26.4516 14.349 26.6594 13.6339 26.9154C13.2269 26.0285 13 25.0417 13 24C13 22.9583 13.2269 21.9715 13.6339 21.0846C14.349 21.3406 15.1916 21.5484 16.1198 21.7009C16.0413 22.4368 16 23.2081 16 24C16 24.7919 16.0413 25.5632 16.1198 26.2991Z" fill="#65684C"/>
</svg>
