<svg width="32.000000" height="32.000000" viewBox="0 0 32 32" fill="none" xmlns="http://www.w3.org/2000/svg" xmlns:xlink="http://www.w3.org/1999/xlink">
	<desc>
			Created with Pixso.
	</desc>
	<defs>
		<clipPath id="clip2_1186">
			<rect id="Icon/Whatsapp" rx="0.000000" width="30.666666" height="30.666666" transform="translate(0.666667 0.666667)" fill="white" fill-opacity="0"/>
		</clipPath>
	</defs>
	<g clip-path="url(#clip2_1186)">
		<path id="Vector" d="M16 2.66C12.46 2.66 9.07 4.07 6.57 6.57C4.07 9.07 2.66 12.46 2.66 16C2.66 19.53 4.07 22.92 6.57 25.42C9.07 27.92 12.46 29.33 16 29.33C19.53 29.33 22.92 27.92 25.42 25.42C27.92 22.92 29.33 19.53 29.33 16C29.33 12.46 27.92 9.07 25.42 6.57C22.92 4.07 19.53 2.66 16 2.66Z" fill="#FFFFFF" fill-opacity="1.000000" fill-rule="nonzero"/>
		<path id="Union" d="M22.49 9.3C24.22 10.97 25.23 13.25 25.32 15.65C25.37 16.89 25.17 18.11 24.74 19.27C24.31 20.42 23.65 21.48 22.81 22.38C21.97 23.28 20.95 24 19.83 24.51C18.71 25.02 17.49 25.29 16.26 25.33L16 25.33C14.6 25.33 13.21 25.02 11.95 24.41L7.07 25.5L7.05 25.5C7.04 25.5 7.03 25.49 7.02 25.49C7.01 25.48 7 25.48 7 25.47C6.99 25.46 6.99 25.45 6.98 25.44C6.98 25.43 6.98 25.42 6.98 25.41L7.81 20.47C7.03 19.05 6.63 17.45 6.66 15.83C6.69 14.21 7.14 12.63 7.97 11.23C8.8 9.84 9.97 8.68 11.38 7.88C12.79 7.08 14.38 6.66 16 6.66L16.05 6.66C18.46 6.68 20.76 7.62 22.49 9.3ZM16 23.71L16.22 23.71L16.22 23.71C18.25 23.65 20.16 22.79 21.56 21.33C22.96 19.87 23.73 17.91 23.7 15.89C23.67 13.87 22.85 11.94 21.41 10.51C19.97 9.09 18.03 8.29 16.01 8.28L15.78 8.28C14.44 8.32 13.14 8.71 11.99 9.41C10.85 10.1 9.9 11.09 9.25 12.26C8.6 13.43 8.27 14.75 8.29 16.09C8.3 17.43 8.67 18.75 9.35 19.9L9.49 20.14L8.88 23.49L12.19 22.71L12.44 22.84C13.54 23.41 14.76 23.71 16 23.71ZM12.42 11.56C12.52 11.52 12.64 11.49 12.75 11.49L12.75 11.49L12.77 11.49C12.93 11.49 13.08 11.5 13.22 11.51L13.22 11.51C13.39 11.52 13.57 11.53 13.73 11.93C13.85 12.21 14.03 12.71 14.18 13.11C14.29 13.41 14.38 13.65 14.4 13.7C14.44 13.76 14.46 13.83 14.46 13.9C14.46 13.97 14.44 14.04 14.41 14.11C14.35 14.24 14.26 14.37 14.16 14.49C14.12 14.53 14.09 14.57 14.05 14.62C13.96 14.71 13.88 14.81 13.8 14.89C13.68 15 13.55 15.12 13.68 15.36C14.01 15.97 14.44 16.53 14.93 17.03C15.47 17.55 16.09 17.96 16.78 18.26C16.86 18.3 16.95 18.32 17.04 18.33C17.08 18.32 17.13 18.31 17.18 18.29C17.22 18.27 17.26 18.24 17.29 18.21C17.44 18.06 17.87 17.55 18.06 17.31C18.09 17.26 18.13 17.22 18.18 17.19C18.23 17.16 18.28 17.15 18.34 17.14C18.43 17.15 18.51 17.17 18.59 17.21C18.77 17.28 19.58 17.71 19.98 17.92C20.06 17.97 20.13 18 20.17 18.02C20.2 18.04 20.23 18.06 20.26 18.07C20.44 18.16 20.56 18.22 20.61 18.31C20.66 18.4 20.65 18.87 20.44 19.41C20.23 19.96 19.25 20.45 18.82 20.48C18.78 20.48 18.74 20.49 18.7 20.49C18.61 20.5 18.52 20.51 18.41 20.51C18.02 20.51 17.41 20.4 16.03 19.81C13.86 18.87 12.48 16.68 12.19 16.22C12.16 16.19 12.15 16.16 12.14 16.15L12.14 16.15C12.02 15.98 11.22 14.84 11.26 13.69C11.29 12.61 11.84 12.06 12.09 11.81C12.11 11.79 12.12 11.78 12.14 11.76C12.22 11.68 12.31 11.61 12.42 11.56Z" fill="#141414" fill-opacity="1.000000" fill-rule="evenodd"/>
	</g>
</svg>
