<svg width="40" height="40" viewBox="0 0 40 40" fill="none" xmlns="http://www.w3.org/2000/svg">
<path d="M25 2H8C6.89543 2 6 2.89543 6 4V36C6 37.1046 6.89543 38 8 38H32C33.1046 38 34 37.1046 34 36V11M25 2L34 11M25 2V9C25 10.1046 25.8954 11 27 11H34M13 25.5L10.5 21M13 25.5L10.5 30M13 25.5L15.5 21M13 25.5L15.5 30M19 21V29H23M29 22H26.75C25.7835 22 25 22.7835 25 23.75C25 24.7165 25.7835 25.5 26.75 25.5H27.25C28.2165 25.5 29 26.2835 29 27.25C29 28.2165 28.2165 29 27.25 29H24.5" stroke="#65684C" stroke-width="2"/>
</svg>
