<svg width="32.000000" height="32.000000" viewBox="0 0 32 32" fill="none" xmlns="http://www.w3.org/2000/svg" xmlns:xlink="http://www.w3.org/1999/xlink">
	<desc>
			Created with Pixso.
	</desc>
	<defs>
		<clipPath id="clip2_1133">
			<rect id="Icon/Zen" rx="0.000000" width="30.666666" height="30.666666" transform="translate(0.666667 0.666667)" fill="white" fill-opacity="0"/>
		</clipPath>
	</defs>
	<g clip-path="url(#clip2_1133)">
		<path id="Vector" d="M15.94 29.33L16.05 29.33C21.34 29.33 24.42 28.8 26.59 26.68C28.81 24.44 29.33 21.34 29.33 16.07L29.33 15.92C29.33 10.65 28.81 7.57 26.59 5.31C24.42 3.19 21.32 2.66 16.05 2.66L15.94 2.66C10.65 2.66 7.57 3.19 5.39 5.31C3.18 7.55 2.66 10.65 2.66 15.92L2.66 16.07C2.66 21.34 3.17 24.42 5.39 26.68C7.55 28.8 10.65 29.33 15.94 29.33Z" fill="#141414" fill-opacity="1.000000" fill-rule="nonzero"/>
		<path id="Vector" d="M26.15 15.79C26.15 15.74 26.13 15.7 26.1 15.66C26.07 15.63 26.02 15.61 25.97 15.6C22.33 15.46 20.11 15 18.55 13.45C17 11.89 16.54 9.67 16.4 6.02C16.4 5.97 16.38 5.92 16.34 5.89C16.3 5.85 16.26 5.84 16.21 5.84L15.78 5.84C15.73 5.84 15.69 5.86 15.65 5.89C15.62 5.92 15.59 5.97 15.59 6.02C15.45 9.67 14.99 11.89 13.43 13.45C11.88 15 9.66 15.46 6.02 15.6C5.97 15.6 5.92 15.63 5.89 15.66C5.85 15.7 5.84 15.74 5.84 15.79L5.84 16.22C5.84 16.32 5.92 16.4 6.02 16.41C9.66 16.55 11.88 17.01 13.43 18.56C14.99 20.12 15.45 22.33 15.59 25.97C15.59 26.02 15.61 26.07 15.65 26.1C15.68 26.13 15.73 26.15 15.78 26.15L16.21 26.15C16.26 26.15 16.3 26.13 16.34 26.1C16.37 26.06 16.4 26.02 16.4 25.97C16.54 22.33 17 20.12 18.55 18.56C20.11 17.01 22.32 16.55 25.97 16.41C26.02 16.41 26.07 16.39 26.1 16.35C26.13 16.32 26.15 16.27 26.15 16.22L26.15 15.79Z" fill="#FFFFFF" fill-opacity="1.000000" fill-rule="nonzero"/>
	</g>
</svg>
