<svg width="86.286499" height="39.999996" viewBox="0 0 86.2865 40" fill="none" xmlns="http://www.w3.org/2000/svg" xmlns:xlink="http://www.w3.org/1999/xlink">
	<desc>
			Created with Pixso.
	</desc>
	<defs/>
	<path id="Vector" d="M85.44 17.4C85.27 17.42 84.89 17.42 84.39 17.42C84.27 19.71 84.15 21.7 84.06 22.9C84.04 25.95 83.9 33.2 84.06 35.42C84.22 37.63 84.34 40 84.34 40C84.34 40 82.86 39.98 82.4 35.11C81.94 30.24 81.08 23.98 81.02 18.32C81.01 18.02 81.01 17.72 81.01 17.42C79.78 17.41 78.56 17.4 77.7 17.4C77.15 17.44 76.6 17.48 76.05 17.53C76.03 20.15 75.86 22.53 75.76 24.12C75.6 26.81 74.93 32.67 74.93 32.67C74.93 32.67 74.9 33.66 74.38 33.58C73.86 33.51 73.92 32.72 73.83 28.39C73.77 25.77 73.57 21.35 73.37 17.89C72.02 18.13 70.69 18.48 69.4 18.93C68.85 19.08 68.09 19.61 68.02 19.24C67.95 18.86 67.85 18.56 68.3 18.32C68.74 18.08 68.85 17.61 70.79 17.1C71.45 16.81 72.32 16.55 73.27 16.32C73.17 14.82 73.07 13.65 73 13.13C72.78 11.27 72.74 10.51 71.89 9.16C71.49 8.72 71.16 8.41 72.17 8.25C72.9 8.15 74.62 7.71 75.76 11.91C75.92 13.18 76 14.48 76.03 15.77C77.83 15.47 79.42 15.29 79.91 15.27C80.13 15.26 80.51 15.22 80.97 15.17C80.9 10.64 80.8 6.5 81.02 4.89C81.27 2.95 81.26 0.18 81.55 0.01C81.68 0.01 81.86 0.01 82.12 0C83.82 -0.03 85.21 0.86 85.17 1.53C85.14 1.96 84.83 8.75 84.53 14.77C85.07 14.7 85.44 14.66 85.44 14.66C85.44 14.66 86.23 14.99 86.27 15.88C86.32 16.76 86.22 17.35 85.44 17.4L85.44 17.4ZM81.57 0C81.56 0 81.55 0.01 81.55 0.01C80.83 0.02 81.84 -0.02 81.57 0ZM64.72 25.89C63.45 29.92 61.5 32.03 60.14 32.24C58.27 32.53 54.47 32.81 53.27 27.05C52.07 21.28 51.65 14.26 54.99 9.15C57.01 6.32 58.54 4.43 60.14 4.53C60.88 4.48 60.97 5.66 61.86 5.69L62.43 3.96C62.43 3.96 62.42 3.21 63 3.38C63.58 3.55 64.02 3.37 63.57 4.53C63.13 5.7 62.73 8.44 63 12.04C63.16 12.84 61.83 12.66 61.86 12.62C61.88 12.58 60.41 12.75 60.71 11.46C60.71 10 61.28 8 61.28 8C61.28 8 59.37 7.32 57.85 12.62C56.33 17.91 54.29 31.07 58.42 31.66C60.55 31.78 63.18 26.29 65.29 20.12C65.49 19.29 66.43 19.54 66.43 19.54C65.91 21.34 65.38 23.29 65.01 24.84C64.93 25.17 64.83 25.53 64.72 25.89L64.72 25.89ZM48.83 21.94C48.34 22.01 47.41 22.42 46.5 22.97C45.78 23.41 45.14 23.96 44.6 24.61C44.82 24.88 45.05 25.14 45.29 25.39C45.85 25.95 46.35 26.34 46.24 26.6C46.22 26.64 46.18 26.69 46.13 26.72C46.09 26.75 46.04 26.76 45.98 26.77C45.89 26.77 45.8 26.74 45.72 26.68C45.45 26.48 44.54 25.69 44 25.21C43.48 25.8 42.91 26.42 42.36 27.03C41.89 27.54 41.02 28.42 39.86 29.01C38.49 29.71 37.46 29.67 37.04 29.45C36.75 29.29 36.29 28.82 36.01 27.98C35.66 26.95 35.64 25.63 36.23 24.01C36.89 22.19 38.19 20.69 39.86 19.61C39.38 18.76 39.16 17.84 39.25 16.93C39.5 14.52 41.89 12.89 43.91 12.62C44.43 12.55 46.34 12.36 46.94 13.39C47.09 13.68 47.18 14 47.2 14.33C47.21 14.5 47.21 14.68 47.2 14.85C47.13 15.54 46.03 17.31 43.74 18.83C42.99 19.33 42.25 19.81 41.5 20.3C42.1 21.65 42.95 22.88 44 23.92C44.87 22.92 45.88 22.19 47.01 21.74C47.86 21.41 48.98 21.15 49.35 21.51C49.42 21.57 49.44 21.63 49.43 21.68C49.41 21.86 48.95 21.92 48.83 21.94L48.83 21.94ZM46.41 13.82C46.29 13.37 45.82 13.13 45.64 13.05C43.91 12.33 41.08 15.15 40.72 17.02C40.66 17.42 40.66 17.82 40.72 18.23C40.75 18.49 40.81 18.75 40.89 19C40.98 18.94 41.06 18.89 41.15 18.83C44.74 16.42 46.65 14.73 46.41 13.82ZM41.75 22.71C41.32 22.17 40.91 21.6 40.54 21.01C39.79 21.63 39.13 22.35 38.56 23.14C37.42 24.74 37.07 26.18 37.07 27.07C37.08 28.19 37.29 28.82 37.7 29.01C38.27 29.29 39.34 28.55 40.98 26.94C41.79 26.15 42.56 25.32 43.31 24.44C42.76 23.89 42.24 23.32 41.75 22.71L41.75 22.71ZM32.92 17.4C32.75 17.42 32.37 17.42 31.87 17.42C31.74 19.71 31.63 21.7 31.54 22.9C31.52 25.95 31.38 33.2 31.54 35.42C31.7 37.63 31.81 40 31.81 40C31.81 40 30.34 39.98 29.88 35.11C29.42 30.24 28.56 23.98 28.5 18.32C28.49 18.02 28.49 17.72 28.48 17.42C27.26 17.41 26.04 17.4 25.18 17.4C24.63 17.44 24.08 17.48 23.53 17.53C23.51 20.15 23.34 22.53 23.24 24.12C23.08 26.81 22.41 32.67 22.41 32.67C22.41 32.67 22.38 33.66 21.86 33.58C21.34 33.51 21.4 32.72 21.31 28.39C21.25 25.77 21.05 21.35 20.85 17.89C19.5 18.13 18.17 18.48 16.88 18.93C16.32 19.08 15.56 19.61 15.5 19.24C15.43 18.86 15.33 18.56 15.77 18.32C16.22 18.08 16.32 17.61 18.26 17.1C18.92 16.81 19.8 16.55 20.75 16.32C20.65 14.82 20.55 13.65 20.48 13.13C20.26 11.27 20.21 10.51 19.37 9.16C18.97 8.72 18.64 8.41 19.65 8.25C20.38 8.15 22.1 7.71 23.24 11.91C23.4 13.18 23.48 14.48 23.51 15.77C25.3 15.47 26.9 15.29 27.39 15.27C27.61 15.26 27.99 15.22 28.45 15.17C28.37 10.64 28.28 6.5 28.5 4.89C28.75 2.95 28.74 0.18 29.02 0.01C29.15 0.01 29.34 0.01 29.6 0C31.3 -0.03 32.69 0.86 32.64 1.53C32.62 1.96 32.31 8.75 32 14.77C32.55 14.7 32.92 14.66 32.92 14.66C32.92 14.66 33.7 14.99 33.75 15.88C33.8 16.76 33.7 17.35 32.92 17.4L32.92 17.4ZM29.05 0C29.04 0 29.03 0.01 29.03 0.01C28.31 0.02 29.31 -0.02 29.05 0ZM12.36 25.69C11.08 29.7 9.11 31.82 7.77 32.02C5.89 32.31 2.08 32.59 0.88 26.84C-0.33 21.1 -0.75 14.1 2.6 9.01C4.63 6.19 6.17 4.3 7.77 4.41C8.51 4.35 8.6 5.53 9.49 5.56L10.06 3.83C10.06 3.83 10.06 3.09 10.64 3.26C11.22 3.42 11.66 3.24 11.21 4.41C10.77 5.57 10.36 8.3 10.64 11.89C10.8 12.68 9.47 12.5 9.49 12.46C9.51 12.42 8.04 12.59 8.34 11.31C8.34 9.85 8.92 7.86 8.92 7.86C8.92 7.86 7 7.18 5.47 12.46C3.95 17.74 1.9 30.86 6.04 31.45C8.18 31.56 10.82 26.09 12.93 19.94C13.14 19.11 14.08 19.37 14.08 19.37C13.57 21.11 13.06 22.94 12.7 24.47C12.61 24.85 12.5 25.27 12.36 25.69Z" fill="#141414" fill-opacity="1.000000" fill-rule="evenodd"/>
</svg>
