<svg width="87" height="40" viewBox="0 0 87 40" fill="none" xmlns="http://www.w3.org/2000/svg">
    <g clip-path="url(#03ybo7voha)">
        <path fill-rule="evenodd" clip-rule="evenodd" d="M85.447 17.409c-.175.011-.551.017-1.054.02a299.17 299.17 0 0 1-.328 5.475c-.022 3.052-.159 10.305 0 12.517.159 2.211.276 4.579.276 4.579s-1.472-.016-1.936-4.885c-.463-4.868-1.318-11.128-1.383-16.79a274.87 274.87 0 0 0-.011-.905c-1.227-.006-2.45-.013-3.307-.011-.545.034-1.095.075-1.651.127-.015 2.616-.19 5.004-.285 6.59-.16 2.693-.83 8.547-.83 8.547s-.034.995-.553.916c-.518-.078-.463-.864-.553-5.19-.054-2.627-.255-7.046-.46-10.505a25.43 25.43 0 0 0-3.965 1.041c-.557.154-1.317.681-1.382.306-.066-.376-.171-.675.276-.916.448-.241.55-.707 2.49-1.221.66-.29 1.535-.55 2.482-.778-.1-1.501-.195-2.671-.27-3.191-.216-1.864-.263-2.621-1.106-3.969-.401-.446-.734-.749.276-.915.73-.098 2.45-.536 3.595 3.663.156 1.267.236 2.575.269 3.859 1.794-.302 3.388-.477 3.88-.5.215-.011.596-.046 1.06-.093-.077-4.537-.17-8.672.045-10.288.257-1.932.242-4.703.53-4.875.129-.001.315-.004.576-.01 1.698-.032 3.088.855 3.043 1.527-.03.432-.334 7.217-.64 13.24l.916-.113s.783.338.83 1.221c.046.883-.055 1.477-.83 1.526v.001zM81.576.008a.059.059 0 0 0-.024.01c-.714.006.288-.034.024-.01zM64.72 25.898c-1.265 4.025-3.216 6.141-4.578 6.348-1.87.285-5.665.574-6.867-5.194s-1.618-12.784 1.717-17.895c2.023-2.828 3.554-4.72 5.15-4.618.738-.054.833 1.129 1.717 1.155l.572-1.732s-.006-.745.573-.577c.578.167 1.017-.014.572 1.154-.445 1.169-.846 3.908-.572 7.504.158.798-1.168.618-1.145.578.023-.041-1.444.133-1.144-1.155-.002-1.464.572-3.463.572-3.463s-1.914-.68-3.434 4.618c-1.519 5.297-3.561 18.459.572 19.048 2.127.113 4.76-5.378 6.867-11.545.2-.833 1.145-.577 1.145-.577-.52 1.799-1.055 3.745-1.424 5.3-.078.326-.179.688-.293 1.05zM48.835 21.94c-.486.073-1.42.486-2.33 1.035-.72.437-1.362.991-1.899 1.64.217.27.448.53.69.776.557.564 1.054.95.95 1.209a.322.322 0 0 1-.259.172.379.379 0 0 1-.259-.086c-.275-.2-1.183-.99-1.726-1.467-.52.581-1.087 1.207-1.64 1.812-.472.518-1.337 1.389-2.502 1.985-1.363.697-2.395.662-2.815.438-.295-.157-.753-.626-1.035-1.467-.347-1.034-.365-2.348.226-3.976.661-1.817 1.96-3.32 3.625-4.4-.473-.847-.698-1.763-.604-2.676.248-2.416 2.636-4.037 4.66-4.314.518-.071 2.43-.255 3.025.771.152.294.241.616.263.945.012.172.01.344-.003.515-.07.695-1.172 2.46-3.458 3.982-.749.498-1.49.982-2.244 1.467a12.11 12.11 0 0 0 2.502 3.624c.875-.997 1.885-1.736 3.01-2.179.853-.335 1.977-.59 2.34-.237.07.068.095.125.087.173-.028.177-.483.24-.604.258zm-2.416-8.112c-.12-.458-.59-.699-.777-.776-1.722-.714-4.553 2.106-4.919 3.97a4.23 4.23 0 0 0 0 1.207c.035.264.093.523.173.777l.259-.173c3.593-2.406 5.5-4.094 5.264-5.005zm-4.66 8.888a19.585 19.585 0 0 1-1.218-1.706 11.646 11.646 0 0 0-1.975 2.138c-1.137 1.595-1.496 3.037-1.49 3.929.008 1.12.216 1.743.627 1.939.577.275 1.64-.465 3.28-2.071a37.304 37.304 0 0 0 2.329-2.503 19.586 19.586 0 0 1-1.553-1.726zm-8.833-5.308c-.175.011-.552.017-1.055.02a294.87 294.87 0 0 1-.328 5.475c-.021 3.052-.159 10.305 0 12.517.159 2.211.277 4.579.277 4.579s-1.473-.016-1.936-4.885c-.464-4.868-1.319-11.128-1.383-16.79l-.011-.905c-1.227-.006-2.45-.013-3.307-.011-.546.034-1.096.075-1.651.127-.016 2.616-.19 5.004-.285 6.59-.161 2.693-.83 8.547-.83 8.547s-.034.995-.553.916c-.519-.078-.463-.864-.553-5.19-.055-2.627-.255-7.046-.461-10.505-1.347.24-2.673.588-3.964 1.041-.558.154-1.317.681-1.382.306-.066-.376-.171-.675.276-.916.447-.241.549-.707 2.488-1.221.662-.29 1.536-.55 2.483-.778-.1-1.501-.195-2.671-.27-3.191-.216-1.864-.263-2.621-1.106-3.969-.4-.446-.734-.749.276-.915.73-.098 2.45-.536 3.595 3.663.156 1.267.237 2.575.269 3.859 1.794-.302 3.388-.477 3.88-.5.216-.011.596-.046 1.06-.093-.077-4.537-.17-8.672.046-10.288.256-1.932.242-4.703.528-4.875.13-.001.316-.004.578-.01 1.697-.032 3.087.855 3.042 1.527-.03.432-.334 7.217-.64 13.24l.916-.113s.783.338.83 1.221c.047.883-.055 1.477-.83 1.526v.001zM29.054.008a.058.058 0 0 0-.024.01c-.713.006.289-.034.024-.01zm-16.688 25.69c-1.282 4.008-3.253 6.127-4.594 6.33-1.877.283-5.684.57-6.89-5.178C-.324 21.1-.742 14.108 2.605 9.014 4.635 6.196 6.17 4.31 7.772 4.411c.741-.054.836 1.125 1.723 1.151l.574-1.726s-.007-.742.574-.575c.58.167 1.021-.014.574 1.15-.447 1.165-.848 3.895-.574 7.48.16.795-1.172.616-1.148.575.023-.04-1.449.133-1.149-1.15 0-1.46.575-3.452.575-3.452S7 7.186 5.476 12.466c-1.525 5.28-3.574 18.399.574 18.986 2.134.113 4.775-5.36 6.89-11.507.2-.83 1.148-.575 1.148-.575-.516 1.74-1.02 3.572-1.381 5.11-.089.377-.206.796-.341 1.219z" fill="#fff"/>
    </g>
    <defs>
        <clipPath id="03ybo7voha">
            <path fill="#fff" d="M0 0h86.286v40H0z"/>
        </clipPath>
    </defs>
</svg>
